<svg width="79" height="78" viewBox="0 0 79 78" fill="none" xmlns="http://www.w3.org/2000/svg">
<rect x="0.5" width="78" height="78" rx="39" fill="#105CE2" fill-opacity="0.2"/>
<rect x="8" y="8" width="63" height="63" rx="31.5" fill="#105CE2"/>
<path opacity="0.3" fill-rule="evenodd" clip-rule="evenodd" d="M37.8503 27.9499C38.2633 27.5375 38.8159 27.2948 39.399 27.2697C39.9821 27.2447 40.5535 27.4391 41.0003 27.8146L41.1496 27.9511L43.3663 30.1666H46.5C47.0884 30.1667 47.6551 30.3892 48.0865 30.7894C48.5179 31.1896 48.7822 31.7381 48.8263 32.3249L48.8333 32.4999V35.6336L51.05 37.8503C51.4627 38.2633 51.7056 38.8161 51.7307 39.3995C51.7557 39.9829 51.5611 40.5545 51.1853 41.0014L51.0488 41.1496L48.8321 43.3663V46.4999C48.8323 47.0886 48.61 47.6556 48.2097 48.0872C47.8094 48.5189 47.2608 48.7833 46.6738 48.8274L46.5 48.8333H43.3675L41.1508 51.0499C40.7378 51.4627 40.1849 51.7056 39.6015 51.7306C39.0181 51.7557 38.4465 51.5611 37.9996 51.1853L37.8515 51.0499L35.6348 48.8333H32.5C31.9113 48.8334 31.3443 48.6111 30.9127 48.2108C30.481 47.8106 30.2166 47.2619 30.1725 46.6749L30.1666 46.4999V43.3663L27.95 41.1496C27.5372 40.7365 27.2943 40.1837 27.2692 39.6003C27.2442 39.0169 27.4388 38.4453 27.8146 37.9984L27.95 37.8503L30.1666 35.6336V32.4999C30.1667 31.9114 30.3892 31.3448 30.7894 30.9134C31.1897 30.482 31.7382 30.2177 32.325 30.1736L32.5 30.1666H35.6336L37.8503 27.9499Z" fill="white"/>
<path fill-rule="evenodd" clip-rule="evenodd" d="M43.0922 35.9798L38.1408 40.9312L36.0782 38.8685C35.8592 38.6497 35.5624 38.5269 35.2529 38.527C34.9434 38.5271 34.6467 38.6502 34.4279 38.8691C34.2092 39.088 34.0863 39.3849 34.0864 39.6943C34.0865 40.0038 34.2096 40.3006 34.4285 40.5193L37.2332 43.324C37.3523 43.4432 37.4938 43.5378 37.6496 43.6024C37.8053 43.6669 37.9722 43.7001 38.1408 43.7001C38.3094 43.7001 38.4763 43.6669 38.6321 43.6024C38.7878 43.5378 38.9293 43.4432 39.0485 43.324L44.7418 37.6295C44.9543 37.4095 45.0719 37.1148 45.0693 36.8089C45.0666 36.503 44.9439 36.2104 44.7276 35.9941C44.5113 35.7777 44.2187 35.655 43.9128 35.6524C43.6069 35.6497 43.3122 35.7673 43.0922 35.9798Z" fill="white"/>
</svg>
