<svg width="21" height="20" viewBox="0 0 21 20" fill="none" xmlns="http://www.w3.org/2000/svg">
<g clip-path="url(#clip0_2985_21325)">
<path d="M20.5 9.99C20.5 4.475 16.02 0 10.5 0C4.98 0 0.5 4.475 0.5 9.99C0.5 13.0275 1.88 15.765 4.04 17.6025C4.06 17.6225 4.08 17.6225 4.08 17.6425C4.26 17.7825 4.44 17.9225 4.64 18.0625C4.74 18.1225 4.82 18.2013 4.92 18.2812C6.57325 19.4003 8.52362 19.9989 10.52 20C12.5164 19.9989 14.4667 19.4003 16.12 18.2812C16.22 18.2213 16.3 18.1425 16.4 18.0812C16.58 17.9425 16.78 17.8025 16.96 17.6625C16.98 17.6425 17 17.6425 17 17.6225C19.12 15.7637 20.5 13.0275 20.5 9.99ZM10.5 18.7412C8.62 18.7412 6.9 18.1413 5.48 17.1425C5.5 16.9825 5.54 16.8237 5.58 16.6637C5.69957 16.2303 5.87433 15.8139 6.1 15.425C6.32 15.045 6.58 14.705 6.9 14.405C7.2 14.105 7.56 13.8263 7.92 13.6063C8.3 13.3863 8.7 13.2262 9.14 13.1062C9.58357 12.9874 10.0408 12.9274 10.5 12.9275C11.8634 12.9172 13.1769 13.4402 14.16 14.385C14.62 14.845 14.98 15.3846 15.24 16.0037C15.38 16.3638 15.48 16.7433 15.54 17.1425C14.064 18.1802 12.3043 18.7384 10.5 18.7412ZM7.44 9.49125C7.26414 9.08766 7.17554 8.65147 7.18 8.21125C7.18 7.7725 7.26 7.3325 7.44 6.9325C7.62 6.5325 7.86 6.17375 8.16 5.87375C8.46 5.57375 8.82 5.335 9.22 5.155C9.62 4.975 10.06 4.895 10.5 4.895C10.96 4.895 11.38 4.975 11.78 5.155C12.18 5.335 12.54 5.575 12.84 5.87375C13.14 6.17375 13.38 6.53375 13.56 6.9325C13.74 7.3325 13.82 7.7725 13.82 8.21125C13.82 8.67125 13.74 9.09125 13.56 9.49C13.3873 9.88463 13.1432 10.244 12.84 10.55C12.5339 10.8527 12.1745 11.0964 11.78 11.2688C10.9534 11.6077 10.0266 11.6077 9.2 11.2688C8.80547 11.0964 8.44612 10.8527 8.14 10.55C7.83656 10.2483 7.5983 9.88878 7.44 9.49125ZM16.72 16.1238C16.72 16.0837 16.7 16.0638 16.7 16.0238C16.5037 15.3979 16.2137 14.8053 15.84 14.2663C15.466 13.7232 15.0067 13.2441 14.48 12.8475C14.0776 12.5447 13.6413 12.2896 13.18 12.0875C13.3889 11.9478 13.5832 11.7874 13.76 11.6087C14.0582 11.3144 14.32 10.9854 14.54 10.6287C14.9845 9.90167 15.2133 9.06332 15.2 8.21125C15.2065 7.58061 15.084 6.9553 14.84 6.37375C14.5994 5.81331 14.2531 5.30447 13.82 4.875C13.3865 4.45131 12.8778 4.11218 12.32 3.875C11.7376 3.63107 11.1114 3.50898 10.48 3.51625C9.84852 3.50937 9.22232 3.63189 8.64 3.87625C8.07605 4.11054 7.5657 4.45716 7.14 4.895C6.7141 5.32621 6.37466 5.83494 6.14 6.39375C5.89597 6.9753 5.77346 7.60061 5.78 8.23125C5.78 8.67125 5.84 9.09083 5.96 9.49C6.08 9.91 6.24 10.29 6.46 10.6488C6.66 11.0087 6.94 11.3288 7.24 11.6288C7.42 11.8088 7.62 11.9683 7.84 12.1075C7.37662 12.3138 6.94008 12.5757 6.54 12.8875C6.02 13.2875 5.56 13.7662 5.18 14.2863C4.80284 14.8233 4.51262 15.4164 4.32 16.0438C4.3 16.0837 4.3 16.1238 4.3 16.1437C2.72 14.545 1.74 12.3875 1.74 9.99C1.74 5.175 5.68 1.23875 10.5 1.23875C15.32 1.23875 19.26 5.175 19.26 9.99C19.2574 12.2899 18.3441 14.4953 16.72 16.1238Z" fill="#105CE2"/>
</g>
<defs>
<clipPath id="clip0_2985_21325">
<rect width="20" height="20" fill="white" transform="translate(0.5)"/>
</clipPath>
</defs>
</svg>
