<svg width="73" height="72" viewBox="0 0 73 72" fill="none" xmlns="http://www.w3.org/2000/svg">
<rect x="5" y="5" width="63" height="63" rx="31.5" fill="#00A85A"/>
<path opacity="0.3" fill-rule="evenodd" clip-rule="evenodd" d="M34.8503 24.9499C35.2633 24.5375 35.8159 24.2948 36.399 24.2697C36.9821 24.2447 37.5535 24.4391 38.0003 24.8146L38.1496 24.9511L40.3663 27.1666H43.5C44.0884 27.1667 44.6551 27.3892 45.0865 27.7894C45.5179 28.1896 45.7822 28.7381 45.8263 29.3249L45.8333 29.4999V32.6336L48.05 34.8503C48.4627 35.2633 48.7056 35.8161 48.7307 36.3995C48.7557 36.9829 48.5611 37.5545 48.1853 38.0014L48.0488 38.1496L45.8321 40.3663V43.4999C45.8323 44.0886 45.61 44.6556 45.2097 45.0872C44.8094 45.5189 44.2608 45.7833 43.6738 45.8274L43.5 45.8333H40.3675L38.1508 48.0499C37.7378 48.4627 37.1849 48.7056 36.6015 48.7306C36.0181 48.7557 35.4465 48.5611 34.9996 48.1853L34.8515 48.0499L32.6348 45.8333H29.5C28.9113 45.8334 28.3443 45.6111 27.9127 45.2108C27.481 44.8106 27.2166 44.2619 27.1725 43.6749L27.1666 43.4999V40.3663L24.95 38.1496C24.5372 37.7365 24.2943 37.1837 24.2692 36.6003C24.2442 36.0169 24.4388 35.4453 24.8146 34.9984L24.95 34.8503L27.1666 32.6336V29.4999C27.1667 28.9114 27.3892 28.3448 27.7894 27.9134C28.1897 27.482 28.7382 27.2177 29.325 27.1736L29.5 27.1666H32.6336L34.8503 24.9499Z" fill="white"/>
<path fill-rule="evenodd" clip-rule="evenodd" d="M40.0922 32.9798L35.1408 37.9312L33.0782 35.8685C32.8592 35.6497 32.5624 35.5269 32.2529 35.527C31.9434 35.5271 31.6467 35.6502 31.4279 35.8691C31.2092 36.088 31.0863 36.3849 31.0864 36.6943C31.0865 37.0038 31.2096 37.3006 31.4285 37.5193L34.2332 40.324C34.3523 40.4432 34.4938 40.5378 34.6496 40.6024C34.8053 40.6669 34.9722 40.7001 35.1408 40.7001C35.3094 40.7001 35.4763 40.6669 35.6321 40.6024C35.7878 40.5378 35.9293 40.4432 36.0485 40.324L41.7418 34.6295C41.9543 34.4095 42.0719 34.1148 42.0693 33.8089C42.0666 33.503 41.9439 33.2104 41.7276 32.9941C41.5113 32.7777 41.2187 32.655 40.9128 32.6524C40.6069 32.6497 40.3122 32.7673 40.0922 32.9798Z" fill="white"/>
</svg>
