<svg width="20" height="20" viewBox="0 0 20 20" fill="none" xmlns="http://www.w3.org/2000/svg">
<path d="M18.9531 8.82817C19.6774 8.82817 19.9797 7.8977 19.3914 7.4688L10.4406 0.957861C10.3128 0.864209 10.1585 0.813721 10 0.813721C9.84156 0.813721 9.68722 0.864209 9.5594 0.957861L0.608617 7.4688C0.0203357 7.89536 0.322679 8.82817 1.04924 8.82817H2.50002V17.5938H0.812523C0.709398 17.5938 0.625023 17.6782 0.625023 17.7813V19C0.625023 19.1032 0.709398 19.1875 0.812523 19.1875H19.1875C19.2906 19.1875 19.375 19.1032 19.375 19V17.7813C19.375 17.6782 19.2906 17.5938 19.1875 17.5938H17.5V8.82817H18.9531ZM10 2.6102L16.3539 7.23208H3.64612L10 2.6102ZM4.18752 8.82817H6.92971V17.5938H4.18752V8.82817ZM8.61721 8.82817H11.3594V17.5938H8.61721V8.82817ZM15.8125 17.5938H13.0469V8.82817H15.8125V17.5938Z" fill="#105CE2"/>
</svg>
