<svg width="18" height="19" viewBox="0 0 18 19" fill="none" xmlns="http://www.w3.org/2000/svg">
<g clip-path="url(#clip0_790_12491)">
<path d="M3.85528e-08 17.215H18V18.715H3.85528e-08V17.215ZM18 6.64677V8.21502H15.75V14.215H17.25V15.715H0.75V14.215H2.25V8.21502H3.85528e-08V6.64677C-7.47784e-05 6.24255 0.108746 5.84577 0.315025 5.49815C0.521303 5.15052 0.81742 4.86489 1.17225 4.67127L7.92225 0.989517C8.25268 0.808661 8.62331 0.713867 9 0.713867C9.37669 0.713867 9.74732 0.808661 10.0778 0.989517L16.8278 4.67127C17.1826 4.86489 17.4787 5.15052 17.685 5.49815C17.8913 5.84577 18.0001 6.24255 18 6.64677ZM3.75 14.215H6V8.21502H3.75V14.215ZM7.5 8.21502V14.215H10.5V8.21502H7.5ZM14.25 8.21502H12V14.215H14.25V8.21502ZM16.5 6.64677C16.5 6.51203 16.4638 6.37977 16.395 6.26389C16.3262 6.14802 16.2275 6.05281 16.1092 5.98827L9.35925 2.30652C9.24906 2.24639 9.12553 2.21488 9 2.21488C8.87447 2.21488 8.75094 2.24639 8.64075 2.30652L1.89075 5.98827C1.77247 6.05281 1.67377 6.14802 1.60501 6.26389C1.53625 6.37977 1.49998 6.51203 1.5 6.64677V6.71502H16.5V6.64677Z" fill="#105CE2"/>
</g>
<defs>
<clipPath id="clip0_790_12491">
<rect width="18" height="18" fill="white" transform="translate(0 0.715332)"/>
</clipPath>
</defs>
</svg>
