<svg width="28" height="30" viewBox="0 0 28 30" fill="none" xmlns="http://www.w3.org/2000/svg">
<g clip-path="url(#clip0_672_394)">
<path d="M10.7584 3.16064H1.88013V12.0389H10.7584V3.16064ZM9.27867 10.5592H3.35983V4.64035H9.27867V10.5592Z" fill="white"/>
<path d="M4.83954 6.12H7.79896V9.07941H4.83954V6.12ZM1.88013 26.8359H10.7584V17.9577H1.88013V26.8359ZM3.35983 19.4374H9.27867V25.3562H3.35983V19.4374Z" fill="white"/>
<path d="M4.8396 20.9171H7.79901V23.8765H4.8396V20.9171ZM16.6773 3.16058V12.0388H25.5555V3.16058H16.6773ZM24.0758 10.5591H18.157V4.64029H24.0758V10.5591Z" fill="white"/>
<path d="M19.6366 6.12006H22.596V9.07947H19.6366V6.12006ZM4.83954 13.5186H1.88013V16.478H6.31925V14.9983H4.83954V13.5186ZM12.2381 16.478H15.1975V19.4374H12.2381V16.478ZM6.31925 13.5186H9.27866V14.9983H6.31925V13.5186ZM15.1975 20.9171H12.2381V22.3968H13.7178V23.8766H15.1975V22.3968V20.9171ZM10.7584 13.5186V14.9983H9.27866V16.478H12.2381V13.5186H10.7584ZM13.7178 9.07947H15.1975V12.0389H13.7178V9.07947ZM15.1975 14.9983V16.478H18.1569V13.5186H13.7178V14.9983H15.1975ZM12.2381 12.0389H13.7178V13.5186H12.2381V12.0389ZM15.1975 23.8766H18.1569V26.836H15.1975V23.8766ZM12.2381 23.8766H13.7178V26.836H12.2381V23.8766ZM15.1975 19.4374H16.6772V20.9171H15.1975V19.4374ZM15.1975 7.59977V4.64035H13.7178V3.16064H12.2381V9.07947H13.7178V7.59977H15.1975ZM19.6366 23.8766H21.1163V26.836H19.6366V23.8766ZM19.6366 20.9171H22.596V22.3968H19.6366V20.9171ZM18.1569 22.3968H19.6366V23.8766H18.1569V22.3968ZM16.6772 20.9171H18.1569V22.3968H16.6772V20.9171ZM22.596 17.9577V19.4374H24.0757V20.9171H25.5554V17.9577H24.0757H22.596ZM24.0757 22.3968H22.596V26.836H25.5554V23.8766H24.0757V22.3968ZM16.6772 17.9577V19.4374H21.1163V16.478H18.1569V17.9577H16.6772ZM19.6366 13.5186V14.9983H22.596V16.478H25.5554V13.5186H22.596H19.6366Z" fill="white"/>
</g>
<path fill-rule="evenodd" clip-rule="evenodd" d="M27.3742 5.39226V3.02149C27.3742 1.86777 26.439 0.932495 25.2852 0.932495H23.6753L23.8486 1.1414H25.2852C26.3236 1.1414 27.1653 1.98314 27.1653 3.02149V5.14039L27.3742 5.39226Z" fill="white"/>
<path fill-rule="evenodd" clip-rule="evenodd" d="M27.3742 24.6077V26.9785C27.3742 28.1322 26.439 29.0675 25.2852 29.0675H23.6753L23.8486 28.8586H25.2852C26.3236 28.8586 27.1653 28.0169 27.1653 26.9785V24.8596L27.3742 24.6077Z" fill="white"/>
<path fill-rule="evenodd" clip-rule="evenodd" d="M-7.15256e-07 24.6078V26.9785C-7.15256e-07 28.1322 0.935275 29.0675 2.089 29.0675H3.78345L3.60623 28.8586H2.089C1.05065 28.8586 0.2089 28.0169 0.2089 26.9785V24.854L-7.15256e-07 24.6078Z" fill="white"/>
<path fill-rule="evenodd" clip-rule="evenodd" d="M-0.000208378 5.39226V3.02149C-0.000208378 1.86777 0.935069 0.932495 2.08879 0.932495H3.69873L3.52547 1.1414H2.08879C1.05044 1.1414 0.208692 1.98314 0.208692 3.02149V5.14039L-0.000208378 5.39226Z" fill="white"/>
<defs>
<clipPath id="clip0_672_394">
<rect width="23.6753" height="23.6753" fill="white" transform="translate(1.88013 3.16064)"/>
</clipPath>
</defs>
</svg>
