<svg width="60" height="60" viewBox="0 0 60 60" fill="none" xmlns="http://www.w3.org/2000/svg">
<rect width="60" height="60" rx="30" fill="white"/>
<path d="M30 21C24.5 21 20 24.58 20 29C20.0252 30.0627 20.2848 31.1067 20.7602 32.0574C21.2356 33.0081 21.915 33.8422 22.75 34.5C22.75 35.1 22.33 36.67 20 39C22.37 38.89 24.64 38 26.47 36.5C27.61 36.83 28.81 37 30 37C35.5 37 40 33.42 40 29C40 24.58 35.5 21 30 21ZM30 35C25.58 35 22 32.31 22 29C22 25.69 25.58 23 30 23C34.42 23 38 25.69 38 29C38 32.31 34.42 35 30 35Z" fill="#105CE2"/>
</svg>
