<svg width="142" height="28" viewBox="0 0 142 28" fill="none" xmlns="http://www.w3.org/2000/svg">
<g clip-path="url(#clip0_2151_21297)">
<path fill-rule="evenodd" clip-rule="evenodd" d="M14 0C6.26818 0 0 6.26818 0 14C0 21.7318 6.26818 28 14 28C21.7318 28 28 21.7318 28 14C28 6.26818 21.7318 0 14 0ZM20.0684 11.6327C20.1801 11.505 20.2652 11.3562 20.3186 11.1951C20.372 11.034 20.3926 10.8639 20.3793 10.6947C20.3659 10.5255 20.3189 10.3607 20.2409 10.21C20.1629 10.0592 20.0556 9.92562 19.9252 9.81698C19.7949 9.70834 19.6441 9.62686 19.4818 9.57735C19.3194 9.52784 19.1488 9.5113 18.98 9.52869C18.8112 9.54608 18.6476 9.59706 18.4988 9.67862C18.3499 9.76019 18.2189 9.87069 18.1135 10.0036L12.6407 16.5696L9.80891 13.7365C9.56887 13.5047 9.24738 13.3764 8.91367 13.3793C8.57997 13.3822 8.26075 13.5161 8.02478 13.752C7.7888 13.988 7.65495 14.3072 7.65205 14.6409C7.64915 14.9746 7.77744 15.2961 8.00927 15.5362L11.8275 19.3544C11.9525 19.4793 12.1022 19.5769 12.2671 19.6408C12.4319 19.7047 12.6083 19.7336 12.7849 19.7256C12.9615 19.7175 13.1345 19.6728 13.2929 19.5942C13.4513 19.5156 13.5915 19.4049 13.7047 19.2691L20.0684 11.6327Z" fill="#105CE2"/>
</g>
<rect x="26" y="13" width="28" height="1" fill="#105CE2"/>
<g clip-path="url(#clip1_2151_21297)">
<circle cx="68" cy="14" r="13.3438" fill="#105CE2" stroke="#105CE2" stroke-width="1.3125"/>
<path d="M63.7129 17.6649C63.1745 17.6649 62.6968 17.5511 62.2797 17.3236C61.8702 17.0961 61.5252 16.7814 61.2446 16.3795C60.964 15.9776 60.7517 15.5188 60.6076 15.0031C60.4635 14.4799 60.3914 13.9263 60.3914 13.3424C60.3914 12.7585 60.4635 12.2087 60.6076 11.693C60.7517 11.1697 60.964 10.7072 61.2446 10.3052C61.5252 9.90333 61.8702 9.58862 62.2797 9.36112C62.6968 9.13362 63.1745 9.01987 63.7129 9.01987C64.2514 9.01987 64.7253 9.13362 65.1348 9.36112C65.5519 9.58862 65.9007 9.90333 66.1813 10.3052C66.4619 10.7072 66.6742 11.1697 66.8183 11.693C66.9624 12.2087 67.0344 12.7585 67.0344 13.3424C67.0344 13.9263 66.9624 14.4799 66.8183 15.0031C66.6742 15.5188 66.4619 15.9776 66.1813 16.3795C65.9007 16.7814 65.5519 17.0961 65.1348 17.3236C64.7253 17.5511 64.2514 17.6649 63.7129 17.6649ZM63.7129 16.4705C64.2741 16.4705 64.7405 16.2089 65.1121 15.6856C65.4837 15.1548 65.6694 14.3737 65.6694 13.3424C65.6694 12.3186 65.4837 11.5451 65.1121 11.0219C64.7405 10.4986 64.2741 10.237 63.7129 10.237C63.1518 10.237 62.6854 10.4986 62.3138 11.0219C61.9422 11.5451 61.7564 12.3186 61.7564 13.3424C61.7564 14.3661 61.9384 15.1434 62.3024 15.6742C62.674 16.2051 63.1442 16.4705 63.7129 16.4705ZM68.4289 17.5625V16.6411L70.1466 15.0827C70.6926 14.5974 71.1665 14.1765 71.5684 13.8201C71.9704 13.4561 72.2813 13.1111 72.5012 12.785C72.7287 12.4513 72.8424 12.0873 72.8424 11.693C72.8424 11.3821 72.7666 11.1167 72.6149 10.8967C72.4633 10.6768 72.2699 10.51 72.0348 10.3962C71.7997 10.2749 71.5533 10.2142 71.2954 10.2142C70.9845 10.2142 70.7267 10.2673 70.5219 10.3735C70.3248 10.4721 70.1655 10.601 70.0442 10.7602C69.9304 10.9119 69.847 11.0712 69.7939 11.238C69.7409 11.3972 69.7067 11.5413 69.6916 11.6702C69.6764 11.7916 69.6688 11.8674 69.6688 11.8977H68.3948C68.3948 11.8143 68.41 11.6627 68.4403 11.4427C68.4782 11.2228 68.5503 10.9802 68.6564 10.7147C68.7702 10.4417 68.9332 10.1763 69.1456 9.9185C69.3655 9.66067 69.6499 9.44833 69.9987 9.2815C70.3551 9.11467 70.7987 9.03125 71.3296 9.03125C71.8377 9.03125 72.3078 9.13362 72.7401 9.33837C73.1723 9.54312 73.5174 9.84267 73.7752 10.237C74.0406 10.6237 74.1733 11.0939 74.1733 11.6475C74.1733 12.1556 74.0444 12.6182 73.7866 13.0352C73.5363 13.4447 73.1951 13.8505 72.7628 14.2524C72.3382 14.6467 71.8642 15.0714 71.3409 15.5264L70.3968 16.3795H74.3326V17.5625H68.4289Z" fill="white"/>
</g>
<rect x="82" y="13" width="28" height="1" fill="#E2E8F0"/>
<g clip-path="url(#clip2_2151_21297)">
<circle cx="124" cy="14" r="13.3438" fill="white" stroke="#E2E8F0" stroke-width="1.3125"/>
<path d="M119.334 17.6649C118.795 17.6649 118.318 17.5511 117.901 17.3236C117.491 17.0961 117.146 16.7814 116.865 16.3795C116.585 15.9776 116.373 15.5188 116.228 15.0031C116.084 14.4799 116.012 13.9263 116.012 13.3424C116.012 12.7585 116.084 12.2087 116.228 11.693C116.373 11.1697 116.585 10.7072 116.865 10.3052C117.146 9.90333 117.491 9.58862 117.901 9.36112C118.318 9.13362 118.795 9.01987 119.334 9.01987C119.872 9.01987 120.346 9.13362 120.756 9.36112C121.173 9.58862 121.522 9.90333 121.802 10.3052C122.083 10.7072 122.295 11.1697 122.439 11.693C122.583 12.2087 122.655 12.7585 122.655 13.3424C122.655 13.9263 122.583 14.4799 122.439 15.0031C122.295 15.5188 122.083 15.9776 121.802 16.3795C121.522 16.7814 121.173 17.0961 120.756 17.3236C120.346 17.5511 119.872 17.6649 119.334 17.6649ZM119.334 16.4705C119.895 16.4705 120.361 16.2089 120.733 15.6856C121.105 15.1548 121.29 14.3737 121.29 13.3424C121.29 12.3186 121.105 11.5451 120.733 11.0219C120.361 10.4986 119.895 10.237 119.334 10.237C118.773 10.237 118.306 10.4986 117.935 11.0219C117.563 11.5451 117.377 12.3186 117.377 13.3424C117.377 14.3661 117.559 15.1434 117.923 15.6742C118.295 16.2051 118.765 16.4705 119.334 16.4705ZM126.973 17.6763C126.344 17.6763 125.805 17.5549 125.358 17.3122C124.911 17.0696 124.569 16.7473 124.334 16.3454C124.099 15.9435 123.982 15.4998 123.982 15.0145H125.233C125.233 15.4847 125.396 15.86 125.722 16.1406C126.048 16.4212 126.465 16.5615 126.973 16.5615C127.277 16.5615 127.553 16.5046 127.804 16.3909C128.061 16.2771 128.266 16.1103 128.418 15.8904C128.569 15.6705 128.645 15.405 128.645 15.0941C128.645 14.6922 128.509 14.3699 128.236 14.1272C127.963 13.8846 127.591 13.7632 127.121 13.7632H125.984V12.7281H127.121C127.515 12.7281 127.845 12.6144 128.111 12.3869C128.384 12.1518 128.52 11.8485 128.52 11.4769C128.52 11.2039 128.448 10.9688 128.304 10.7716C128.168 10.5669 127.982 10.4114 127.747 10.3052C127.512 10.1915 127.254 10.1346 126.973 10.1346C126.518 10.1346 126.135 10.2825 125.824 10.5782C125.521 10.8664 125.369 11.2418 125.369 11.7044H124.141C124.141 11.2266 124.255 10.7868 124.482 10.3849C124.71 9.97537 125.036 9.64929 125.46 9.40662C125.893 9.15637 126.404 9.03125 126.996 9.03125C127.474 9.03125 127.925 9.12604 128.35 9.31562C128.782 9.49762 129.131 9.76304 129.396 10.1119C129.669 10.4607 129.806 10.8778 129.806 11.3631C129.806 11.8333 129.68 12.2238 129.43 12.5347C129.188 12.8457 128.899 13.0656 128.566 13.1945V13.2514C128.96 13.3879 129.29 13.6154 129.555 13.9339C129.828 14.2524 129.965 14.6581 129.965 15.151C129.965 15.6818 129.825 16.1368 129.544 16.516C129.271 16.8876 128.907 17.1757 128.452 17.3805C127.997 17.5777 127.504 17.6763 126.973 17.6763Z" fill="#8D9196"/>
</g>
<defs>
<clipPath id="clip0_2151_21297">
<rect width="28" height="28" fill="white"/>
</clipPath>
<clipPath id="clip1_2151_21297">
<rect width="28" height="28" fill="white" transform="translate(54)"/>
</clipPath>
<clipPath id="clip2_2151_21297">
<rect width="28" height="28" fill="white" transform="translate(110)"/>
</clipPath>
</defs>
</svg>
