<svg width="138" height="28" viewBox="0 0 138 28" fill="none" xmlns="http://www.w3.org/2000/svg">
<g clip-path="url(#clip0_2151_21272)">
<circle cx="14" cy="14" r="13.3438" fill="#105CE2" stroke="#105CE2" stroke-width="1.3125"/>
<path d="M11.6626 17.6649C11.1242 17.6649 10.6464 17.5511 10.2293 17.3236C9.81984 17.0961 9.4748 16.7814 9.19421 16.3795C8.91363 15.9776 8.7013 15.5188 8.55721 15.0031C8.41313 14.4799 8.34109 13.9263 8.34109 13.3424C8.34109 12.7585 8.41313 12.2087 8.55721 11.693C8.7013 11.1697 8.91363 10.7072 9.19421 10.3052C9.4748 9.90333 9.81984 9.58862 10.2293 9.36112C10.6464 9.13362 11.1242 9.01987 11.6626 9.01987C12.201 9.01987 12.675 9.13362 13.0845 9.36112C13.5015 9.58862 13.8504 9.90333 14.131 10.3052C14.4115 10.7072 14.6239 11.1697 14.768 11.693C14.912 12.2087 14.9841 12.7585 14.9841 13.3424C14.9841 13.9263 14.912 14.4799 14.768 15.0031C14.6239 15.5188 14.4115 15.9776 14.131 16.3795C13.8504 16.7814 13.5015 17.0961 13.0845 17.3236C12.675 17.5511 12.201 17.6649 11.6626 17.6649ZM11.6626 16.4705C12.2238 16.4705 12.6901 16.2089 13.0617 15.6856C13.4333 15.1548 13.6191 14.3737 13.6191 13.3424C13.6191 12.3186 13.4333 11.5451 13.0617 11.0219C12.6901 10.4986 12.2238 10.237 11.6626 10.237C11.1014 10.237 10.635 10.4986 10.2635 11.0219C9.89188 11.5451 9.70609 12.3186 9.70609 13.3424C9.70609 14.3661 9.88809 15.1434 10.2521 15.6742C10.6237 16.2051 11.0938 16.4705 11.6626 16.4705ZM18.9152 9.145V17.5625H17.6071V11.2039L16.0146 11.2152V10.4304L16.2876 10.3507C16.7123 10.2218 17.0535 10.0777 17.3113 9.9185C17.5768 9.75925 17.827 9.53933 18.0621 9.25875L18.1645 9.145H18.9152Z" fill="white"/>
</g>
<rect x="26" y="13" width="28" height="1" fill="#105CE2"/>
<g clip-path="url(#clip1_2151_21272)">
<circle cx="68" cy="14" r="13.3438" fill="white" stroke="#E2E8F0" stroke-width="1.3125"/>
<path d="M63.4004 17.6649C62.862 17.6649 62.3843 17.5511 61.9672 17.3236C61.5577 17.0961 61.2127 16.7814 60.9321 16.3795C60.6515 15.9776 60.4392 15.5188 60.2951 15.0031C60.151 14.4799 60.0789 13.9263 60.0789 13.3424C60.0789 12.7585 60.151 12.2087 60.2951 11.693C60.4392 11.1697 60.6515 10.7072 60.9321 10.3052C61.2127 9.90333 61.5577 9.58862 61.9672 9.36112C62.3843 9.13362 62.862 9.01987 63.4004 9.01987C63.9389 9.01987 64.4128 9.13362 64.8223 9.36112C65.2394 9.58862 65.5882 9.90333 65.8688 10.3052C66.1494 10.7072 66.3617 11.1697 66.5058 11.693C66.6499 12.2087 66.7219 12.7585 66.7219 13.3424C66.7219 13.9263 66.6499 14.4799 66.5058 15.0031C66.3617 15.5188 66.1494 15.9776 65.8688 16.3795C65.5882 16.7814 65.2394 17.0961 64.8223 17.3236C64.4128 17.5511 63.9389 17.6649 63.4004 17.6649ZM63.4004 16.4705C63.9616 16.4705 64.428 16.2089 64.7996 15.6856C65.1712 15.1548 65.3569 14.3737 65.3569 13.3424C65.3569 12.3186 65.1712 11.5451 64.7996 11.0219C64.428 10.4986 63.9616 10.237 63.4004 10.237C62.8393 10.237 62.3729 10.4986 62.0013 11.0219C61.6297 11.5451 61.4439 12.3186 61.4439 13.3424C61.4439 14.3661 61.6259 15.1434 61.9899 15.6742C62.3615 16.2051 62.8317 16.4705 63.4004 16.4705ZM68.1164 17.5625V16.6411L69.8341 15.0827C70.3801 14.5974 70.854 14.1765 71.2559 13.8201C71.6579 13.4561 71.9688 13.1111 72.1887 12.785C72.4162 12.4513 72.5299 12.0873 72.5299 11.693C72.5299 11.3821 72.4541 11.1167 72.3024 10.8967C72.1508 10.6768 71.9574 10.51 71.7223 10.3962C71.4872 10.2749 71.2408 10.2142 70.9829 10.2142C70.672 10.2142 70.4142 10.2673 70.2094 10.3735C70.0123 10.4721 69.853 10.601 69.7317 10.7602C69.6179 10.9119 69.5345 11.0712 69.4814 11.238C69.4284 11.3972 69.3942 11.5413 69.3791 11.6702C69.3639 11.7916 69.3563 11.8674 69.3563 11.8977H68.0823C68.0823 11.8143 68.0975 11.6627 68.1278 11.4427C68.1657 11.2228 68.2378 10.9802 68.3439 10.7147C68.4577 10.4417 68.6207 10.1763 68.8331 9.9185C69.053 9.66067 69.3374 9.44833 69.6862 9.2815C70.0426 9.11467 70.4862 9.03125 71.0171 9.03125C71.5252 9.03125 71.9953 9.13362 72.4276 9.33837C72.8598 9.54312 73.2049 9.84267 73.4627 10.237C73.7281 10.6237 73.8608 11.0939 73.8608 11.6475C73.8608 12.1556 73.7319 12.6182 73.4741 13.0352C73.2238 13.4447 72.8826 13.8505 72.4503 14.2524C72.0257 14.6467 71.5517 15.0714 71.0284 15.5264L70.0843 16.3795H74.0201V17.5625H68.1164Z" fill="#8D9196"/>
</g>
<rect x="82" y="13" width="28" height="1" fill="#E2E8F0"/>
<g clip-path="url(#clip2_2151_21272)">
<circle cx="124" cy="14" r="13.3438" fill="white" stroke="#E2E8F0" stroke-width="1.3125"/>
<path d="M119.334 17.6649C118.795 17.6649 118.318 17.5511 117.901 17.3236C117.491 17.0961 117.146 16.7814 116.865 16.3795C116.585 15.9776 116.373 15.5188 116.228 15.0031C116.084 14.4799 116.012 13.9263 116.012 13.3424C116.012 12.7585 116.084 12.2087 116.228 11.693C116.373 11.1697 116.585 10.7072 116.865 10.3052C117.146 9.90333 117.491 9.58862 117.901 9.36112C118.318 9.13362 118.795 9.01987 119.334 9.01987C119.872 9.01987 120.346 9.13362 120.756 9.36112C121.173 9.58862 121.522 9.90333 121.802 10.3052C122.083 10.7072 122.295 11.1697 122.439 11.693C122.583 12.2087 122.655 12.7585 122.655 13.3424C122.655 13.9263 122.583 14.4799 122.439 15.0031C122.295 15.5188 122.083 15.9776 121.802 16.3795C121.522 16.7814 121.173 17.0961 120.756 17.3236C120.346 17.5511 119.872 17.6649 119.334 17.6649ZM119.334 16.4705C119.895 16.4705 120.361 16.2089 120.733 15.6856C121.105 15.1548 121.29 14.3737 121.29 13.3424C121.29 12.3186 121.105 11.5451 120.733 11.0219C120.361 10.4986 119.895 10.237 119.334 10.237C118.773 10.237 118.306 10.4986 117.935 11.0219C117.563 11.5451 117.377 12.3186 117.377 13.3424C117.377 14.3661 117.559 15.1434 117.923 15.6742C118.295 16.2051 118.765 16.4705 119.334 16.4705ZM126.973 17.6763C126.344 17.6763 125.805 17.5549 125.358 17.3122C124.911 17.0696 124.569 16.7473 124.334 16.3454C124.099 15.9435 123.982 15.4998 123.982 15.0145H125.233C125.233 15.4847 125.396 15.86 125.722 16.1406C126.048 16.4212 126.465 16.5615 126.973 16.5615C127.277 16.5615 127.553 16.5046 127.804 16.3909C128.061 16.2771 128.266 16.1103 128.418 15.8904C128.569 15.6705 128.645 15.405 128.645 15.0941C128.645 14.6922 128.509 14.3699 128.236 14.1272C127.963 13.8846 127.591 13.7632 127.121 13.7632H125.984V12.7281H127.121C127.515 12.7281 127.845 12.6144 128.111 12.3869C128.384 12.1518 128.52 11.8485 128.52 11.4769C128.52 11.2039 128.448 10.9688 128.304 10.7716C128.168 10.5669 127.982 10.4114 127.747 10.3052C127.512 10.1915 127.254 10.1346 126.973 10.1346C126.518 10.1346 126.135 10.2825 125.824 10.5782C125.521 10.8664 125.369 11.2418 125.369 11.7044H124.141C124.141 11.2266 124.255 10.7868 124.482 10.3849C124.71 9.97537 125.036 9.64929 125.46 9.40662C125.893 9.15637 126.404 9.03125 126.996 9.03125C127.474 9.03125 127.925 9.12604 128.35 9.31562C128.782 9.49762 129.131 9.76304 129.396 10.1119C129.669 10.4607 129.806 10.8778 129.806 11.3631C129.806 11.8333 129.68 12.2238 129.43 12.5347C129.188 12.8457 128.899 13.0656 128.566 13.1945V13.2514C128.96 13.3879 129.29 13.6154 129.555 13.9339C129.828 14.2524 129.965 14.6581 129.965 15.151C129.965 15.6818 129.825 16.1368 129.544 16.516C129.271 16.8876 128.907 17.1757 128.452 17.3805C127.997 17.5777 127.504 17.6763 126.973 17.6763Z" fill="#8D9196"/>
</g>
<defs>
<clipPath id="clip0_2151_21272">
<rect width="28" height="28" fill="white"/>
</clipPath>
<clipPath id="clip1_2151_21272">
<rect width="28" height="28" fill="white" transform="translate(54)"/>
</clipPath>
<clipPath id="clip2_2151_21272">
<rect width="28" height="28" fill="white" transform="translate(110)"/>
</clipPath>
</defs>
</svg>
