<svg width="138" height="28" viewBox="0 0 138 28" fill="none" xmlns="http://www.w3.org/2000/svg">
<g clip-path="url(#clip0_2151_21321)">
<path fill-rule="evenodd" clip-rule="evenodd" d="M14 0C6.26818 0 0 6.26818 0 14C0 21.7318 6.26818 28 14 28C21.7318 28 28 21.7318 28 14C28 6.26818 21.7318 0 14 0ZM20.0684 11.6327C20.1801 11.505 20.2652 11.3562 20.3186 11.1951C20.372 11.034 20.3926 10.8639 20.3793 10.6947C20.3659 10.5255 20.3189 10.3607 20.2409 10.21C20.1629 10.0592 20.0556 9.92562 19.9252 9.81698C19.7949 9.70834 19.6441 9.62686 19.4818 9.57735C19.3194 9.52784 19.1488 9.5113 18.98 9.52869C18.8112 9.54608 18.6476 9.59706 18.4988 9.67862C18.3499 9.76019 18.2189 9.87069 18.1135 10.0036L12.6407 16.5696L9.80891 13.7365C9.56887 13.5047 9.24738 13.3764 8.91367 13.3793C8.57997 13.3822 8.26075 13.5161 8.02478 13.752C7.7888 13.988 7.65495 14.3072 7.65205 14.6409C7.64915 14.9746 7.77744 15.2961 8.00927 15.5362L11.8275 19.3544C11.9525 19.4793 12.1022 19.5769 12.2671 19.6408C12.4319 19.7047 12.6083 19.7336 12.7849 19.7256C12.9615 19.7175 13.1345 19.6728 13.2929 19.5942C13.4513 19.5156 13.5915 19.4049 13.7047 19.2691L20.0684 11.6327Z" fill="#105CE2"/>
</g>
<rect x="26" y="13" width="28" height="1" fill="#105CE2"/>
<g clip-path="url(#clip1_2151_21321)">
<path fill-rule="evenodd" clip-rule="evenodd" d="M68 0C60.2682 0 54 6.26818 54 14C54 21.7318 60.2682 28 68 28C75.7318 28 82 21.7318 82 14C82 6.26818 75.7318 0 68 0ZM74.0684 11.6327C74.1801 11.505 74.2652 11.3562 74.3186 11.1951C74.372 11.034 74.3926 10.8639 74.3793 10.6947C74.3659 10.5255 74.3189 10.3607 74.2409 10.21C74.1629 10.0592 74.0556 9.92562 73.9252 9.81698C73.7949 9.70834 73.6441 9.62686 73.4818 9.57735C73.3194 9.52784 73.1488 9.5113 72.98 9.52869C72.8112 9.54608 72.6476 9.59706 72.4988 9.67862C72.3499 9.76019 72.2189 9.87069 72.1135 10.0036L66.6407 16.5696L63.8089 13.7365C63.5689 13.5047 63.2474 13.3764 62.9137 13.3793C62.58 13.3822 62.2607 13.5161 62.0248 13.752C61.7888 13.988 61.655 14.3072 61.6521 14.6409C61.6492 14.9746 61.7774 15.2961 62.0093 15.5362L65.8275 19.3544C65.9525 19.4793 66.1022 19.5769 66.2671 19.6408C66.4319 19.7047 66.6083 19.7336 66.7849 19.7256C66.9615 19.7175 67.1345 19.6728 67.2929 19.5942C67.4513 19.5156 67.5915 19.4049 67.7047 19.2691L74.0684 11.6327Z" fill="#105CE2"/>
</g>
<rect x="82" y="13" width="28" height="1" fill="#105CE2"/>
<g clip-path="url(#clip2_2151_21321)">
<circle cx="124" cy="14" r="13.3438" fill="#105CE2" stroke="#105CE2" stroke-width="1.3125"/>
<path d="M119.646 17.6649C119.108 17.6649 118.63 17.5511 118.213 17.3236C117.804 17.0961 117.459 16.7814 117.178 16.3795C116.897 15.9776 116.685 15.5188 116.541 15.0031C116.397 14.4799 116.325 13.9263 116.325 13.3424C116.325 12.7585 116.397 12.2087 116.541 11.693C116.685 11.1697 116.897 10.7072 117.178 10.3052C117.459 9.90333 117.804 9.58862 118.213 9.36112C118.63 9.13362 119.108 9.01987 119.646 9.01987C120.185 9.01987 120.659 9.13362 121.068 9.36112C121.485 9.58862 121.834 9.90333 122.115 10.3052C122.395 10.7072 122.608 11.1697 122.752 11.693C122.896 12.2087 122.968 12.7585 122.968 13.3424C122.968 13.9263 122.896 14.4799 122.752 15.0031C122.608 15.5188 122.395 15.9776 122.115 16.3795C121.834 16.7814 121.485 17.0961 121.068 17.3236C120.659 17.5511 120.185 17.6649 119.646 17.6649ZM119.646 16.4705C120.207 16.4705 120.674 16.2089 121.045 15.6856C121.417 15.1548 121.603 14.3737 121.603 13.3424C121.603 12.3186 121.417 11.5451 121.045 11.0219C120.674 10.4986 120.207 10.237 119.646 10.237C119.085 10.237 118.619 10.4986 118.247 11.0219C117.876 11.5451 117.69 12.3186 117.69 13.3424C117.69 14.3661 117.872 15.1434 118.236 15.6742C118.607 16.2051 119.078 16.4705 119.646 16.4705ZM127.286 17.6763C126.656 17.6763 126.118 17.5549 125.67 17.3122C125.223 17.0696 124.882 16.7473 124.647 16.3454C124.412 15.9435 124.294 15.4998 124.294 15.0145H125.545C125.545 15.4847 125.708 15.86 126.034 16.1406C126.361 16.4212 126.778 16.5615 127.286 16.5615C127.589 16.5615 127.866 16.5046 128.116 16.3909C128.374 16.2771 128.579 16.1103 128.73 15.8904C128.882 15.6705 128.958 15.405 128.958 15.0941C128.958 14.6922 128.821 14.3699 128.548 14.1272C128.275 13.8846 127.904 13.7632 127.434 13.7632H126.296V12.7281H127.434C127.828 12.7281 128.158 12.6144 128.423 12.3869C128.696 12.1518 128.833 11.8485 128.833 11.4769C128.833 11.2039 128.761 10.9688 128.617 10.7716C128.48 10.5669 128.294 10.4114 128.059 10.3052C127.824 10.1915 127.566 10.1346 127.286 10.1346C126.831 10.1346 126.448 10.2825 126.137 10.5782C125.833 10.8664 125.682 11.2418 125.682 11.7044H124.453C124.453 11.2266 124.567 10.7868 124.795 10.3849C125.022 9.97537 125.348 9.64929 125.773 9.40662C126.205 9.15637 126.717 9.03125 127.308 9.03125C127.786 9.03125 128.237 9.12604 128.662 9.31562C129.094 9.49762 129.443 9.76304 129.709 10.1119C129.982 10.4607 130.118 10.8778 130.118 11.3631C130.118 11.8333 129.993 12.2238 129.743 12.5347C129.5 12.8457 129.212 13.0656 128.878 13.1945V13.2514C129.273 13.3879 129.602 13.6154 129.868 13.9339C130.141 14.2524 130.277 14.6581 130.277 15.151C130.277 15.6818 130.137 16.1368 129.856 16.516C129.583 16.8876 129.219 17.1757 128.764 17.3805C128.309 17.5777 127.817 17.6763 127.286 17.6763Z" fill="white"/>
</g>
<defs>
<clipPath id="clip0_2151_21321">
<rect width="28" height="28" fill="white"/>
</clipPath>
<clipPath id="clip1_2151_21321">
<rect width="28" height="28" fill="white" transform="translate(54)"/>
</clipPath>
<clipPath id="clip2_2151_21321">
<rect width="28" height="28" fill="white" transform="translate(110)"/>
</clipPath>
</defs>
</svg>
