<svg width="50" height="50" viewBox="0 0 50 50" fill="none" xmlns="http://www.w3.org/2000/svg">
<rect width="50" height="50" rx="25" fill="#2A94F4" fill-opacity="0.05"/>
<path d="M17.616 33C17.1553 33 16.771 32.846 16.463 32.538C16.155 32.23 16.0007 31.8453 16 31.384V21.616C16 21.1553 16.1543 20.771 16.463 20.463C16.7717 20.155 17.1557 20.0007 17.615 20H22V18.615C22 18.155 22.1543 17.7707 22.463 17.462C22.7717 17.1533 23.156 16.9993 23.616 17H26.385C26.845 17 27.2293 17.154 27.538 17.462C27.8467 17.77 28.0007 18.1543 28 18.615V20H32.385C32.845 20 33.229 20.1543 33.537 20.463C33.845 20.7717 33.9993 21.156 34 21.616V31.385C34 31.845 33.8457 32.2293 33.537 32.538C33.2283 32.8467 32.8443 33.0007 32.385 33H17.616ZM23 20H27V18.615C27 18.4617 26.936 18.3207 26.808 18.192C26.68 18.0633 26.539 17.9993 26.385 18H23.615C23.4617 18 23.3207 18.064 23.192 18.192C23.0633 18.32 22.9993 18.461 23 18.615V20ZM33 27.5H27V29H23V27.5H17V31.385C17 31.5383 17.064 31.6793 17.192 31.808C17.32 31.9367 17.461 32.0007 17.615 32H32.385C32.5383 32 32.6793 31.936 32.808 31.808C32.9367 31.68 33.0007 31.5387 33 31.384V27.5ZM24 28H26V26H24V28ZM17 26.5H23V25H27V26.5H33V21.616C33 21.462 32.936 21.3207 32.808 21.192C32.68 21.0633 32.539 20.9993 32.385 21H17.615C17.4617 21 17.3207 21.064 17.192 21.192C17.0633 21.32 16.9993 21.4613 17 21.616V26.5Z" fill="#105CE2"/>
</svg>
