<svg width="18" height="18" viewBox="0 0 18 18" fill="none" xmlns="http://www.w3.org/2000/svg">
<path d="M6.48152 -0.00195305C6.18715 -0.00194397 5.89857 0.0798589 5.64797 0.234328C5.39738 0.388797 5.19464 0.609857 5.06237 0.872841L4.43751 2.11619H2.64768C1.94547 2.11619 1.27202 2.39514 0.775488 2.89168C0.278951 3.38822 0 4.06167 0 4.76388V13.2365C0 13.9387 0.278951 14.6121 0.775488 15.1087C1.27202 15.6052 1.94547 15.8841 2.64768 15.8841H8.04472C7.87152 15.5456 7.73211 15.1909 7.6285 14.8251H2.64874C2.22742 14.8251 1.82335 14.6577 1.52542 14.3598C1.2275 14.0619 1.06013 13.6578 1.06013 13.2365V4.76388C1.06013 4.34255 1.2275 3.93848 1.52542 3.64056C1.82335 3.34264 2.22742 3.17527 2.64874 3.17527H4.76477C4.86285 3.17507 4.95894 3.14763 5.04235 3.09602C5.12575 3.04441 5.19317 2.97065 5.23711 2.88296L6.00812 1.34836C6.05229 1.26072 6.11994 1.18707 6.20354 1.13564C6.28713 1.08421 6.38338 1.05702 6.48152 1.05712H10.4679C10.5663 1.05693 10.6629 1.08418 10.7467 1.13581C10.8305 1.18744 10.8982 1.26142 10.9423 1.34942L11.708 2.8819C11.7521 2.96975 11.8197 3.04362 11.9033 3.09524C11.9869 3.14686 12.0832 3.1742 12.1815 3.17421H14.2985C14.7199 3.17421 15.1239 3.34158 15.4219 3.6395C15.7198 3.93742 15.8871 4.34149 15.8871 4.76282V8.04912C16.2646 8.24245 16.6197 8.47648 16.9462 8.74705V4.76282C16.9462 4.06061 16.6673 3.38716 16.1707 2.89062C15.6742 2.39408 15.0008 2.11513 14.2985 2.11513H12.5087L11.8892 0.876018C11.7572 0.612119 11.5543 0.390196 11.3032 0.235123C11.0522 0.0800512 10.7629 -0.00204138 10.4679 -0.00195305H6.48152ZM8.46835 4.23434C9.41404 4.23438 10.3326 4.55069 11.0777 5.13295C11.8229 5.7152 12.352 6.52996 12.5807 7.44757C12.2286 7.48696 11.8808 7.55857 11.5418 7.6615C11.3995 7.12081 11.1171 6.62723 10.723 6.23057C10.329 5.83391 9.83731 5.54821 9.29759 5.40231C8.75786 5.2564 8.18919 5.25546 7.64898 5.39956C7.10877 5.54367 6.61613 5.82773 6.22079 6.22307C5.82545 6.61842 5.54139 7.11106 5.39728 7.65127C5.25317 8.19148 5.25412 8.76014 5.40003 9.29987C5.54593 9.8396 5.83163 10.3313 6.22829 10.7253C6.62495 11.1193 7.11853 11.4018 7.65921 11.5441C7.55636 11.8828 7.48475 12.2302 7.44528 12.582C6.44458 12.3291 5.57055 11.7197 4.98719 10.8682C4.40382 10.0167 4.15122 8.98162 4.27678 7.95713C4.40234 6.93263 4.89743 5.98917 5.66915 5.30375C6.44088 4.61833 7.43619 4.23808 8.46835 4.23434ZM18 13.2365C18 14.5004 17.4979 15.7126 16.6041 16.6064C15.7104 17.5002 14.4981 18.0023 13.2342 18.0023C11.9702 18.0023 10.758 17.5002 9.86422 16.6064C8.97046 15.7126 8.46835 14.5004 8.46835 13.2365C8.46835 11.9725 8.97046 10.7603 9.86422 9.86651C10.758 8.97274 11.9702 8.47063 13.2342 8.47063C14.4981 8.47063 15.7104 8.97274 16.6041 9.86651C17.4979 10.7603 18 11.9725 18 13.2365ZM13.7637 11.1183C13.7637 10.9779 13.7079 10.8432 13.6086 10.7439C13.5093 10.6446 13.3746 10.5888 13.2342 10.5888C13.0937 10.5888 12.959 10.6446 12.8597 10.7439C12.7604 10.8432 12.7046 10.9779 12.7046 11.1183V12.7069H11.116C10.9756 12.7069 10.8409 12.7627 10.7416 12.862C10.6423 12.9613 10.5865 13.096 10.5865 13.2365C10.5865 13.3769 10.6423 13.5116 10.7416 13.6109C10.8409 13.7102 10.9756 13.766 11.116 13.766H12.7046V15.3546C12.7046 15.495 12.7604 15.6297 12.8597 15.729C12.959 15.8284 13.0937 15.8841 13.2342 15.8841C13.3746 15.8841 13.5093 15.8284 13.6086 15.729C13.7079 15.6297 13.7637 15.495 13.7637 15.3546V13.766H15.3523C15.4928 13.766 15.6274 13.7102 15.7268 13.6109C15.8261 13.5116 15.8819 13.3769 15.8819 13.2365C15.8819 13.096 15.8261 12.9613 15.7268 12.862C15.6274 12.7627 15.4928 12.7069 15.3523 12.7069H13.7637V11.1183Z" fill="#105CE2"/>
</svg>
