<svg width="20" height="20" viewBox="0 0 20 20" fill="none" xmlns="http://www.w3.org/2000/svg">
<path d="M5.85352 3.12533C5.85352 2.32033 6.50685 1.66699 7.31185 1.66699H16.8752C17.6802 1.66699 18.3335 2.32033 18.3335 3.12533V12.707C18.3335 13.0938 18.1799 13.4647 17.9064 13.7382C17.6329 14.0117 17.262 14.1653 16.8752 14.1653H7.31185C6.92507 14.1653 6.55414 14.0117 6.28065 13.7382C6.00716 13.4647 5.85352 13.0938 5.85352 12.707V3.12533ZM7.31185 2.91699C7.2566 2.91699 7.2036 2.93894 7.16453 2.97801C7.12546 3.01708 7.10352 3.07007 7.10352 3.12533V12.707C7.10352 12.8228 7.19685 12.9153 7.31185 12.9153H16.8752C16.9304 12.9153 16.9834 12.8934 17.0225 12.8543C17.0616 12.8152 17.0835 12.7622 17.0835 12.707V3.12533C17.0835 3.07007 17.0616 3.01708 17.0225 2.97801C16.9834 2.93894 16.9304 2.91699 16.8752 2.91699H7.31185Z" fill="#0A0A0A"/>
<path d="M1.66211 8.95721C1.662 8.76563 1.69964 8.57591 1.77288 8.39888C1.84612 8.22185 1.95352 8.06098 2.08895 7.92548C2.22438 7.78997 2.38518 7.68248 2.56217 7.60914C2.73916 7.5358 2.92886 7.49805 3.12044 7.49805H4.37461C4.54037 7.49805 4.69934 7.56389 4.81655 7.6811C4.93376 7.79831 4.99961 7.95729 4.99961 8.12305C4.99961 8.28881 4.93376 8.44778 4.81655 8.56499C4.69934 8.6822 4.54037 8.74805 4.37461 8.74805H3.12044C3.06519 8.74805 3.0122 8.77 2.97313 8.80907C2.93406 8.84814 2.91211 8.90113 2.91211 8.95638L2.91628 16.8747C2.91628 16.9897 3.00878 17.083 3.12461 17.083H11.0413C11.0965 17.083 11.1495 17.0611 11.1886 17.022C11.2277 16.983 11.2496 16.93 11.2496 16.8747V15.6164C11.2496 15.4506 11.3155 15.2916 11.4327 15.1744C11.5499 15.0572 11.7088 14.9914 11.8746 14.9914C12.0404 14.9914 12.1993 15.0572 12.3166 15.1744C12.4338 15.2916 12.4996 15.4506 12.4996 15.6164V16.8747C12.4996 17.2615 12.346 17.6324 12.0725 17.9059C11.799 18.1794 11.4281 18.333 11.0413 18.333H3.12461C2.73784 18.333 2.3669 18.1794 2.09341 17.9059C1.81992 17.6324 1.66628 17.2615 1.66628 16.8747L1.66211 8.95721Z" fill="#0A0A0A"/>
</svg>
