<svg width="100" height="26" viewBox="0 0 100 26" fill="none" xmlns="http://www.w3.org/2000/svg">
<path d="M50.5686 6.46094L47.3785 18.3439H43.7702L41.8182 10.5246L39.7967 18.3439H36.1884L33.0859 6.46094H36.276L38.0364 15.11L40.2149 6.46094H43.4926L45.5851 15.11L47.3636 6.46094H50.5719H50.5686Z" fill="white"/>
<path d="M54.979 6.35938C54.979 6.79913 54.8137 7.16987 54.4814 7.46839C54.1509 7.76691 53.7294 7.91617 53.217 7.91617C52.7046 7.91617 52.2666 7.76691 51.936 7.46839C51.6054 7.16987 51.4385 6.79913 51.4385 6.35938M54.698 8.89839V18.3435H51.7178V8.89839H54.698Z" fill="white"/>
<path d="M60.7996 9.24528C61.3219 8.94677 61.9038 8.7959 62.5434 8.7959V11.8597H61.7236C60.9798 11.8597 60.4211 12.0154 60.0509 12.3252C59.679 12.6349 59.4938 13.1806 59.4938 13.959V18.3437H56.5137V8.89862H59.4938V10.4731C59.8426 9.95467 60.279 9.5454 60.8013 9.24689L60.7996 9.24528Z" fill="white"/>
<path d="M72.742 14.3148H65.9965C66.0428 14.9022 66.2379 15.35 66.58 15.6597C66.9222 15.9695 67.3436 16.1252 67.8445 16.1252C68.5883 16.1252 69.1056 15.8202 69.3965 15.2104H72.5684C72.4064 15.8315 72.1122 16.39 71.6874 16.8859C71.2627 17.3834 70.7321 17.7718 70.0924 18.0543C69.4527 18.3368 68.7387 18.478 67.9486 18.478C66.9949 18.478 66.1469 18.2806 65.4031 17.8858C64.6593 17.491 64.0775 16.926 63.6593 16.1926C63.2412 15.4591 63.0312 14.6021 63.0312 13.6199C63.0312 12.6376 63.2379 11.7806 63.6494 11.0471C64.0627 10.3137 64.6395 9.75036 65.3833 9.35394C66.1271 8.95913 66.9817 8.76172 67.9453 8.76172C68.9089 8.76172 69.7238 8.95431 70.456 9.33789C71.1883 9.72147 71.7602 10.2688 72.1734 10.9797C72.5866 11.6907 72.7916 12.5205 72.7916 13.4674C72.7916 13.7386 72.775 14.0211 72.7387 14.3132L72.742 14.3148ZM69.7436 12.7067C69.7436 12.2107 69.5701 11.8159 69.2213 11.5222C68.8726 11.2285 68.4362 11.0825 67.9139 11.0825C67.3916 11.0825 66.9932 11.2237 66.6494 11.5062C66.3073 11.7886 66.0941 12.1899 66.0131 12.7083H69.7436V12.7067Z" fill="white"/>
<path d="M89.3109 9.86353C90.0249 10.5745 90.3836 11.5616 90.3836 12.8262V18.344H87.42V13.2146C87.42 12.6048 87.2547 12.1345 86.9225 11.8007C86.5919 11.4685 86.1357 11.3016 85.5539 11.3016C84.972 11.3016 84.5175 11.4685 84.1853 11.8007C83.8547 12.1329 83.6877 12.6048 83.6877 13.2146V18.344H80.7241V13.2146C80.7241 12.6048 80.5588 12.1345 80.2266 11.8007C79.896 11.4685 79.4398 11.3016 78.858 11.3016C78.2762 11.3016 77.82 11.4685 77.4894 11.8007C77.1588 12.1329 76.9919 12.6048 76.9919 13.2146V18.344H74.0117V8.89896H76.9919V10.0834C77.2944 9.68859 77.6894 9.37563 78.177 9.14452C78.6646 8.91341 79.2167 8.79785 79.8332 8.79785C80.5654 8.79785 81.2183 8.95032 81.7935 9.25526C82.3687 9.5602 82.8183 9.99514 83.1439 10.5585C83.4811 10.0401 83.939 9.61637 84.5208 9.28896C85.101 8.96155 85.7357 8.79785 86.4216 8.79785C87.6299 8.79785 88.5919 9.15255 89.3059 9.86353H89.3109Z" fill="white"/>
<path d="M95.3852 6.35938C95.3852 6.79913 95.2199 7.16987 94.8877 7.46839C94.5571 7.76691 94.1356 7.91617 93.6232 7.91617C93.1108 7.91617 92.6728 7.76691 92.3422 7.46839C92.0117 7.16987 91.8447 6.79913 91.8447 6.35938M95.1042 8.89839V18.3435H92.1241V8.89839H95.1042Z" fill="white"/>
<path d="M17.2282 12.7493L21.729 5.18359H28.9191C29.7571 5.18359 30.2795 6.06471 29.8596 6.76927L22.7869 18.6346C22.329 19.4033 21.1852 19.4017 20.7274 18.6346L17.2266 12.7509L17.2282 12.7493Z" fill="white"/>
<path d="M5.53884 5.18324H12.7289L17.2297 12.7489L13.7306 18.6326C13.2727 19.4014 12.1306 19.403 11.6711 18.6326L4.59835 6.76732C4.17851 6.06275 4.70083 5.18164 5.53884 5.18164V5.18324Z" fill="white"/>
</svg>
