<svg width="19" height="25" viewBox="0 0 19 25" fill="none" xmlns="http://www.w3.org/2000/svg">
<g clip-path="url(#clip0_1565_18857)">
<path d="M15.125 2.42484H7.625C5.765 2.42484 4.25 3.93984 4.25 5.79984V11.0498C4.25 12.9098 5.765 14.4248 7.625 14.4248H15.125C16.985 14.4248 18.5 12.9098 18.5 11.0498V5.79984C18.5 3.93984 16.985 2.42484 15.125 2.42484ZM7.625 3.17484H15.125C16.445 3.17484 17.525 4.15734 17.7125 5.42484H5.0375C5.225 4.15734 6.305 3.17484 7.625 3.17484ZM15.125 13.6748H7.625C6.1775 13.6748 5 12.4973 5 11.0498V6.17484H17.75V11.0498C17.75 12.4973 16.5725 13.6748 15.125 13.6748ZM13.91 16.0523C14.045 16.2098 14.03 16.4423 13.88 16.5848C13.265 17.1323 12.47 17.4248 11.645 17.4248H3.875C2.015 17.4248 0.5 15.9098 0.5 14.0498V8.39484C0.5 7.19484 1.145 6.06984 2.1875 5.46984C2.3675 5.36484 2.5925 5.42484 2.6975 5.60484C2.8025 5.78484 2.7425 6.00984 2.5625 6.11484C1.7525 6.57984 1.25 7.45734 1.25 8.38734V14.0423C1.25 15.4898 2.4275 16.6673 3.875 16.6673H11.6375C12.275 16.6673 12.89 16.4348 13.37 16.0073C13.5275 15.8723 13.76 15.8873 13.9025 16.0373L13.91 16.0523Z" fill="#989AAF"/>
</g>
<defs>
<clipPath id="clip0_1565_18857">
<rect width="18" height="18" fill="white" transform="translate(0.5 0.924835)"/>
</clipPath>
</defs>
</svg>
