<svg width="72" height="70" viewBox="0 0 72 70" fill="none" xmlns="http://www.w3.org/2000/svg">
<g filter="url(#filter0_d_1360_17747)">
<rect x="3" y="2.04297" width="66" height="65" rx="32.5" fill="white" shape-rendering="crispEdges"/>
<path d="M43.5 28.293V36.418C43.5 36.7495 43.3683 37.0674 43.1339 37.3019C42.8995 37.5363 42.5815 37.668 42.25 37.668H34.75V38.918C34.7501 39.0417 34.7135 39.1626 34.6448 39.2655C34.5762 39.3683 34.4785 39.4485 34.3642 39.4959C34.25 39.5432 34.1242 39.5556 34.0029 39.5314C33.8816 39.5073 33.7702 39.4477 33.6828 39.3602L31.8078 37.4852C31.7497 37.4271 31.7036 37.3582 31.6722 37.2823C31.6407 37.2064 31.6245 37.1251 31.6245 37.043C31.6245 36.9608 31.6407 36.8795 31.6722 36.8036C31.7036 36.7278 31.7497 36.6588 31.8078 36.6008L33.6828 34.7258C33.7702 34.6383 33.8816 34.5787 34.0029 34.5545C34.1242 34.5304 34.25 34.5427 34.3642 34.5901C34.4785 34.6374 34.5762 34.7176 34.6448 34.8205C34.7135 34.9234 34.7501 35.0443 34.75 35.168V36.418H42.25V28.293H33.5V28.918C33.5 29.0837 33.4342 29.2427 33.3169 29.3599C33.1997 29.4771 33.0408 29.543 32.875 29.543C32.7092 29.543 32.5503 29.4771 32.4331 29.3599C32.3158 29.2427 32.25 29.0837 32.25 28.918V28.293C32.25 27.9614 32.3817 27.6435 32.6161 27.4091C32.8505 27.1747 33.1685 27.043 33.5 27.043H42.25C42.5815 27.043 42.8995 27.1747 43.1339 27.4091C43.3683 27.6435 43.5 27.9614 43.5 28.293ZM39.125 39.543C38.9592 39.543 38.8003 39.6088 38.6831 39.726C38.5658 39.8432 38.5 40.0022 38.5 40.168V40.793H29.75V32.668H37.25V33.918C37.2499 34.0417 37.2865 34.1626 37.3552 34.2655C37.4238 34.3683 37.5215 34.4485 37.6358 34.4959C37.75 34.5432 37.8758 34.5556 37.9971 34.5314C38.1184 34.5073 38.2298 34.4477 38.3172 34.3602L40.1922 32.4852C40.2503 32.4271 40.2964 32.3582 40.3279 32.2823C40.3593 32.2064 40.3755 32.1251 40.3755 32.043C40.3755 31.9608 40.3593 31.8795 40.3279 31.8036C40.2964 31.7278 40.2503 31.6588 40.1922 31.6008L38.3172 29.7258C38.2298 29.6383 38.1184 29.5787 37.9971 29.5545C37.8758 29.5304 37.75 29.5427 37.6358 29.5901C37.5215 29.6374 37.4238 29.7176 37.3552 29.8205C37.2865 29.9234 37.2499 30.0443 37.25 30.168V31.418H29.75C29.4185 31.418 29.1005 31.5497 28.8661 31.7841C28.6317 32.0185 28.5 32.3364 28.5 32.668V40.793C28.5 41.1245 28.6317 41.4424 28.8661 41.6769C29.1005 41.9113 29.4185 42.043 29.75 42.043H38.5C38.8315 42.043 39.1495 41.9113 39.3839 41.6769C39.6183 41.4424 39.75 41.1245 39.75 40.793V40.168C39.75 40.0022 39.6842 39.8432 39.5669 39.726C39.4497 39.6088 39.2908 39.543 39.125 39.543Z" fill="#105CE2"/>
</g>
<defs>
<filter id="filter0_d_1360_17747" x="0.678571" y="0.301897" width="70.6429" height="69.6429" filterUnits="userSpaceOnUse" color-interpolation-filters="sRGB">
<feFlood flood-opacity="0" result="BackgroundImageFix"/>
<feColorMatrix in="SourceAlpha" type="matrix" values="0 0 0 0 0 0 0 0 0 0 0 0 0 0 0 0 0 0 127 0" result="hardAlpha"/>
<feMorphology radius="1.16071" operator="dilate" in="SourceAlpha" result="effect1_dropShadow_1360_17747"/>
<feOffset dy="0.580357"/>
<feGaussianBlur stdDeviation="0.580357"/>
<feComposite in2="hardAlpha" operator="out"/>
<feColorMatrix type="matrix" values="0 0 0 0 0.0392157 0 0 0 0 0.0392157 0 0 0 0 0.0392157 0 0 0 0.16 0"/>
<feBlend mode="normal" in2="BackgroundImageFix" result="effect1_dropShadow_1360_17747"/>
<feBlend mode="normal" in="SourceGraphic" in2="effect1_dropShadow_1360_17747" result="shape"/>
</filter>
</defs>
</svg>
