<svg width="16" height="17" viewBox="0 0 16 17" fill="none" xmlns="http://www.w3.org/2000/svg">
<path d="M3.99104 10.1094C3.63742 10.1094 2.40039 10.1094 1.72451 10.1094C1.47446 9.85935 1.33398 9.52021 1.33398 9.16659V3.16659C1.33398 2.81296 1.47446 2.47382 1.72451 2.22378C1.97456 1.97373 2.3137 1.83325 2.66732 1.83325H8.66732C9.02094 1.83325 9.36008 1.97373 9.61013 2.22378C9.86018 2.47382 10.0007 2.81296 10.0007 3.16659V3.83325M7.33398 6.49992H13.334C14.0704 6.49992 14.6673 7.09687 14.6673 7.83325V13.8333C14.6673 14.5696 14.0704 15.1666 13.334 15.1666H7.33398C6.5976 15.1666 6.00065 14.5696 6.00065 13.8333V7.83325C6.00065 7.09687 6.5976 6.49992 7.33398 6.49992Z" stroke="#105CE2" stroke-width="1.66667" stroke-linecap="round" stroke-linejoin="round"/>
</svg>
