<svg width="44" height="18" viewBox="0 0 44 18" fill="none" xmlns="http://www.w3.org/2000/svg">
<rect width="44" height="18" rx="5" fill="white"/>
<path d="M8.24 12.08C7.776 12.08 7.368 11.9947 7.016 11.824C6.664 11.648 6.37067 11.416 6.136 11.128C5.90667 10.8347 5.73333 10.5093 5.616 10.152C5.49867 9.78933 5.44 9.41867 5.44 9.04C5.44 8.66133 5.49867 8.29067 5.616 7.928C5.73333 7.56533 5.90667 7.24 6.136 6.952C6.37067 6.65867 6.664 6.42667 7.016 6.256C7.368 6.08533 7.776 6 8.24 6C8.624 6 8.952 6.05067 9.224 6.152C9.50133 6.248 9.73067 6.37333 9.912 6.528C10.0987 6.68267 10.248 6.848 10.36 7.024C10.4773 7.2 10.5627 7.36533 10.616 7.52C10.6747 7.67467 10.712 7.80267 10.728 7.904C10.7493 8 10.76 8.048 10.76 8.048H9.976C9.976 8.048 9.96533 8.00533 9.944 7.92C9.92267 7.82933 9.88 7.72 9.816 7.592C9.752 7.45867 9.656 7.32533 9.528 7.192C9.4 7.05867 9.232 6.94933 9.024 6.864C8.816 6.77333 8.55733 6.728 8.248 6.728C7.912 6.728 7.61867 6.79467 7.368 6.928C7.11733 7.056 6.90667 7.232 6.736 7.456C6.57067 7.67467 6.44533 7.92267 6.36 8.2C6.28 8.472 6.24 8.752 6.24 9.04C6.24 9.328 6.28 9.61067 6.36 9.888C6.44533 10.16 6.57067 10.408 6.736 10.632C6.90667 10.8507 7.11733 11.0267 7.368 11.16C7.61867 11.288 7.912 11.352 8.248 11.352C8.55733 11.352 8.816 11.3067 9.024 11.216C9.232 11.1253 9.4 11.016 9.528 10.888C9.656 10.7547 9.752 10.624 9.816 10.496C9.88 10.3627 9.92267 10.2507 9.944 10.16C9.96533 10.0693 9.976 10.024 9.976 10.024H10.76C10.76 10.024 10.7493 10.0747 10.728 10.176C10.712 10.272 10.6747 10.4 10.616 10.56C10.5627 10.7147 10.4773 10.88 10.36 11.056C10.248 11.2267 10.0987 11.392 9.912 11.552C9.73067 11.7067 9.50133 11.8347 9.224 11.936C8.952 12.032 8.624 12.08 8.24 12.08ZM13.5311 12.08C13.0778 12.08 12.6965 11.976 12.3871 11.768C12.0778 11.5547 11.8431 11.28 11.6831 10.944C11.5231 10.608 11.4431 10.2533 11.4431 9.88C11.4431 9.50133 11.5231 9.14667 11.6831 8.816C11.8431 8.48 12.0778 8.208 12.3871 8C12.6965 7.78667 13.0778 7.68 13.5311 7.68C13.9845 7.68 14.3658 7.78667 14.6751 8C14.9845 8.208 15.2191 8.48 15.3791 8.816C15.5391 9.14667 15.6191 9.50133 15.6191 9.88C15.6191 10.2533 15.5391 10.608 15.3791 10.944C15.2191 11.28 14.9845 11.5547 14.6751 11.768C14.3658 11.976 13.9845 12.08 13.5311 12.08ZM13.5311 11.416C13.8191 11.416 14.0591 11.344 14.2511 11.2C14.4485 11.0507 14.5951 10.8587 14.6911 10.624C14.7925 10.3893 14.8431 10.1413 14.8431 9.88C14.8431 9.61333 14.7925 9.36533 14.6911 9.136C14.5951 8.90133 14.4485 8.712 14.2511 8.568C14.0591 8.41867 13.8191 8.344 13.5311 8.344C13.2485 8.344 13.0085 8.41867 12.8111 8.568C12.6138 8.712 12.4645 8.90133 12.3631 9.136C12.2671 9.36533 12.2191 9.61333 12.2191 9.88C12.2191 10.1413 12.2671 10.3893 12.3631 10.624C12.4645 10.8587 12.6138 11.0507 12.8111 11.2C13.0085 11.344 13.2485 11.416 13.5311 11.416ZM16.4959 13.568V7.76H17.2559V8.432H17.3039C17.3679 8.33067 17.4533 8.22133 17.5599 8.104C17.6719 7.98667 17.8186 7.888 17.9999 7.808C18.1813 7.72267 18.4053 7.68 18.6719 7.68C18.9919 7.68 19.2719 7.744 19.5119 7.872C19.7519 7.99467 19.9519 8.16267 20.1119 8.376C20.2719 8.584 20.3919 8.81867 20.4719 9.08C20.5519 9.34133 20.5919 9.608 20.5919 9.88C20.5919 10.152 20.5519 10.4187 20.4719 10.68C20.3919 10.9413 20.2719 11.1787 20.1119 11.392C19.9519 11.6 19.7519 11.768 19.5119 11.896C19.2719 12.0187 18.9919 12.08 18.6719 12.08C18.4053 12.08 18.1813 12.0373 17.9999 11.952C17.8186 11.8667 17.6719 11.7653 17.5599 11.648C17.4533 11.5307 17.3679 11.424 17.3039 11.328H17.2559V13.568H16.4959ZM17.2719 9.88C17.2719 10.136 17.3173 10.384 17.4079 10.624C17.5039 10.8587 17.6453 11.0533 17.8319 11.208C18.0239 11.3573 18.2613 11.432 18.5439 11.432C18.8319 11.432 19.0693 11.3573 19.2559 11.208C19.4479 11.0533 19.5893 10.8587 19.6799 10.624C19.7759 10.384 19.8239 10.136 19.8239 9.88C19.8239 9.61867 19.7759 9.37067 19.6799 9.136C19.5893 8.90133 19.4479 8.70933 19.2559 8.56C19.0693 8.40533 18.8319 8.328 18.5439 8.328C18.2613 8.328 18.0239 8.40533 17.8319 8.56C17.6453 8.70933 17.5039 8.90133 17.4079 9.136C17.3173 9.37067 17.2719 9.61867 17.2719 9.88ZM21.2734 13.56C21.1508 13.56 21.0468 13.5547 20.9614 13.544C20.8761 13.5333 20.8334 13.528 20.8334 13.528V12.88C20.8334 12.88 20.8761 12.8827 20.9614 12.888C21.0521 12.8987 21.1481 12.904 21.2494 12.904C21.5641 12.904 21.8201 12.8373 22.0174 12.704C22.2201 12.576 22.3908 12.3627 22.5294 12.064L20.8894 7.76H21.6814L22.9054 11.072L24.1374 7.76H24.9374L23.2974 12.008C23.0894 12.5413 22.8201 12.9333 22.4894 13.184C22.1641 13.4347 21.7588 13.56 21.2734 13.56Z" fill="#00091E"/>
<path fill-rule="evenodd" clip-rule="evenodd" d="M29.5 7.125C29.5 6.91789 29.6679 6.75 29.875 6.75H31.75V4.875C31.75 4.66789 31.9179 4.5 32.125 4.5H38.125C38.3321 4.5 38.5 4.66789 38.5 4.875V10.875C38.5 11.0821 38.3321 11.25 38.125 11.25H36.25V13.125C36.25 13.3321 36.0821 13.5 35.875 13.5H29.875C29.6679 13.5 29.5 13.3321 29.5 13.125V7.125ZM36.25 7.125C36.25 6.91789 36.0821 6.75 35.875 6.75H32.5V5.25H37.75V10.5H36.25V7.125ZM30.25 7.5V12.75H35.5V7.5H30.25Z" fill="#1A1A1A"/>
</svg>
