<svg width="20" height="20" viewBox="0 0 20 20" fill="none" xmlns="http://www.w3.org/2000/svg">
<path d="M4.08376 8.23221V9.16645C4.08376 10.8209 5.42929 12.1664 7.08376 12.1664H8.74709C9.54941 12.1664 10.3059 11.8517 10.8721 11.2835C11.4384 10.7153 11.7501 9.95763 11.7471 9.15464C11.7471 9.15462 11.7471 9.1546 11.7471 9.15458L11.7438 8.24018C12.9382 7.23247 13.6653 5.81663 13.8024 4.27939C14.2667 3.64708 14.8213 3.21882 15.5628 3.03519C15.7874 2.97991 15.9878 2.97967 16.1554 3.03515C16.6926 3.21393 17.0013 3.67034 17.0013 4.16978V7.26561V7.45427L17.1259 7.5959C17.5227 8.04684 17.8518 8.55213 18.1014 9.09126L17.6898 9.50362L18.5886 9.69544C19.0776 9.7998 19.4996 10.1844 19.4996 10.8348V12.5014C19.4996 13.1521 19.0782 13.5364 18.5887 13.6408L18.3277 13.6964L18.2286 13.9442C17.7198 15.2175 16.7864 16.2951 15.5824 16.992L15.3329 17.1365V17.4248V17.5014C15.3329 18.3347 14.8378 19.0887 14.0939 19.3621L4.08376 8.23221ZM4.08376 8.23221C3.75525 7.95301 3.46727 7.64203 3.21635 7.30948C3.0525 7.46454 2.89835 7.62665 2.75578 7.79638L2.57324 8.01369L2.29308 7.96837C1.67501 7.86838 1.16709 7.34723 1.16709 6.66728C1.16709 6.15441 1.45731 5.70933 1.88046 5.48711L2.11292 5.92976L1.87945 5.48764C1.93204 5.45987 2.00043 5.37226 2.00043 5.22811C2.00043 5.10423 1.93474 4.9956 1.83348 4.93218C1.73474 4.87035 1.6273 4.8654 1.53342 4.9176L1.53317 4.91774C0.916719 5.26006 0.500427 5.91748 0.500427 6.66811C0.500427 7.46382 0.972098 8.15106 1.65666 8.47321L2.10799 8.6856L1.89668 9.13744C1.58967 9.79388 1.39514 10.5065 1.3469 11.2585L1.34688 11.2587C1.19338 13.63 2.38544 15.8322 4.41668 17.0024L4.66709 17.1466V17.4356V17.5014C4.66709 18.3339 5.1623 19.0886 5.90603 19.3621L4.08376 8.23221ZM8.67041 17.8348H9.02376H10.9763H11.3295L11.4475 18.1678C11.7987 19.1587 12.9099 19.7968 14.0938 19.3621L8.67041 17.8348ZM8.67041 17.8348L8.55245 18.1679M8.67041 17.8348L8.55245 18.1679M8.55245 18.1679C8.20128 19.1594 7.09113 19.7969 5.90624 19.3621L8.55245 18.1679ZM7.14717 0.588609L7.14749 0.588536C8.14519 0.357289 9.15922 0.584586 9.93831 1.2044C10.7201 1.82637 11.1671 2.75241 11.1671 3.74978C11.1671 4.69489 10.7578 5.561 10.0651 6.16645H5.77203C4.91898 5.42659 4.50389 4.28784 4.7298 3.10985C4.96529 1.88272 5.94223 0.867059 7.14717 0.588609ZM6.75126 8.83311H9.07993L9.08126 9.16492C9.08193 9.34999 8.9325 9.49978 8.74793 9.49978H7.08459C6.90074 9.49978 6.75126 9.35031 6.75126 9.16645V8.83311ZM12.8346 10.4164C12.8346 11.3826 13.6185 12.1664 14.5846 12.1664C15.5507 12.1664 16.3346 11.3826 16.3346 10.4164C16.3346 9.45031 15.5507 8.66645 14.5846 8.66645C13.6185 8.66645 12.8346 9.45031 12.8346 10.4164Z" stroke="#105CE2"/>
</svg>
