<svg width="20" height="20" viewBox="0 0 20 20" fill="none" xmlns="http://www.w3.org/2000/svg">
<g clip-path="url(#clip0_2578_3668)">
<path d="M16.1019 7.29232H6.92303C4.58135 7.29232 2.67688 9.19679 2.67688 11.5385V12.2806C2.60952 12.2228 2.54609 12.1602 2.48714 12.0931C2.28686 11.8653 2.14403 11.5929 2.07058 11.2986C2.07052 11.2984 2.07046 11.2982 2.0704 11.2979L0.604626 5.31331L0.604575 5.3131C0.354544 4.29462 0.991295 3.26023 2.01807 3.00855C2.01812 3.00854 2.01817 3.00853 2.01823 3.00852L12.4746 0.460952L12.4765 0.460486C12.6172 0.425496 12.7364 0.404372 12.8526 0.3997C13.2917 0.382835 13.7225 0.517822 14.0739 0.782139C14.425 1.04629 14.6743 1.42337 14.7799 1.84986C14.78 1.85011 14.78 1.85035 14.7801 1.8506L16.1019 7.29232ZM14.1629 3.22483L14.0692 2.83251L13.6777 2.92942L11.0577 3.57788L10.6685 3.67421L10.7658 4.0632L11.415 6.65936L11.5112 7.04395L11.8966 6.95122L14.4928 6.3266L14.881 6.2332L14.7883 5.84483L14.1629 3.22483ZM18.7738 12.7077H19.1738V12.3077V11.5385C19.1738 10.7245 18.5063 10.0569 17.6923 10.0569H6.92303C6.10904 10.0569 5.44149 10.7245 5.44149 11.5385V12.3077V12.7077H5.84149H18.7738ZM5.84149 14.2154H5.44149V14.6154L5.44149 17.6923L5.4415 17.6946C5.44371 18.0862 5.60027 18.4612 5.87721 18.7381C6.15415 19.0151 6.52913 19.1716 6.92078 19.1739H6.92303H17.6923C18.5063 19.1739 19.1738 18.5063 19.1738 17.6923V14.6154V14.2154H18.7738H5.84149ZM5.01534 11.5385C5.01534 10.4855 5.8701 9.63078 6.92303 9.63078H17.6923C18.7452 9.63078 19.6 10.4855 19.6 11.5385V17.6923C19.6 18.7452 18.7452 19.6 17.6923 19.6H6.92303C5.8701 19.6 5.01534 18.7452 5.01534 17.6923V11.5385Z" stroke="#00091E" stroke-width="0.8"/>
</g>
<defs>
<clipPath id="clip0_2578_3668">
<rect width="20" height="20" fill="white"/>
</clipPath>
</defs>
</svg>
