<svg width="72" height="70" viewBox="0 0 72 70" fill="none" xmlns="http://www.w3.org/2000/svg">
<g filter="url(#filter0_d_1580_20663)">
<rect x="3" y="2" width="66" height="65" rx="32.5" fill="white" shape-rendering="crispEdges"/>
<g clip-path="url(#clip0_1580_20663)">
<path d="M44.5 30.75V31H27.5V30.75C27.5 28.9584 28.9584 27.5 30.75 27.5H31.5H32V27V26.25C32 26.1121 32.1121 26 32.25 26C32.3879 26 32.5 26.1121 32.5 26.25V27V27.5H33H39H39.5V27V26.25C39.5 26.1121 39.6121 26 39.75 26C39.8879 26 40 26.1121 40 26.25V27V27.5H40.5H41.25C43.0416 27.5 44.5 28.9584 44.5 30.75ZM35.3861 43H30.75C28.9584 43 27.5 41.5416 27.5 39.75V33.5H37.0388C35.2142 34.6522 34 36.6869 34 39C34 40.51 34.5201 41.8979 35.3861 43ZM41.1 37.85C41.1064 37.85 41.1121 37.8521 41.1175 37.8575C41.1229 37.8629 41.125 37.8686 41.125 37.875C41.125 37.8814 41.1229 37.8871 41.1175 37.8925C41.1121 37.8979 41.1064 37.9 41.1 37.9H40.1375V37.85H41.1ZM41.5 40.125C41.5 40.1314 41.4979 40.1371 41.4925 40.1425C41.4871 40.1479 41.4814 40.15 41.475 40.15H40.1375V40.1H41.475C41.4814 40.1 41.4871 40.1021 41.4925 40.1075C41.4979 40.1129 41.5 40.1186 41.5 40.125ZM36.5 39C36.5 37.0583 37.8831 35.44 39.7179 35.0764C39.5658 35.2301 39.4588 35.4284 39.4181 35.65H39.0375C38.4299 35.65 37.9375 36.1424 37.9375 36.75V41.25C37.9375 41.8576 38.4299 42.35 39.0375 42.35H39.4181C39.4588 42.5716 39.5658 42.7699 39.7179 42.9236C37.8831 42.56 36.5 40.9417 36.5 39ZM43.6992 40.1569C43.7075 39.5961 43.5065 39.0819 43.1717 38.6871C43.2709 38.4348 43.325 38.1607 43.325 37.875C43.325 36.8156 42.5822 35.9281 41.5905 35.7044C41.5583 35.4609 41.4465 35.2426 41.2821 35.0764C43.1169 35.44 44.5 37.0583 44.5 39C44.5 40.9417 43.1169 42.56 41.2821 42.9236C41.4353 42.7687 41.5428 42.5686 41.5828 42.345C42.7253 42.2697 43.6823 41.3442 43.6992 40.1569Z" stroke="#105CE2"/>
</g>
</g>
<defs>
<filter id="filter0_d_1580_20663" x="0.678571" y="0.258929" width="70.6429" height="69.6429" filterUnits="userSpaceOnUse" color-interpolation-filters="sRGB">
<feFlood flood-opacity="0" result="BackgroundImageFix"/>
<feColorMatrix in="SourceAlpha" type="matrix" values="0 0 0 0 0 0 0 0 0 0 0 0 0 0 0 0 0 0 127 0" result="hardAlpha"/>
<feMorphology radius="1.16071" operator="dilate" in="SourceAlpha" result="effect1_dropShadow_1580_20663"/>
<feOffset dy="0.580357"/>
<feGaussianBlur stdDeviation="0.580357"/>
<feComposite in2="hardAlpha" operator="out"/>
<feColorMatrix type="matrix" values="0 0 0 0 0.0392157 0 0 0 0 0.0392157 0 0 0 0 0.0392157 0 0 0 0.16 0"/>
<feBlend mode="normal" in2="BackgroundImageFix" result="effect1_dropShadow_1580_20663"/>
<feBlend mode="normal" in="SourceGraphic" in2="effect1_dropShadow_1580_20663" result="shape"/>
</filter>
<clipPath id="clip0_1580_20663">
<rect width="18" height="18" fill="white" transform="translate(27 25.5)"/>
</clipPath>
</defs>
</svg>
