<svg width="20" height="20" viewBox="0 0 20 20" fill="none" xmlns="http://www.w3.org/2000/svg">
<rect x="0.5" y="0.5" width="19" height="19" rx="9.5" fill="white"/>
<rect x="0.5" y="0.5" width="19" height="19" rx="9.5" stroke="#EBEBEB"/>
<path fill-rule="evenodd" clip-rule="evenodd" d="M10.2753 9.77156L12.0587 11.5549L11.67 11.9441L9.72533 9.99935V7.24935H10.2753V9.77156ZM10.0003 14.5827C7.46895 14.5827 5.41699 12.5307 5.41699 9.99935C5.41699 7.46797 7.46895 5.41602 10.0003 5.41602C12.5317 5.41602 14.5837 7.46797 14.5837 9.99935C14.5837 12.5307 12.5317 14.5827 10.0003 14.5827ZM10.0003 14.0327C11.07 14.0327 12.0959 13.6077 12.8523 12.8513C13.6087 12.0949 14.0337 11.0691 14.0337 9.99935C14.0337 8.92964 13.6087 7.90375 12.8523 7.14735C12.0959 6.39095 11.07 5.96602 10.0003 5.96602C8.93062 5.96602 7.90472 6.39095 7.14833 7.14735C6.39193 7.90375 5.96699 8.92964 5.96699 9.99935C5.96699 11.0691 6.39193 12.0949 7.14833 12.8513C7.90472 13.6077 8.93062 14.0327 10.0003 14.0327Z" fill="#6E6E6E"/>
</svg>
