<svg width="16" height="16" viewBox="0 0 16 16" fill="none" xmlns="http://www.w3.org/2000/svg">
<path d="M10 10C10 10.2652 10.1054 10.5196 10.2929 10.7071C10.4804 10.8946 10.7348 11 11 11C11.2652 11 11.5196 10.8946 11.7071 10.7071C11.8946 10.5196 12 10.2652 12 10C12 9.73478 11.8946 9.48043 11.7071 9.29289C11.5196 9.10536 11.2652 9 11 9C10.7348 9 10.4804 9.10536 10.2929 9.29289C10.1054 9.48043 10 9.73478 10 10Z" stroke="white" stroke-linecap="round" stroke-linejoin="round"/>
<path d="M2 8V4C3.40333 4.414 6.384 4.95133 10.0027 5.202C11.95 5.33667 12.924 5.404 13.462 5.98467C14 6.56467 14 7.5 14 9.37V10.712C14 12.638 14 13.6007 13.344 14.2C12.6887 14.7993 11.7947 14.712 10.0073 14.5373C9.55964 14.4935 9.11269 14.4424 8.66667 14.384" stroke="white" stroke-linecap="round" stroke-linejoin="round"/>
<path d="M11.7507 5.33333C12.002 4.38466 12.2307 2.65866 11.5513 1.802C11.1213 1.25866 10.4813 1.31133 9.85467 1.366C6.55867 1.656 4.23 2.24466 2.92867 2.64466C2.36867 2.81666 2 3.36333 2 3.97333M7.33333 12H4.66667M4.66667 12H2M4.66667 12V14.6667M4.66667 12V9.33333" stroke="white" stroke-linecap="round" stroke-linejoin="round"/>
</svg>
