<svg width="16" height="16" viewBox="0 0 16 16" fill="none" xmlns="http://www.w3.org/2000/svg">
<path d="M9.57067 1.73012C9.58473 1.71243 9.60224 1.69779 9.62214 1.68707C9.64204 1.67636 9.66391 1.66981 9.68642 1.66781C9.70893 1.66582 9.73161 1.66842 9.75309 1.67547C9.77456 1.68251 9.79438 1.69385 9.81133 1.70879L10.426 2.25012L8.49267 4.66679H9.77267L11.1767 2.91212L12.278 3.88346C12.3106 3.91224 12.3306 3.95259 12.3338 3.99593C12.3371 4.03927 12.3233 4.08216 12.2953 4.11546L11.8353 4.66679H13.1313C13.2919 4.43178 13.361 4.14618 13.3256 3.86378C13.2902 3.58137 13.1529 3.32163 12.9393 3.13346L10.4727 0.958125C10.3537 0.853327 10.2146 0.773885 10.0638 0.724653C9.91311 0.67542 9.75392 0.65743 9.59601 0.67178C9.4381 0.68613 9.28477 0.732519 9.14538 0.808115C9.006 0.883711 8.88349 0.986927 8.78533 1.11146L5.984 4.66679H7.25733L9.57067 1.73012ZM10.8333 9.33346C10.7007 9.33346 10.5735 9.38614 10.4798 9.47991C10.386 9.57367 10.3333 9.70085 10.3333 9.83346C10.3333 9.96607 10.386 10.0932 10.4798 10.187C10.5735 10.2808 10.7007 10.3335 10.8333 10.3335H12.1667C12.2993 10.3335 12.4265 10.2808 12.5202 10.187C12.614 10.0932 12.6667 9.96607 12.6667 9.83346C12.6667 9.70085 12.614 9.57367 12.5202 9.47991C12.4265 9.38614 12.2993 9.33346 12.1667 9.33346H10.8333ZM3 4.83346C3 4.70085 3.05268 4.57367 3.14645 4.4799C3.24021 4.38614 3.36739 4.33346 3.5 4.33346H5.58533L6.38 3.33346H3.5C3.10218 3.33346 2.72064 3.49149 2.43934 3.7728C2.15804 4.0541 2 4.43563 2 4.83346V11.8335C2 12.4081 2.22827 12.9592 2.6346 13.3655C3.04093 13.7719 3.59203 14.0001 4.16667 14.0001H12.1667C12.7413 14.0001 13.2924 13.7719 13.6987 13.3655C14.1051 12.9592 14.3333 12.4081 14.3333 11.8335V7.50012C14.3333 6.92549 14.1051 6.37439 13.6987 5.96806C13.2924 5.56173 12.7413 5.33346 12.1667 5.33346H3.5C3.36739 5.33346 3.24021 5.28078 3.14645 5.18701C3.05268 5.09324 3 4.96607 3 4.83346ZM3 11.8335V6.24812C3.15733 6.30412 3.324 6.33257 3.5 6.33346H12.1667C12.8107 6.33346 13.3333 6.85612 13.3333 7.50012V11.8335C13.3333 12.1429 13.2104 12.4396 12.9916 12.6584C12.7728 12.8772 12.4761 13.0001 12.1667 13.0001H4.16667C3.85725 13.0001 3.5605 12.8772 3.34171 12.6584C3.12292 12.4396 3 12.1429 3 11.8335Z" fill="#105CE2"/>
</svg>
