<svg width="28" height="28" viewBox="0 0 28 28" fill="none" xmlns="http://www.w3.org/2000/svg">
<path d="M24.4453 12.6329C25.2902 12.6329 25.643 11.5474 24.9566 11.047L14.5141 3.45088C14.3649 3.34162 14.1849 3.28271 14 3.28271C13.8151 3.28271 13.6351 3.34162 13.4859 3.45088L3.04337 11.047C2.35704 11.5446 2.70977 12.6329 3.55743 12.6329H5.25001V22.8595H3.28126C3.16094 22.8595 3.06251 22.9579 3.06251 23.0782V24.5001C3.06251 24.6204 3.16094 24.7188 3.28126 24.7188H24.7188C24.8391 24.7188 24.9375 24.6204 24.9375 24.5001V23.0782C24.9375 22.9579 24.8391 22.8595 24.7188 22.8595H22.75V12.6329H24.4453ZM14 5.37861L21.4129 10.7708H6.58712L14 5.37861ZM7.21876 12.6329H10.418V22.8595H7.21876V12.6329ZM12.3867 12.6329H15.5859V22.8595H12.3867V12.6329ZM20.7813 22.8595H17.5547V12.6329H20.7813V22.8595Z" fill="#105CE2"/>
</svg>
