<svg width="20" height="20" viewBox="0 0 20 20" fill="none" xmlns="http://www.w3.org/2000/svg">
<rect x="0.5" y="0.5" width="19" height="19" rx="9.5" fill="white"/>
<rect x="0.5" y="0.5" width="19" height="19" rx="9.5" stroke="#EBEBEB"/>
<path d="M9.528 15.188V14.108C8.936 14.06 8.452 13.932 8.076 13.724C7.708 13.516 7.42 13.272 7.212 12.992C7.004 12.712 6.856 12.44 6.768 12.176C6.688 11.904 6.636 11.68 6.612 11.504C6.596 11.32 6.588 11.228 6.588 11.228H7.968C7.968 11.228 7.976 11.304 7.992 11.456C8.016 11.6 8.072 11.776 8.16 11.984C8.256 12.192 8.412 12.388 8.628 12.572C8.844 12.748 9.144 12.868 9.528 12.932V10.016L9.468 10.004C8.98 9.892 8.536 9.744 8.136 9.56C7.744 9.376 7.428 9.124 7.188 8.804C6.956 8.476 6.84 8.056 6.84 7.544C6.84 7.04 6.964 6.608 7.212 6.248C7.46 5.888 7.788 5.604 8.196 5.396C8.604 5.188 9.048 5.06 9.528 5.012V3.956H10.476V5.036C10.988 5.1 11.408 5.228 11.736 5.42C12.064 5.612 12.32 5.832 12.504 6.08C12.696 6.328 12.836 6.572 12.924 6.812C13.012 7.044 13.068 7.24 13.092 7.4C13.116 7.552 13.128 7.628 13.128 7.628H11.76C11.76 7.628 11.748 7.568 11.724 7.448C11.708 7.328 11.66 7.184 11.58 7.016C11.5 6.848 11.372 6.688 11.196 6.536C11.02 6.384 10.78 6.268 10.476 6.188V8.936L10.584 8.96C10.888 9.032 11.196 9.12 11.508 9.224C11.82 9.328 12.104 9.472 12.36 9.656C12.624 9.832 12.836 10.068 12.996 10.364C13.156 10.652 13.236 11.024 13.236 11.48C13.236 11.952 13.116 12.376 12.876 12.752C12.644 13.128 12.32 13.436 11.904 13.676C11.488 13.908 11.012 14.052 10.476 14.108V15.188H9.528ZM8.184 7.508C8.184 7.82 8.292 8.072 8.508 8.264C8.724 8.448 9.064 8.6 9.528 8.72V6.152C9.112 6.216 8.784 6.376 8.544 6.632C8.304 6.88 8.184 7.172 8.184 7.508ZM11.88 11.492C11.88 11.124 11.756 10.848 11.508 10.664C11.26 10.48 10.916 10.332 10.476 10.22V12.932C10.884 12.86 11.22 12.696 11.484 12.44C11.748 12.184 11.88 11.868 11.88 11.492Z" fill="#6E6E6E"/>
</svg>
