<svg width="31" height="31" viewBox="0 0 31 31" fill="none" xmlns="http://www.w3.org/2000/svg">
<path d="M16.8113 16.0144L11.2603 10.4691C11.1528 10.377 11.0146 10.3289 10.8732 10.3344C10.7318 10.3399 10.5976 10.3985 10.4976 10.4985C10.3975 10.5986 10.3389 10.7327 10.3334 10.8741C10.328 11.0155 10.3761 11.1538 10.4681 11.2613L15.5584 16.3515L10.6142 21.2957C10.5095 21.401 10.4508 21.5434 10.4508 21.6918C10.4508 21.8402 10.5095 21.9826 10.6142 22.0879C10.6664 22.1406 10.7286 22.1824 10.797 22.2109C10.8655 22.2394 10.9389 22.2541 11.0131 22.2541C11.0873 22.2541 11.1607 22.2394 11.2292 22.2109C11.2976 22.1824 11.3598 22.1406 11.412 22.0879L16.8113 16.6886C16.9005 16.5991 16.9506 16.4779 16.9506 16.3515C16.9506 16.2252 16.9005 16.1039 16.8113 16.0144Z" fill="#231F20"/>
<path d="M22.1941 16.0144L16.6431 10.4691C16.5356 10.377 16.3974 10.3289 16.256 10.3344C16.1146 10.3399 15.9804 10.3985 15.8804 10.4985C15.7803 10.5986 15.7217 10.7327 15.7162 10.8741C15.7108 11.0155 15.7589 11.1538 15.8509 11.2613L20.9412 16.3515L15.997 21.2957C15.8924 21.401 15.8336 21.5434 15.8336 21.6918C15.8336 21.8402 15.8924 21.9826 15.997 22.0879C16.1023 22.1926 16.2447 22.2513 16.3931 22.2513C16.5415 22.2513 16.6839 22.1926 16.7892 22.0879L22.1941 16.6886C22.2833 16.5991 22.3334 16.4779 22.3334 16.3515C22.3334 16.2252 22.2833 16.1039 22.1941 16.0144Z" fill="#231F20"/>
<circle cx="15.5" cy="15.5" r="15" stroke="#EBEBEB"/>
</svg>
