<svg width="63" height="63" viewBox="0 0 63 63" fill="none" xmlns="http://www.w3.org/2000/svg">
<g filter="url(#filter0_d_1954_2156)">
<rect x="3.5" y="3.5" width="54" height="54" rx="27" stroke="#263BD4" stroke-opacity="0.2" shape-rendering="crispEdges"/>
</g>
<path d="M24.3653 36.9593H35.632C35.7204 36.9593 35.8052 36.9242 35.8677 36.8617C35.9302 36.7992 35.9653 36.7144 35.9653 36.626C35.9653 36.5376 35.9302 36.4528 35.8677 36.3903C35.8052 36.3278 35.7204 36.2926 35.632 36.2926H24.3653C24.2769 36.2926 24.1921 36.3278 24.1296 36.3903C24.0671 36.4528 24.032 36.5376 24.032 36.626C24.032 36.7144 24.0671 36.7992 24.1296 36.8617C24.1921 36.9242 24.2769 36.9593 24.3653 36.9593ZM28.4733 34.454C28.7548 34.3748 29.0116 34.2257 29.22 34.0206L35.58 27.6606C35.7978 27.442 35.9201 27.1459 35.9201 26.8373C35.9201 26.5287 35.7978 26.2326 35.58 26.014L34.9533 25.394C34.7314 25.1825 34.4366 25.0645 34.13 25.0645C33.8234 25.0645 33.5286 25.1825 33.3066 25.394L26.9466 31.7473C26.7416 31.9546 26.5944 32.212 26.52 32.494L26.0266 34.334C26.0035 34.418 26.003 34.5068 26.0252 34.5911C26.0475 34.6754 26.0917 34.7523 26.1533 34.814C26.2478 34.9066 26.3744 34.9591 26.5066 34.9606L28.4733 34.454ZM28.7466 33.5473C28.6237 33.6724 28.4695 33.7622 28.3 33.8073L27.6533 33.9806L26.9866 33.314L27.16 32.6673C27.206 32.4982 27.2957 32.3442 27.42 32.2206L27.6733 31.974L29 33.3006L28.7466 33.5473ZM29.4733 32.8273L28.1466 31.5006L32.6333 27.014L33.96 28.3406L29.4733 32.8273ZM35.1066 27.194L34.4333 27.8673L33.1066 26.5406L33.78 25.8606C33.8737 25.767 34.0008 25.7144 34.1333 25.7144C34.2658 25.7144 34.3929 25.767 34.4866 25.8606L35.1066 26.4873C35.1996 26.5814 35.2518 26.7084 35.2518 26.8406C35.2518 26.9729 35.1996 27.0999 35.1066 27.194Z" fill="#105CE2"/>
<defs>
<filter id="filter0_d_1954_2156" x="0" y="0" width="63" height="63" filterUnits="userSpaceOnUse" color-interpolation-filters="sRGB">
<feFlood flood-opacity="0" result="BackgroundImageFix"/>
<feColorMatrix in="SourceAlpha" type="matrix" values="0 0 0 0 0 0 0 0 0 0 0 0 0 0 0 0 0 0 127 0" result="hardAlpha"/>
<feOffset dx="1" dy="1"/>
<feGaussianBlur stdDeviation="2"/>
<feComposite in2="hardAlpha" operator="out"/>
<feColorMatrix type="matrix" values="0 0 0 0 0.634145 0 0 0 0 0.621121 0 0 0 0 0.621121 0 0 0 0.03 0"/>
<feBlend mode="normal" in2="BackgroundImageFix" result="effect1_dropShadow_1954_2156"/>
<feBlend mode="normal" in="SourceGraphic" in2="effect1_dropShadow_1954_2156" result="shape"/>
</filter>
</defs>
</svg>
