<svg width="18" height="14" viewBox="0 0 18 14" fill="none" xmlns="http://www.w3.org/2000/svg">
<g clip-path="url(#clip0_2225_2688)">
<path d="M15.9575 13.4151H2.00268C0.894816 13.4151 0 12.5227 0 11.418V2.36723C0 1.26244 0.894816 0.370117 2.00268 0.370117H15.9575C17.0654 0.370117 17.9602 1.26244 17.9602 2.36723V11.418C17.9389 12.5227 17.0441 13.4151 15.9575 13.4151Z" fill="#2948FF"/>
<path d="M10.0986 8.14497C9.41687 8.61238 8.52205 8.61238 7.84029 8.14497L6.19979 7.01894L5.49673 7.82628L7.69115 9.84464C8.39422 10.567 9.5447 10.567 10.2478 9.84464L12.4422 7.82628L11.7391 7.01894L10.0986 8.14497ZM0 2.79102L5.04932 7.42261L5.70978 6.67901L0 2.79102ZM12.2505 6.67901L12.8896 7.42261L17.9389 2.79102L12.2505 6.67901Z" fill="#103BB2"/>
<path d="M12.8887 7.42285L12.4413 7.82652L17.0006 13.0955C17.171 12.9893 17.3201 12.8618 17.448 12.7131L12.8887 7.42285ZM0.467773 12.7131C0.595604 12.8618 0.74474 12.9893 0.915181 13.0955L5.47448 7.82652L5.02707 7.42285L0.467773 12.7131Z" fill="#1943C2"/>
<path d="M12.2509 6.67871L11.7396 7.01864L12.4427 7.82599L12.8901 7.42232L12.2509 6.67871ZM5.0498 7.42232L5.49721 7.82599L6.20028 7.01864L5.71026 6.67871L5.0498 7.42232Z" fill="#112E85"/>
<path d="M17.3637 0.964263C17.0015 0.603084 16.5115 0.390625 15.9575 0.390625H2.00268C1.44875 0.390625 0.958731 0.603084 0.596544 0.964263C0.213051 1.32544 0 1.8141 0 2.36649V2.77016L5.70978 6.65815L6.19979 6.99809L7.84029 8.12412C8.52205 8.59153 9.41687 8.59153 10.0986 8.12412L11.7391 6.99809L12.2291 6.65815L17.9389 2.77016V2.36649C17.9389 1.8141 17.7259 1.32544 17.3637 0.964263Z" fill="#396AFC"/>
</g>
<defs>
<clipPath id="clip0_2225_2688">
<rect width="18" height="13.3043" fill="white" transform="translate(0 0.347656)"/>
</clipPath>
</defs>
</svg>
