<svg width="71" height="70" viewBox="0 0 71 70" fill="none" xmlns="http://www.w3.org/2000/svg">
<g filter="url(#filter0_d_3211_48469)">
<rect x="2.5" y="2" width="66" height="65" rx="32.5" fill="white" shape-rendering="crispEdges"/>
<path d="M34.2248 42.8334C30.8982 42.8334 29.234 42.8334 28.1998 41.8567C27.1665 40.8809 27.1665 39.3092 27.1665 36.1667V32.8334C27.1665 29.6909 27.1665 28.1192 28.1998 27.1434C29.234 26.1667 30.8982 26.1667 34.2248 26.1667H35.1082C38.4357 26.1667 40.099 26.1667 41.1332 27.1434C42.1665 28.1192 42.1665 29.6909 42.1665 32.8334M31.3332 30.3334H37.9998M31.3332 34.5H36.3332" stroke="#105CE2" stroke-width="1.5" stroke-linecap="round" stroke-linejoin="round"/>
<path d="M37.1665 42.8334C38.6982 40.5434 42.2657 40.4184 43.8332 42.8334M42.1665 36.9409C42.1665 37.8284 41.4207 38.5475 40.4998 38.5475C39.579 38.5475 38.8332 37.8284 38.8332 36.9409C38.8332 36.0534 39.579 35.3334 40.4998 35.3334C41.4207 35.3334 42.1665 36.0534 42.1665 36.9409Z" stroke="#105CE2" stroke-width="1.5" stroke-linecap="round" stroke-linejoin="round"/>
</g>
<defs>
<filter id="filter0_d_3211_48469" x="0.178571" y="0.258929" width="70.6429" height="69.6429" filterUnits="userSpaceOnUse" color-interpolation-filters="sRGB">
<feFlood flood-opacity="0" result="BackgroundImageFix"/>
<feColorMatrix in="SourceAlpha" type="matrix" values="0 0 0 0 0 0 0 0 0 0 0 0 0 0 0 0 0 0 127 0" result="hardAlpha"/>
<feMorphology radius="1.16071" operator="dilate" in="SourceAlpha" result="effect1_dropShadow_3211_48469"/>
<feOffset dy="0.580357"/>
<feGaussianBlur stdDeviation="0.580357"/>
<feComposite in2="hardAlpha" operator="out"/>
<feColorMatrix type="matrix" values="0 0 0 0 0.0392157 0 0 0 0 0.0392157 0 0 0 0 0.0392157 0 0 0 0.16 0"/>
<feBlend mode="normal" in2="BackgroundImageFix" result="effect1_dropShadow_3211_48469"/>
<feBlend mode="normal" in="SourceGraphic" in2="effect1_dropShadow_3211_48469" result="shape"/>
</filter>
</defs>
</svg>
