<svg width="50" height="50" viewBox="0 0 50 50" fill="none" xmlns="http://www.w3.org/2000/svg">
<rect x="0.416667" y="0.416667" width="49.1667" height="49.1667" rx="24.5833" stroke="#EBEBEB" stroke-width="0.833333"/>
<g clip-path="url(#clip0_2230_2909)">
<path d="M28.6666 34.1675H21.3333C21.1712 34.1675 21.0158 34.1032 20.9012 33.9885C20.7866 33.8739 20.7222 33.7185 20.7222 33.5564C20.7222 33.3943 20.7866 33.2389 20.9012 33.1243C21.0158 33.0097 21.1712 32.9453 21.3333 32.9453H28.6666C28.8287 32.9453 28.9841 33.0097 29.0987 33.1243C29.2133 33.2389 29.2777 33.3943 29.2777 33.5564C29.2777 33.7185 29.2133 33.8739 29.0987 33.9885C28.9841 34.1032 28.8287 34.1675 28.6666 34.1675Z" fill="#105CE2"/>
<path d="M24.3887 19.5H25.6109V33.25H24.3887V19.5Z" fill="#105CE2"/>
<path d="M31.1112 18.2769H18.8889C18.7269 18.2769 18.5714 18.2125 18.4568 18.0979C18.3422 17.9833 18.2778 17.8279 18.2778 17.6658C18.2778 17.5037 18.3422 17.3483 18.4568 17.2337C18.5714 17.1191 18.7269 17.0547 18.8889 17.0547H31.1112C31.2732 17.0547 31.4287 17.1191 31.5433 17.2337C31.6579 17.3483 31.7223 17.5037 31.7223 17.6658C31.7223 17.8279 31.6579 17.9833 31.5433 18.0979C31.4287 18.2125 31.2732 18.2769 31.1112 18.2769Z" fill="#105CE2"/>
<path d="M30.4573 29.1487C29.7688 29.1514 29.0892 28.993 28.4727 28.6864C27.8563 28.3798 27.32 27.9333 26.9067 27.3826L26.54 26.8937L27.5117 26.1543L27.8784 26.6432C28.1792 27.0407 28.5681 27.3631 29.0145 27.585C29.4609 27.807 29.9526 27.9225 30.4511 27.9225C30.9497 27.9225 31.4414 27.807 31.8878 27.585C32.3342 27.3631 32.7231 27.0407 33.0239 26.6432L33.3906 26.1543L34.3623 26.8937L33.9956 27.3826C33.5835 27.9316 33.0492 28.3771 32.4351 28.6837C31.8209 28.9902 31.1437 29.1495 30.4573 29.1487Z" fill="#105CE2"/>
<path d="M32.6449 25.7636C32.5501 25.7632 32.4574 25.7353 32.3782 25.6832C32.299 25.6311 32.2367 25.5571 32.1988 25.4702L30.4571 21.4552L28.7154 25.4702C28.6636 25.5894 28.5665 25.683 28.4456 25.7306C28.3247 25.7781 28.1898 25.7757 28.0707 25.7239C27.9516 25.672 27.8579 25.5749 27.8104 25.454C27.7628 25.3331 27.7652 25.1983 27.8171 25.0791L30.011 20.0314C30.054 19.9494 30.1185 19.8808 30.1977 19.8329C30.2769 19.7851 30.3676 19.7598 30.4601 19.7598C30.5527 19.7598 30.6434 19.7851 30.7226 19.8329C30.8018 19.8808 30.8663 19.9494 30.9093 20.0314L33.0971 25.0791C33.1295 25.1534 33.1429 25.2345 33.1362 25.3152C33.1295 25.396 33.1028 25.4738 33.0586 25.5416C33.0144 25.6095 32.9539 25.6653 32.8828 25.7041C32.8116 25.7428 32.732 25.7633 32.651 25.7636H32.6449Z" fill="#105CE2"/>
<path d="M19.9155 29.1485C19.228 29.1502 18.5497 28.9914 17.9343 28.6848C17.319 28.3782 16.7837 27.9322 16.3711 27.3824L16.0044 26.8935L16.97 26.1602L17.3366 26.649C17.6375 27.0465 18.0264 27.3689 18.4727 27.5909C18.9191 27.8128 19.4109 27.9284 19.9094 27.9284C20.4079 27.9284 20.8997 27.8128 21.346 27.5909C21.7924 27.3689 22.1813 27.0465 22.4822 26.649L22.8488 26.1602L23.8205 26.8996L23.4538 27.3885C23.0411 27.9364 22.5066 28.3807 21.8924 28.6861C21.2783 28.9916 20.6014 29.1499 19.9155 29.1485Z" fill="#105CE2"/>
<path d="M22.1031 25.7636C22.0083 25.7632 21.9157 25.7353 21.8365 25.6832C21.7573 25.6311 21.6949 25.5571 21.657 25.4702L19.9153 21.4552L18.1798 25.4702C18.1279 25.5894 18.0309 25.683 17.9099 25.7306C17.789 25.7781 17.6542 25.7757 17.5351 25.7239C17.4159 25.672 17.3223 25.5749 17.2747 25.454C17.2272 25.3331 17.2296 25.1983 17.2814 25.0791L19.4692 20.0314C19.5122 19.9494 19.5768 19.8808 19.6559 19.8329C19.7351 19.7851 19.8259 19.7598 19.9184 19.7598C20.0109 19.7598 20.1017 19.7851 20.1808 19.8329C20.26 19.8808 20.3246 19.9494 20.3676 20.0314L22.5553 25.0791C22.5877 25.1534 22.6012 25.2345 22.5945 25.3152C22.5877 25.396 22.5611 25.4738 22.5168 25.5416C22.4726 25.6095 22.4122 25.6653 22.341 25.7041C22.2699 25.7428 22.1902 25.7633 22.1092 25.7636H22.1031Z" fill="#105CE2"/>
</g>
<defs>
<clipPath id="clip0_2230_2909">
<rect width="22" height="22" fill="white" transform="translate(14 14)"/>
</clipPath>
</defs>
</svg>
