<svg width="50" height="50" viewBox="0 0 50 50" fill="none" xmlns="http://www.w3.org/2000/svg">
<rect x="0.416667" y="0.416667" width="49.1667" height="49.1667" rx="24.5833" stroke="#EBEBEB" stroke-width="0.833333"/>
<g clip-path="url(#clip0_2230_2886)">
<path fill-rule="evenodd" clip-rule="evenodd" d="M25.2312 16.3535L24.5337 16.3585L17.1475 21.4048L17.1525 22.4398L24.5375 27.3935L25.225 27.3985L32.84 22.4448L32.8437 21.3998L25.2312 16.3535ZM18.615 21.916L24.8912 17.6285L31.3612 21.916L24.8912 26.126L18.615 21.916ZM24.5387 30.5185L17.2412 25.6248H19.485L24.8912 29.2498L30.465 25.6248H32.7562L31.7562 26.2748C30.6199 26.1585 29.4781 26.4348 28.5206 27.0577C27.5632 27.6806 26.8479 28.6126 26.4937 29.6985L25.2275 30.5235L24.5387 30.5185ZM26.255 31.4885L24.8925 32.376L19.4837 28.7498H17.2412L24.5387 33.6435L25.2262 33.6485L26.5012 32.8198C26.3592 32.3892 26.2763 31.9414 26.255 31.4885ZM29.1662 28.1323C29.5751 27.8444 30.0375 27.6413 30.5261 27.5349C31.0147 27.4284 31.5197 27.4207 32.0113 27.5123C32.5029 27.6039 32.9712 27.7929 33.3887 28.0681C33.8062 28.3434 34.1644 28.6994 34.4423 29.1152C34.7202 29.5309 34.9121 29.9981 35.0067 30.4891C35.1014 30.9801 35.0969 31.4851 34.9935 31.9744C34.8901 32.4636 34.6898 32.9273 34.4046 33.338C34.1193 33.7487 33.7548 34.0983 33.3325 34.366C32.5057 34.8902 31.5068 35.0703 30.549 34.8678C29.5913 34.6654 28.7507 34.0965 28.2068 33.2826C27.6628 32.4688 27.4587 31.4745 27.638 30.5121C27.8172 29.5498 28.3657 28.6957 29.1662 28.1323ZM31.2887 32.9035L33.5262 29.9198L32.5262 29.1698L30.6762 31.6373L29.5812 30.7623L28.8012 31.7373L30.3987 33.016L31.2887 32.9035Z" fill="#105CE2"/>
</g>
<defs>
<clipPath id="clip0_2230_2886">
<rect width="20" height="20" fill="white" transform="translate(15 15)"/>
</clipPath>
</defs>
</svg>
