<svg width="50" height="50" viewBox="0 0 50 50" fill="none" xmlns="http://www.w3.org/2000/svg">
<rect x="0.416667" y="0.416667" width="49.1667" height="49.1667" rx="24.5833" stroke="#EBEBEB" stroke-width="0.833333"/>
<g clip-path="url(#clip0_2230_2902)">
<path d="M17.2813 25C17.2813 22.9529 18.0945 20.9896 19.542 19.542C20.9896 18.0945 22.9529 17.2813 25 17.2813C27.0471 17.2813 29.0104 18.0945 30.458 19.542C31.9055 20.9896 32.7188 22.9529 32.7188 25C32.7188 25.2362 32.8126 25.4627 32.9796 25.6298C33.1466 25.7968 33.3732 25.8906 33.6094 25.8906C33.8456 25.8906 34.0721 25.7968 34.2391 25.6298C34.4062 25.4627 34.5 25.2362 34.5 25C34.5 23.1211 33.9428 21.2844 32.899 19.7221C31.8551 18.1598 30.3714 16.9422 28.6355 16.2231C26.8996 15.5041 24.9895 15.316 23.1466 15.6825C21.3038 16.0491 19.6111 16.9539 18.2825 18.2825C16.9539 19.6111 16.0491 21.3038 15.6825 23.1466C15.316 24.9895 15.5041 26.8996 16.2231 28.6355C16.9422 30.3714 18.1598 31.8551 19.7221 32.899C21.2844 33.9428 23.1211 34.5 25 34.5C25.2362 34.5 25.4627 34.4062 25.6298 34.2391C25.7968 34.0721 25.8906 33.8456 25.8906 33.6094C25.8906 33.3732 25.7968 33.1466 25.6298 32.9796C25.4627 32.8126 25.2362 32.7188 25 32.7188C22.9529 32.7188 20.9896 31.9055 19.542 30.458C18.0945 29.0104 17.2813 27.0471 17.2813 25Z" fill="#105CE2"/>
<path d="M25.8039 30.2565L29.2429 33.6955C29.2844 33.7371 29.3373 33.7655 29.395 33.777C29.4527 33.7885 29.5124 33.7826 29.5667 33.7601C29.6211 33.7376 29.6675 33.6995 29.7001 33.6505C29.7327 33.6016 29.75 33.5441 29.7499 33.4853V30.9369H33.6093C33.8455 30.9369 34.0721 30.8431 34.2391 30.6761C34.4061 30.5091 34.4999 30.2825 34.4999 30.0463C34.4999 29.8101 34.4061 29.5836 34.2391 29.4166C34.0721 29.2495 33.8455 29.1557 33.6093 29.1557H29.7499V26.6073C29.75 26.5485 29.7327 26.491 29.7001 26.4421C29.6675 26.3932 29.6211 26.3551 29.5667 26.3325C29.5124 26.31 29.4527 26.3041 29.395 26.3156C29.3373 26.3271 29.2844 26.3555 29.2429 26.3971L25.8039 29.8361C25.7762 29.8637 25.7543 29.8965 25.7393 29.9325C25.7244 29.9686 25.7167 30.0073 25.7167 30.0463C25.7167 30.0854 25.7244 30.124 25.7393 30.1601C25.7543 30.1962 25.7762 30.2289 25.8039 30.2565ZM28.8949 23.5507C28.9776 23.468 29.0431 23.3699 29.0879 23.2619C29.1326 23.1539 29.1556 23.0382 29.1556 22.9213C29.1556 22.8044 29.1326 22.6887 29.0879 22.5807C29.0431 22.4727 28.9776 22.3746 28.8949 22.2919C28.8123 22.2093 28.7142 22.1437 28.6062 22.099C28.4982 22.0543 28.3824 22.0312 28.2656 22.0312C28.1487 22.0312 28.0329 22.0543 27.9249 22.099C27.817 22.1437 27.7188 22.2093 27.6362 22.2919L24.1093 25.8176L22.3637 24.0732C22.281 23.9905 22.1829 23.925 22.0749 23.8803C21.9669 23.8355 21.8512 23.8125 21.7343 23.8125C21.6174 23.8125 21.5017 23.8355 21.3937 23.8803C21.2857 23.925 21.1876 23.9905 21.1049 24.0732C21.0223 24.1558 20.9567 24.254 20.912 24.362C20.8673 24.4699 20.8442 24.5857 20.8442 24.7026C20.8442 24.8195 20.8673 24.9352 20.912 25.0432C20.9567 25.1512 21.0223 25.2493 21.1049 25.3319L23.4799 27.7069C23.6469 27.8737 23.8733 27.9674 24.1093 27.9674C24.3453 27.9674 24.5717 27.8737 24.7387 27.7069L28.8949 23.5507Z" fill="#105CE2"/>
</g>
<defs>
<clipPath id="clip0_2230_2902">
<rect width="19" height="19" fill="white" transform="translate(15.5 15.5)"/>
</clipPath>
</defs>
</svg>
