<svg width="66" height="66" viewBox="0 0 66 66" fill="none" xmlns="http://www.w3.org/2000/svg">
<rect x="0.5" y="0.5" width="65" height="65" rx="9.5" fill="#F9FAFC"/>
<rect x="0.5" y="0.5" width="65" height="65" rx="9.5" stroke="#EBEBEB"/>
<path d="M31.125 34.9062H32.5V29.4062M38 29.0625V27M28.375 38.6875C30.4375 40.75 34.5625 40.75 36.625 38.6875M27 29.0625V27M28.925 44.875C25.845 44.875 24.305 44.875 23.128 44.2755C22.0932 43.7482 21.2518 42.9068 20.7245 41.872C20.125 40.695 20.125 39.155 20.125 36.075M44.875 36.075C44.875 39.155 44.875 40.695 44.2755 41.872C43.7482 42.9068 42.9068 43.7482 41.872 44.2755C40.695 44.875 39.155 44.875 36.075 44.875M36.075 20.125C39.155 20.125 40.695 20.125 41.872 20.7245C42.9068 21.2518 43.7482 22.0932 44.2755 23.128C44.875 24.305 44.875 25.845 44.875 28.925M28.925 20.125C25.845 20.125 24.305 20.125 23.128 20.7245C22.0932 21.2518 21.2518 22.0932 20.7245 23.128C20.125 24.305 20.125 25.845 20.125 28.925" stroke="#105CE2" stroke-width="1.5" stroke-linecap="round" stroke-linejoin="round"/>
</svg>
