<svg width="24" height="24" viewBox="0 0 24 24" fill="none" xmlns="http://www.w3.org/2000/svg">
<path d="M12.3536 4.78221L4.92912 12.2072C4.08534 13.0511 3.61133 14.1956 3.61133 15.389C3.61133 16.5823 4.08534 17.7268 4.92912 18.5707C5.34698 18.9886 5.84306 19.3201 6.38903 19.5462C6.935 19.7724 7.52016 19.8887 8.11112 19.8887C8.70207 19.8887 9.28724 19.7724 9.83321 19.5462C10.3792 19.3201 10.8753 18.9886 11.2931 18.5707L20.1321 9.73221C20.4107 9.45363 20.6318 9.12289 20.7826 8.75888C20.9334 8.39487 21.011 8.00472 21.011 7.61071C21.011 7.2167 20.9334 6.82655 20.7826 6.46254C20.6318 6.09853 20.4107 5.76779 20.1321 5.48921C19.8535 5.21058 19.5228 4.98956 19.1588 4.83876C18.7948 4.68797 18.4046 4.61035 18.0106 4.61035C17.6166 4.61035 17.2265 4.68797 16.8624 4.83876C16.4984 4.98956 16.1677 5.21058 15.8891 5.48921L7.05062 14.3282C6.9113 14.4675 6.80079 14.6329 6.72539 14.8149C6.64999 14.9969 6.61119 15.192 6.61119 15.389C6.61119 15.586 6.64999 15.781 6.72539 15.963C6.80079 16.1451 6.9113 16.3104 7.05062 16.4497C7.33191 16.7309 7.71337 16.8889 8.11112 16.8889C8.50886 16.8889 8.89033 16.7309 9.17162 16.4497L16.5966 9.02471" stroke="#606162" stroke-width="1.5" stroke-linecap="round" stroke-linejoin="round"/>
</svg>
