<svg width="50" height="50" viewBox="0 0 50 50" fill="none" xmlns="http://www.w3.org/2000/svg">
<rect width="50" height="50" rx="25" fill="white"/>
<path d="M22.5 28.125C22.5 27.9592 22.5658 27.8003 22.6831 27.6831C22.8003 27.5658 22.9592 27.5 23.125 27.5H26.875C27.0408 27.5 27.1997 27.5658 27.3169 27.6831C27.4342 27.8003 27.5 27.9592 27.5 28.125C27.5 28.2908 27.4342 28.4497 27.3169 28.5669C27.1997 28.6842 27.0408 28.75 26.875 28.75H23.125C22.9592 28.75 22.8003 28.6842 22.6831 28.5669C22.5658 28.4497 22.5 28.2908 22.5 28.125ZM20 24.375C20 24.2092 20.0658 24.0503 20.1831 23.9331C20.3003 23.8158 20.4592 23.75 20.625 23.75H29.375C29.5408 23.75 29.6997 23.8158 29.8169 23.9331C29.9342 24.0503 30 24.2092 30 24.375C30 24.5408 29.9342 24.6997 29.8169 24.8169C29.6997 24.9342 29.5408 25 29.375 25H20.625C20.4592 25 20.3003 24.9342 20.1831 24.8169C20.0658 24.6997 20 24.5408 20 24.375ZM17.5 20.625C17.5 20.4592 17.5658 20.3003 17.6831 20.1831C17.8003 20.0658 17.9592 20 18.125 20H31.875C32.0408 20 32.1997 20.0658 32.3169 20.1831C32.4342 20.3003 32.5 20.4592 32.5 20.625C32.5 20.7908 32.4342 20.9497 32.3169 21.0669C32.1997 21.1842 32.0408 21.25 31.875 21.25H18.125C17.9592 21.25 17.8003 21.1842 17.6831 21.0669C17.5658 20.9497 17.5 20.7908 17.5 20.625Z" fill="#00091E"/>
</svg>
