<svg width="27" height="46" viewBox="0 0 27 46" fill="none" xmlns="http://www.w3.org/2000/svg">
<path d="M15.0636 25.7322V23.8946C15.0636 23.17 14.4742 22.5806 13.7496 22.5806C13.0251 22.5806 12.4356 23.17 12.4356 23.8946V25.5537C12.4356 27.5531 11.699 29.4726 10.3615 30.9588L8.51732 33.0078C8.36237 33.18 8.37635 33.4452 8.54852 33.6002C8.72063 33.7551 8.98578 33.7411 9.14077 33.569L10.9849 31.5199C12.4613 29.8794 13.2743 27.7606 13.2743 25.5537V23.8946C13.2743 23.6325 13.4875 23.4193 13.7496 23.4193C14.0117 23.4193 14.2249 23.6325 14.2249 23.8946V25.7322C14.2249 28.1926 13.3134 30.5503 11.6583 32.3709L9.86068 34.3483C9.7049 34.5196 9.71754 34.7849 9.88892 34.9407C9.96927 35.0138 10.0702 35.0497 10.1708 35.0497C10.2849 35.0497 10.3985 35.0035 10.4813 34.9124L12.2789 32.935C14.0746 30.9597 15.0636 28.4017 15.0636 25.7322Z" fill="#105CE2"/>
<path d="M16.8534 23.8948C16.8534 22.1836 15.4613 20.7915 13.7501 20.7915C12.0389 20.7915 10.6468 22.1836 10.6468 23.8948V25.5539C10.6468 27.1106 10.0734 28.605 9.03204 29.762L7.72099 31.2188C7.56605 31.3909 7.58003 31.6561 7.75219 31.8111C7.92436 31.966 8.18945 31.9519 8.34445 31.7799L9.6555 30.3231C10.8356 29.0119 11.4856 27.3181 11.4856 25.5539V23.8948C11.4856 22.6461 12.5015 21.6302 13.7502 21.6302C14.9989 21.6302 16.0148 22.6461 16.0148 23.8948V25.7324C16.0148 28.6388 14.9381 31.424 12.9829 33.5747L11.4662 35.2431C11.3103 35.4145 11.323 35.6798 11.4943 35.8356C11.5747 35.9086 11.6756 35.9446 11.7763 35.9446C11.8903 35.9446 12.0039 35.8983 12.0867 35.8073L13.6035 34.1389C15.6992 31.8335 16.8534 28.848 16.8534 25.7324V23.8948Z" fill="#105CE2"/>
<path d="M18.6435 23.8931C18.6435 21.1953 16.4487 19.0005 13.7509 19.0005C11.0531 19.0005 8.8583 21.1953 8.8583 23.8931V25.5522C8.8583 26.666 8.44794 27.7354 7.70281 28.5633L6.52232 29.875C6.36738 30.0471 6.38136 30.3123 6.55352 30.4673C6.72563 30.6222 6.99084 30.6081 7.14578 30.4361L8.32627 29.1244C9.21023 28.1423 9.69703 26.8736 9.69703 25.5522V23.8931C9.69703 21.6578 11.5156 19.8392 13.7509 19.8392C15.9862 19.8392 17.8048 21.6578 17.8048 23.8931V25.7307C17.8048 29.0833 16.5628 32.2958 14.3075 34.7765L13.8878 35.2383C13.732 35.4097 13.7446 35.6749 13.916 35.8307C13.9964 35.9037 14.0974 35.9397 14.1979 35.9397C14.312 35.9397 14.4256 35.8935 14.5084 35.8025L14.9281 35.3407C17.324 32.7053 18.6434 29.2924 18.6434 25.7307V23.8931H18.6435Z" fill="#105CE2"/>
<path d="M7.06848 23.894C7.06848 24.1256 7.25625 24.3134 7.48785 24.3134C7.71945 24.3134 7.90721 24.1256 7.90721 23.894C7.90721 22.4818 8.4199 21.1177 9.35089 20.0529C10.2732 18.9979 11.5391 18.308 12.9153 18.1103C13.1445 18.0774 13.3037 17.8648 13.2707 17.6356C13.2378 17.4063 13.025 17.2474 12.796 17.2801C11.2214 17.5064 9.77367 18.295 8.71944 19.5009C7.65481 20.7186 7.06848 22.2788 7.06848 23.894Z" fill="#105CE2"/>
<path d="M7.90735 25.5536C7.90735 25.322 7.71959 25.1343 7.48799 25.1343C7.25638 25.1343 7.06862 25.322 7.06862 25.5536C7.06862 26.2247 6.82142 26.8689 6.37253 27.3677L5.32249 28.5345C5.16755 28.7066 5.18153 28.9718 5.35369 29.1268C5.43388 29.1989 5.53413 29.2344 5.63411 29.2344C5.74885 29.2344 5.86319 29.1875 5.94595 29.0956L6.99599 27.9288C7.58366 27.2758 7.90735 26.4323 7.90735 25.5536Z" fill="#105CE2"/>
<path d="M19.609 29.2974C19.3848 29.239 19.1558 29.3729 19.0971 29.5969C18.9422 30.1884 18.7496 30.7765 18.5245 31.3447C18.4392 31.56 18.5446 31.8038 18.7599 31.889C18.8106 31.9091 18.8628 31.9186 18.9143 31.9186C19.0812 31.9186 19.239 31.8183 19.3043 31.6536C19.5419 31.0539 19.7451 30.4335 19.9085 29.8092C19.9671 29.5852 19.833 29.356 19.609 29.2974Z" fill="#105CE2"/>
<path d="M18.2135 18.9249C18.0413 18.77 17.7761 18.7842 17.6213 18.9564C17.4665 19.1286 17.4806 19.3938 17.6528 19.5486C18.8863 20.6575 19.5938 22.2413 19.5938 23.894V25.7316C19.5938 26.4291 19.5457 27.1319 19.4508 27.8206C19.4192 28.05 19.5796 28.2616 19.809 28.2932C19.8284 28.2959 19.8477 28.2972 19.8667 28.2972C20.073 28.2972 20.2527 28.145 20.2816 27.935C20.3817 27.2085 20.4325 26.4671 20.4325 25.7316V23.894C20.4326 22.0038 19.6237 20.1926 18.2135 18.9249Z" fill="#105CE2"/>
<path d="M16.2526 18.6143C16.3108 18.642 16.3721 18.6551 16.4326 18.6551C16.5893 18.6551 16.7397 18.5668 16.8115 18.4159C16.9111 18.2068 16.8222 17.9566 16.6132 17.857C16.0089 17.5693 15.3668 17.3753 14.7044 17.2801C14.4749 17.2474 14.2627 17.4064 14.2297 17.6356C14.1968 17.8648 14.3559 18.0774 14.5852 18.1103C15.1638 18.1935 15.7247 18.363 16.2526 18.6143Z" fill="#105CE2"/>
<path d="M13.75 15.4238C13.5931 15.4238 13.4344 15.4282 13.2782 15.4368C13.0469 15.4495 12.8698 15.6474 12.8825 15.8786C12.8953 16.1099 13.093 16.2879 13.3244 16.2742C13.4652 16.2664 13.6084 16.2625 13.7499 16.2625C17.9584 16.2625 21.3824 19.6864 21.3824 23.895V25.7326C21.3824 25.9642 21.5701 26.1519 21.8017 26.1519C22.0333 26.1519 22.2211 25.9642 22.2211 25.7326V23.895C22.2212 19.224 18.421 15.4238 13.75 15.4238Z" fill="#105CE2"/>
<path d="M9.16458 17.6991C9.24717 17.6991 9.33065 17.6747 9.40362 17.624C10.1013 17.1388 10.8676 16.7766 11.6812 16.5472C11.9042 16.4843 12.0339 16.2526 11.9711 16.0297C11.9082 15.8069 11.6765 15.6773 11.4536 15.7399C10.5501 15.9946 9.69924 16.3968 8.92481 16.9353C8.73464 17.0675 8.68768 17.3289 8.81992 17.519C8.90138 17.6363 9.03189 17.6991 9.16458 17.6991Z" fill="#105CE2"/>
<path d="M6.1182 25.553V23.8939C6.1182 21.943 6.85701 20.085 8.19853 18.6621C8.35739 18.4936 8.34962 18.2282 8.18109 18.0693C8.01256 17.9104 7.74713 17.9183 7.58827 18.0868C6.09941 19.6659 5.27947 21.7282 5.27947 23.8939V25.553C5.27947 25.7813 5.19537 26.0004 5.04272 26.17L4.52562 26.7445C4.37068 26.9167 4.38465 27.1818 4.55682 27.3368C4.63695 27.409 4.73726 27.4445 4.83723 27.4445C4.95197 27.4445 5.06626 27.3977 5.14907 27.3057L5.66618 26.7312C5.95767 26.4072 6.1182 25.9888 6.1182 25.553Z" fill="#105CE2"/>
<path d="M23.4778 20.6283C23.0179 19.2614 22.2869 18.0265 21.3052 16.9579C21.1485 16.7874 20.8832 16.7761 20.7127 16.9328C20.5421 17.0896 20.5309 17.3548 20.6876 17.5254C21.5893 18.507 22.2607 19.6409 22.683 20.8958C22.7419 21.071 22.9053 21.1815 23.0803 21.1815C23.1247 21.1815 23.1698 21.1744 23.2142 21.1595C23.4336 21.0856 23.5517 20.8478 23.4778 20.6283Z" fill="#105CE2"/>
<path d="M17.0645 14.1833C16.8454 14.1084 16.6069 14.2252 16.5319 14.4444C16.4569 14.6635 16.5738 14.9019 16.7929 14.9768C17.7177 15.2933 18.5859 15.7517 19.3734 16.3394C19.4487 16.3956 19.5367 16.4227 19.6239 16.4227C19.7517 16.4227 19.878 16.3645 19.9604 16.2541C20.0989 16.0685 20.0607 15.8057 19.8751 15.6672C19.0175 15.0273 18.0719 14.528 17.0645 14.1833Z" fill="#105CE2"/>
<path d="M7.23435 17.0949C8.99843 15.4035 11.3125 14.472 13.7504 14.472C14.2031 14.472 14.6583 14.5046 15.1033 14.5688C15.3328 14.6023 15.5452 14.4429 15.5783 14.2136C15.6114 13.9844 15.4525 13.7718 15.2232 13.7387C14.7385 13.6688 14.243 13.6333 13.7504 13.6333C11.0951 13.6333 8.57487 14.6477 6.65389 16.4895C4.7389 18.3257 3.61897 20.7897 3.50043 23.4277C3.49003 23.6591 3.66918 23.8551 3.90051 23.8655C3.90694 23.8658 3.91331 23.8659 3.91968 23.8659C4.14262 23.8659 4.3282 23.6904 4.33832 23.4654C4.44708 21.0436 5.47559 18.7812 7.23435 17.0949Z" fill="#105CE2"/>
<path d="M13.7506 11.8447C12.8128 11.8447 11.8783 11.9534 10.9731 12.1678C10.7477 12.2211 10.6083 12.4472 10.6616 12.6725C10.715 12.8978 10.9411 13.0373 11.1664 12.9839C12.0084 12.7846 12.8778 12.6835 13.7506 12.6835C16.8258 12.6835 19.6962 13.9086 21.8332 16.1332C21.9156 16.2189 22.0255 16.262 22.1357 16.262C22.2402 16.262 22.3449 16.2232 22.4262 16.1451C22.5932 15.9846 22.5986 15.7192 22.4381 15.5522C21.3247 14.3931 20.0167 13.4813 18.5508 12.8423C17.0323 12.1803 15.4173 11.8447 13.7506 11.8447Z" fill="#105CE2"/>
<path d="M4.33027 17.0671C4.40698 17.1271 4.49807 17.1563 4.58854 17.1563C4.71306 17.1563 4.8363 17.1011 4.919 16.9955C6.11419 15.4689 7.68765 14.2714 9.46923 13.5325C9.68316 13.4438 9.78471 13.1984 9.69597 12.9845C9.60723 12.7705 9.36176 12.6689 9.14794 12.7577C7.23334 13.5518 5.54263 14.8383 4.25864 16.4783C4.11583 16.6607 4.14793 16.9243 4.33027 17.0671Z" fill="#105CE2"/>
<path d="M7.93549 12.2205C7.99666 12.2205 8.05878 12.2071 8.1175 12.1787C9.88319 11.3261 11.7783 10.8939 13.7503 10.8939C14.7779 10.8939 15.8014 11.0148 16.7922 11.2532C17.0172 11.3072 17.2438 11.1688 17.298 10.9436C17.3522 10.7184 17.2135 10.4919 16.9883 10.4377C15.9334 10.1839 14.844 10.0552 13.7503 10.0552C11.651 10.0552 9.63319 10.5155 7.75287 11.4234C7.54431 11.5241 7.45685 11.7748 7.55756 11.9834C7.62986 12.1332 7.7796 12.2205 7.93549 12.2205Z" fill="#105CE2"/>
<path d="M18.5449 11.81C18.9772 11.9822 19.4051 12.1801 19.8167 12.3983C19.8793 12.4315 19.9465 12.4472 20.0127 12.4472C20.163 12.4472 20.3083 12.3662 20.3836 12.2241C20.492 12.0194 20.4141 11.7656 20.2094 11.6572C19.7712 11.4249 19.3156 11.2142 18.8552 11.0309C18.6399 10.9451 18.3961 11.0501 18.3104 11.2653C18.2247 11.4804 18.3297 11.7244 18.5449 11.81Z" fill="#105CE2"/>
</svg>
