<svg width="66" height="66" viewBox="0 0 66 66" fill="none" xmlns="http://www.w3.org/2000/svg">
<rect x="0.5" y="0.5" width="65" height="65" rx="9.5" fill="#F9FAFC"/>
<rect x="0.5" y="0.5" width="65" height="65" rx="9.5" stroke="#EBEBEB"/>
<path d="M35.4925 37.4256V34.328C35.4925 33.1067 34.4989 32.1131 33.2775 32.1131C32.0562 32.1131 31.0626 33.1067 31.0626 34.328V37.1247C31.0626 40.4949 29.821 43.7306 27.5664 46.2357L24.4578 49.6897C24.1966 49.9799 24.2202 50.4268 24.5104 50.6881C24.8005 50.9493 25.2475 50.9257 25.5087 50.6355L28.6173 47.1815C31.1059 44.4163 32.4764 40.8448 32.4764 37.1247V34.328C32.4764 33.8863 32.8358 33.5269 33.2775 33.5269C33.7193 33.5269 34.0787 33.8863 34.0787 34.328V37.4256C34.0787 41.573 32.5423 45.5471 29.7524 48.6159L26.7222 51.9491C26.4597 52.2379 26.481 52.6851 26.7698 52.9477C26.9053 53.0709 27.0754 53.1315 27.2451 53.1315C27.4373 53.1315 27.6289 53.0536 27.7684 52.9001L30.7984 49.567C33.8254 46.2373 35.4925 41.9254 35.4925 37.4256Z" fill="#105CE2"/>
<path d="M38.5095 34.3289C38.5095 31.4445 36.1629 29.0979 33.2785 29.0979C30.394 29.0979 28.0474 31.4445 28.0474 34.3289V37.1256C28.0474 39.7495 27.0808 42.2686 25.3255 44.2189L23.1155 46.6745C22.8544 46.9647 22.8779 47.4116 23.1681 47.6729C23.4583 47.9341 23.9052 47.9103 24.1665 47.6203L26.3764 45.1647C28.3657 42.9544 29.4613 40.0994 29.4613 37.1256V34.3289C29.4613 32.2241 31.1737 30.5117 33.2785 30.5117C35.3834 30.5117 37.0958 32.2241 37.0958 34.3289V37.4265C37.0958 42.3256 35.2809 47.0204 31.9851 50.6456L29.4285 53.458C29.1658 53.7468 29.1871 54.1941 29.476 54.4566C29.6114 54.5798 29.7816 54.6404 29.9512 54.6404C30.1435 54.6404 30.335 54.5625 30.4745 54.4091L33.0312 51.5966C36.5639 47.7106 38.5095 42.6782 38.5095 37.4265V34.3289Z" fill="#105CE2"/>
<path d="M41.5269 34.3258C41.5269 29.7783 37.8273 26.0787 33.2798 26.0787C28.7322 26.0787 25.0326 29.7783 25.0326 34.3258V37.1225C25.0326 39 24.3409 40.8026 23.0849 42.1981L21.095 44.4091C20.8339 44.6993 20.8574 45.1462 21.1476 45.4075C21.4377 45.6687 21.8848 45.6449 22.1459 45.3549L24.1358 43.1439C25.6259 41.4884 26.4464 39.3499 26.4464 37.1225V34.3258C26.4464 30.5579 29.5118 27.4925 33.2798 27.4925C37.0477 27.4925 40.1131 30.5579 40.1131 34.3258V37.4234C40.1131 43.0746 38.0196 48.4898 34.2181 52.6713L33.5105 53.4496C33.2479 53.7385 33.2692 54.1857 33.5581 54.4483C33.6935 54.5713 33.8638 54.632 34.0333 54.632C34.2256 54.632 34.4171 54.5541 34.5566 54.4007L35.2641 53.6223C39.3026 49.1799 41.5268 43.4271 41.5268 37.4234V34.3258H41.5269Z" fill="#105CE2"/>
<path d="M22.0156 34.3271C22.0156 34.7176 22.3321 35.034 22.7225 35.034C23.1129 35.034 23.4294 34.7176 23.4294 34.3271C23.4294 31.9467 24.2936 29.6473 25.8629 27.8524C27.4176 26.0741 29.5514 24.9112 31.8712 24.5779C32.2576 24.5224 32.5259 24.1641 32.4703 23.7777C32.4148 23.3913 32.0562 23.1234 31.6701 23.1786C29.016 23.5599 26.5756 24.8893 24.7985 26.9219C23.004 28.9745 22.0156 31.6044 22.0156 34.3271Z" fill="#105CE2"/>
<path d="M23.4297 37.1244C23.4297 36.7339 23.1132 36.4175 22.7228 36.4175C22.3324 36.4175 22.0159 36.7339 22.0159 37.1244C22.0159 38.2556 21.5992 39.3415 20.8425 40.1822L19.0726 42.149C18.8114 42.4391 18.835 42.8861 19.1252 43.1474C19.2603 43.2689 19.4293 43.3288 19.5978 43.3288C19.7912 43.3288 19.984 43.2498 20.1235 43.0948L21.8935 41.1281C22.8841 40.0273 23.4297 38.6055 23.4297 37.1244Z" fill="#105CE2"/>
<path d="M43.1543 43.4352C42.7764 43.3368 42.3904 43.5625 42.2914 43.9401C42.0304 44.9372 41.7058 45.9285 41.3263 46.8863C41.1824 47.2492 41.3601 47.6601 41.7231 47.8038C41.8086 47.8376 41.8966 47.8537 41.9833 47.8537C42.2647 47.8537 42.5307 47.6845 42.6407 47.407C43.0412 46.3961 43.3838 45.3502 43.6592 44.298C43.758 43.9204 43.5319 43.5341 43.1543 43.4352Z" fill="#105CE2"/>
<path d="M40.8021 25.951C40.5117 25.6898 40.0647 25.7138 39.8038 26.0041C39.5428 26.2944 39.5665 26.7413 39.8568 27.0023C41.9361 28.8715 43.1286 31.5412 43.1286 34.3271V37.4246C43.1286 38.6002 43.0476 39.7849 42.8876 40.9458C42.8344 41.3326 43.1047 41.6893 43.4914 41.7425C43.5241 41.747 43.5566 41.7492 43.5888 41.7492C43.9364 41.7492 44.2394 41.4926 44.2881 41.1386C44.4568 39.914 44.5424 38.6644 44.5424 37.4245V34.3271C44.5425 31.1408 43.1791 28.0879 40.8021 25.951Z" fill="#105CE2"/>
<path d="M37.4967 25.4274C37.5948 25.4742 37.6982 25.4962 37.8001 25.4962C38.0642 25.4962 38.3177 25.3474 38.4388 25.093C38.6067 24.7406 38.4569 24.3187 38.1045 24.151C37.086 23.666 36.0035 23.3389 34.8871 23.1786C34.5001 23.1234 34.1424 23.3914 34.0869 23.7777C34.0313 24.1641 34.2996 24.5224 34.686 24.5779C35.6614 24.7181 36.6069 25.0039 37.4967 25.4274Z" fill="#105CE2"/>
<path d="M33.2782 20.0496C33.0137 20.0496 32.7462 20.057 32.483 20.0715C32.0931 20.093 31.7945 20.4264 31.816 20.8162C31.8376 21.206 32.1707 21.5062 32.5608 21.483C32.7982 21.4699 33.0395 21.4633 33.2781 21.4633C40.3721 21.4633 46.1436 27.2347 46.1436 34.3288V37.4264C46.1436 37.8169 46.4601 38.1333 46.8505 38.1333C47.2409 38.1333 47.5574 37.8169 47.5574 37.4264V34.3289C47.5575 26.4553 41.1518 20.0496 33.2782 20.0496Z" fill="#105CE2"/>
<path d="M25.5489 23.8848C25.6881 23.8848 25.8288 23.8437 25.9518 23.7582C27.1279 22.9404 28.4195 22.3298 29.791 21.9431C30.1668 21.8371 30.3856 21.4466 30.2796 21.0709C30.1737 20.6952 29.783 20.4767 29.4074 20.5823C27.8843 21.0117 26.4501 21.6896 25.1447 22.5973C24.8242 22.8202 24.745 23.2607 24.9679 23.5812C25.1052 23.7789 25.3252 23.8848 25.5489 23.8848Z" fill="#105CE2"/>
<path d="M20.4138 37.124V34.3273C20.4138 31.0388 21.6592 27.907 23.9205 25.5085C24.1883 25.2245 24.1752 24.7771 23.8911 24.5093C23.607 24.2414 23.1596 24.2547 22.8918 24.5387C20.3821 27.2005 19 30.6769 19 34.3273V37.124C19 37.5088 18.8583 37.8782 18.601 38.1641L17.7293 39.1325C17.4681 39.4227 17.4917 39.8697 17.7819 40.1308C17.917 40.2525 18.0861 40.3124 18.2546 40.3124C18.448 40.3124 18.6406 40.2335 18.7802 40.0784L19.6519 39.11C20.1432 38.5639 20.4138 37.8586 20.4138 37.124Z" fill="#105CE2"/>
<path d="M49.6759 28.8225C48.9005 26.5184 47.6684 24.4368 46.0136 22.6356C45.7494 22.3481 45.3022 22.3291 45.0148 22.5933C44.7273 22.8575 44.7084 23.3046 44.9724 23.5922C46.4925 25.2467 47.6242 27.1581 48.336 29.2733C48.4353 29.5686 48.7107 29.755 49.0058 29.755C49.0806 29.755 49.1566 29.743 49.2314 29.7178C49.6013 29.5933 49.8004 29.1925 49.6759 28.8225Z" fill="#105CE2"/>
<path d="M38.8651 17.9583C38.4959 17.8319 38.0939 18.0288 37.9675 18.3983C37.8411 18.7677 38.0381 19.1696 38.4074 19.2959C39.9662 19.8293 41.4297 20.6019 42.7572 21.5927C42.8842 21.6874 43.0324 21.7331 43.1795 21.7331C43.3949 21.7331 43.6077 21.6349 43.7466 21.4489C43.9801 21.1361 43.9157 20.6931 43.6028 20.4596C42.1573 19.381 40.5633 18.5393 38.8651 17.9583Z" fill="#105CE2"/>
<path d="M22.2952 22.8668C25.2688 20.0157 29.1696 18.4455 33.2789 18.4455C34.042 18.4455 34.8093 18.5005 35.5594 18.6087C35.9462 18.6651 36.3043 18.3964 36.3601 18.01C36.4159 17.6236 36.148 17.2652 35.7615 17.2094C34.9445 17.0916 34.1093 17.0317 33.2789 17.0317C28.8031 17.0317 24.5549 18.7416 21.3168 21.8463C18.0888 24.9414 16.201 29.0948 16.0012 33.5416C15.9837 33.9316 16.2857 34.262 16.6756 34.2795C16.6864 34.28 16.6972 34.2802 16.7079 34.2802C17.0837 34.2802 17.3965 33.9843 17.4136 33.6051C17.5969 29.5228 19.3306 25.7092 22.2952 22.8668Z" fill="#105CE2"/>
<path d="M33.2793 14.0165C31.6985 14.0165 30.1232 14.1998 28.5974 14.5611C28.2174 14.6511 27.9825 15.032 28.0724 15.4119C28.1624 15.7917 28.5434 16.0268 28.9232 15.9368C30.3425 15.6008 31.808 15.4303 33.2793 15.4303C38.4628 15.4303 43.3014 17.4955 46.9036 21.2453C47.0424 21.3898 47.2277 21.4625 47.4135 21.4625C47.5896 21.4625 47.7661 21.3971 47.9031 21.2654C48.1846 20.9949 48.1937 20.5474 47.9232 20.266C46.0463 18.3122 43.8417 16.7752 41.3705 15.698C38.811 14.5823 36.0887 14.0165 33.2793 14.0165Z" fill="#105CE2"/>
<path d="M17.4 22.8197C17.5293 22.9209 17.6829 22.97 17.8354 22.97C18.0453 22.97 18.253 22.877 18.3924 22.6989C20.4071 20.1256 23.0593 18.1072 26.0624 16.8617C26.423 16.7121 26.5942 16.2985 26.4446 15.9379C26.295 15.5773 25.8813 15.4059 25.5208 15.5557C22.2935 16.8942 19.4436 19.0628 17.2793 21.8272C17.0386 22.1347 17.0927 22.579 17.4 22.8197Z" fill="#105CE2"/>
<path d="M23.4771 14.6499C23.5802 14.6499 23.6849 14.6273 23.7839 14.5794C26.7602 13.1424 29.9547 12.4138 33.2787 12.4138C35.0109 12.4138 36.7361 12.6176 38.4062 13.0195C38.7855 13.1105 39.1674 12.8771 39.2588 12.4976C39.3501 12.118 39.1164 11.7362 38.7368 11.6449C36.9586 11.217 35.1222 11 33.2787 11C29.7401 11 26.3388 11.7759 23.1692 13.3063C22.8177 13.476 22.6703 13.8987 22.84 14.2502C22.9619 14.5027 23.2143 14.6499 23.4771 14.6499Z" fill="#105CE2"/>
<path d="M41.3606 13.958C42.0894 14.2482 42.8107 14.5818 43.5045 14.9495C43.61 15.0055 43.7233 15.032 43.8349 15.032C44.0882 15.032 44.3332 14.8954 44.4601 14.6559C44.6428 14.3109 44.5114 13.8831 44.1665 13.7003C43.4278 13.3088 42.6597 12.9536 41.8837 12.6445C41.5209 12.5 41.1098 12.6771 40.9654 13.0396C40.821 13.4023 40.998 13.8136 41.3606 13.958Z" fill="#105CE2"/>
</svg>
