<svg width="72" height="70" viewBox="0 0 72 70" fill="none" xmlns="http://www.w3.org/2000/svg">
<g filter="url(#filter0_d_1580_20673)">
<rect x="3" y="2" width="66" height="65" rx="32.5" fill="white" shape-rendering="crispEdges"/>
<path d="M44.2002 26.7573L44.2002 26.7573L44.2064 26.7635C44.6028 27.16 44.5984 27.791 44.2094 28.1734L44.2094 28.1734L44.2064 28.1764L40.3164 32.0664L40.1205 32.2624L40.1827 32.5324L42.2407 41.4535L41.5068 42.1926L37.9431 35.3685L37.6279 34.7649L37.1464 35.2464L33.2464 39.1464L33.069 39.3238L33.1052 39.5721L33.4288 41.7924L33.0075 42.2098L31.5674 39.6079L31.498 39.4824L31.3725 39.4128L28.7569 37.9614L29.1785 37.5318L31.4267 37.8646L31.6756 37.9014L31.8535 37.7235L35.7235 33.8535L36.2034 33.3736L35.6028 33.0575L28.7757 29.4648L29.5164 28.7292L38.4376 30.7872L38.7076 30.8495L38.9035 30.6535L42.7935 26.7635L42.7935 26.7636L42.7996 26.7573C43.1631 26.3809 43.8368 26.3809 44.2002 26.7573Z" stroke="#105CE2"/>
</g>
<defs>
<filter id="filter0_d_1580_20673" x="0.678571" y="0.258929" width="70.6429" height="69.6429" filterUnits="userSpaceOnUse" color-interpolation-filters="sRGB">
<feFlood flood-opacity="0" result="BackgroundImageFix"/>
<feColorMatrix in="SourceAlpha" type="matrix" values="0 0 0 0 0 0 0 0 0 0 0 0 0 0 0 0 0 0 127 0" result="hardAlpha"/>
<feMorphology radius="1.16071" operator="dilate" in="SourceAlpha" result="effect1_dropShadow_1580_20673"/>
<feOffset dy="0.580357"/>
<feGaussianBlur stdDeviation="0.580357"/>
<feComposite in2="hardAlpha" operator="out"/>
<feColorMatrix type="matrix" values="0 0 0 0 0.0392157 0 0 0 0 0.0392157 0 0 0 0 0.0392157 0 0 0 0.16 0"/>
<feBlend mode="normal" in2="BackgroundImageFix" result="effect1_dropShadow_1580_20673"/>
<feBlend mode="normal" in="SourceGraphic" in2="effect1_dropShadow_1580_20673" result="shape"/>
</filter>
</defs>
</svg>
