<svg width="18" height="19" viewBox="0 0 18 19" fill="none" xmlns="http://www.w3.org/2000/svg">
<path d="M7.9172 11.6396C8.70061 11.1956 9.31503 10.5047 9.66459 9.67485C10.0142 8.84496 10.0792 7.9227 9.84959 7.05196C9.61998 6.18121 9.10862 5.41095 8.39529 4.86134C7.68196 4.31173 6.80677 4.01367 5.90626 4.01367C5.00575 4.01367 4.13056 4.31173 3.41723 4.86134C2.7039 5.41095 2.19254 6.18121 1.96293 7.05196C1.73332 7.9227 1.79837 8.84496 2.14793 9.67485C2.49749 10.5047 3.11191 11.1956 3.89532 11.6396C2.44335 12.1025 1.19641 13.0538 0.366339 14.3319C0.305173 14.4256 0.283737 14.5398 0.306747 14.6493C0.329757 14.7588 0.395328 14.8547 0.489034 14.9159C0.58274 14.977 0.696907 14.9985 0.806418 14.9754C0.915929 14.9524 1.01181 14.8869 1.07298 14.7932C1.59653 13.9882 2.31285 13.3267 3.1569 12.8688C4.00095 12.4109 4.946 12.1711 5.90626 12.1711C6.86652 12.1711 7.81157 12.4109 8.65562 12.8688C9.49967 13.3267 10.216 13.9882 10.7395 14.7932C10.8047 14.8767 10.8989 14.9326 11.0033 14.9499C11.1078 14.9671 11.215 14.9445 11.3036 14.8864C11.3921 14.8283 11.4556 14.739 11.4813 14.6363C11.5071 14.5336 11.4933 14.4249 11.4427 14.3319C10.6135 13.0545 9.36787 12.1033 7.9172 11.6396ZM2.67189 8.09379C2.67189 7.45409 2.86158 6.82875 3.21698 6.29686C3.57237 5.76497 4.07751 5.35042 4.66852 5.10561C5.25952 4.86081 5.90985 4.79676 6.53726 4.92156C7.16466 5.04636 7.74097 5.3544 8.19331 5.80674C8.64564 6.25907 8.95369 6.83538 9.07849 7.46279C9.20329 8.0902 9.13924 8.74052 8.89443 9.33153C8.64963 9.92253 8.23507 10.4277 7.70318 10.7831C7.17129 11.1385 6.54596 11.3282 5.90626 11.3282C5.04879 11.327 4.22677 10.9859 3.62045 10.3796C3.01412 9.77328 2.673 8.95125 2.67189 8.09379ZM17.5078 14.9141C17.4142 14.9752 17.3001 14.9966 17.1907 14.9737C17.0813 14.9508 16.9854 14.8853 16.9242 14.7918C16.4016 13.9867 15.6858 13.3252 14.8421 12.8676C13.9984 12.41 13.0536 12.1709 12.0938 12.1719C11.9819 12.1719 11.8746 12.1275 11.7955 12.0483C11.7163 11.9692 11.6719 11.8619 11.6719 11.75C11.6719 11.6381 11.7163 11.5308 11.7955 11.4517C11.8746 11.3726 11.9819 11.3282 12.0938 11.3282C12.57 11.3277 13.0403 11.222 13.4711 11.0187C13.9018 10.8154 14.2823 10.5195 14.5854 10.1521C14.8885 9.78472 15.1067 9.35493 15.2245 8.89343C15.3422 8.43193 15.3566 7.95011 15.2666 7.48241C15.1765 7.01471 14.9843 6.57267 14.7037 6.18786C14.423 5.80305 14.0608 5.48498 13.643 5.25637C13.2252 5.02775 12.762 4.89424 12.2866 4.86536C11.8112 4.83649 11.3353 4.91297 10.8928 5.08933C10.8413 5.11043 10.7861 5.12112 10.7304 5.12079C10.6747 5.12045 10.6197 5.1091 10.5684 5.08738C10.5171 5.06566 10.4707 5.03401 10.4317 4.99425C10.3927 4.95449 10.362 4.90741 10.3413 4.85572C10.3206 4.80403 10.3104 4.74875 10.3111 4.69308C10.3119 4.63741 10.3237 4.58244 10.3458 4.53134C10.3679 4.48024 10.3999 4.43403 10.44 4.39536C10.4801 4.3567 10.5274 4.32634 10.5792 4.30605C11.5389 3.92346 12.6079 3.91934 13.5705 4.29452C14.5331 4.6697 15.3174 5.39622 15.765 6.32731C16.2126 7.2584 16.2901 8.32468 15.9819 9.31073C15.6738 10.2968 15.0028 11.1291 14.1047 11.6396C15.5567 12.1025 16.8036 13.0538 17.6337 14.3319C17.694 14.4259 17.7146 14.5399 17.691 14.649C17.6675 14.7581 17.6016 14.8535 17.5078 14.9141Z" fill="#B3B4B5"/>
</svg>
