<svg width="60" height="60" viewBox="0 0 60 60" fill="none" xmlns="http://www.w3.org/2000/svg">
<rect width="60" height="60" rx="30" fill="#051000" fill-opacity="0.1"/>
<g clip-path="url(#clip0_2151_3978)">
<path d="M19.9077 33.5156C19.7066 33.3805 19.523 33.2197 19.3619 33.0365L19.0615 33.3006L19.3619 33.0365C19.0646 32.6983 18.8525 32.2939 18.7435 31.857C18.7435 31.8567 18.7434 31.8565 18.7434 31.8562L16.6911 23.4771L16.6911 23.4769C16.3195 21.9634 17.2657 20.43 18.7872 20.057C18.7873 20.057 18.7874 20.057 18.7875 20.057L33.4267 16.4903L33.4285 16.4899C33.6311 16.4395 33.8097 16.4073 33.9874 16.4001C34.639 16.3751 35.2784 16.5754 35.7996 16.9676C36.3207 17.3596 36.6907 17.9192 36.8473 18.5522C36.8474 18.5524 36.8475 18.5527 36.8475 18.5529L38.7463 26.3697H25.6923C22.5023 26.3697 19.9077 28.9643 19.9077 32.1543V33.5156ZM35.6724 20.5524L35.5788 20.16L35.1873 20.2569L31.5193 21.1648L31.13 21.2611L31.2273 21.6501L32.1362 25.2847L32.2324 25.6693L32.6179 25.5766L36.2525 24.7021L36.6407 24.6087L36.548 24.2203L35.6724 20.5524ZM42.2834 33.6312H42.6834V33.2312V32.1543C42.6834 31.1031 41.8204 30.2401 40.7692 30.2401H25.6923C24.6411 30.2401 23.7781 31.1031 23.7781 32.1543V33.2312V33.6312H24.1781H42.2834ZM24.1781 36.062H23.7781V36.462L23.7781 40.7697L23.7781 40.7719C23.781 41.2781 23.9834 41.7628 24.3413 42.1207C24.6992 42.4786 25.1839 42.681 25.69 42.6838H25.6923H40.7692C41.8204 42.6838 42.6834 41.8209 42.6834 40.7697V36.462V36.062H42.2834H24.1781ZM22.8615 32.1543C22.8615 30.5918 24.1298 29.3235 25.6923 29.3235H40.7692C42.3317 29.3235 43.6 30.5918 43.6 32.1543V40.7697C43.6 42.3321 42.3317 43.6005 40.7692 43.6005H25.6923C24.1298 43.6005 22.8615 42.3322 22.8615 40.7697V32.1543Z" stroke="#051000" stroke-width="0.8"/>
</g>
<defs>
<clipPath id="clip0_2151_3978">
<rect width="28" height="28" fill="white" transform="translate(16 16)"/>
</clipPath>
</defs>
</svg>
