<svg width="31" height="30" viewBox="0 0 31 30" fill="none" xmlns="http://www.w3.org/2000/svg">
<rect x="0.0135498" width="30" height="30" rx="15" fill="url(#paint0_linear_2142_2303)"/>
<g clip-path="url(#clip0_2142_2303)">
<path d="M15.2823 5.60411L15.2823 5.60417L15.2896 5.60417C15.7568 5.60417 16.126 5.97861 16.1221 6.43317L16.1221 6.43317L16.1221 6.43673L16.1221 11.0211V11.2521L16.3179 11.3745L22.7874 15.4186L22.7905 16.2866L16.6695 14.3654L16.128 14.1954V14.7629V19.3591L16.128 19.5682L16.2956 19.6931L17.7946 20.8108L17.7923 21.305L15.4106 20.6204L15.2957 20.5873L15.1808 20.6202L12.7843 21.3063L12.7796 20.8047L14.3004 19.676L14.4688 19.5511L14.4688 19.3414L14.4688 14.7806V14.215L13.9286 14.3827L7.78864 16.2885L7.79171 15.4186L14.2612 11.3745L14.457 11.2521V11.0211L14.457 6.43673L14.4571 6.43673L14.4569 6.42942C14.4493 5.99348 14.8463 5.59646 15.2823 5.60411Z" stroke="white" stroke-width="0.833333"/>
</g>
<defs>
<linearGradient id="paint0_linear_2142_2303" x1="3.01355" y1="32.5" x2="30.0135" y2="21" gradientUnits="userSpaceOnUse">
<stop stop-color="#105CE2"/>
<stop offset="1" stop-color="#2A94F4"/>
</linearGradient>
<clipPath id="clip0_2142_2303">
<rect width="20" height="20" fill="white" transform="translate(0.871399 15) rotate(-45)"/>
</clipPath>
</defs>
</svg>
