<svg width="52" height="52" viewBox="0 0 52 52" fill="none" xmlns="http://www.w3.org/2000/svg">
<rect x="0.5" y="0.5" width="51" height="51" rx="25.5" stroke="#EBEBEB"/>
<path d="M23.4 29.2508C23.4 29.0784 23.4685 28.9131 23.5904 28.7912C23.7123 28.6693 23.8776 28.6008 24.05 28.6008H27.95C28.1224 28.6008 28.2877 28.6693 28.4096 28.7912C28.5315 28.9131 28.6 29.0784 28.6 29.2508C28.6 29.4232 28.5315 29.5885 28.4096 29.7104C28.2877 29.8323 28.1224 29.9008 27.95 29.9008H24.05C23.8776 29.9008 23.7123 29.8323 23.5904 29.7104C23.4685 29.5885 23.4 29.4232 23.4 29.2508ZM20.8 25.3508C20.8 25.1784 20.8685 25.0131 20.9904 24.8912C21.1123 24.7693 21.2776 24.7008 21.45 24.7008H30.55C30.7224 24.7008 30.8877 24.7693 31.0096 24.8912C31.1315 25.0131 31.2 25.1784 31.2 25.3508C31.2 25.5232 31.1315 25.6885 31.0096 25.8104C30.8877 25.9323 30.7224 26.0008 30.55 26.0008H21.45C21.2776 26.0008 21.1123 25.9323 20.9904 25.8104C20.8685 25.6885 20.8 25.5232 20.8 25.3508ZM18.2 21.4508C18.2 21.2784 18.2685 21.1131 18.3904 20.9912C18.5123 20.8693 18.6776 20.8008 18.85 20.8008H33.15C33.3224 20.8008 33.4877 20.8693 33.6096 20.9912C33.7315 21.1131 33.8 21.2784 33.8 21.4508C33.8 21.6232 33.7315 21.7885 33.6096 21.9104C33.4877 22.0323 33.3224 22.1008 33.15 22.1008H18.85C18.6776 22.1008 18.5123 22.0323 18.3904 21.9104C18.2685 21.7885 18.2 21.6232 18.2 21.4508Z" fill="white"/>
</svg>
