<svg width="79" height="78" viewBox="0 0 79 78" fill="none" xmlns="http://www.w3.org/2000/svg">
<rect x="0.5" width="78" height="78" rx="39" fill="#BAD3FE"/>
<path d="M39.5 7.5C47.8543 7.5 55.8665 10.8187 61.7739 16.7261C67.6813 22.6335 71 30.6457 71 39C71 47.3543 67.6813 55.3665 61.7739 61.2739C55.8665 67.1813 47.8543 70.5 39.5 70.5C31.1457 70.5 23.1335 67.1813 17.2261 61.2739C11.3187 55.3665 8 47.3543 8 39C8 30.6457 11.3187 22.6335 17.2261 16.7261C23.1335 10.8187 31.1457 7.5 39.5 7.5ZM35.576 45.2145L28.5785 38.2125C28.3276 37.9616 28.0298 37.7626 27.7021 37.6269C27.3743 37.4911 27.023 37.4212 26.6682 37.4212C26.3135 37.4212 25.9622 37.4911 25.6344 37.6269C25.3067 37.7626 25.0089 37.9616 24.758 38.2125C24.2514 38.7191 23.9667 39.4063 23.9667 40.1227C23.9667 40.8392 24.2514 41.5264 24.758 42.033L33.668 50.943C33.9181 51.1951 34.2157 51.3952 34.5436 51.5318C34.8714 51.6684 35.2231 51.7387 35.5783 51.7387C35.9334 51.7387 36.2851 51.6684 36.6129 51.5318C36.9408 51.3952 37.2384 51.1951 37.4885 50.943L55.9385 32.4885C56.1927 32.2387 56.3949 31.941 56.5335 31.6126C56.6721 31.2843 56.7443 30.9317 56.746 30.5753C56.7476 30.2189 56.6787 29.8657 56.5432 29.536C56.4077 29.2064 56.2082 28.9069 55.9563 28.6547C55.7045 28.4025 55.4051 28.2027 55.0757 28.0668C54.7462 27.9309 54.3931 27.8615 54.0366 27.8628C53.6802 27.864 53.3276 27.9358 52.9991 28.074C52.6705 28.2122 52.3726 28.4141 52.1225 28.668L35.576 45.2145Z" fill="#105CE2"/>
</svg>
