<svg width="20" height="20" viewBox="0 0 20 20" fill="none" xmlns="http://www.w3.org/2000/svg">
<path d="M12.0833 12.916H12.9167V11.2493H14.5833V10.416H12.9167V8.74935H12.0833V10.416H10.4167V11.2493H12.0833V12.916ZM3.84667 15.8327C3.46278 15.8327 3.1425 15.7043 2.88583 15.4477C2.62917 15.191 2.50056 14.8705 2.5 14.486V5.51268C2.5 5.12879 2.62861 4.80852 2.88583 4.55185C3.14306 4.29518 3.46306 4.16657 3.84583 4.16602H7.99667L9.66333 5.83268H16.1542C16.5375 5.83268 16.8578 5.96129 17.115 6.21852C17.3722 6.47574 17.5006 6.79602 17.5 7.17935V14.4868C17.5 14.8702 17.3717 15.1905 17.115 15.4477C16.8583 15.7049 16.5381 15.8332 16.1542 15.8327H3.84667ZM3.84667 14.9993H16.1542C16.3036 14.9993 16.4264 14.9513 16.5225 14.8552C16.6186 14.7591 16.6667 14.6363 16.6667 14.4868V7.17852C16.6667 7.02907 16.6186 6.90629 16.5225 6.81018C16.4264 6.71407 16.3036 6.66602 16.1542 6.66602H9.32917L7.6625 4.99935H3.84583C3.69639 4.99935 3.57361 5.0474 3.4775 5.14352C3.38139 5.23963 3.33333 5.36268 3.33333 5.51268V14.4868C3.33333 14.6363 3.38139 14.7591 3.4775 14.8552C3.57361 14.9513 3.69667 14.9993 3.84667 14.9993Z" fill="white"/>
</svg>
