<svg width="20" height="20" viewBox="0 0 20 20" fill="none" xmlns="http://www.w3.org/2000/svg">
<g clip-path="url(#clip0_2413_3188)">
<path d="M1.66699 10.0003C1.66699 6.07199 1.66699 4.10783 2.88699 2.88699C4.10866 1.66699 6.07199 1.66699 10.0003 1.66699C13.9287 1.66699 15.8928 1.66699 17.1128 2.88699C18.3337 4.10866 18.3337 6.07199 18.3337 10.0003C18.3337 13.9287 18.3337 15.8928 17.1128 17.1128C15.8937 18.3337 13.9287 18.3337 10.0003 18.3337C6.07199 18.3337 4.10783 18.3337 2.88699 17.1128C1.66699 15.8937 1.66699 13.9287 1.66699 10.0003Z" stroke="#606162" stroke-width="1.5"/>
<path d="M13.3337 8.33333C14.2541 8.33333 15.0003 7.58714 15.0003 6.66667C15.0003 5.74619 14.2541 5 13.3337 5C12.4132 5 11.667 5.74619 11.667 6.66667C11.667 7.58714 12.4132 8.33333 13.3337 8.33333Z" stroke="#606162" stroke-width="1.5"/>
<path d="M1.66699 10.4172L3.12699 9.13973C3.49294 8.81979 3.96678 8.65084 4.45259 8.66709C4.93841 8.68333 5.3999 8.88356 5.74366 9.22723L9.31866 12.8022C9.59608 13.0796 9.96245 13.2502 10.3533 13.2841C10.7441 13.3179 11.1344 13.2128 11.4553 12.9872L11.7045 12.8122C12.1675 12.4871 12.7271 12.3285 13.2918 12.3626C13.8566 12.3967 14.3931 12.6213 14.8137 12.9997L17.5003 15.4172" stroke="#606162" stroke-width="1.5" stroke-linecap="round"/>
</g>
<defs>
<clipPath id="clip0_2413_3188">
<rect width="20" height="20" fill="white"/>
</clipPath>
</defs>
</svg>
