<svg width="20" height="19" viewBox="0 0 20 19" fill="none" xmlns="http://www.w3.org/2000/svg">
<path opacity="0.25" d="M12.8627 12.3147C12.3668 12.1063 11.7493 11.8455 11.7493 11.6455V10.3372C12.1098 10.0629 12.4025 9.70951 12.6048 9.30423C12.807 8.89895 12.9135 8.45262 12.916 7.99967V6.24967C12.916 4.64134 11.6077 3.33301 9.99935 3.33301C8.39102 3.33301 7.08268 4.64134 7.08268 6.24967V7.99967C7.0851 8.45275 7.19155 8.89922 7.39383 9.30464C7.59611 9.71007 7.88881 10.0636 8.24935 10.338V11.6455C8.24935 11.8338 7.63768 12.0955 7.14685 12.3055C5.95935 12.813 4.16602 13.5797 4.16602 15.583V15.8747H15.8327V15.583C15.8327 13.5663 14.046 12.813 12.8627 12.3147Z" fill="#105CE2"/>
<path d="M7.08268 7.91634V6.24967C7.08268 5.86665 7.15812 5.48738 7.3047 5.13351C7.45128 4.77965 7.66612 4.45812 7.93695 4.18728C8.20779 3.91644 8.52932 3.7016 8.88319 3.55503C9.23706 3.40845 9.61633 3.33301 9.99935 3.33301C10.3824 3.33301 10.7616 3.40845 11.1155 3.55503C11.4694 3.7016 11.7909 3.91644 12.0617 4.18728C12.3326 4.45812 12.5474 4.77965 12.694 5.13351C12.8406 5.48738 12.916 5.86665 12.916 6.24967V7.91634C12.916 8.90801 12.4218 9.78301 11.666 10.3105V11.1022C11.6661 11.2687 11.7161 11.4314 11.8095 11.5692C11.903 11.707 12.0355 11.8137 12.1902 11.8755L13.5118 12.4047C14.197 12.6788 14.7843 13.1519 15.1979 13.763C15.6116 14.3741 15.8327 15.0951 15.8327 15.833H4.16602C4.166 15.0951 4.3871 14.3741 4.80077 13.763C5.21444 13.1519 5.80172 12.6788 6.48685 12.4047L7.80852 11.8755C7.96315 11.8137 8.09573 11.707 8.18916 11.5692C8.28259 11.4314 8.33258 11.2687 8.33268 11.1022V10.3105C7.94654 10.042 7.63116 9.68395 7.41348 9.26703C7.1958 8.8501 7.0823 8.38667 7.08268 7.91634Z" fill="#105CE2"/>
</svg>
