<svg width="30" height="31" viewBox="0 0 30 31" fill="none" xmlns="http://www.w3.org/2000/svg">
<circle cx="15" cy="15.5" r="15" fill="#263BD4" fill-opacity="0.1"/>
<path fill-rule="evenodd" clip-rule="evenodd" d="M10.9998 8.83398C10.6462 8.83398 10.3071 8.97446 10.057 9.22451C9.80698 9.47456 9.6665 9.8137 9.6665 10.1673V20.834C9.6665 21.1876 9.80698 21.5267 10.057 21.7768C10.3071 22.0268 10.6462 22.1673 10.9998 22.1673H18.9998C19.3535 22.1673 19.6926 22.0268 19.9426 21.7768C20.1927 21.5267 20.3332 21.1876 20.3332 20.834V11.7767C20.3331 11.4231 20.1926 11.084 19.9425 10.834L18.3332 9.22465C18.0832 8.97459 17.7441 8.83406 17.3905 8.83398H10.9998ZM10.9998 10.1673H17.3905L18.9998 11.7767V20.834H10.9998V10.1673ZM17.8252 14.696C17.8888 14.6345 17.9396 14.5609 17.9746 14.4796C18.0095 14.3983 18.0279 14.3108 18.0287 14.2223C18.0294 14.1337 18.0126 14.0459 17.9791 13.964C17.9455 13.8821 17.896 13.8076 17.8334 13.7451C17.7708 13.6825 17.6964 13.633 17.6145 13.5994C17.5325 13.5659 17.4448 13.549 17.3562 13.5498C17.2677 13.5506 17.1802 13.569 17.0989 13.6039C17.0176 13.6389 16.944 13.6896 16.8825 13.7533L14.0545 16.582L13.1112 15.6387C12.9854 15.5172 12.817 15.45 12.6422 15.4515C12.4674 15.4531 12.3002 15.5232 12.1766 15.6468C12.053 15.7704 11.9829 15.9376 11.9814 16.1124C11.9799 16.2872 12.0471 16.4556 12.1685 16.5813L13.5352 17.9487C13.6033 18.0168 13.6841 18.0708 13.7731 18.1077C13.8621 18.1446 13.9575 18.1636 14.0538 18.1636C14.1502 18.1636 14.2456 18.1446 14.3346 18.1077C14.4235 18.0708 14.5044 18.0168 14.5725 17.9487L17.8252 14.696Z" fill="#105CE2"/>
</svg>
