<svg width="21" height="21" viewBox="0 0 21 21" fill="none" xmlns="http://www.w3.org/2000/svg">
<path d="M17.5 17.25V16.75V11.125V9.91785L18.3536 10.7714L18.5361 10.9539L17.5 17.25ZM17.5 17.25H18M17.5 17.25H18M18 17.25H19.25C19.2832 17.25 19.3149 17.2631 19.3384 17.2866C19.3618 17.31 19.375 17.3418 19.375 17.375C19.375 17.4081 19.3618 17.4399 19.3384 17.4633C19.3149 17.4868 19.2832 17.5 19.25 17.5H1.75C1.71685 17.5 1.68505 17.4868 1.66161 17.4633C1.63817 17.4399 1.625 17.4081 1.625 17.375C1.625 17.3418 1.63817 17.31 1.66161 17.2866C1.68505 17.2631 1.71685 17.25 1.75 17.25H3H3.5V16.75V11.125V9.92878L2.64874 10.7691L2.46592 10.9496L2.46591 10.9496L2.46348 10.952C2.44003 10.9755 2.40823 10.9887 2.37506 10.9887C2.34188 10.9887 2.31007 10.9756 2.2866 10.9521C2.26313 10.9287 2.24994 10.8969 2.24993 10.8637C2.24991 10.8305 2.26306 10.7987 2.28648 10.7753C2.2865 10.7753 2.28651 10.7752 2.28652 10.7752L9.96984 3.09425C9.96986 3.09423 9.96988 3.09421 9.96991 3.09419C10.1105 2.95368 10.3012 2.87476 10.5 2.87476C10.6988 2.87476 10.8895 2.95368 11.0301 3.09419C11.0301 3.09421 11.0301 3.09423 11.0302 3.09425L18.7137 10.7754L18.7139 10.7757M18 17.25L18.7139 10.7757M18.7139 10.7757C18.7376 10.7993 18.7509 10.8313 18.7509 10.8647C18.7509 10.8981 18.7377 10.9301 18.7141 10.9537C18.6905 10.9774 18.6585 10.9907 18.6251 10.9907C18.5919 10.9907 18.56 10.9776 18.5364 10.9542L18.7139 10.7757ZM12.375 17.25H12.875V16.75V13C12.875 12.7845 12.7894 12.5778 12.637 12.4254C12.4846 12.2731 12.278 12.1875 12.0625 12.1875H8.9375C8.72201 12.1875 8.51535 12.2731 8.36298 12.4254C8.2106 12.5778 8.125 12.7845 8.125 13V16.75V17.25H8.625H12.375Z" stroke="#989AAF"/>
</svg>
