<svg width="19" height="18" viewBox="0 0 19 18" fill="none" xmlns="http://www.w3.org/2000/svg">
<g clip-path="url(#clip0_2751_21003)">
<path d="M14.018 7.50076C12.4242 7.50076 11.0758 7.87726 10.2852 8.47126V3.75076C10.2852 2.46826 8.1815 1.50076 5.393 1.50076C2.6045 1.50076 0.5 2.46826 0.5 3.75076V15.7508C0.5 17.0333 2.60375 18.0008 5.393 18.0008C7.46825 18.0008 9.16175 17.4645 9.8945 16.662C10.565 17.4645 12.1167 18.0008 14.018 18.0008C16.5725 18.0008 18.5 17.0333 18.5 15.7508V9.75076C18.5 8.46826 16.5732 7.50076 14.018 7.50076ZM17.75 12.7508C17.75 13.4603 16.2178 14.2508 14.018 14.2508C11.8813 14.2508 10.2852 13.4588 10.2852 12.7508V11.0303C11.075 11.6243 12.4242 12.0008 14.018 12.0008C15.6117 12.0008 16.9595 11.6243 17.75 11.0303V12.7508ZM9.536 6.75076C9.536 7.45876 7.7645 8.25076 5.39375 8.25076C3.023 8.25076 1.25075 7.45876 1.25075 6.75076V4.97776C2.10125 5.60176 3.605 6.00076 5.39375 6.00076C7.1825 6.00076 8.6855 5.60176 9.536 4.97776V6.75076ZM5.39375 9.00076C7.1825 9.00076 8.6855 8.60176 9.536 7.97776V9.75076C9.536 10.4588 7.7645 11.2508 5.39375 11.2508C3.023 11.2508 1.25075 10.4588 1.25075 9.75076V7.97776C2.10125 8.60176 3.605 9.00076 5.39375 9.00076ZM1.25 10.9778C2.1005 11.6018 3.60425 12.0008 5.393 12.0008C7.18175 12.0008 8.68475 11.6018 9.53525 10.9778V12.7508C9.53525 13.4588 7.76375 14.2508 5.393 14.2508C3.02225 14.2508 1.25 13.4588 1.25 12.7508V10.9778ZM14.018 8.25076C16.2178 8.25076 17.75 9.04126 17.75 9.75076C17.75 10.4603 16.2178 11.2508 14.018 11.2508C11.8813 11.2508 10.2852 10.4588 10.2852 9.75076C10.2852 9.04276 11.8813 8.25076 14.018 8.25076ZM5.393 2.25076C7.76375 2.25076 9.53525 3.04276 9.53525 3.75076C9.53525 4.45876 7.76375 5.25076 5.393 5.25076C3.02225 5.25076 1.25 4.45876 1.25 3.75076C1.25 3.04276 3.0215 2.25076 5.393 2.25076ZM5.393 17.2508C3.0215 17.2508 1.25 16.4588 1.25 15.7508V13.9778C2.1005 14.6018 3.60425 15.0008 5.393 15.0008C7.18175 15.0008 8.68475 14.6018 9.53525 13.9778V15.7508C9.53525 16.4588 7.76375 17.2508 5.393 17.2508ZM14.018 17.2508C11.8813 17.2508 10.2852 16.4588 10.2852 15.7508V14.0303C11.075 14.6243 12.4242 15.0008 14.018 15.0008C15.6117 15.0008 16.9595 14.6243 17.75 14.0303V15.7508C17.75 16.4603 16.2178 17.2508 14.018 17.2508ZM11.8565 2.56651C11.7125 2.41801 11.7155 2.18101 11.864 2.03626L13.6467 0.299257C14.042 -0.0712429 14.6863 -0.0667429 15.0823 0.302257L16.8845 2.03401C17.0338 2.17726 17.0382 2.41501 16.895 2.56426C16.8215 2.64151 16.7232 2.67976 16.625 2.67976C16.5312 2.67976 16.4382 2.64526 16.3647 2.57476L14.75 1.02301V5.62576C14.75 5.83276 14.582 6.00076 14.375 6.00076C14.168 6.00076 14 5.83276 14 5.62576V1.00276L12.3868 2.57401C12.2405 2.71801 12.002 2.71576 11.8565 2.56651Z" fill="#105CE2"/>
</g>
<defs>
<clipPath id="clip0_2751_21003">
<rect width="18" height="18" fill="white" transform="translate(0.5)"/>
</clipPath>
</defs>
</svg>
