<svg width="72" height="70" viewBox="0 0 72 70" fill="none" xmlns="http://www.w3.org/2000/svg">
<g filter="url(#filter0_d_561_10956)">
<rect x="3" y="2" width="66" height="65" rx="32.5" fill="white" shape-rendering="crispEdges"/>
<path d="M39.1641 35.4272C39.2172 35.5316 39.2868 35.6281 39.3713 35.7125C39.5822 35.9235 39.8684 36.042 40.1667 36.042C40.4651 36.042 40.7513 35.9235 40.9622 35.7125C41.1732 35.5015 41.2917 35.2154 41.2917 34.917V32.8337C41.2917 32.5353 41.1732 32.2491 40.9622 32.0382C40.7513 31.8272 40.4651 31.7087 40.1667 31.7087H38.0834C37.785 31.7087 37.4989 31.8272 37.2879 32.0382C37.0769 32.2491 36.9584 32.5353 36.9584 32.8337C36.9584 33.2712 37.2084 33.6506 37.5734 33.8366L36.8334 34.5766L35.7178 33.4609L35.7177 33.4608C35.3505 33.0939 34.8526 32.8877 34.3334 32.8877C33.8143 32.8877 33.3164 33.0939 32.9492 33.4608L32.949 33.4609L31.0435 35.3665C30.9364 35.4681 30.8503 35.5898 30.7902 35.7247C30.7287 35.8627 30.6957 36.0117 30.693 36.1627C30.6903 36.3138 30.7181 36.4638 30.7747 36.6039C30.8313 36.744 30.9155 36.8713 31.0223 36.9781C31.1292 37.0849 31.2564 37.1691 31.3965 37.2257C31.5366 37.2823 31.6866 37.3101 31.8377 37.3074C31.9887 37.3047 32.1377 37.2717 32.2757 37.2102C32.4106 37.1501 32.5323 37.064 32.634 36.9569L34.3334 35.2574L35.449 36.373L35.4492 36.3732C35.8164 36.7401 36.3143 36.9463 36.8334 36.9463C37.3526 36.9463 37.8505 36.7401 38.2177 36.3732L38.2177 36.3731L39.1641 35.4272ZM34.5399 35.0509C34.5398 35.0511 34.5396 35.0512 34.5395 35.0514L34.5399 35.0509ZM42.7593 41.259L42.7589 41.2594C42.2573 41.7613 41.5844 42.0404 40.5053 42.1855C39.4118 42.3326 37.9784 42.3337 36.0001 42.3337C34.0218 42.3337 32.5886 42.3326 31.4951 42.1855C30.4161 42.0404 29.7428 41.7614 29.2403 41.2593C28.7387 40.7577 28.4598 40.0848 28.3148 39.0056C28.1678 37.9121 28.1667 36.4786 28.1667 34.5003C28.1667 32.522 28.1678 31.0888 28.3148 29.9953C28.4598 28.9162 28.7387 28.2429 29.2404 27.7404C29.7424 27.2389 30.4156 26.9601 31.4947 26.815C32.5883 26.6681 34.0218 26.667 36.0001 26.667C37.9784 26.667 39.412 26.6681 40.5057 26.815C41.585 26.9601 42.2578 27.239 42.7589 27.7404L42.759 27.7405C43.2611 28.2426 43.5401 28.9158 43.6853 29.995C43.8324 31.0886 43.8334 32.522 43.8334 34.5003C43.8334 36.4786 43.8324 37.9123 43.6853 39.0059C43.5401 40.0851 43.2611 40.7579 42.7593 41.259Z" stroke="#105CE2"/>
</g>
<defs>
<filter id="filter0_d_561_10956" x="0.678571" y="0.258929" width="70.6429" height="69.6429" filterUnits="userSpaceOnUse" color-interpolation-filters="sRGB">
<feFlood flood-opacity="0" result="BackgroundImageFix"/>
<feColorMatrix in="SourceAlpha" type="matrix" values="0 0 0 0 0 0 0 0 0 0 0 0 0 0 0 0 0 0 127 0" result="hardAlpha"/>
<feMorphology radius="1.16071" operator="dilate" in="SourceAlpha" result="effect1_dropShadow_561_10956"/>
<feOffset dy="0.580357"/>
<feGaussianBlur stdDeviation="0.580357"/>
<feComposite in2="hardAlpha" operator="out"/>
<feColorMatrix type="matrix" values="0 0 0 0 0.0392157 0 0 0 0 0.0392157 0 0 0 0 0.0392157 0 0 0 0.16 0"/>
<feBlend mode="normal" in2="BackgroundImageFix" result="effect1_dropShadow_561_10956"/>
<feBlend mode="normal" in="SourceGraphic" in2="effect1_dropShadow_561_10956" result="shape"/>
</filter>
</defs>
</svg>
