<svg width="21" height="20" viewBox="0 0 21 20" fill="none" xmlns="http://www.w3.org/2000/svg">
<g clip-path="url(#clip0_1153_17832)">
<path d="M6.83334 14.1695C6.83334 14.1696 6.83333 14.1697 6.83333 14.1698V15.3337M6.83334 14.1695L6.83333 15.3337M6.83334 14.1695L6.83393 14.1545C6.83471 14.1389 6.83644 14.1126 6.84025 14.077C6.84789 14.0057 6.86376 13.8985 6.89653 13.7674C6.96221 13.5047 7.09408 13.1527 7.35833 12.8003C7.86952 12.1187 8.95533 11.3337 11.3333 11.3337C13.7113 11.3337 14.7971 12.1187 15.3083 12.8003C15.5726 13.1527 15.7045 13.5047 15.7701 13.7674C15.8029 13.8985 15.8188 14.0057 15.8264 14.077C15.8302 14.1126 15.832 14.1389 15.8327 14.1545L15.8333 14.1695C15.8333 14.1696 15.8333 14.1697 15.8333 14.1698V15.3337M6.83334 14.1695L15.8333 15.3337M6.83333 15.3337H15.8333M6.83333 15.3337H15.8333M20 14.1698V15.3337H18.5V14.167V14.1591L18.4998 14.1513C18.4782 13.4654 18.3202 12.7908 18.0351 12.1666L17.5803 12.3744L18.0351 12.1666C17.9536 11.9883 17.8622 11.815 17.7614 11.6477C18.7488 11.9713 19.2832 12.4928 19.5807 12.9508C19.792 13.2762 19.8975 13.5906 19.9499 13.8219C19.976 13.9372 19.9886 14.0303 19.9946 14.0916C19.9976 14.1222 19.999 14.1446 19.9996 14.1577L20 14.1692L20 14.1682L20 14.1698ZM4.16667 8.33366V8.83366H4.66667H6.66667V9.50033H4.66667H4.16667V10.0003V12.0003H3.5V10.0003V9.50033H3H1V8.83366H3H3.5V8.33366V6.33366H4.16667V8.33366ZM12.9963 5.55585C13.216 5.88475 13.3333 6.27143 13.3333 6.66699C13.3333 7.19743 13.1226 7.70613 12.7475 8.08121C12.3725 8.45628 11.8638 8.66699 11.3333 8.66699C10.9378 8.66699 10.5511 8.5497 10.2222 8.32993C9.89329 8.11017 9.63695 7.79781 9.48557 7.43236C9.3342 7.06691 9.29459 6.66477 9.37176 6.27681C9.44893 5.88885 9.63941 5.53248 9.91912 5.25278C10.1988 4.97307 10.5552 4.78259 10.9432 4.70542C11.3311 4.62825 11.7332 4.66786 12.0987 4.81923C12.4642 4.97061 12.7765 5.22695 12.9963 5.55585ZM16.9142 8.08121C16.5527 8.44274 16.067 8.65156 15.5574 8.66617C15.8522 8.04422 16.0073 7.36169 16.0073 6.66699C16.0073 5.9723 15.8522 5.28976 15.5574 4.66782C16.067 4.68243 16.5527 4.89125 16.9142 5.25278C17.2893 5.62785 17.5 6.13656 17.5 6.66699C17.5 7.19743 17.2893 7.70613 16.9142 8.08121Z" stroke="#00091E"/>
</g>
<defs>
<clipPath id="clip0_1153_17832">
<rect width="20" height="20" fill="white" transform="translate(0.5)"/>
</clipPath>
</defs>
</svg>
