<svg width="20" height="20" viewBox="0 0 20 20" fill="none" xmlns="http://www.w3.org/2000/svg">
<path d="M9.20833 11.9237L7.45167 10.167L8.04167 9.57699L9.20833 10.7437L12.1667 7.78533L12.7567 8.37533L9.20833 11.9237ZM6.34667 18.3337C5.96278 18.3337 5.6425 18.2053 5.38583 17.9487C5.12917 17.692 5.00056 17.3717 5 16.9878V3.01283C5 2.62949 5.12861 2.30949 5.38583 2.05283C5.64306 1.79616 5.96333 1.66755 6.34667 1.66699H13.6542C14.0375 1.66699 14.3575 1.7956 14.6142 2.05283C14.8708 2.31005 14.9994 2.63033 15 3.01366V16.9878C15 17.3712 14.8717 17.6914 14.615 17.9487C14.3583 18.2059 14.0378 18.3342 13.6533 18.3337H6.34667ZM5.83333 16.2503V16.9878C5.83333 17.1156 5.88667 17.2331 5.99333 17.3403C6.1 17.4475 6.2175 17.5009 6.34583 17.5003H13.6542C13.7819 17.5003 13.8994 17.447 14.0067 17.3403C14.1139 17.2337 14.1672 17.1159 14.1667 16.987V16.2503H5.83333ZM5.83333 15.417H14.1667V4.58366H5.83333V15.417ZM5.83333 3.75033H14.1667V3.01283C14.1667 2.88505 14.1133 2.76755 14.0067 2.66033C13.9 2.5531 13.7822 2.49977 13.6533 2.50033H6.34667C6.21833 2.50033 6.10056 2.55366 5.99333 2.66033C5.88611 2.76699 5.83278 2.88477 5.83333 3.01366V3.75033Z" fill="#00091E"/>
</svg>
