<svg width="50" height="50" viewBox="0 0 50 50" fill="none" xmlns="http://www.w3.org/2000/svg">
<rect width="50" height="50" rx="25" fill="#2A94F4" fill-opacity="0.05"/>
<path d="M27.154 25.462H31.231V24.462H27.154V25.462ZM27.154 22.692H31.231V21.692H27.154V22.692ZM18.769 28.308H25.385V28.142C25.385 27.5587 25.0917 27.107 24.505 26.787C23.9183 26.467 23.109 26.307 22.077 26.307C21.045 26.307 20.2353 26.467 19.648 26.787C19.0607 27.107 18.7677 27.5587 18.769 28.142V28.308ZM22.077 24.692C22.499 24.692 22.8543 24.5477 23.143 24.259C23.4323 23.9697 23.577 23.614 23.577 23.192C23.577 22.77 23.4323 22.4147 23.143 22.126C22.8537 21.8373 22.4983 21.6927 22.077 21.692C21.6557 21.6913 21.3003 21.836 21.011 22.126C20.7217 22.416 20.577 22.7713 20.577 23.192C20.577 23.6127 20.7217 23.9683 21.011 24.259C21.3003 24.5497 21.6557 24.694 22.077 24.692ZM17.616 32C17.1553 32 16.771 31.846 16.463 31.538C16.155 31.23 16.0007 30.8453 16 30.384V19.616C16 19.1553 16.1543 18.771 16.463 18.463C16.7717 18.155 17.1557 18.0007 17.615 18H32.385C32.845 18 33.229 18.1543 33.537 18.463C33.845 18.7717 33.9993 19.156 34 19.616V30.385C34 30.845 33.8457 31.2293 33.537 31.538C33.2283 31.8467 32.8443 32.0007 32.385 32H17.616ZM17.616 31H32.385C32.5383 31 32.6793 30.936 32.808 30.808C32.9367 30.68 33.0007 30.5387 33 30.384V19.616C33 19.462 32.936 19.3207 32.808 19.192C32.68 19.0633 32.539 18.9993 32.385 19H17.615C17.4617 19 17.3207 19.064 17.192 19.192C17.0633 19.32 16.9993 19.4613 17 19.616V30.385C17 30.5383 17.064 30.6793 17.192 30.808C17.32 30.9367 17.461 31.0007 17.615 31" fill="#105CE2"/>
</svg>
