<svg width="50" height="50" viewBox="0 0 50 50" fill="none" xmlns="http://www.w3.org/2000/svg">
<rect width="50" height="50" rx="25" fill="#2A94F4" fill-opacity="0.05"/>
<path d="M35.5 22.9375H34.3656L31.7116 16.9666C31.6084 16.7347 31.4403 16.5377 31.2274 16.3994C31.0146 16.2611 30.7663 16.1875 30.5125 16.1875H19.4875C19.2337 16.1875 18.9854 16.2611 18.7726 16.3994C18.5597 16.5377 18.3916 16.7347 18.2884 16.9666L15.6344 22.9375H14.5C14.3508 22.9375 14.2077 22.9968 14.1023 23.1023C13.9968 23.2077 13.9375 23.3508 13.9375 23.5C13.9375 23.6492 13.9968 23.7923 14.1023 23.8977C14.2077 24.0032 14.3508 24.0625 14.5 24.0625H15.4375V31.75C15.4375 32.0981 15.5758 32.4319 15.8219 32.6781C16.0681 32.9242 16.4019 33.0625 16.75 33.0625H19C19.3481 33.0625 19.6819 32.9242 19.9281 32.6781C20.1742 32.4319 20.3125 32.0981 20.3125 31.75V30.0625H29.6875V31.75C29.6875 32.0981 29.8258 32.4319 30.0719 32.6781C30.3181 32.9242 30.6519 33.0625 31 33.0625H33.25C33.5981 33.0625 33.9319 32.9242 34.1781 32.6781C34.4242 32.4319 34.5625 32.0981 34.5625 31.75V24.0625H35.5C35.6492 24.0625 35.7923 24.0032 35.8977 23.8977C36.0032 23.7923 36.0625 23.6492 36.0625 23.5C36.0625 23.3508 36.0032 23.2077 35.8977 23.1023C35.7923 22.9968 35.6492 22.9375 35.5 22.9375ZM19.3159 17.4241C19.3307 17.3908 19.3547 17.3626 19.3852 17.3428C19.4156 17.323 19.4512 17.3125 19.4875 17.3125H30.5125C30.5488 17.3125 30.5844 17.323 30.6148 17.3428C30.6453 17.3626 30.6693 17.3908 30.6841 17.4241L33.1347 22.9375H16.8653L19.3159 17.4241ZM19.1875 31.75C19.1875 31.7997 19.1677 31.8474 19.1326 31.8826C19.0974 31.9177 19.0497 31.9375 19 31.9375H16.75C16.7003 31.9375 16.6526 31.9177 16.6174 31.8826C16.5823 31.8474 16.5625 31.7997 16.5625 31.75V30.0625H19.1875V31.75ZM33.25 31.9375H31C30.9503 31.9375 30.9026 31.9177 30.8674 31.8826C30.8323 31.8474 30.8125 31.7997 30.8125 31.75V30.0625H33.4375V31.75C33.4375 31.7997 33.4177 31.8474 33.3826 31.8826C33.3474 31.9177 33.2997 31.9375 33.25 31.9375ZM33.4375 28.9375H16.5625V24.0625H33.4375V28.9375ZM18.4375 26.5C18.4375 26.3508 18.4968 26.2077 18.6023 26.1023C18.7077 25.9968 18.8508 25.9375 19 25.9375H20.5C20.6492 25.9375 20.7923 25.9968 20.8977 26.1023C21.0032 26.2077 21.0625 26.3508 21.0625 26.5C21.0625 26.6492 21.0032 26.7923 20.8977 26.8977C20.7923 27.0032 20.6492 27.0625 20.5 27.0625H19C18.8508 27.0625 18.7077 27.0032 18.6023 26.8977C18.4968 26.7923 18.4375 26.6492 18.4375 26.5ZM28.9375 26.5C28.9375 26.3508 28.9968 26.2077 29.1023 26.1023C29.2077 25.9968 29.3508 25.9375 29.5 25.9375H31C31.1492 25.9375 31.2923 25.9968 31.3977 26.1023C31.5032 26.2077 31.5625 26.3508 31.5625 26.5C31.5625 26.6492 31.5032 26.7923 31.3977 26.8977C31.2923 27.0032 31.1492 27.0625 31 27.0625H29.5C29.3508 27.0625 29.2077 27.0032 29.1023 26.8977C28.9968 26.7923 28.9375 26.6492 28.9375 26.5Z" fill="#105CE2"/>
</svg>
