<svg width="50" height="50" viewBox="0 0 50 50" fill="none" xmlns="http://www.w3.org/2000/svg">
<rect width="50" height="50" rx="25" fill="#2A94F4" fill-opacity="0.05"/>
<path d="M17 19V32C17 32.7956 17.3161 33.5587 17.8787 34.1213C18.4413 34.6839 19.2044 35 20 35H30C30.7956 35 31.5587 34.6839 32.1213 34.1213C32.6839 33.5587 33 32.7956 33 32V27M17 19V18M17 19H30C30.7956 19 31.5587 19.3161 32.1213 19.8787C32.6839 20.4413 33 21.2044 33 22V23" stroke="#105CE2" stroke-width="1.5" stroke-linecap="round"/>
<path d="M22 26C22 25.4067 22.1759 24.8266 22.5056 24.3333C22.8352 23.8399 23.3038 23.4554 23.8519 23.2284C24.4001 23.0013 25.0033 22.9419 25.5853 23.0576C26.1672 23.1734 26.7018 23.4591 27.1213 23.8787C27.5409 24.2982 27.8266 24.8328 27.9424 25.4147C28.0581 25.9967 27.9987 26.5999 27.7716 27.1481C27.5446 27.6962 27.1601 28.1648 26.6667 28.4944C26.1734 28.8241 25.5933 29 25 29" stroke="#105CE2" stroke-width="1.5" stroke-linecap="round"/>
<path d="M31 19.0003V19.7503H31.75V19.0003H31ZM18.07 19.7503H31V18.2503H18.071L18.07 19.7503ZM31.75 19.0003V17.3063H30.25V19.0003H31.75ZM28.611 14.5843L17.814 16.1263L18.026 17.6113L28.823 16.0703L28.611 14.5843ZM17.814 16.1263C17.3797 16.188 16.9822 16.4045 16.6948 16.736C16.4075 17.0675 16.2495 17.4916 16.25 17.9303H17.75C17.7497 17.8529 17.7776 17.778 17.8283 17.7195C17.8791 17.661 17.9493 17.6219 18.026 17.6113L17.814 16.1263ZM31.75 17.3063C31.75 16.9123 31.6652 16.5229 31.5016 16.1646C31.338 15.8062 31.0993 15.4871 30.8016 15.229C30.504 14.9709 30.1544 14.7797 29.7764 14.6685C29.3985 14.5573 29.001 14.5286 28.611 14.5843L28.823 16.0703C29.0003 16.0449 29.1809 16.057 29.3527 16.1075C29.5245 16.158 29.6835 16.2449 29.8188 16.3622C29.9541 16.4795 30.0626 16.6245 30.137 16.7874C30.2114 16.9502 30.2499 17.1272 30.25 17.3063H31.75ZM18.071 18.2503C18.0288 18.2504 17.987 18.2422 17.948 18.2261C17.909 18.21 17.8736 18.1864 17.8437 18.1566C17.8139 18.1267 17.7903 18.0913 17.7742 18.0523C17.7581 18.0133 17.7499 17.9725 17.75 17.9303H16.25C16.2499 18.1695 16.2969 18.4053 16.3883 18.6263C16.4798 18.8473 16.6139 19.0481 16.7831 19.2172C16.9522 19.3863 17.153 19.5205 17.374 19.6119C17.595 19.7034 17.8308 19.7504 18.07 19.7503L18.071 18.2503Z" fill="#105CE2"/>
<path d="M23 32H27" stroke="#105CE2" stroke-width="1.5" stroke-linecap="round"/>
</svg>
