<svg width="50" height="50" viewBox="0 0 50 50" fill="none" xmlns="http://www.w3.org/2000/svg">
<rect width="50" height="50" rx="25" fill="#2A94F4" fill-opacity="0.05"/>
<path d="M17.6407 33.167V22.604L14.038 25.292L13.3334 24.368L25 15.667L30.0704 19.4272V16.8337H32.2695V21.0792L36.6889 24.368L35.9854 25.292L32.3815 22.604V33.167H26.4362V27.0653H23.5639V33.167H17.6407ZM18.8074 32.0003H22.3984V25.8987H27.604V32.0003H31.216V21.7453L25 17.1323L18.8074 21.7453V32.0003ZM22.8907 22.674H27.1094C27.1094 22.1264 26.8986 21.6757 26.477 21.3218C26.0547 20.9679 25.5624 20.791 25 20.791C24.4377 20.791 23.9458 20.9672 23.5242 21.3195C23.1027 21.6718 22.8915 22.1241 22.8907 22.674ZM22.3984 32.0003V25.8987H27.604H22.3972L22.3984 32.0003Z" fill="#105CE2"/>
</svg>
