<svg width="24" height="24" viewBox="0 0 24 24" fill="none" xmlns="http://www.w3.org/2000/svg">
<path d="M12 7.04883C12.2653 7.04883 12.5197 6.94345 12.7072 6.75587C12.8948 6.5683 13.0002 6.3139 13.0002 6.04863C13.0002 5.78336 12.8948 5.52895 12.7072 5.34138C12.5197 5.15381 12.2653 5.04843 12 5.04843C11.7347 5.04843 11.4803 5.15381 11.2927 5.34138C11.1052 5.52895 10.9998 5.78336 10.9998 6.04863C10.9998 6.3139 11.1052 6.5683 11.2927 6.75587C11.4803 6.94345 11.7347 7.04883 12 7.04883ZM4.19999 20.4H10.0032C9.82305 20.0204 9.70088 19.6159 9.64079 19.2H4.79999V18.2004C4.79999 17.4264 5.42759 16.8 6.20039 16.8H10.0044C10.218 16.35 10.5084 15.9444 10.8612 15.6H9.59999V9.60003H11.4V15.1524C11.7612 14.9004 12.1656 14.7024 12.6 14.574V9.59883H14.4V14.3988H15.6V9.60003H18V14.4H18.5988C18.8028 14.4 19.0028 14.4144 19.1988 14.4432V9.59883H19.3104C20.382 9.59883 20.8224 8.22243 19.9464 7.60203L12.9264 2.61963C12.656 2.42685 12.3321 2.32324 12 2.32324C11.6679 2.32324 11.344 2.42685 11.0736 2.61963L4.05119 7.60203C3.17759 8.22243 3.61559 9.59883 4.68719 9.59883H4.79999V16.0068C4.07879 16.47 3.59999 17.2788 3.59999 18.1992V19.7988C3.59999 19.958 3.66321 20.1106 3.77573 20.2231C3.88825 20.3356 4.04086 20.4 4.19999 20.4ZM11.7672 3.60003C11.8345 3.55168 11.9153 3.52567 11.9982 3.52567C12.0811 3.52567 12.1619 3.55168 12.2292 3.60003L18.996 8.40003H5.00159L11.7672 3.60003ZM5.99879 15.606V9.60003H8.39879V15.6H6.19919C6.13199 15.6 6.06519 15.6012 5.99879 15.606ZM13.8 15.6C13.0043 15.6 12.2413 15.9161 11.6787 16.4787C11.1161 17.0413 10.8 17.8044 10.8 18.6C10.8 19.3957 11.1161 20.1587 11.6787 20.7213C12.2413 21.284 13.0043 21.6 13.8 21.6H14.4C14.5591 21.6 14.7117 21.5368 14.8243 21.4243C14.9368 21.3118 15 21.1592 15 21C15 20.8409 14.9368 20.6883 14.8243 20.5758C14.7117 20.4632 14.5591 20.4 14.4 20.4H13.8C13.3226 20.4 12.8648 20.2104 12.5272 19.8728C12.1896 19.5353 12 19.0774 12 18.6C12 18.1226 12.1896 17.6648 12.5272 17.3272C12.8648 16.9897 13.3226 16.8 13.8 16.8H14.4C14.5591 16.8 14.7117 16.7368 14.8243 16.6243C14.9368 16.5118 15 16.3592 15 16.2C15 16.0409 14.9368 15.8883 14.8243 15.7758C14.7117 15.6632 14.5591 15.6 14.4 15.6H13.8ZM18 15.6C17.8409 15.6 17.6883 15.6632 17.5757 15.7758C17.4632 15.8883 17.4 16.0409 17.4 16.2C17.4 16.3592 17.4632 16.5118 17.5757 16.6243C17.6883 16.7368 17.8409 16.8 18 16.8H18.6C19.0774 16.8 19.5352 16.9897 19.8728 17.3272C20.2104 17.6648 20.4 18.1226 20.4 18.6C20.4 19.0774 20.2104 19.5353 19.8728 19.8728C19.5352 20.2104 19.0774 20.4 18.6 20.4H18C17.8409 20.4 17.6883 20.4632 17.5757 20.5758C17.4632 20.6883 17.4 20.8409 17.4 21C17.4 21.1592 17.4632 21.3118 17.5757 21.4243C17.6883 21.5368 17.8409 21.6 18 21.6H18.6C19.3956 21.6 20.1587 21.284 20.7213 20.7213C21.2839 20.1587 21.6 19.3957 21.6 18.6C21.6 17.8044 21.2839 17.0413 20.7213 16.4787C20.1587 15.9161 19.3956 15.6 18.6 15.6H18ZM13.2 18.6C13.2 18.4409 13.2632 18.2883 13.3757 18.1758C13.4882 18.0632 13.6409 18 13.8 18H18.6C18.7591 18 18.9117 18.0632 19.0243 18.1758C19.1368 18.2883 19.2 18.4409 19.2 18.6C19.2 18.7592 19.1368 18.9118 19.0243 19.0243C18.9117 19.1368 18.7591 19.2 18.6 19.2H13.8C13.6409 19.2 13.4882 19.1368 13.3757 19.0243C13.2632 18.9118 13.2 18.7592 13.2 18.6Z" fill="#105CE2"/>
</svg>
