<svg width="50" height="50" viewBox="0 0 50 50" fill="none" xmlns="http://www.w3.org/2000/svg">
<rect width="50" height="50" rx="25" fill="#105CE2" fill-opacity="0.1"/>
<g clip-path="url(#clip0_1820_2418)">
<path d="M32.2192 22.9765C31.8887 22.7172 31.5264 22.4582 31.1409 22.1959C30.7239 21.9137 30.3911 21.5042 30.1775 21.0118C29.7915 20.1247 29.3297 19.2555 28.8043 18.429C27.3788 16.1837 23.9463 15.3615 21.1546 16.5958L21.0656 16.6351C18.2738 17.8694 16.5717 20.9609 17.2736 23.5271C17.5316 24.4727 17.8635 25.3984 18.2599 26.281C18.4798 26.7714 18.5587 27.2932 18.4873 27.7904C18.4221 28.2502 18.3712 28.6909 18.3391 29.1088C18.27 30.0268 18.6038 30.8705 19.2809 31.4841C19.9584 32.0985 20.882 32.3962 21.8816 32.3215C22.6874 32.2614 23.4942 32.1361 24.5422 31.8158C24.574 31.932 24.6142 32.0464 24.6631 32.1569C25.2612 33.5097 26.9937 34.0603 28.5243 33.3836C30.0549 32.7069 30.8139 31.0556 30.2155 29.702C30.1666 29.5915 30.1094 29.4855 30.0455 29.3853C30.998 28.8211 31.6346 28.3083 32.2175 27.7535C32.9422 27.0641 33.3413 26.1824 33.3414 25.2694C33.3418 24.3571 32.943 23.5439 32.2187 22.9776L32.2192 22.9765ZM29.3522 30.0827C29.7647 31.0156 29.2425 32.154 28.1879 32.6203C27.1332 33.0866 25.9398 32.7067 25.5274 31.7738C25.49 31.6892 25.461 31.6027 25.4384 31.5143C26.0009 31.3103 26.6303 31.0547 27.3533 30.7351C28.0763 30.4154 28.6915 30.1206 29.2213 29.8427C29.2712 29.9181 29.3151 29.9989 29.3522 30.0827ZM32.4154 25.3471C32.4153 26.0242 32.119 26.6782 31.5817 27.1891C30.6536 28.0723 29.5662 28.8455 27.0164 29.9729C24.4881 31.0908 23.1815 31.375 21.8928 31.471C21.1503 31.5269 20.465 31.3059 19.963 30.85C19.4612 30.3949 19.2135 29.7691 19.2656 29.0882C19.296 28.6875 19.3447 28.2651 19.4076 27.8236C19.4993 27.1808 19.4009 26.5145 19.1228 25.8949C18.7419 25.0474 18.4227 24.1571 18.175 23.2488C17.5904 21.1092 19.069 18.4299 21.4038 17.3977L21.4927 17.3583C23.8276 16.326 26.8047 17.0361 27.9936 18.9077C28.4987 19.7022 28.9424 20.5374 29.3129 21.3895C29.5841 22.0122 30.011 22.5341 30.5479 22.8982C30.9171 23.1495 31.2647 23.3985 31.5831 23.6468C32.121 24.0669 32.4159 24.6708 32.4154 25.3471Z" fill="#105CE2"/>
</g>
<defs>
<clipPath id="clip0_1820_2418">
<rect width="17" height="20" fill="white" transform="translate(13 19.291) rotate(-23.8517)"/>
</clipPath>
</defs>
</svg>
