<svg width="72" height="70" viewBox="0 0 72 70" fill="none" xmlns="http://www.w3.org/2000/svg">
<g filter="url(#filter0_d_561_10950)">
<rect x="3" y="2" width="66" height="65" rx="32.5" fill="white" shape-rendering="crispEdges"/>
<g clip-path="url(#clip0_561_10950)">
<path d="M36.98 33.8538C37.0518 33.7285 37.1329 33.6104 37.2222 33.5H27.5V39.75C27.5 41.5416 28.9584 43 30.75 43H34.3848C34.1404 42.4718 34 41.8845 34 41.2605C34 39.1808 35.091 37.111 36.6965 35.7811C36.5461 35.1367 36.6406 34.4452 36.98 33.8538ZM36.98 33.8538C36.98 33.8537 36.9801 33.8537 36.9801 33.8536L37.4137 34.1025L36.98 33.8538ZM44.5 30.75V31H27.5V30.75C27.5 28.9584 28.9584 27.5 30.75 27.5H31.5H32V27V26.25C32 26.1121 32.1121 26 32.25 26C32.3879 26 32.5 26.1121 32.5 26.25V27V27.5H33H39H39.5V27V26.25C39.5 26.1118 39.6117 26 39.75 26C39.8883 26 40 26.1118 40 26.25V27V27.5H40.5H41.25C43.0416 27.5 44.5 28.9584 44.5 30.75ZM41.1487 36.112L40.5474 36.6975L41.3485 36.9475C42.1665 37.2028 42.9592 37.8014 43.5493 38.5939C44.1387 39.3854 44.4993 40.3345 44.4993 41.2605C44.4993 42.2189 43.718 43 42.7493 43H38.2492C37.2805 43 36.4992 42.2189 36.4992 41.2605C36.4992 40.3347 36.8601 39.3855 37.4498 38.594C38.0402 37.8014 38.8331 37.2028 39.6508 36.9475L40.4517 36.6974L39.8506 36.112C39.581 35.8495 39.3236 35.5535 39.1442 35.2471C39.1178 35.2018 39.1167 35.149 39.1505 35.0932C39.1857 35.0351 39.2449 35 39.312 35H41.6873C41.7545 35 41.8138 35.0352 41.8491 35.0934C41.883 35.1491 41.8817 35.2016 41.8552 35.2468L41.855 35.2471C41.6756 35.5535 41.4183 35.8495 41.1487 36.112Z" stroke="#105CE2"/>
</g>
</g>
<defs>
<filter id="filter0_d_561_10950" x="0.678571" y="0.258929" width="70.6429" height="69.6429" filterUnits="userSpaceOnUse" color-interpolation-filters="sRGB">
<feFlood flood-opacity="0" result="BackgroundImageFix"/>
<feColorMatrix in="SourceAlpha" type="matrix" values="0 0 0 0 0 0 0 0 0 0 0 0 0 0 0 0 0 0 127 0" result="hardAlpha"/>
<feMorphology radius="1.16071" operator="dilate" in="SourceAlpha" result="effect1_dropShadow_561_10950"/>
<feOffset dy="0.580357"/>
<feGaussianBlur stdDeviation="0.580357"/>
<feComposite in2="hardAlpha" operator="out"/>
<feColorMatrix type="matrix" values="0 0 0 0 0.0392157 0 0 0 0 0.0392157 0 0 0 0 0.0392157 0 0 0 0.16 0"/>
<feBlend mode="normal" in2="BackgroundImageFix" result="effect1_dropShadow_561_10950"/>
<feBlend mode="normal" in="SourceGraphic" in2="effect1_dropShadow_561_10950" result="shape"/>
</filter>
<clipPath id="clip0_561_10950">
<rect width="18" height="18" fill="white" transform="translate(27 25.5)"/>
</clipPath>
</defs>
</svg>
