<svg width="20" height="20" viewBox="0 0 20 20" fill="none" xmlns="http://www.w3.org/2000/svg">
<path fill-rule="evenodd" clip-rule="evenodd" d="M12.8483 4.70389C12.7334 4.52026 12.5641 4.37702 12.3639 4.29412C12.1638 4.21123 11.9428 4.1928 11.7317 4.24139L10.2333 4.58556C10.0798 4.62085 9.92022 4.62085 9.76667 4.58556L8.26834 4.24139C8.05722 4.1928 7.83621 4.21123 7.63607 4.29412C7.43592 4.37702 7.2666 4.52026 7.15167 4.70389L6.335 6.00722C6.25167 6.14056 6.13917 6.25306 6.00584 6.33722L4.7025 7.15389C4.51919 7.26872 4.37616 7.43776 4.29328 7.63757C4.2104 7.83737 4.19178 8.05802 4.24 8.26889L4.58417 9.76889C4.61934 9.92218 4.61934 10.0814 4.58417 10.2347L4.24 11.7339C4.19159 11.9449 4.21012 12.1657 4.29301 12.3657C4.3759 12.5657 4.51903 12.7348 4.7025 12.8497L6.00584 13.6664C6.13917 13.7497 6.25167 13.8622 6.33584 13.9956L7.1525 15.2989C7.3875 15.6747 7.83584 15.8606 8.26834 15.7614L9.76667 15.4172C9.92022 15.3819 10.0798 15.3819 10.2333 15.4172L11.7325 15.7614C11.9435 15.8098 12.1643 15.7913 12.3643 15.7084C12.5643 15.6255 12.7335 15.4824 12.8483 15.2989L13.665 13.9956C13.7483 13.8622 13.8608 13.7497 13.9942 13.6664L15.2983 12.8497C15.4818 12.7347 15.6249 12.5653 15.7076 12.3652C15.7904 12.165 15.8087 11.9441 15.76 11.7331L15.4167 10.2347C15.3814 10.0812 15.3814 9.92161 15.4167 9.76806L15.7608 8.26889C15.8093 8.05799 15.7909 7.83722 15.7082 7.63725C15.6255 7.43729 15.4825 7.26805 15.2992 7.15306L13.995 6.33639C13.8619 6.25291 13.7493 6.14037 13.6658 6.00722L12.8483 4.70389ZM12.4292 8.14306C12.4807 8.04828 12.4935 7.9372 12.4648 7.8332C12.4361 7.7292 12.3682 7.64038 12.2754 7.58543C12.1825 7.53048 12.072 7.51368 11.967 7.53857C11.862 7.56347 11.7708 7.6281 11.7125 7.71889L9.53334 11.4072L8.2175 10.1472C8.17847 10.1071 8.13176 10.0753 8.08016 10.0537C8.02857 10.0321 7.97314 10.021 7.91719 10.0213C7.86124 10.0215 7.80591 10.033 7.75451 10.0551C7.7031 10.0772 7.65667 10.1094 7.61799 10.1498C7.5793 10.1903 7.54915 10.2381 7.52934 10.2904C7.50953 10.3427 7.50046 10.3985 7.50267 10.4544C7.50488 10.5103 7.51832 10.5652 7.54221 10.6158C7.56609 10.6664 7.59991 10.7117 7.64167 10.7489L9.33667 12.3731C9.38204 12.4164 9.43661 12.449 9.49633 12.4683C9.55605 12.4877 9.61936 12.4932 9.68154 12.4847C9.74372 12.4761 9.80316 12.4536 9.85542 12.4188C9.90767 12.3841 9.9514 12.3379 9.98334 12.2839L12.4292 8.14306Z" fill="#105CE2"/>
</svg>
