<svg width="16" height="17" viewBox="0 0 16 17" fill="none" xmlns="http://www.w3.org/2000/svg">
<path fill-rule="evenodd" clip-rule="evenodd" d="M10.75 8.50024C10.75 8.36763 10.6974 8.24046 10.6036 8.14669C10.5098 8.05292 10.3827 8.00024 10.25 8.00024H2.93471L4.24205 6.88024C4.29195 6.83752 4.33295 6.78538 4.3627 6.72682C4.39246 6.66825 4.41038 6.60439 4.41546 6.5389C4.42054 6.4734 4.41266 6.40755 4.39229 6.34509C4.37191 6.28264 4.33944 6.22481 4.29671 6.17491C4.25399 6.12501 4.20186 6.08401 4.14329 6.05425C4.08472 6.0245 4.02086 6.00657 3.95537 6.0015C3.88987 5.99642 3.82402 6.00429 3.76156 6.02467C3.69911 6.04504 3.64128 6.07752 3.59138 6.12024L1.25805 8.12024C1.20316 8.16718 1.15909 8.22546 1.12887 8.29105C1.09865 8.35665 1.08301 8.42802 1.08301 8.50024C1.08301 8.57247 1.09865 8.64383 1.12887 8.70943C1.15909 8.77503 1.20316 8.8333 1.25805 8.88024L3.59138 10.8802C3.69216 10.9665 3.82309 11.0092 3.95537 10.999C4.08764 10.9887 4.21043 10.9264 4.29671 10.8256C4.383 10.7248 4.42571 10.5939 4.41546 10.4616C4.40521 10.3293 4.34283 10.2065 4.24205 10.1202L2.93538 9.00024H10.25C10.3827 9.00024 10.5098 8.94756 10.6036 8.8538C10.6974 8.76003 10.75 8.63285 10.75 8.50024Z" fill="#DE1E04"/>
<path d="M7.18975 14.227L7.18935 14.2266C7.00492 14.0424 6.88459 13.7835 6.81879 13.2942C6.75106 12.7906 6.75 12.1231 6.75 11.1663C6.75 10.9219 6.75061 10.7763 6.7615 10.6695C6.76804 10.6054 6.77646 10.5792 6.77944 10.5719C6.79073 10.5552 6.80496 10.5407 6.82142 10.5291C6.82904 10.526 6.85547 10.5176 6.91952 10.5111C7.02653 10.5003 7.1723 10.4997 7.41667 10.4997H10.25C10.7804 10.4997 11.2891 10.289 11.6642 9.91389C12.0393 9.53881 12.25 9.03011 12.25 8.49967C12.25 7.96924 12.0393 7.46053 11.6642 7.08546C11.2891 6.71039 10.7804 6.49967 10.25 6.49967H7.41667C7.17224 6.49967 7.02664 6.49907 6.91982 6.48817C6.85588 6.48165 6.82969 6.47326 6.82229 6.47026C6.8055 6.45871 6.79096 6.44417 6.77941 6.42738C6.77642 6.41998 6.76802 6.39379 6.7615 6.32986C6.75061 6.22303 6.75 6.07743 6.75 5.83301C6.75 4.8762 6.75106 4.20875 6.81879 3.70515C6.88459 3.2159 7.00492 2.95698 7.18935 2.77276L7.18975 2.77236C7.37401 2.5879 7.6328 2.46758 8.1219 2.4018C8.62541 2.33407 9.29285 2.33301 10.25 2.33301H10.9167C11.8735 2.33301 12.5408 2.33407 13.0443 2.4018C13.5333 2.46758 13.7925 2.58791 13.9771 2.77256L13.9773 2.77276C14.1617 2.95698 14.2821 3.2159 14.3479 3.70515C14.4156 4.20875 14.4167 4.8762 14.4167 5.83301V11.1663C14.4167 12.1231 14.4156 12.7906 14.3479 13.2942C14.2821 13.7835 14.1617 14.0424 13.9773 14.2266L13.9771 14.2268C13.7924 14.4115 13.5335 14.5318 13.0444 14.5976C12.5409 14.6653 11.8735 14.6663 10.916 14.6663H10.2493C9.29252 14.6663 8.62524 14.6653 8.12183 14.5976C7.63281 14.5318 7.37401 14.4115 7.18975 14.227ZM6.78054 10.5696C6.78056 10.5697 6.78026 10.5704 6.77956 10.5716C6.78016 10.5702 6.78051 10.5696 6.78054 10.5696ZM6.82088 10.5293C6.8197 10.53 6.81899 10.5303 6.81893 10.5302C6.81887 10.5302 6.81946 10.5299 6.82088 10.5293ZM6.81995 6.46914C6.82001 6.46911 6.82073 6.46941 6.82194 6.47011C6.82049 6.46951 6.81989 6.46916 6.81995 6.46914ZM6.77956 6.42774C6.78026 6.42894 6.78056 6.42966 6.78054 6.42973C6.78051 6.42979 6.78017 6.42919 6.77956 6.42774Z" stroke="#DE1E04"/>
</svg>
