<svg width="40" height="40" viewBox="0 0 40 40" fill="none" xmlns="http://www.w3.org/2000/svg">
<circle cx="20" cy="20" r="19.9" fill="url(#paint0_linear_2035_19532)" stroke="url(#paint1_linear_2035_19532)" stroke-width="0.2"/>
<circle cx="20" cy="20" r="11.9" stroke="#BFC4CD" stroke-width="0.2"/>
<path d="M16.8003 22.3997C16.8003 21.9754 16.9689 21.5684 17.2689 21.2684C17.569 20.9683 17.9759 20.7997 18.4003 20.7997H21.6003C22.0246 20.7997 22.4316 20.9683 22.7317 21.2684C23.0317 21.5684 23.2003 21.9754 23.2003 22.3997C23.2003 22.6119 23.116 22.8154 22.966 22.9654C22.8159 23.1155 22.6125 23.1997 22.4003 23.1997H17.6003C17.3881 23.1997 17.1846 23.1155 17.0346 22.9654C16.8846 22.8154 16.8003 22.6119 16.8003 22.3997Z" stroke="#344054" stroke-width="0.6" stroke-linejoin="round"/>
<path d="M20.0003 19.1997C20.663 19.1997 21.2003 18.6625 21.2003 17.9997C21.2003 17.337 20.663 16.7997 20.0003 16.7997C19.3376 16.7997 18.8003 17.337 18.8003 17.9997C18.8003 18.6625 19.3376 19.1997 20.0003 19.1997Z" stroke="#344054" stroke-width="0.6"/>
<defs>
<linearGradient id="paint0_linear_2035_19532" x1="20" y1="0" x2="20" y2="40" gradientUnits="userSpaceOnUse">
<stop stop-color="#EEF0F5"/>
<stop offset="0.484636" stop-color="white"/>
</linearGradient>
<linearGradient id="paint1_linear_2035_19532" x1="20" y1="0" x2="20" y2="40" gradientUnits="userSpaceOnUse">
<stop stop-color="#475467"/>
<stop offset="0.590352" stop-color="white"/>
</linearGradient>
</defs>
</svg>
