<svg width="20" height="16" viewBox="0 0 20 16" fill="none" xmlns="http://www.w3.org/2000/svg">
<g clip-path="url(#clip0_2151_3994)">
<path d="M3.6359 15.4699V14.4409C3.6359 14.0464 3.39575 13.7892 2.98411 13.7892C2.77833 13.7892 2.55536 13.8578 2.40098 14.0808C2.28098 13.8921 2.1095 13.7892 1.85223 13.7892C1.68067 13.7892 1.50926 13.8406 1.372 14.0293V13.8235H1.01184V15.4699H1.372V14.5609C1.372 14.2695 1.52637 14.1322 1.76653 14.1322C2.00653 14.1322 2.12668 14.2866 2.12668 14.5609V15.4699H2.48684V14.5609C2.48684 14.2695 2.65825 14.1322 2.88122 14.1322C3.12137 14.1322 3.24137 14.2866 3.24137 14.5609V15.4699H3.6359ZM8.96957 13.8235H8.38653V13.3262H8.02637V13.8235H7.70051V14.1493H8.02629V14.904C8.02629 15.2813 8.18067 15.5042 8.59231 15.5042C8.74668 15.5042 8.91809 15.4528 9.03825 15.3842L8.93528 15.0755C8.83239 15.1441 8.71239 15.1613 8.62661 15.1613C8.45512 15.1613 8.38653 15.0584 8.38653 14.8868V14.1493H8.96957V13.8235ZM12.0224 13.7891C11.8166 13.7891 11.6794 13.8921 11.5936 14.0293V13.8235H11.2335V15.4699H11.5936V14.5438C11.5936 14.2695 11.7136 14.1151 11.9366 14.1151C12.0052 14.1151 12.091 14.1323 12.1596 14.1494L12.2625 13.8064C12.1939 13.7892 12.091 13.7892 12.0224 13.7892M7.40895 13.9608C7.23739 13.8407 6.99731 13.7893 6.74004 13.7893C6.32848 13.7893 6.05411 13.9951 6.05411 14.3209C6.05411 14.5954 6.25989 14.7497 6.62004 14.8012L6.79153 14.8184C6.9802 14.8526 7.08309 14.9041 7.08309 14.9898C7.08309 15.1098 6.9459 15.1956 6.70575 15.1956C6.46559 15.1956 6.277 15.1098 6.15692 15.0241L5.98543 15.2985C6.17411 15.4357 6.43137 15.5043 6.68856 15.5043C7.16879 15.5043 7.44325 15.2814 7.44325 14.9727C7.44325 14.6811 7.22028 14.5267 6.87723 14.4753L6.70575 14.4581C6.55137 14.4409 6.43137 14.4067 6.43137 14.3038C6.43137 14.1838 6.55137 14.1152 6.74004 14.1152C6.9459 14.1152 7.15168 14.2009 7.25457 14.2523L7.40895 13.9608ZM16.9789 13.7893C16.773 13.7893 16.6358 13.8922 16.55 14.0294V13.8236H16.1899V15.47H16.55V14.5439C16.55 14.2695 16.6701 14.1152 16.893 14.1152C16.9617 14.1152 17.0475 14.1323 17.1161 14.1495L17.219 13.8065C17.1504 13.7893 17.0475 13.7893 16.9789 13.7893ZM12.3825 14.6468C12.3825 15.1441 12.7255 15.5043 13.2572 15.5043C13.4973 15.5043 13.6688 15.4529 13.8403 15.3157L13.6688 15.0241C13.5316 15.127 13.3944 15.1784 13.24 15.1784C12.9485 15.1784 12.7427 14.9727 12.7427 14.6468C12.7427 14.3381 12.9485 14.1323 13.24 14.1152C13.3944 14.1152 13.5316 14.1666 13.6688 14.2695L13.8403 13.978C13.6688 13.8407 13.4973 13.7893 13.2572 13.7893C12.7255 13.7893 12.3825 14.1495 12.3825 14.6468ZM15.7097 14.6468V13.8236H15.3496V14.0294C15.2295 13.8751 15.058 13.7893 14.835 13.7893C14.372 13.7893 14.0118 14.1495 14.0118 14.6468C14.0118 15.1441 14.372 15.5043 14.835 15.5043C15.0751 15.5043 15.2467 15.4186 15.3496 15.2642V15.47H15.7097V14.6468ZM14.3891 14.6468C14.3891 14.3552 14.5778 14.1152 14.8864 14.1152C15.178 14.1152 15.3839 14.3381 15.3839 14.6468C15.3839 14.9384 15.178 15.1784 14.8864 15.1784C14.5778 15.1613 14.3891 14.9384 14.3891 14.6468ZM10.0844 13.7893C9.60418 13.7893 9.26114 14.1323 9.26114 14.6468C9.26114 15.1613 9.60411 15.5043 10.1015 15.5043C10.3416 15.5043 10.5818 15.4357 10.7704 15.2814L10.5989 15.0241C10.4617 15.127 10.2902 15.1956 10.1187 15.1956C9.89575 15.1956 9.67278 15.0927 9.62129 14.8011H10.839V14.664C10.8562 14.1323 10.5475 13.7893 10.0844 13.7893ZM10.0843 14.098C10.3072 14.098 10.4617 14.2352 10.4959 14.4925H9.6384C9.6727 14.2695 9.82708 14.098 10.0843 14.098ZM19.0197 14.6468V13.1719H18.6595V14.0294C18.5394 13.8751 18.3679 13.7893 18.145 13.7893C17.6819 13.7893 17.3218 14.1495 17.3218 14.6468C17.3218 15.1441 17.6819 15.5043 18.145 15.5043C18.3851 15.5043 18.5566 15.4186 18.6595 15.2642V15.47H19.0197V14.6468ZM17.6991 14.6468C17.6991 14.3552 17.8877 14.1152 18.1964 14.1152C18.488 14.1152 18.6938 14.3381 18.6938 14.6468C18.6938 14.9384 18.488 15.1784 18.1964 15.1784C17.8877 15.1613 17.6991 14.9384 17.6991 14.6468ZM5.6595 14.6468V13.8236H5.29934V14.0294C5.17926 13.8751 5.00778 13.7893 4.78481 13.7893C4.32176 13.7893 3.96161 14.1495 3.96161 14.6468C3.96161 15.1441 4.32176 15.5043 4.78481 15.5043C5.02497 15.5043 5.19645 15.4186 5.29934 15.2642V15.47H5.6595V14.6468ZM4.32176 14.6468C4.32176 14.3552 4.51043 14.1152 4.81911 14.1152C5.11067 14.1152 5.31653 14.3381 5.31653 14.6468C5.31653 14.9384 5.11067 15.1784 4.81911 15.1784C4.51043 15.1613 4.32176 14.9384 4.32176 14.6468Z" fill="#0A0A0A"/>
<path d="M7.28894 1.32031H12.6913V11.0274H7.28894V1.32031Z" fill="#FF5F00"/>
<path d="M7.63195 6.17414C7.63195 4.20187 8.55805 2.4525 9.98148 1.32055C8.93539 0.497344 7.61484 0 6.17422 0C2.76117 0 0 2.76117 0 6.17414C0 9.58711 2.76117 12.3483 6.17414 12.3483C7.61477 12.3483 8.93531 11.8509 9.98148 11.0277C8.55805 9.91289 7.63195 8.14641 7.63195 6.17414Z" fill="#EB001B"/>
<path d="M19.9801 6.17414C19.9801 9.58703 17.219 12.3483 13.806 12.3483C12.3654 12.3483 11.0448 11.8509 9.99866 11.0277C11.4393 9.89578 12.3483 8.14641 12.3483 6.17414C12.3483 4.20187 11.4221 2.4525 9.99866 1.32055C11.0448 0.497344 12.3654 0 13.806 0C17.219 0 19.9801 2.77836 19.9801 6.17414Z" fill="#F79E1B"/>
</g>
<defs>
<clipPath id="clip0_2151_3994">
<rect width="20" height="15.5469" fill="white"/>
</clipPath>
</defs>
</svg>
