<svg width="30" height="30" viewBox="0 0 30 30" fill="none" xmlns="http://www.w3.org/2000/svg">
<rect x="0.1875" y="0.1875" width="29.625" height="29.625" rx="14.8125" fill="#105CE2" fill-opacity="0.1"/>
<rect x="0.1875" y="0.1875" width="29.625" height="29.625" rx="14.8125" stroke="#EBEBEB" stroke-width="0.375"/>
<path fill-rule="evenodd" clip-rule="evenodd" d="M11.0003 8.33398C10.6467 8.33398 10.3076 8.47446 10.0575 8.72451C9.80747 8.97456 9.66699 9.3137 9.66699 9.66732V20.334C9.66699 20.6876 9.80747 21.0267 10.0575 21.2768C10.3076 21.5268 10.6467 21.6673 11.0003 21.6673H19.0003C19.3539 21.6673 19.6931 21.5268 19.9431 21.2768C20.1932 21.0267 20.3337 20.6876 20.3337 20.334V11.2767C20.3336 10.9231 20.1931 10.584 19.943 10.334L18.3337 8.72465C18.0837 8.47459 17.7446 8.33406 17.391 8.33398H11.0003ZM11.0003 9.66732H17.391L19.0003 11.2767V20.334H11.0003V9.66732ZM17.8257 14.196C17.8893 14.1345 17.9401 14.0609 17.9751 13.9796C18.01 13.8983 18.0284 13.8108 18.0292 13.7223C18.0299 13.6337 18.0131 13.5459 17.9795 13.464C17.946 13.3821 17.8965 13.3076 17.8339 13.2451C17.7713 13.1825 17.6969 13.133 17.615 13.0994C17.533 13.0659 17.4452 13.049 17.3567 13.0498C17.2682 13.0506 17.1807 13.069 17.0994 13.1039C17.0181 13.1389 16.9445 13.1896 16.883 13.2533L14.055 16.082L13.1117 15.1387C12.9859 15.0172 12.8175 14.95 12.6427 14.9515C12.4679 14.9531 12.3007 15.0232 12.1771 15.1468C12.0535 15.2704 11.9834 15.4376 11.9819 15.6124C11.9804 15.7872 12.0476 15.9556 12.169 16.0813L13.5357 17.4487C13.6038 17.5168 13.6846 17.5708 13.7736 17.6077C13.8626 17.6446 13.958 17.6636 14.0543 17.6636C14.1507 17.6636 14.246 17.6446 14.335 17.6077C14.424 17.5708 14.5049 17.5168 14.573 17.4487L17.8257 14.196Z" fill="#105CE2"/>
</svg>
