<svg width="50" height="50" viewBox="0 0 50 50" fill="none" xmlns="http://www.w3.org/2000/svg">
<rect width="50" height="50" rx="25" fill="#2A94F4" fill-opacity="0.05"/>
<path fill-rule="evenodd" clip-rule="evenodd" d="M17.5 12.5C16.837 12.5 16.2011 12.7634 15.7322 13.2322C15.2634 13.7011 15 14.337 15 15V35C15 35.663 15.2634 36.2989 15.7322 36.7678C16.2011 37.2366 16.837 37.5 17.5 37.5H32.5C33.163 37.5 33.7989 37.2366 34.2678 36.7678C34.7366 36.2989 35 35.663 35 35V18.0175C34.9999 17.3545 34.7364 16.7187 34.2675 16.25L31.25 13.2325C30.7813 12.7636 30.1455 12.5001 29.4825 12.5H17.5ZM17.5 15H29.4825L32.5 18.0175V35H17.5V15ZM30.2975 23.4913C30.4169 23.3759 30.5121 23.238 30.5776 23.0855C30.6431 22.933 30.6776 22.769 30.6791 22.603C30.6805 22.437 30.6489 22.2724 30.586 22.1188C30.5232 21.9652 30.4304 21.8256 30.313 21.7083C30.1956 21.5909 30.0561 21.4981 29.9024 21.4352C29.7488 21.3724 29.5842 21.3407 29.4182 21.3422C29.2523 21.3436 29.0883 21.3781 28.9357 21.4436C28.7832 21.5091 28.6453 21.6044 28.53 21.7237L23.2275 27.0275L21.4587 25.2587C21.223 25.0311 20.9072 24.9051 20.5795 24.9079C20.2518 24.9108 19.9382 25.0422 19.7065 25.274C19.4747 25.5057 19.3433 25.8193 19.3404 26.147C19.3376 26.4747 19.4636 26.7905 19.6912 27.0263L22.2538 29.59C22.3814 29.7177 22.533 29.8191 22.6999 29.8882C22.8668 29.9574 23.0456 29.993 23.2263 29.993C23.4069 29.993 23.5857 29.9574 23.7526 29.8882C23.9195 29.8191 24.0711 29.7177 24.1988 29.59L30.2975 23.4913Z" fill="#105CE2"/>
</svg>
