<svg width="20" height="20" viewBox="0 0 20 20" fill="none" xmlns="http://www.w3.org/2000/svg">
<rect width="20" height="20" rx="10" fill="url(#paint0_linear_2134_2962)"/>
<path d="M13.2812 10.7813H6.48534C6.44237 10.7813 6.40721 10.8164 6.40721 10.8594V11.4453C6.40721 11.4883 6.44237 11.5234 6.48534 11.5234H12.3955L10.9863 13.3105C10.9463 13.3613 10.9824 13.4375 11.0478 13.4375H11.7558C11.8037 13.4375 11.8486 13.416 11.8789 13.3779L13.5273 11.2871C13.6885 11.082 13.543 10.7813 13.2812 10.7813ZM13.5166 8.47656H7.60643L9.01561 6.68945C9.05565 6.63867 9.01952 6.5625 8.95409 6.5625H8.24608C8.19823 6.5625 8.15331 6.58398 8.12303 6.62207L6.47459 8.71289C6.31346 8.91797 6.45897 9.21875 6.71971 9.21875H13.5166C13.5596 9.21875 13.5947 9.18359 13.5947 9.14063V8.55469C13.5947 8.51172 13.5596 8.47656 13.5166 8.47656Z" fill="white"/>
<defs>
<linearGradient id="paint0_linear_2134_2962" x1="2" y1="21.6667" x2="20" y2="14" gradientUnits="userSpaceOnUse">
<stop stop-color="#105CE2"/>
<stop offset="1" stop-color="#2A94F4"/>
</linearGradient>
</defs>
</svg>
