<svg width="72" height="70" viewBox="0 0 72 70" fill="none" xmlns="http://www.w3.org/2000/svg">
<g filter="url(#filter0_d_561_10961)">
<rect x="3" y="2" width="66" height="65" rx="32.5" fill="white" shape-rendering="crispEdges"/>
<path d="M34.8125 28.3125V32.4375C34.8125 32.6696 34.7203 32.8921 34.5562 33.0562C34.3921 33.2203 34.1696 33.3125 33.9375 33.3125H29.8125C29.5804 33.3125 29.3579 33.2203 29.1938 33.0562C29.0297 32.8921 28.9375 32.6696 28.9375 32.4375V28.3125C28.9375 28.0804 29.0297 27.8579 29.1938 27.6938C29.3579 27.5297 29.5804 27.4375 29.8125 27.4375H33.9375C34.1696 27.4375 34.3921 27.5297 34.5562 27.6938C34.7203 27.8579 34.8125 28.0804 34.8125 28.3125ZM38.0625 27.4375H42.1875C42.4196 27.4375 42.6421 27.5297 42.8062 27.6938C42.9703 27.8579 43.0625 28.0804 43.0625 28.3125V32.4375C43.0625 32.6696 42.9703 32.8921 42.8062 33.0562C42.6421 33.2203 42.4196 33.3125 42.1875 33.3125H38.0625C37.8304 33.3125 37.6079 33.2203 37.4438 33.0562C37.2797 32.8921 37.1875 32.6696 37.1875 32.4375V28.3125C37.1875 28.0804 37.2797 27.8579 37.4438 27.6938C37.6079 27.5297 37.8304 27.4375 38.0625 27.4375ZM29.8125 35.6875H33.9375C34.1696 35.6875 34.3921 35.7797 34.5562 35.9438C34.7203 36.1079 34.8125 36.3304 34.8125 36.5625V40.6875C34.8125 40.9196 34.7203 41.1421 34.5562 41.3062C34.3921 41.4703 34.1696 41.5625 33.9375 41.5625H29.8125C29.5804 41.5625 29.3579 41.4703 29.1938 41.3062C29.0297 41.1421 28.9375 40.9196 28.9375 40.6875V36.5625C28.9375 36.3304 29.0297 36.1079 29.1938 35.9438C29.3579 35.7797 29.5804 35.6875 29.8125 35.6875ZM38.0625 35.6875H42.1875C42.4196 35.6875 42.6421 35.7797 42.8062 35.9438C42.9703 36.1079 43.0625 36.3304 43.0625 36.5625V40.6875C43.0625 40.9196 42.9703 41.1421 42.8062 41.3062C42.6421 41.4703 42.4196 41.5625 42.1875 41.5625H38.0625C37.8304 41.5625 37.6079 41.4703 37.4438 41.3062C37.2797 41.1421 37.1875 40.9196 37.1875 40.6875V36.5625C37.1875 36.3304 37.2797 36.1079 37.4438 35.9438C37.6079 35.7797 37.8304 35.6875 38.0625 35.6875Z" stroke="#105CE2"/>
</g>
<defs>
<filter id="filter0_d_561_10961" x="0.678571" y="0.258929" width="70.6429" height="69.6429" filterUnits="userSpaceOnUse" color-interpolation-filters="sRGB">
<feFlood flood-opacity="0" result="BackgroundImageFix"/>
<feColorMatrix in="SourceAlpha" type="matrix" values="0 0 0 0 0 0 0 0 0 0 0 0 0 0 0 0 0 0 127 0" result="hardAlpha"/>
<feMorphology radius="1.16071" operator="dilate" in="SourceAlpha" result="effect1_dropShadow_561_10961"/>
<feOffset dy="0.580357"/>
<feGaussianBlur stdDeviation="0.580357"/>
<feComposite in2="hardAlpha" operator="out"/>
<feColorMatrix type="matrix" values="0 0 0 0 0.0392157 0 0 0 0 0.0392157 0 0 0 0 0.0392157 0 0 0 0.16 0"/>
<feBlend mode="normal" in2="BackgroundImageFix" result="effect1_dropShadow_561_10961"/>
<feBlend mode="normal" in="SourceGraphic" in2="effect1_dropShadow_561_10961" result="shape"/>
</filter>
</defs>
</svg>
