<svg width="48" height="48" viewBox="0 0 48 48" fill="none" xmlns="http://www.w3.org/2000/svg">
<g filter="url(#filter0_d_672_412)">
<circle cx="24" cy="21" r="20" fill="white" fill-opacity="0.2"/>
<circle cx="24" cy="21" r="19.5" stroke="white" stroke-opacity="0.5"/>
<path d="M31.587 22.1433C31.3896 21.7725 31.163 21.3891 30.9165 20.9933C30.6492 20.5666 30.5104 20.0575 30.5141 19.5208C30.5198 18.5533 30.449 17.5716 30.3026 16.6033C29.9069 13.9733 27.1 11.8333 24.0475 11.8333H23.9503C20.8978 11.8333 18.0909 13.9725 17.6952 16.6033C17.5488 17.5725 17.478 18.5533 17.4836 19.5208C17.4865 20.0583 17.3476 20.5675 17.0813 20.9933C16.8358 21.3875 16.611 21.77 16.4126 22.1391C15.9782 22.9508 15.9423 23.8575 16.3135 24.6925C16.6846 25.5283 17.409 26.1741 18.3535 26.51C19.1147 26.7808 19.9033 26.9925 20.9913 27.1233C20.9734 27.2425 20.9639 27.3633 20.9639 27.4841C20.9639 28.9633 22.3258 30.1675 23.9994 30.1675C25.6729 30.1675 27.0348 28.9641 27.0348 27.4841C27.0348 27.3633 27.0254 27.2433 27.0074 27.1258C28.1068 26.995 28.8963 26.7833 29.6538 26.5116C30.5954 26.1741 31.3169 25.5291 31.6862 24.6941C32.0555 23.86 32.0196 22.955 31.5861 22.1441L31.587 22.1433ZM26.0913 27.4833C26.0913 28.5033 25.1535 29.3333 24.0003 29.3333C22.8471 29.3333 21.9093 28.5033 21.9093 27.4833C21.9093 27.3908 21.9178 27.3 21.9329 27.21C22.5298 27.2508 23.2089 27.2716 23.9994 27.2716C24.7899 27.2716 25.4718 27.2508 26.0686 27.2108C26.0838 27.3 26.0913 27.3916 26.0913 27.4833ZM30.8079 24.3908C30.534 25.01 29.9985 25.4883 29.3005 25.7383C28.0945 26.1708 26.7874 26.4383 23.9994 26.4383C21.235 26.4383 19.925 26.17 18.7076 25.7366C18.0059 25.4875 17.4685 25.0083 17.1937 24.3883C16.9189 23.7691 16.9453 23.0966 17.2683 22.495C17.4581 22.1408 17.6735 21.7741 17.9096 21.3958C18.2534 20.845 18.4328 20.1958 18.429 19.5166C18.4234 18.5875 18.4914 17.6441 18.6321 16.7133C18.9626 14.52 21.3984 12.6675 23.9512 12.6675H24.0485C26.6013 12.6675 29.037 14.5208 29.3676 16.7133C29.5083 17.6441 29.5763 18.5875 29.5706 19.5166C29.5669 20.1958 29.7463 20.8458 30.0901 21.3958C30.3262 21.775 30.5434 22.1433 30.7342 22.4991C31.0563 23.1008 31.0818 23.7725 30.8079 24.3908Z" fill="white"/>
</g>
<defs>
<filter id="filter0_d_672_412" x="0" y="0" width="48" height="48" filterUnits="userSpaceOnUse" color-interpolation-filters="sRGB">
<feFlood flood-opacity="0" result="BackgroundImageFix"/>
<feColorMatrix in="SourceAlpha" type="matrix" values="0 0 0 0 0 0 0 0 0 0 0 0 0 0 0 0 0 0 127 0" result="hardAlpha"/>
<feOffset dy="3"/>
<feGaussianBlur stdDeviation="2"/>
<feComposite in2="hardAlpha" operator="out"/>
<feColorMatrix type="matrix" values="0 0 0 0 0.0627451 0 0 0 0 0.360784 0 0 0 0 0.886275 0 0 0 0.6 0"/>
<feBlend mode="normal" in2="BackgroundImageFix" result="effect1_dropShadow_672_412"/>
<feBlend mode="normal" in="SourceGraphic" in2="effect1_dropShadow_672_412" result="shape"/>
</filter>
</defs>
</svg>
