<svg width="38" height="24" viewBox="0 0 38 24" fill="none" xmlns="http://www.w3.org/2000/svg">
<path opacity="0.5" fill-rule="evenodd" clip-rule="evenodd" d="M34 11C34 14.9 30.9 18 27 18H7C3.1 18 0 14.9 0 11C0 7.1 3.1 4 7 4H27C30.9 4 34 7.1 34 11Z" fill="#105CE2"/>
<g filter="url(#filter0_dd_1127_714)">
<path fill-rule="evenodd" clip-rule="evenodd" d="M26 21C31.5228 21 36 16.5228 36 11C36 5.47715 31.5228 1 26 1C20.4772 1 16 5.47715 16 11C16 16.5228 20.4772 21 26 21Z" fill="#105CE2"/>
</g>
<defs>
<filter id="filter0_dd_1127_714" x="14" y="0" width="24" height="24" filterUnits="userSpaceOnUse" color-interpolation-filters="sRGB">
<feFlood flood-opacity="0" result="BackgroundImageFix"/>
<feColorMatrix in="SourceAlpha" type="matrix" values="0 0 0 0 0 0 0 0 0 0 0 0 0 0 0 0 0 0 127 0" result="hardAlpha"/>
<feOffset dy="1"/>
<feGaussianBlur stdDeviation="1"/>
<feColorMatrix type="matrix" values="0 0 0 0 0 0 0 0 0 0 0 0 0 0 0 0 0 0 0.2 0"/>
<feBlend mode="normal" in2="BackgroundImageFix" result="effect1_dropShadow_1127_714"/>
<feColorMatrix in="SourceAlpha" type="matrix" values="0 0 0 0 0 0 0 0 0 0 0 0 0 0 0 0 0 0 127 0" result="hardAlpha"/>
<feOffset dy="0.1"/>
<feGaussianBlur stdDeviation="0.15"/>
<feColorMatrix type="matrix" values="0 0 0 0 0 0 0 0 0 0 0 0 0 0 0 0 0 0 0.1 0"/>
<feBlend mode="normal" in2="effect1_dropShadow_1127_714" result="effect2_dropShadow_1127_714"/>
<feBlend mode="normal" in="SourceGraphic" in2="effect2_dropShadow_1127_714" result="shape"/>
</filter>
</defs>
</svg>
