<svg width="14" height="13" viewBox="0 0 14 13" fill="none" xmlns="http://www.w3.org/2000/svg">
<path d="M12.6875 5.6875H11.7929C11.6237 4.69337 11.1497 3.77638 10.4367 3.06332C9.72362 2.35025 8.80663 1.87634 7.8125 1.70712V0.8125C7.8125 0.597012 7.7269 0.390349 7.57452 0.237976C7.42215 0.0856024 7.21549 0 7 0C6.78451 0 6.57785 0.0856024 6.42548 0.237976C6.2731 0.390349 6.1875 0.597012 6.1875 0.8125V1.70712C5.19337 1.87634 4.27638 2.35025 3.56332 3.06332C2.85025 3.77638 2.37634 4.69337 2.20712 5.6875H1.3125C1.09701 5.6875 0.890349 5.7731 0.737976 5.92548C0.585602 6.07785 0.5 6.28451 0.5 6.5C0.5 6.71549 0.585602 6.92215 0.737976 7.07452C0.890349 7.2269 1.09701 7.3125 1.3125 7.3125H2.20712C2.37634 8.30663 2.85025 9.22362 3.56332 9.93668C4.27638 10.6497 5.19337 11.1237 6.1875 11.2929V12.1875C6.1875 12.403 6.2731 12.6097 6.42548 12.762C6.57785 12.9144 6.78451 13 7 13C7.21549 13 7.42215 12.9144 7.57452 12.762C7.7269 12.6097 7.8125 12.403 7.8125 12.1875V11.2929C8.80663 11.1237 9.72362 10.6497 10.4367 9.93668C11.1497 9.22362 11.6237 8.30663 11.7929 7.3125H12.6875C12.903 7.3125 13.1097 7.2269 13.262 7.07452C13.4144 6.92215 13.5 6.71549 13.5 6.5C13.5 6.28451 13.4144 6.07785 13.262 5.92548C13.1097 5.7731 12.903 5.6875 12.6875 5.6875ZM7 9.75C6.35721 9.75 5.72886 9.55939 5.1944 9.20228C4.65994 8.84516 4.24338 8.33758 3.99739 7.74372C3.75141 7.14986 3.68705 6.4964 3.81245 5.86596C3.93785 5.23552 4.24738 4.65642 4.7019 4.2019C5.15642 3.74738 5.73552 3.43785 6.36596 3.31245C6.9964 3.18705 7.64986 3.25141 8.24372 3.49739C8.83758 3.74338 9.34516 4.15994 9.70228 4.6944C10.0594 5.22886 10.25 5.85721 10.25 6.5C10.2491 7.36169 9.90646 8.18785 9.29715 8.79715C8.68785 9.40646 7.86169 9.74915 7 9.75Z" fill="white"/>
<path d="M7 4.875C6.67861 4.875 6.36443 4.9703 6.0972 5.14886C5.82997 5.32742 5.62169 5.58121 5.4987 5.87814C5.3757 6.17507 5.34352 6.5018 5.40622 6.81702C5.46893 7.13224 5.62369 7.42179 5.85095 7.64905C6.07821 7.87631 6.36776 8.03108 6.68298 8.09378C6.9982 8.15648 7.32493 8.1243 7.62186 8.0013C7.91879 7.87831 8.17258 7.67003 8.35114 7.4028C8.5297 7.13557 8.625 6.82139 8.625 6.5C8.62444 6.0692 8.45305 5.6562 8.14843 5.35157C7.8438 5.04695 7.4308 4.87556 7 4.875Z" fill="white"/>
</svg>
