<svg width="18" height="19" viewBox="0 0 18 19" fill="none" xmlns="http://www.w3.org/2000/svg">
<g clip-path="url(#clip0_790_12497)">
<path d="M1.5 17.2324H6V18.7324H0V2.98242C0 1.74192 1.0095 0.732422 2.25 0.732422H9V2.23242H2.25C1.836 2.23242 1.5 2.56842 1.5 2.98242V17.2324ZM9 3.73242H3V6.73242H9V3.73242ZM4.5 8.23242H3V9.73242H4.5V8.23242ZM4.5 11.2324H3V12.7324H4.5V11.2324ZM7.5 9.73242V8.23242H6V9.73242H7.5ZM7.5 11.2324H6V12.7324H7.5V11.2324ZM3 15.7324H4.5V14.2324H3V15.7324ZM14.4263 10.4802C14.0258 10.0324 13.4745 9.76842 12.876 9.73542C12.2775 9.70317 11.7008 9.90567 11.2208 10.3377L8.5845 13.0017C7.88475 13.7082 7.5 14.6449 7.5 15.6394V18.7332H9V15.6394C9 15.0432 9.23175 14.4814 9.651 14.0569L12.255 11.4237C12.4028 11.2902 12.597 11.2227 12.7943 11.2339C12.9937 11.2452 13.176 11.3329 13.3102 11.4822C13.5562 11.7567 13.5638 12.1774 13.3597 12.4227L11.3977 14.4634L12.4785 15.5037L14.4742 13.4254C15.189 12.5742 15.1687 11.3089 14.427 10.4817L14.4263 10.4802ZM16.5 0.732422H12C11.1713 0.732422 10.5 1.40367 10.5 2.23242V9.01242C10.9575 8.66892 11.469 8.43417 12.0112 8.32242V2.23242H16.5112V9.73242H15.7313C16.0725 10.1862 16.3095 10.6954 16.4167 11.2324H16.4993C17.328 11.2324 17.9993 10.5612 17.9993 9.73242V2.23242C17.9993 1.40367 17.3288 0.732422 16.5 0.732422ZM16.5 15.1557C16.5 15.3417 16.431 15.5202 16.3065 15.6589L13.6095 18.7324H15.6225L17.4195 16.6632C17.7938 16.2469 17.9985 15.7122 17.9985 15.1557V12.3147C17.5553 12.5727 17.0475 12.7317 16.4985 12.7317V15.1549L16.5 15.1557Z" fill="#105CE2"/>
</g>
<defs>
<clipPath id="clip0_790_12497">
<rect width="18" height="18" fill="white" transform="translate(0 0.732422)"/>
</clipPath>
</defs>
</svg>
