<svg width="18" height="18" viewBox="0 0 18 18" fill="none" xmlns="http://www.w3.org/2000/svg">
<g clip-path="url(#clip0_790_12503)">
<path d="M14.25 3.10331H11.25V2.39743C11.25 1.2299 10.2405 0.279785 9 0.279785C7.7595 0.279785 6.75 1.2299 6.75 2.39743V3.10331H3.75C1.68225 3.10331 0 4.68661 0 6.63273V13.6916C0 15.6377 1.68225 17.221 3.75 17.221H14.25C16.3177 17.221 18 15.6377 18 13.6916V6.63273C18 4.68661 16.3177 3.10331 14.25 3.10331ZM8.25 2.39743C8.25 2.00779 8.58675 1.69155 9 1.69155C9.41325 1.69155 9.75 2.00779 9.75 2.39743V3.80567C9.75 3.80567 9.75 3.80779 9.75 3.8092C9.75 3.81061 9.75 3.81131 9.75 3.81273V4.51508H8.24925V2.39743H8.25ZM16.5 13.6916C16.5 14.8591 15.4905 15.8092 14.25 15.8092H3.75C2.5095 15.8092 1.5 14.8591 1.5 13.6916V6.63273C1.5 5.4652 2.5095 4.51508 3.75 4.51508H6.75C6.75 5.29367 7.42275 5.92684 8.25 5.92684H9.75C10.5773 5.92684 11.25 5.29367 11.25 4.51508H14.25C15.4905 4.51508 16.5 5.4652 16.5 6.63273V13.6916ZM7.125 9.10331C7.125 8.12849 7.96425 7.33861 9 7.33861C10.0358 7.33861 10.875 8.12849 10.875 9.10331C10.875 10.0781 10.0358 10.868 9 10.868C7.96425 10.868 7.125 10.0781 7.125 9.10331ZM12.726 14.2217C12.8295 14.5986 12.588 14.984 12.1868 15.0814C11.7833 15.1796 11.3767 14.9508 11.2733 14.5732C11.025 13.6683 10.0477 12.9857 8.99925 12.9857C7.95075 12.9857 6.97275 13.6683 6.72525 14.5732C6.63825 14.8916 6.33375 15.1033 5.99925 15.1033C5.93775 15.1033 5.87475 15.0963 5.81175 15.0814C5.4105 14.984 5.169 14.5993 5.2725 14.2217C5.69175 12.6871 7.2585 11.5739 8.9985 11.5739C10.7385 11.5739 12.3053 12.6871 12.7245 14.2217H12.726Z" fill="#105CE2"/>
</g>
<defs>
<clipPath id="clip0_790_12503">
<rect width="18" height="16.9412" fill="white" transform="translate(0 0.279785)"/>
</clipPath>
</defs>
</svg>
