<svg width="72" height="70" viewBox="0 0 72 70" fill="none" xmlns="http://www.w3.org/2000/svg">
<g filter="url(#filter0_d_2151_4032)">
<rect x="3" y="2" width="66" height="65" rx="32.5" fill="white" shape-rendering="crispEdges"/>
<g clip-path="url(#clip0_2151_4032)">
<path d="M33.75 25.5H27V32.25H33.75V25.5ZM32.625 31.125H28.125V26.625H32.625V31.125Z" fill="#105CE2"/>
<path d="M29.25 27.7499H31.5V29.9999H29.25V27.7499ZM27 43.4999H33.75V36.7499H27V43.4999ZM28.125 37.8749H32.625V42.3749H28.125V37.8749Z" fill="#105CE2"/>
<path d="M29.25 38.9999H31.5V41.2499H29.25V38.9999ZM38.25 25.4999V32.2499H45V25.4999H38.25ZM43.875 31.1249H39.375V26.6249H43.875V31.1249Z" fill="#105CE2"/>
<path d="M40.5 27.75H42.75V30H40.5V27.75ZM29.25 33.375H27V35.625H30.375V34.5H29.25V33.375ZM34.875 35.625H37.125V37.875H34.875V35.625ZM30.375 33.375H32.625V34.5H30.375V33.375ZM37.125 39H34.875V40.125H36V41.25H37.125V40.125V39ZM33.75 33.375V34.5H32.625V35.625H34.875V33.375H33.75ZM36 30H37.125V32.25H36V30ZM37.125 34.5V35.625H39.375V33.375H36V34.5H37.125ZM34.875 32.25H36V33.375H34.875V32.25ZM37.125 41.25H39.375V43.5H37.125V41.25ZM34.875 41.25H36V43.5H34.875V41.25ZM37.125 37.875H38.25V39H37.125V37.875ZM37.125 28.875V26.625H36V25.5H34.875V30H36V28.875H37.125ZM40.5 41.25H41.625V43.5H40.5V41.25ZM40.5 39H42.75V40.125H40.5V39ZM39.375 40.125H40.5V41.25H39.375V40.125ZM38.25 39H39.375V40.125H38.25V39ZM42.75 36.75V37.875H43.875V39H45V36.75H43.875H42.75ZM43.875 40.125H42.75V43.5H45V41.25H43.875V40.125ZM38.25 36.75V37.875H41.625V35.625H39.375V36.75H38.25ZM40.5 33.375V34.5H42.75V35.625H45V33.375H42.75H40.5Z" fill="#105CE2"/>
</g>
</g>
<defs>
<filter id="filter0_d_2151_4032" x="0.678571" y="0.258929" width="70.6429" height="69.6429" filterUnits="userSpaceOnUse" color-interpolation-filters="sRGB">
<feFlood flood-opacity="0" result="BackgroundImageFix"/>
<feColorMatrix in="SourceAlpha" type="matrix" values="0 0 0 0 0 0 0 0 0 0 0 0 0 0 0 0 0 0 127 0" result="hardAlpha"/>
<feMorphology radius="1.16071" operator="dilate" in="SourceAlpha" result="effect1_dropShadow_2151_4032"/>
<feOffset dy="0.580357"/>
<feGaussianBlur stdDeviation="0.580357"/>
<feComposite in2="hardAlpha" operator="out"/>
<feColorMatrix type="matrix" values="0 0 0 0 0.0392157 0 0 0 0 0.0392157 0 0 0 0 0.0392157 0 0 0 0.16 0"/>
<feBlend mode="normal" in2="BackgroundImageFix" result="effect1_dropShadow_2151_4032"/>
<feBlend mode="normal" in="SourceGraphic" in2="effect1_dropShadow_2151_4032" result="shape"/>
</filter>
<clipPath id="clip0_2151_4032">
<rect width="18" height="18" fill="white" transform="translate(27 25.5)"/>
</clipPath>
</defs>
</svg>
