<svg width="40" height="40" viewBox="0 0 40 40" fill="none" xmlns="http://www.w3.org/2000/svg">
<rect x="0.5" y="0.5" width="39" height="39" rx="4.5" stroke="#EBEBEB"/>
<path d="M27.3438 13.125V16.25C27.3438 16.3743 27.2944 16.4935 27.2065 16.5815C27.1185 16.6694 26.9993 16.7188 26.875 16.7188C26.7507 16.7188 26.6315 16.6694 26.5435 16.5815C26.4556 16.4935 26.4062 16.3743 26.4062 16.25V13.5938H23.75C23.6257 13.5938 23.5065 13.5444 23.4185 13.4565C23.3306 13.3685 23.2812 13.2493 23.2812 13.125C23.2812 13.0007 23.3306 12.8815 23.4185 12.7935C23.5065 12.7056 23.6257 12.6562 23.75 12.6562H26.875C26.9993 12.6562 27.1185 12.7056 27.2065 12.7935C27.2944 12.8815 27.3438 13.0007 27.3438 13.125ZM16.25 26.4062H13.5938V23.75C13.5938 23.6257 13.5444 23.5065 13.4565 23.4185C13.3685 23.3306 13.2493 23.2812 13.125 23.2812C13.0007 23.2812 12.8815 23.3306 12.7935 23.4185C12.7056 23.5065 12.6562 23.6257 12.6562 23.75V26.875C12.6562 26.9993 12.7056 27.1185 12.7935 27.2065C12.8815 27.2944 13.0007 27.3438 13.125 27.3438H16.25C16.3743 27.3438 16.4935 27.2944 16.5815 27.2065C16.6694 27.1185 16.7188 26.9993 16.7188 26.875C16.7188 26.7507 16.6694 26.6315 16.5815 26.5435C16.4935 26.4556 16.3743 26.4062 16.25 26.4062ZM26.875 23.2812C26.7507 23.2812 26.6315 23.3306 26.5435 23.4185C26.4556 23.5065 26.4062 23.6257 26.4062 23.75V26.4062H23.75C23.6257 26.4062 23.5065 26.4556 23.4185 26.5435C23.3306 26.6315 23.2812 26.7507 23.2812 26.875C23.2812 26.9993 23.3306 27.1185 23.4185 27.2065C23.5065 27.2944 23.6257 27.3438 23.75 27.3438H26.875C26.9993 27.3438 27.1185 27.2944 27.2065 27.2065C27.2944 27.1185 27.3438 26.9993 27.3438 26.875V23.75C27.3438 23.6257 27.2944 23.5065 27.2065 23.4185C27.1185 23.3306 26.9993 23.2812 26.875 23.2812ZM13.125 16.7188C13.2493 16.7188 13.3685 16.6694 13.4565 16.5815C13.5444 16.4935 13.5938 16.3743 13.5938 16.25V13.5938H16.25C16.3743 13.5938 16.4935 13.5444 16.5815 13.4565C16.6694 13.3685 16.7188 13.2493 16.7188 13.125C16.7188 13.0007 16.6694 12.8815 16.5815 12.7935C16.4935 12.7056 16.3743 12.6562 16.25 12.6562H13.125C13.0007 12.6562 12.8815 12.7056 12.7935 12.7935C12.7056 12.8815 12.6562 13.0007 12.6562 13.125V16.25C12.6562 16.3743 12.7056 16.4935 12.7935 16.5815C12.8815 16.6694 13.0007 16.7188 13.125 16.7188ZM16.25 15.7812H23.75C23.8743 15.7812 23.9935 15.8306 24.0815 15.9185C24.1694 16.0065 24.2188 16.1257 24.2188 16.25V23.75C24.2188 23.8743 24.1694 23.9935 24.0815 24.0815C23.9935 24.1694 23.8743 24.2188 23.75 24.2188H16.25C16.1257 24.2188 16.0065 24.1694 15.9185 24.0815C15.8306 23.9935 15.7812 23.8743 15.7812 23.75V16.25C15.7812 16.1257 15.8306 16.0065 15.9185 15.9185C16.0065 15.8306 16.1257 15.7812 16.25 15.7812ZM16.7188 23.2812H23.2812V16.7188H16.7188V23.2812Z" fill="#606162"/>
</svg>
