<svg width="150" height="154" viewBox="0 0 150 154" fill="none" xmlns="http://www.w3.org/2000/svg">
<g clip-path="url(#clip0_4242_4727)">
<path d="M58.6113 12.1388H10.2432V60.507H58.6113V12.1388ZM50.55 52.4456H18.3045V20.2002H50.55V52.4456Z" fill="black"/>
<path d="M26.3659 28.2617H42.4886V44.3844H26.3659V28.2617ZM10.2432 141.121H58.6113V92.7526H10.2432V141.121ZM18.3045 100.814H50.55V133.059H18.3045V100.814Z" fill="black"/>
<path d="M26.3652 108.875H42.488V124.998H26.3652V108.875ZM90.8561 12.1391V60.5073H139.224V12.1391H90.8561ZM131.163 52.4459H98.9175V20.2005H131.163V52.4459Z" fill="black"/>
<path d="M106.979 28.2615H123.102V44.3843H106.979V28.2615ZM26.3659 68.5683H10.2432V84.6911H34.4272V76.6297H26.3659V68.5683ZM66.6727 84.6911H82.7954V100.814H66.6727V84.6911ZM34.4272 68.5683H50.55V76.6297H34.4272V68.5683ZM82.7954 108.875H66.6727V116.937H74.734V124.998H82.7954V116.937V108.875ZM58.6113 68.5683V76.6297H50.55V84.6911H66.6727V68.5683H58.6113ZM74.734 44.3843H82.7954V60.507H74.734V44.3843ZM82.7954 76.6297V84.6911H98.9181V68.5683H74.734V76.6297H82.7954ZM66.6727 60.507H74.734V68.5683H66.6727V60.507ZM82.7954 124.998H98.9181V141.121H82.7954V124.998ZM66.6727 124.998H74.734V141.121H66.6727V124.998ZM82.7954 100.814H90.8568V108.875H82.7954V100.814ZM82.7954 36.3229V20.2002H74.734V12.1388H66.6727V44.3843H74.734V36.3229H82.7954ZM106.979 124.998H115.041V141.121H106.979V124.998ZM106.979 108.875H123.102V116.937H106.979V108.875ZM98.9181 116.937H106.979V124.998H98.9181V116.937ZM90.8568 108.875H98.9181V116.937H90.8568V108.875ZM123.102 92.7524V100.814H131.164V108.875H139.225V92.7524H131.164H123.102ZM131.164 116.937H123.102V141.121H139.225V124.998H131.164V116.937ZM90.8568 92.7524V100.814H115.041V84.6911H98.9181V92.7524H90.8568ZM106.979 68.5683V76.6297H123.102V84.6911H139.225V68.5683H123.102H106.979Z" fill="black"/>
</g>
<path fill-rule="evenodd" clip-rule="evenodd" d="M149.132 24.2974V11.3811C149.132 5.09573 144.037 0.000396729 137.752 0.000396729H128.98L129.924 1.13847H137.752C143.409 1.13847 147.994 5.72427 147.994 11.3811V22.9252L149.132 24.2974Z" fill="#105CE2"/>
<path fill-rule="evenodd" clip-rule="evenodd" d="M149.132 128.981V141.898C149.132 148.183 144.037 153.278 137.752 153.278H128.98L129.924 152.14H137.752C143.409 152.14 147.994 147.555 147.994 141.898V130.354L149.132 128.981Z" fill="#105CE2"/>
<path fill-rule="evenodd" clip-rule="evenodd" d="M0.000261307 129.076V142.009C0.000261307 148.294 5.0956 153.39 11.381 153.39H20.2686L19.3198 152.252H11.381C5.72414 152.252 1.13834 147.666 1.13834 142.009V130.441L0.000261307 129.076Z" fill="#105CE2"/>
<path fill-rule="evenodd" clip-rule="evenodd" d="M0.000383377 24.2974V11.3811C0.000383377 5.09573 5.09571 0.000396729 11.3811 0.000396729H20.1523L19.2084 1.13847H11.3811C5.72425 1.13847 1.13846 5.72427 1.13846 11.3811V22.9252L0.000383377 24.2974Z" fill="#105CE2"/>
<defs>
<clipPath id="clip0_4242_4727">
<rect width="128.982" height="128.982" fill="white" transform="translate(10.2432 12.1393)"/>
</clipPath>
</defs>
</svg>
