<svg width="20" height="20" viewBox="0 0 20 20" fill="none" xmlns="http://www.w3.org/2000/svg">
<path fill-rule="evenodd" clip-rule="evenodd" d="M10.0003 11.25C10.8844 11.25 11.7322 10.8989 12.3573 10.2737C12.9825 9.64861 13.3337 8.80076 13.3337 7.91671C13.3337 7.03265 12.9825 6.18481 12.3573 5.55968C11.7322 4.93456 10.8844 4.58337 10.0003 4.58337C9.11627 4.58337 8.26842 4.93456 7.6433 5.55968C7.01818 6.18481 6.66699 7.03265 6.66699 7.91671C6.66699 8.80076 7.01818 9.64861 7.6433 10.2737C8.26842 10.8989 9.11627 11.25 10.0003 11.25ZM10.0003 10.4167C10.3286 10.4167 10.6537 10.352 10.957 10.2264C11.2603 10.1008 11.5359 9.91662 11.7681 9.68447C12.0002 9.45233 12.1844 9.17673 12.31 8.87342C12.4357 8.5701 12.5003 8.24501 12.5003 7.91671C12.5003 7.5884 12.4357 7.26331 12.31 6.96C12.1844 6.65668 12.0002 6.38109 11.7681 6.14894C11.5359 5.91679 11.2603 5.73265 10.957 5.60701C10.6537 5.48137 10.3286 5.41671 10.0003 5.41671C9.33728 5.41671 8.7014 5.6801 8.23256 6.14894C7.76372 6.61778 7.50033 7.25367 7.50033 7.91671C7.50033 8.57975 7.76372 9.21563 8.23256 9.68447C8.7014 10.1533 9.33728 10.4167 10.0003 10.4167Z" fill="#105CE2"/>
<path fill-rule="evenodd" clip-rule="evenodd" d="M18.3337 10C18.3337 14.6025 14.6028 18.3334 10.0003 18.3334C5.39783 18.3334 1.66699 14.6025 1.66699 10C1.66699 5.39752 5.39783 1.66669 10.0003 1.66669C14.6028 1.66669 18.3337 5.39752 18.3337 10ZM14.0128 16.3375C12.8134 17.0993 11.4213 17.5027 10.0003 17.5C8.54547 17.5027 7.1216 17.0797 5.90408 16.2834C5.80408 16.1584 5.70269 16.0292 5.59991 15.8959C5.4807 15.7397 5.4164 15.5486 5.41699 15.3521C5.41699 14.9034 5.73949 14.5271 6.17074 14.4642C9.02283 14.0475 10.9866 14.0834 13.8424 14.4788C14.0491 14.509 14.238 14.6129 14.3742 14.7713C14.5104 14.9297 14.5848 15.1319 14.5837 15.3409C14.5837 15.5409 14.5149 15.735 14.3907 15.8867C14.2627 16.0425 14.1367 16.1928 14.0128 16.3375ZM15.4107 15.1942C15.3441 14.4142 14.752 13.7634 13.9566 13.6534C11.0332 13.2488 8.98991 13.21 6.05033 13.6396C5.25033 13.7563 4.66074 14.4129 4.59074 15.195C3.24713 13.7996 2.49768 11.9371 2.50033 10C2.50033 5.85794 5.85824 2.50002 10.0003 2.50002C14.1424 2.50002 17.5003 5.85794 17.5003 10C17.503 11.9367 16.7539 13.7989 15.4107 15.1942Z" fill="#105CE2"/>
</svg>
