<svg width="82" height="28" viewBox="0 0 82 28" fill="none" xmlns="http://www.w3.org/2000/svg">
<g clip-path="url(#clip0_2151_21345)">
<circle cx="14" cy="14" r="13.3438" fill="#105CE2" stroke="#105CE2" stroke-width="1.3125"/>
<path d="M11.6626 17.6649C11.1242 17.6649 10.6464 17.5511 10.2293 17.3236C9.81984 17.0961 9.4748 16.7814 9.19421 16.3795C8.91363 15.9776 8.7013 15.5188 8.55721 15.0031C8.41313 14.4799 8.34109 13.9263 8.34109 13.3424C8.34109 12.7585 8.41313 12.2087 8.55721 11.693C8.7013 11.1697 8.91363 10.7072 9.19421 10.3052C9.4748 9.90333 9.81984 9.58862 10.2293 9.36112C10.6464 9.13362 11.1242 9.01987 11.6626 9.01987C12.201 9.01987 12.675 9.13362 13.0845 9.36112C13.5015 9.58862 13.8504 9.90333 14.131 10.3052C14.4115 10.7072 14.6239 11.1697 14.768 11.693C14.912 12.2087 14.9841 12.7585 14.9841 13.3424C14.9841 13.9263 14.912 14.4799 14.768 15.0031C14.6239 15.5188 14.4115 15.9776 14.131 16.3795C13.8504 16.7814 13.5015 17.0961 13.0845 17.3236C12.675 17.5511 12.201 17.6649 11.6626 17.6649ZM11.6626 16.4705C12.2238 16.4705 12.6901 16.2089 13.0617 15.6856C13.4333 15.1548 13.6191 14.3737 13.6191 13.3424C13.6191 12.3186 13.4333 11.5451 13.0617 11.0219C12.6901 10.4986 12.2238 10.237 11.6626 10.237C11.1014 10.237 10.635 10.4986 10.2635 11.0219C9.89188 11.5451 9.70609 12.3186 9.70609 13.3424C9.70609 14.3661 9.88809 15.1434 10.2521 15.6742C10.6237 16.2051 11.0938 16.4705 11.6626 16.4705ZM18.9152 9.145V17.5625H17.6071V11.2039L16.0146 11.2152V10.4304L16.2876 10.3507C16.7123 10.2218 17.0535 10.0777 17.3113 9.9185C17.5768 9.75925 17.827 9.53933 18.0621 9.25875L18.1645 9.145H18.9152Z" fill="white"/>
</g>
<rect x="26" y="13" width="28" height="1" fill="#105CE2"/>
<g clip-path="url(#clip1_2151_21345)">
<circle cx="68" cy="14" r="13.3438" fill="white" stroke="#E2E8F0" stroke-width="1.3125"/>
<path d="M63.4004 17.6649C62.862 17.6649 62.3843 17.5511 61.9672 17.3236C61.5577 17.0961 61.2127 16.7814 60.9321 16.3795C60.6515 15.9776 60.4392 15.5188 60.2951 15.0031C60.151 14.4799 60.0789 13.9263 60.0789 13.3424C60.0789 12.7585 60.151 12.2087 60.2951 11.693C60.4392 11.1697 60.6515 10.7072 60.9321 10.3052C61.2127 9.90333 61.5577 9.58862 61.9672 9.36112C62.3843 9.13362 62.862 9.01987 63.4004 9.01987C63.9389 9.01987 64.4128 9.13362 64.8223 9.36112C65.2394 9.58862 65.5882 9.90333 65.8688 10.3052C66.1494 10.7072 66.3617 11.1697 66.5058 11.693C66.6499 12.2087 66.7219 12.7585 66.7219 13.3424C66.7219 13.9263 66.6499 14.4799 66.5058 15.0031C66.3617 15.5188 66.1494 15.9776 65.8688 16.3795C65.5882 16.7814 65.2394 17.0961 64.8223 17.3236C64.4128 17.5511 63.9389 17.6649 63.4004 17.6649ZM63.4004 16.4705C63.9616 16.4705 64.428 16.2089 64.7996 15.6856C65.1712 15.1548 65.3569 14.3737 65.3569 13.3424C65.3569 12.3186 65.1712 11.5451 64.7996 11.0219C64.428 10.4986 63.9616 10.237 63.4004 10.237C62.8393 10.237 62.3729 10.4986 62.0013 11.0219C61.6297 11.5451 61.4439 12.3186 61.4439 13.3424C61.4439 14.3661 61.6259 15.1434 61.9899 15.6742C62.3615 16.2051 62.8317 16.4705 63.4004 16.4705ZM68.1164 17.5625V16.6411L69.8341 15.0827C70.3801 14.5974 70.854 14.1765 71.2559 13.8201C71.6579 13.4561 71.9688 13.1111 72.1887 12.785C72.4162 12.4513 72.5299 12.0873 72.5299 11.693C72.5299 11.3821 72.4541 11.1167 72.3024 10.8967C72.1508 10.6768 71.9574 10.51 71.7223 10.3962C71.4872 10.2749 71.2408 10.2142 70.9829 10.2142C70.672 10.2142 70.4142 10.2673 70.2094 10.3735C70.0123 10.4721 69.853 10.601 69.7317 10.7602C69.6179 10.9119 69.5345 11.0712 69.4814 11.238C69.4284 11.3972 69.3942 11.5413 69.3791 11.6702C69.3639 11.7916 69.3563 11.8674 69.3563 11.8977H68.0823C68.0823 11.8143 68.0975 11.6627 68.1278 11.4427C68.1657 11.2228 68.2378 10.9802 68.3439 10.7147C68.4577 10.4417 68.6207 10.1763 68.8331 9.9185C69.053 9.66067 69.3374 9.44833 69.6862 9.2815C70.0426 9.11467 70.4862 9.03125 71.0171 9.03125C71.5252 9.03125 71.9953 9.13362 72.4276 9.33837C72.8598 9.54312 73.2049 9.84267 73.4627 10.237C73.7281 10.6237 73.8608 11.0939 73.8608 11.6475C73.8608 12.1556 73.7319 12.6182 73.4741 13.0352C73.2238 13.4447 72.8826 13.8505 72.4503 14.2524C72.0257 14.6467 71.5517 15.0714 71.0284 15.5264L70.0843 16.3795H74.0201V17.5625H68.1164Z" fill="#8D9196"/>
</g>
<defs>
<clipPath id="clip0_2151_21345">
<rect width="28" height="28" fill="white"/>
</clipPath>
<clipPath id="clip1_2151_21345">
<rect width="28" height="28" fill="white" transform="translate(54)"/>
</clipPath>
</defs>
</svg>
