<svg width="50" height="50" viewBox="0 0 50 50" fill="none" xmlns="http://www.w3.org/2000/svg">
<rect width="50" height="50" rx="25" fill="#2A94F4" fill-opacity="0.05"/>
<path d="M24.9999 24.2825C24.0378 24.2825 23.2138 23.9395 22.5278 23.2535C21.8418 22.5675 21.4991 21.7438 21.4999 20.7825C21.5007 19.8212 21.8433 18.9967 22.5278 18.3092C23.2122 17.6216 24.0363 17.2798 24.9999 17.2837C25.9636 17.2876 26.7876 17.6298 27.4721 18.3103C28.1565 18.9909 28.4991 19.8153 28.4999 20.7837C28.5007 21.752 28.1581 22.5757 27.4721 23.2547C26.7861 23.9337 25.962 24.2755 24.9999 24.2825ZM16.8333 32.7187V30.7983C16.8333 30.3169 16.9733 29.8666 17.2533 29.4473C17.534 29.0273 17.9113 28.7014 18.3849 28.4697C19.4863 27.9416 20.5884 27.5457 21.6913 27.282C22.7934 27.0176 23.8963 26.8853 24.9999 26.8853C26.1036 26.8853 27.2069 27.0176 28.3098 27.282C29.4126 27.5464 30.514 27.9423 31.6138 28.4697C32.0882 28.7014 32.4654 29.0273 32.7454 29.4473C33.0262 29.8666 33.1666 30.3169 33.1666 30.7983V32.7187H16.8333ZM17.9999 31.552H31.9999V30.7983C31.9999 30.5401 31.9163 30.2971 31.7491 30.0692C31.5826 29.8421 31.352 29.6499 31.0573 29.4928C30.0975 29.0277 29.1074 28.6715 28.0869 28.4242C27.0665 28.1768 26.0375 28.0528 24.9999 28.052C23.9624 28.0512 22.9334 28.1749 21.9129 28.423C20.8925 28.6711 19.9024 29.0273 18.9426 29.4917C18.647 29.6488 18.4164 29.8409 18.2508 30.068C18.0835 30.2959 17.9999 30.5393 17.9999 30.7983V31.552ZM24.9999 23.117C25.6416 23.117 26.1911 22.8883 26.6484 22.431C27.1058 21.9737 27.334 21.4238 27.3333 20.7813C27.3325 20.1389 27.1042 19.5898 26.6484 19.134C26.1926 18.6782 25.6431 18.4496 24.9999 18.448C24.3567 18.4464 23.8076 18.6751 23.3526 19.134C22.8976 19.5929 22.6689 20.142 22.6666 20.7813C22.6643 21.4207 22.8929 21.9702 23.3526 22.4298C23.8123 22.8895 24.3614 23.1178 24.9999 23.1147" fill="#105CE2"/>
</svg>
