<svg width="18" height="16" viewBox="0 0 18 16" fill="none" xmlns="http://www.w3.org/2000/svg">
<path d="M10.6666 13.417C10.6666 13.417 11.5 13.417 12.3333 15.0837C12.3333 15.0837 14.9808 10.917 17.3333 10.0837M3.58329 7.58366H3.57579M8.16663 14.2503H7.74996C4.61746 14.2503 3.05163 14.2503 2.00579 13.4253C1.83959 13.2937 1.68512 13.1478 1.54413 12.9895C0.666626 12.0062 0.666626 10.5312 0.666626 7.58366C0.666626 4.63616 0.666626 3.16199 1.54413 2.17783C1.68468 2.02005 1.83857 1.87505 2.00579 1.74283C3.05163 0.916992 4.61746 0.916992 7.74996 0.916992H10.25C13.3825 0.916992 14.9483 0.916992 15.9933 1.74199C16.1611 1.87533 16.3152 2.0206 16.4558 2.17783C17.2466 3.06449 17.325 4.34866 17.3333 6.75033V7.16699" stroke="#00091E" stroke-linecap="round" stroke-linejoin="round"/>
<path d="M11.0833 7.58333C11.0833 8.13587 10.8638 8.66577 10.4731 9.05647C10.0824 9.44717 9.55249 9.66667 8.99996 9.66667C8.44742 9.66667 7.91752 9.44717 7.52682 9.05647C7.13612 8.66577 6.91663 8.13587 6.91663 7.58333C6.91663 7.0308 7.13612 6.50089 7.52682 6.11019C7.91752 5.71949 8.44742 5.5 8.99996 5.5C9.55249 5.5 10.0824 5.71949 10.4731 6.11019C10.8638 6.50089 11.0833 7.0308 11.0833 7.58333Z" stroke="#00091E" stroke-linecap="round" stroke-linejoin="round"/>
</svg>
