<svg width="21" height="27" viewBox="0 0 21 27" fill="none" xmlns="http://www.w3.org/2000/svg">
<path d="M3.8335 15.9271C3.8335 15.043 4.18469 14.1952 4.80981 13.5701C5.43493 12.9449 6.28277 12.5938 7.16683 12.5938H13.8335C14.7176 12.5938 15.5654 12.9449 16.1905 13.5701C16.8156 14.1952 17.1668 15.043 17.1668 15.9271C17.1668 16.3691 16.9912 16.793 16.6787 17.1056C16.3661 17.4182 15.9422 17.5937 15.5002 17.5937H5.50016C5.05814 17.5937 4.63421 17.4182 4.32165 17.1056C4.00909 16.793 3.8335 16.3691 3.8335 15.9271Z" stroke="#989AAF" stroke-linejoin="round"/>
<path d="M10.5 9.25977C11.8807 9.25977 13 8.14048 13 6.75977C13 5.37905 11.8807 4.25977 10.5 4.25977C9.11929 4.25977 8 5.37905 8 6.75977C8 8.14048 9.11929 9.25977 10.5 9.25977Z" stroke="#989AAF"/>
</svg>
