<svg width="20" height="20" viewBox="0 0 20 20" fill="none" xmlns="http://www.w3.org/2000/svg">
<path d="M11.9195 16.8095C13.2618 14.8699 13.6847 13.0847 13.7974 11.9623C14.4752 12.2134 15.0274 12.5198 15.4278 12.8573C15.9399 13.2889 16.1667 13.7358 16.1667 14.1667V17H11.7877L11.9195 16.8095ZM11.0153 16.6077L11.0811 17H8.91903L8.98482 16.6077L9.65982 12.5827L9.68676 12.4221L9.61392 12.2764L9.15764 11.3638C9.43452 11.3446 9.71559 11.3333 10 11.3333C10.2845 11.3333 10.5656 11.3446 10.8424 11.3638L10.3862 12.2764L10.3133 12.4221L10.3403 12.5827L11.0153 16.6077ZM8.08056 16.8095L8.21237 17H3.83337V14.1667C3.83337 13.7368 4.06125 13.2899 4.57507 12.8576C4.97602 12.5203 5.52788 12.214 6.20277 11.9631C6.3156 13.0855 6.73857 14.8703 8.08056 16.8095ZM10 3C11.5656 3 12.8334 4.26781 12.8334 5.83333C12.8334 7.39886 11.5656 8.66667 10 8.66667C8.43452 8.66667 7.16671 7.39886 7.16671 5.83333C7.16671 4.26781 8.43452 3 10 3Z" stroke="#00091E"/>
</svg>
