<svg width="20" height="20" viewBox="0 0 20 20" fill="none" xmlns="http://www.w3.org/2000/svg">
<rect x="0.5" y="0.5" width="19" height="19" rx="9.5" fill="white"/>
<rect x="0.5" y="0.5" width="19" height="19" rx="9.5" stroke="#EBEBEB"/>
<path d="M9.39808 11.1878C9.83331 10.9411 10.1746 10.5573 10.3689 10.0963C10.5631 9.63522 10.5992 9.12286 10.4716 8.63911C10.3441 8.15536 10.06 7.72744 9.66368 7.4221C9.26739 7.11676 8.78117 6.95117 8.28089 6.95117C7.78061 6.95117 7.29439 7.11676 6.8981 7.4221C6.5018 7.72744 6.21771 8.15536 6.09015 8.63911C5.96259 9.12286 5.99873 9.63522 6.19293 10.0963C6.38713 10.5573 6.72847 10.9411 7.1637 11.1878C6.35705 11.445 5.66431 11.9735 5.20316 12.6835C5.16917 12.7356 5.15727 12.799 5.17005 12.8599C5.18283 12.9207 5.21926 12.974 5.27132 13.0079C5.32338 13.0419 5.3868 13.0538 5.44764 13.041C5.50848 13.0283 5.56175 12.9918 5.59573 12.9398C5.8866 12.4926 6.28455 12.1251 6.75347 11.8707C7.22238 11.6163 7.74741 11.4831 8.28089 11.4831C8.81437 11.4831 9.3394 11.6163 9.80831 11.8707C10.2772 12.1251 10.6752 12.4926 10.966 12.9398C11.0022 12.9862 11.0546 13.0172 11.1126 13.0268C11.1707 13.0364 11.2302 13.0238 11.2794 12.9916C11.3286 12.9593 11.3638 12.9097 11.3782 12.8526C11.3925 12.7956 11.3848 12.7352 11.3567 12.6835C10.896 11.9738 10.204 11.4454 9.39808 11.1878ZM6.48401 9.2179C6.48401 8.86251 6.5894 8.51511 6.78684 8.21961C6.98429 7.92412 7.26492 7.69381 7.59326 7.55781C7.92159 7.42181 8.28288 7.38622 8.63144 7.45555C8.98 7.52489 9.30017 7.69602 9.55147 7.94732C9.80277 8.19862 9.97391 8.51879 10.0432 8.86735C10.1126 9.21591 10.077 9.5772 9.94099 9.90554C9.80498 10.2339 9.57467 10.5145 9.27918 10.7119C8.98369 10.9094 8.63628 11.0148 8.28089 11.0148C7.80452 11.0142 7.34784 10.8246 7.01099 10.4878C6.67415 10.151 6.48463 9.69427 6.48401 9.2179ZM14.7262 13.007C14.6742 13.0409 14.6108 13.0528 14.55 13.0401C14.4892 13.0273 14.436 12.991 14.402 12.939C14.1116 12.4917 13.714 12.1243 13.2453 11.87C12.7765 11.6158 12.2516 11.4829 11.7184 11.4835C11.6562 11.4835 11.5966 11.4588 11.5527 11.4149C11.5087 11.3709 11.484 11.3113 11.484 11.2492C11.484 11.187 11.5087 11.1274 11.5527 11.0834C11.5966 11.0395 11.6562 11.0148 11.7184 11.0148C11.983 11.0145 12.2443 10.9558 12.4836 10.8429C12.7228 10.7299 12.9342 10.5655 13.1026 10.3614C13.271 10.1573 13.3923 9.91854 13.4577 9.66215C13.5231 9.40576 13.5311 9.13808 13.4811 8.87825C13.431 8.61842 13.3243 8.37284 13.1683 8.15906C13.0124 7.94527 12.8112 7.76857 12.5791 7.64156C12.3469 7.51455 12.0896 7.44037 11.8255 7.42433C11.5614 7.40829 11.297 7.45078 11.0512 7.54876C11.0226 7.56048 10.9919 7.56642 10.961 7.56624C10.93 7.56605 10.8995 7.55974 10.871 7.54768C10.8425 7.53561 10.8167 7.51803 10.795 7.49594C10.7734 7.47385 10.7563 7.44769 10.7448 7.41898C10.7333 7.39026 10.7276 7.35955 10.728 7.32862C10.7285 7.29769 10.735 7.26715 10.7473 7.23877C10.7596 7.21038 10.7774 7.1847 10.7996 7.16322C10.8219 7.14174 10.8482 7.12488 10.877 7.11361C11.4101 6.90106 12.004 6.89877 12.5388 7.1072C13.0736 7.31563 13.5093 7.71925 13.758 8.23653C14.0066 8.7538 14.0497 9.34617 13.8785 9.89398C13.7073 10.4418 13.3345 10.9042 12.8356 11.1878C13.6422 11.445 14.335 11.9735 14.7961 12.6835C14.8296 12.7357 14.8411 12.7991 14.828 12.8597C14.8149 12.9203 14.7783 12.9733 14.7262 13.007Z" fill="#6E6E6E"/>
</svg>
