<svg width="20" height="20" viewBox="0 0 20 20" fill="none" xmlns="http://www.w3.org/2000/svg">
<g clip-path="url(#clip0_1099_16977)">
<path d="M9.99998 1.11133C8.24192 1.11133 6.52334 1.63265 5.06157 2.60938C3.5998 3.5861 2.46049 4.97435 1.78771 6.59859C1.11494 8.22282 0.938906 10.0101 1.28189 11.7344C1.62487 13.4586 2.47145 15.0425 3.71458 16.2856C4.95772 17.5287 6.54157 18.3753 8.26584 18.7183C9.99012 19.0613 11.7774 18.8853 13.4016 18.2125C15.0258 17.5397 16.4141 16.4004 17.3908 14.9386C18.3675 13.4768 18.8889 11.7583 18.8889 10.0002C18.8889 7.64274 17.9524 5.38181 16.2854 3.71482C14.6184 2.04783 12.3575 1.11133 9.99998 1.11133ZM9.99998 17.778C8.46168 17.778 6.95792 17.3218 5.67888 16.4672C4.39983 15.6126 3.40293 14.3978 2.81425 12.9766C2.22557 11.5554 2.07154 9.99159 2.37165 8.48285C2.67175 6.97411 3.41252 5.58824 4.50026 4.5005C5.588 3.41276 6.97387 2.67199 8.48261 2.37189C9.99135 2.07178 11.5552 2.22581 12.9764 2.81449C14.3976 3.40317 15.6123 4.40007 16.467 5.67912C17.3216 6.95816 17.7778 8.46192 17.7778 10.0002C17.7778 12.063 16.9583 14.0413 15.4997 15.4999C14.0411 16.9586 12.0628 17.778 9.99998 17.778Z" fill="#00091E"/>
<path d="M10.1611 4.95564C9.55907 4.94569 8.96224 5.06846 8.41302 5.31522C7.8638 5.56199 7.37567 5.92669 6.98332 6.38342C6.92881 6.43393 6.88499 6.49487 6.85445 6.56262C6.82392 6.63037 6.80729 6.70356 6.80554 6.77786C6.80551 6.84641 6.81926 6.91426 6.84598 6.97738C6.8727 7.0405 6.91185 7.09761 6.96109 7.14529C7.01033 7.19298 7.06866 7.23027 7.1326 7.25496C7.19655 7.27964 7.26481 7.29121 7.33332 7.28897C7.48008 7.28533 7.62042 7.22801 7.72776 7.12786C8.02469 6.77991 8.39347 6.50041 8.80874 6.3086C9.224 6.11679 9.6759 6.01722 10.1333 6.01675C11.4444 6.01675 12.2611 6.86119 12.2611 7.91119V7.93897C12.2611 9.16675 11.2833 9.85008 9.73888 9.96675C9.67634 9.96916 9.61502 9.98476 9.55892 10.0125C9.50283 10.0403 9.45323 10.0796 9.41337 10.1278C9.37351 10.1761 9.34429 10.2322 9.32763 10.2925C9.31096 10.3528 9.30722 10.416 9.31665 10.4779C9.31665 10.4779 9.31665 11.7667 9.31665 12.0056C9.33047 12.1432 9.39505 12.2706 9.49778 12.363C9.6005 12.4555 9.73401 12.5063 9.87221 12.5056H9.93332C10.0708 12.4918 10.1983 12.4272 10.2907 12.3245C10.3832 12.2218 10.434 12.0883 10.4333 11.9501V10.8056C12.1 10.5723 13.45 9.69453 13.45 7.8723V7.84453C13.4333 6.17786 12.1333 4.95564 10.1611 4.95564Z" fill="#00091E"/>
<path d="M9.87779 15.2502C10.2613 15.2502 10.5722 14.9393 10.5722 14.5558C10.5722 14.1722 10.2613 13.8613 9.87779 13.8613C9.49426 13.8613 9.18335 14.1722 9.18335 14.5558C9.18335 14.9393 9.49426 15.2502 9.87779 15.2502Z" fill="#00091E"/>
</g>
<defs>
<clipPath id="clip0_1099_16977">
<rect width="20" height="20" fill="white"/>
</clipPath>
</defs>
</svg>
