<svg width="20" height="20" viewBox="0 0 20 20" fill="none" xmlns="http://www.w3.org/2000/svg">
<path d="M6.71701 3.94987C8.25401 3.20887 11.534 2.51287 15.227 4.91887C15.282 4.95472 15.3436 4.97938 15.4081 4.99145C15.4727 5.00351 15.539 5.00274 15.6033 4.98918C15.6675 4.97563 15.7285 4.94955 15.7826 4.91243C15.8368 4.87531 15.8832 4.82789 15.919 4.77287C15.9549 4.71784 15.9795 4.6563 15.9916 4.59174C16.0037 4.52719 16.0029 4.46089 15.9893 4.39663C15.9758 4.33237 15.9497 4.27141 15.9126 4.21723C15.8755 4.16306 15.828 4.11672 15.773 4.08087C11.736 1.45087 8.07601 2.18387 6.28301 3.04987C6.2212 3.07664 6.16543 3.11564 6.11906 3.16451C6.07269 3.21337 6.03667 3.27111 6.01317 3.33424C5.98966 3.39738 5.97916 3.46461 5.98229 3.53191C5.98542 3.5992 6.00212 3.66517 6.03138 3.72585C6.06064 3.78653 6.10187 3.84067 6.15257 3.88503C6.20328 3.92938 6.26243 3.96303 6.32647 3.98395C6.3905 4.00487 6.45811 4.01264 6.52522 4.00678C6.59233 4.00092 6.65757 3.98156 6.71701 3.94987ZM4.90901 4.59087C4.94517 4.64575 4.97016 4.70721 4.98254 4.77176C4.99492 4.8363 4.99446 4.90265 4.98118 4.96701C4.9679 5.03138 4.94206 5.09249 4.90514 5.14686C4.86822 5.20123 4.82094 5.24778 4.76601 5.28387C4.24301 5.62787 3.65601 6.36887 3.43101 6.75287C3.36184 6.86292 3.25254 6.9417 3.12626 6.97253C2.99999 7.00335 2.86667 6.98379 2.75457 6.91799C2.64248 6.85219 2.56041 6.74532 2.52577 6.62004C2.49113 6.49475 2.50664 6.36091 2.56901 6.24687C2.83901 5.78687 3.51901 4.90687 4.21701 4.44787C4.32777 4.37516 4.46285 4.34938 4.5926 4.37619C4.72235 4.403 4.83615 4.48021 4.90901 4.59087ZM10.5 4.54087C10.3674 4.54087 10.2402 4.59355 10.1465 4.68731C10.0527 4.78108 10 4.90826 10 5.04087C10 5.17348 10.0527 5.30065 10.1465 5.39442C10.2402 5.48819 10.3674 5.54087 10.5 5.54087C12.156 5.54087 16.014 6.91687 17.01 12.0939C17.0402 12.2187 17.1173 12.3272 17.2253 12.3967C17.3333 12.4663 17.4639 12.4916 17.5901 12.4674C17.7163 12.4432 17.8283 12.3714 17.9029 12.2669C17.9776 12.1623 18.0091 12.033 17.991 11.9059C16.893 6.19387 12.568 4.54087 10.501 4.54087M9.34601 10.8019C8.47601 11.5079 7.81901 13.4869 9.90401 17.2579C9.9682 17.374 9.9836 17.5109 9.94685 17.6385C9.91009 17.766 9.82418 17.8737 9.70801 17.9379C9.59185 18.002 9.45495 18.0175 9.32742 17.9807C9.1999 17.9439 9.0922 17.858 9.02801 17.7419C6.88001 13.8559 7.25001 11.2159 8.71501 10.0259C10.139 8.86887 12.385 9.37087 12.998 11.3499C13.079 11.6129 13.144 11.9279 13.208 12.2429L13.241 12.3999C13.321 12.7799 13.409 13.1759 13.539 13.5749C13.798 14.3679 14.215 15.1469 15.02 15.7409C15.1268 15.8196 15.1979 15.9376 15.2176 16.0688C15.2374 16.1999 15.2043 16.3336 15.1255 16.4404C15.0467 16.5471 14.9288 16.6182 14.7976 16.638C14.6664 16.6578 14.5328 16.6246 14.426 16.5459C13.399 15.7879 12.887 14.7999 12.588 13.8859C12.4559 13.4649 12.347 13.0369 12.262 12.6039L12.228 12.4369C12.178 12.1702 12.1159 11.9059 12.042 11.6449C11.653 10.3879 10.256 10.0619 9.34601 10.8019ZM15.5 11.9719C15.4984 11.9049 15.4834 11.839 15.4558 11.7779C15.4282 11.7169 15.3887 11.662 15.3395 11.6166C15.2903 11.5711 15.2325 11.536 15.1695 11.5133C15.1064 11.4907 15.0395 11.4809 14.9726 11.4846C14.9058 11.4883 14.8403 11.5053 14.7802 11.5348C14.72 11.5643 14.6664 11.6055 14.6225 11.6561C14.5786 11.7067 14.5453 11.7656 14.5246 11.8292C14.5039 11.8929 14.4962 11.9601 14.502 12.0269C14.6 13.8349 15.718 14.7729 16.348 14.9759C16.4739 15.0153 16.6103 15.0033 16.7275 14.9426C16.8446 14.8819 16.933 14.7773 16.9733 14.6517C17.0137 14.5261 17.0028 14.3896 16.943 14.272C16.8832 14.1544 16.7793 14.0652 16.654 14.0239C16.427 13.9509 15.577 13.3749 15.5 11.9719ZM11 12.4999C11 12.3673 10.9473 12.2401 10.8536 12.1463C10.7598 12.0525 10.6326 11.9999 10.5 11.9999C10.3674 11.9999 10.2402 12.0525 10.1465 12.1463C10.0527 12.2401 10 12.3673 10 12.4999C10 13.5449 10.129 14.3509 10.437 15.1379C10.741 15.9119 11.209 16.6419 11.842 17.5379C11.879 17.5935 11.9268 17.6411 11.9825 17.678C12.0382 17.7148 12.1008 17.7401 12.1664 17.7524C12.2321 17.7647 12.2995 17.7637 12.3648 17.7495C12.4301 17.7352 12.4918 17.7081 12.5464 17.6696C12.601 17.6311 12.6474 17.5821 12.6827 17.5254C12.718 17.4687 12.7416 17.4055 12.7521 17.3395C12.7626 17.2735 12.7598 17.2061 12.7438 17.1413C12.7278 17.0764 12.699 17.0154 12.659 16.9619C12.031 16.0719 11.624 15.4269 11.368 14.7719C11.116 14.1309 11 13.4549 11 12.4999ZM7.97001 8.78987C6.25401 10.1179 5.26801 12.9319 6.94801 16.2749C7.00769 16.3934 7.01782 16.5308 6.97619 16.6568C6.93456 16.7829 6.84457 16.8872 6.72601 16.9469C6.60746 17.0065 6.47006 17.0167 6.34404 16.975C6.21801 16.9334 6.11369 16.8434 6.05401 16.7249C4.18401 13.0029 5.22201 9.65287 7.35701 7.99887C8.41801 7.17787 9.74701 6.78287 11.084 6.99887C12.426 7.21687 13.721 8.04287 14.727 9.55587C14.7634 9.61056 14.7886 9.67189 14.8013 9.73634C14.814 9.80079 14.8138 9.86711 14.8009 9.93151C14.7879 9.99591 14.7624 10.0571 14.7258 10.1117C14.6892 10.1662 14.6422 10.213 14.5875 10.2494C14.5328 10.2857 14.4715 10.311 14.407 10.3237C14.3426 10.3363 14.2763 10.3362 14.2119 10.3232C14.1475 10.3103 14.0863 10.2848 14.0317 10.2482C13.9772 10.2116 13.9304 10.1646 13.894 10.1099C13.019 8.79287 11.953 8.15387 10.924 7.98687C9.88901 7.81887 8.83401 8.11987 7.97001 8.78987ZM8.45701 5.79387C8.51873 5.77141 8.57543 5.73702 8.62386 5.69265C8.67229 5.64828 8.7115 5.59481 8.73927 5.53529C8.76703 5.47577 8.7828 5.41136 8.78568 5.34574C8.78855 5.28013 8.77847 5.21459 8.75601 5.15287C8.73356 5.09115 8.69916 5.03445 8.6548 4.98602C8.61043 4.93759 8.55696 4.89838 8.49744 4.87061C8.43792 4.84285 8.37351 4.82708 8.30789 4.8242C8.24227 4.82133 8.17673 4.83141 8.11501 4.85387C3.43501 6.55387 2.32501 11.0399 2.75701 14.0709C2.77584 14.2021 2.84606 14.3206 2.9522 14.4001C3.05835 14.4796 3.19173 14.5137 3.32301 14.4949C3.4543 14.476 3.57272 14.4058 3.65224 14.2997C3.73175 14.1935 3.76584 14.0601 3.74701 13.9289C3.35601 11.1909 4.36901 7.27887 8.45701 5.79387Z" fill="#00091E"/>
</svg>
