<svg width="20" height="20" viewBox="0 0 20 20" fill="none" xmlns="http://www.w3.org/2000/svg">
<path d="M9.99996 9.61833C9.52014 9.61833 9.05997 9.42773 8.72069 9.08844C8.3814 8.74916 8.1908 8.28899 8.1908 7.80917C8.1908 7.32935 8.3814 6.86918 8.72069 6.52989C9.05997 6.19061 9.52014 6 9.99996 6C10.4799 6 10.9402 6.19065 11.2795 6.53001C11.6189 6.86938 11.8095 7.32965 11.8095 7.80958C11.8095 8.28951 11.6189 8.74979 11.2795 9.08915C10.9402 9.42851 10.4799 9.61917 9.99996 9.61917V12.3325" stroke="#00091E" stroke-width="1.5" stroke-linecap="round" stroke-linejoin="round"/>
<path d="M17.2266 9.90835V5.50835C17.2266 5.17075 17.1204 4.84172 16.923 4.56786C16.7255 4.29401 16.4469 4.08922 16.1266 3.98252L12.0316 2.61669C10.712 2.18246 9.28796 2.18246 7.96832 2.61669L3.87332 3.98169C3.55316 4.08834 3.27466 4.293 3.07724 4.56669C2.87983 4.84038 2.7735 5.16923 2.77332 5.50669V9.90669C2.77347 10.9928 3.04895 12.0611 3.57402 13.0119C4.0991 13.9627 4.85662 14.7648 5.77582 15.3434L9.14915 17.4634C9.40441 17.6225 9.69918 17.7068 9.99998 17.7068C10.3008 17.7068 10.5956 17.6225 10.8508 17.4634L14.2233 15.3434C15.1425 14.765 15.9002 13.963 16.4254 13.0124C16.9506 12.0618 17.2263 10.9936 17.2266 9.90752" stroke="#00091E" stroke-width="1.5" stroke-linecap="round" stroke-linejoin="round"/>
</svg>
