<svg width="100" height="26" viewBox="0 0 100 26" fill="none" xmlns="http://www.w3.org/2000/svg">
<path d="M50.5686 6.46033L47.3785 18.3433H43.7702L41.8182 10.524L39.7967 18.3433H36.1884L33.0859 6.46033H36.276L38.0364 15.1093L40.2149 6.46033H43.4926L45.5851 15.1093L47.3636 6.46033H50.5719H50.5686Z" fill="#8D8F91"/>
<path d="M54.979 6.35901C54.979 6.79876 54.8137 7.1695 54.4814 7.46802C54.1509 7.76654 53.7294 7.9158 53.217 7.9158C52.7046 7.9158 52.2666 7.76654 51.936 7.46802C51.6054 7.1695 51.4385 6.79876 51.4385 6.35901M54.698 8.89802V18.3431H51.7178V8.89802H54.698Z" fill="#8D8F91"/>
<path d="M60.7996 9.24467C61.3219 8.94616 61.9038 8.79529 62.5434 8.79529V11.8591H61.7236C60.9798 11.8591 60.4211 12.0148 60.0509 12.3246C59.679 12.6343 59.4938 13.18 59.4938 13.9584V18.3431H56.5137V8.89801H59.4938V10.4725C59.8426 9.95406 60.279 9.54479 60.8013 9.24628L60.7996 9.24467Z" fill="#8D8F91"/>
<path d="M72.742 14.3147H65.9965C66.0428 14.9021 66.2379 15.3499 66.58 15.6596C66.9222 15.9694 67.3436 16.1251 67.8445 16.1251C68.5883 16.1251 69.1056 15.8201 69.3965 15.2102H72.5684C72.4064 15.8313 72.1122 16.3899 71.6874 16.8858C71.2627 17.3833 70.7321 17.7717 70.0924 18.0542C69.4527 18.3367 68.7387 18.4779 67.9486 18.4779C66.9949 18.4779 66.1469 18.2805 65.4031 17.8857C64.6593 17.4909 64.0775 16.9259 63.6593 16.1925C63.2412 15.459 63.0312 14.602 63.0312 13.6197C63.0312 12.6375 63.2379 11.7805 63.6494 11.047C64.0627 10.3136 64.6395 9.75024 65.3833 9.35382C66.1271 8.959 66.9817 8.7616 67.9453 8.7616C68.9089 8.7616 69.7238 8.95419 70.456 9.33777C71.1883 9.72135 71.7602 10.2686 72.1734 10.9796C72.5866 11.6906 72.7916 12.5204 72.7916 13.4673C72.7916 13.7385 72.775 14.021 72.7387 14.3131L72.742 14.3147ZM69.7436 12.7065C69.7436 12.2106 69.5701 11.8158 69.2213 11.5221C68.8726 11.2284 68.4362 11.0823 67.9139 11.0823C67.3916 11.0823 66.9932 11.2236 66.6494 11.506C66.3073 11.7885 66.0941 12.1897 66.0131 12.7081H69.7436V12.7065Z" fill="#8D8F91"/>
<path d="M89.3109 9.8628C90.0249 10.5738 90.3836 11.5608 90.3836 12.8255V18.3433H87.42V13.2139C87.42 12.604 87.2547 12.1338 86.9225 11.8C86.5919 11.4677 86.1357 11.3008 85.5539 11.3008C84.972 11.3008 84.5175 11.4677 84.1853 11.8C83.8547 12.1322 83.6877 12.604 83.6877 13.2139V18.3433H80.7241V13.2139C80.7241 12.604 80.5588 12.1338 80.2266 11.8C79.896 11.4677 79.4398 11.3008 78.858 11.3008C78.2762 11.3008 77.82 11.4677 77.4894 11.8C77.1588 12.1322 76.9919 12.604 76.9919 13.2139V18.3433H74.0117V8.89823H76.9919V10.0827C77.2944 9.68786 77.6894 9.3749 78.177 9.14379C78.6646 8.91268 79.2167 8.79712 79.8332 8.79712C80.5654 8.79712 81.2183 8.94959 81.7935 9.25453C82.3687 9.55947 82.8183 9.9944 83.1439 10.5577C83.4811 10.0393 83.939 9.61564 84.5208 9.28823C85.101 8.96082 85.7357 8.79712 86.4216 8.79712C87.6299 8.79712 88.5919 9.15181 89.3059 9.8628H89.3109Z" fill="#8D8F91"/>
<path d="M95.3852 6.35901C95.3852 6.79876 95.2199 7.1695 94.8877 7.46802C94.5571 7.76654 94.1356 7.9158 93.6232 7.9158C93.1108 7.9158 92.6728 7.76654 92.3422 7.46802C92.0117 7.1695 91.8447 6.79876 91.8447 6.35901M95.1042 8.89802V18.3431H92.1241V8.89802H95.1042Z" fill="#8D8F91"/>
<path d="M17.2282 12.7495L21.729 5.18384H28.9191C29.7571 5.18384 30.2795 6.06495 29.8596 6.76952L22.7869 18.6348C22.329 19.4036 21.1852 19.402 20.7274 18.6348L17.2266 12.7511L17.2282 12.7495Z" fill="#8D8F91"/>
<path d="M5.53884 5.18361H12.7289L17.2297 12.7493L13.7306 18.633C13.2727 19.4018 12.1306 19.4034 11.6711 18.633L4.59835 6.76769C4.17851 6.06312 4.70083 5.18201 5.53884 5.18201V5.18361Z" fill="#8D8F91"/>
</svg>
