<svg width="214" height="214" viewBox="0 0 214 214" fill="none" xmlns="http://www.w3.org/2000/svg">
<path d="M140.75 207.25H118.25V184.75H140.75V207.25ZM118.25 128.5H95.75V184.75H118.25V128.5ZM208.25 106H185.75V151H208.25V106ZM185.75 83.5H163.25V106H185.75V83.5ZM50.75 106H28.25V128.5H50.75V106ZM28.25 83.5H5.75V106H28.25V83.5ZM107 27.25H129.5V4.75H107V27.25ZM22.625 21.625V55.375H56.375V21.625H22.625ZM62 72.25H17C10.8125 72.25 5.75 67.1875 5.75 61V16C5.75 9.8125 10.8125 4.75 17 4.75H62C68.1875 4.75 73.25 9.8125 73.25 16V61C73.25 67.1875 68.1875 72.25 62 72.25ZM22.625 156.625V190.375H56.375V156.625H22.625ZM62 207.25H17C10.8125 207.25 5.75 202.188 5.75 196V151C5.75 144.812 10.8125 139.75 17 139.75H62C68.1875 139.75 73.25 144.812 73.25 151V196C73.25 202.188 68.1875 207.25 62 207.25ZM157.625 21.625V55.375H191.375V21.625H157.625ZM197 72.25H152C145.812 72.25 140.75 67.1875 140.75 61V16C140.75 9.8125 145.812 4.75 152 4.75H197C203.188 4.75 208.25 9.8125 208.25 16V61C208.25 67.1875 203.188 72.25 197 72.25ZM185.75 184.75V151H140.75V173.5H163.25V207.25H208.25V184.75H185.75ZM163.25 106H118.25V128.5H163.25V106ZM118.25 83.5H50.75V106H73.25V128.5H95.75V106H118.25V83.5ZM129.5 72.25V49.75H107V27.25H84.5V72.25H129.5ZM47.9375 30.0625H31.0625V46.9375H47.9375V30.0625ZM47.9375 165.062H31.0625V181.938H47.9375V165.062ZM182.938 30.0625H166.062V46.9375H182.938V30.0625Z" fill="black"/>
</svg>
