<svg width="73" height="72" viewBox="0 0 73 72" fill="none" xmlns="http://www.w3.org/2000/svg">
<rect x="5" y="5" width="63" height="63" rx="31.5" fill="#DE1E04"/>
<path d="M46 36V31.5C46 31.2348 45.8946 30.9804 45.7071 30.7929C45.5196 30.6054 45.2652 30.5 45 30.5H36.5L34 27.5H28C27.7348 27.5 27.4804 27.6054 27.2929 27.7929C27.1054 27.9804 27 28.2348 27 28.5V44.5C27 44.7652 27.1054 45.0196 27.2929 45.2071C27.4804 45.3946 27.7348 45.5 28 45.5H35.5M39.5 39.5L44.5 44.5M44.5 39.5L39.5 44.5" stroke="white" stroke-width="2" stroke-linecap="round" stroke-linejoin="round"/>
</svg>
