<svg width="30" height="30" viewBox="0 0 30 30" fill="none" xmlns="http://www.w3.org/2000/svg">
<rect x="0.1875" y="0.1875" width="29.625" height="29.625" rx="14.8125" fill="#105CE2" fill-opacity="0.1"/>
<rect x="0.1875" y="0.1875" width="29.625" height="29.625" rx="14.8125" stroke="#EBEBEB" stroke-width="0.375"/>
<path d="M16.5707 8.72915C16.5847 8.71146 16.6022 8.69681 16.6221 8.6861C16.642 8.67539 16.6639 8.66883 16.6864 8.66684C16.7089 8.66484 16.7316 8.66745 16.7531 8.67449C16.7746 8.68153 16.7944 8.69287 16.8113 8.70781L17.426 9.24915L15.4927 11.6658H16.7727L18.1767 9.91115L19.278 10.8825C19.3106 10.9113 19.3306 10.9516 19.3338 10.995C19.3371 11.0383 19.3233 11.0812 19.2953 11.1145L18.8353 11.6658H20.1313C20.2919 11.4308 20.361 11.1452 20.3256 10.8628C20.2902 10.5804 20.1529 10.3207 19.9393 10.1325L17.4727 7.95715C17.3537 7.85235 17.2146 7.77291 17.0638 7.72368C16.9131 7.67444 16.7539 7.65645 16.596 7.6708C16.4381 7.68515 16.2848 7.73154 16.1454 7.80714C16.006 7.88273 15.8835 7.98595 15.7853 8.11048L12.984 11.6658H14.2573L16.5707 8.72915ZM17.8333 16.3325C17.7007 16.3325 17.5735 16.3852 17.4798 16.4789C17.386 16.5727 17.3333 16.6999 17.3333 16.8325C17.3333 16.9651 17.386 17.0923 17.4798 17.186C17.5735 17.2798 17.7007 17.3325 17.8333 17.3325H19.1667C19.2993 17.3325 19.4265 17.2798 19.5202 17.186C19.614 17.0923 19.6667 16.9651 19.6667 16.8325C19.6667 16.6999 19.614 16.5727 19.5202 16.4789C19.4265 16.3852 19.2993 16.3325 19.1667 16.3325H17.8333ZM10 11.8325C10 11.6999 10.0527 11.5727 10.1464 11.4789C10.2402 11.3852 10.3674 11.3325 10.5 11.3325H12.5853L13.38 10.3325H10.5C10.1022 10.3325 9.72064 10.4905 9.43934 10.7718C9.15804 11.0531 9 11.4347 9 11.8325V18.8325C9 19.4071 9.22827 19.9582 9.6346 20.3645C10.0409 20.7709 10.592 20.9991 11.1667 20.9991H19.1667C19.7413 20.9991 20.2924 20.7709 20.6987 20.3645C21.1051 19.9582 21.3333 19.4071 21.3333 18.8325V14.4991C21.3333 13.9245 21.1051 13.3734 20.6987 12.9671C20.2924 12.5608 19.7413 12.3325 19.1667 12.3325H10.5C10.3674 12.3325 10.2402 12.2798 10.1464 12.186C10.0527 12.0923 10 11.9651 10 11.8325ZM10 18.8325V13.2471C10.1573 13.3031 10.324 13.3316 10.5 13.3325H19.1667C19.8107 13.3325 20.3333 13.8551 20.3333 14.4991V18.8325C20.3333 19.1419 20.2104 19.4386 19.9916 19.6574C19.7728 19.8762 19.4761 19.9991 19.1667 19.9991H11.1667C10.8572 19.9991 10.5605 19.8762 10.3417 19.6574C10.1229 19.4386 10 19.1419 10 18.8325Z" fill="#105CE2"/>
</svg>
