<svg width="30" height="30" viewBox="0 0 30 30" fill="none" xmlns="http://www.w3.org/2000/svg">
<rect x="0.1875" y="0.1875" width="29.625" height="29.625" rx="14.8125" fill="#105CE2" fill-opacity="0.1"/>
<rect x="0.1875" y="0.1875" width="29.625" height="29.625" rx="14.8125" stroke="#EBEBEB" stroke-width="0.375"/>
<path d="M11 12.332H13.6667" stroke="#105CE2" stroke-linecap="round" stroke-linejoin="round"/>
<path d="M21.6667 14C21.6667 13.9487 21.6667 13.6447 21.6653 13.6233C21.6413 13.2893 21.3553 13.0233 20.9953 13.0013C20.9727 13 20.9453 13 20.8893 13H19.1547C17.964 13 17 13.8953 17 15C17 16.1047 17.9647 17 19.1533 17H20.8887C20.9447 17 20.972 17 20.9953 16.9987C21.3553 16.9767 21.642 16.7107 21.6653 16.3767C21.6667 16.3553 21.6667 16.0513 21.6667 16" stroke="#105CE2" stroke-linecap="round"/>
<path d="M19 15.6654C19.3682 15.6654 19.6666 15.3669 19.6666 14.9987C19.6666 14.6305 19.3682 14.332 19 14.332C18.6318 14.332 18.3333 14.6305 18.3333 14.9987C18.3333 15.3669 18.6318 15.6654 19 15.6654Z" fill="#105CE2"/>
<path d="M15.6666 9.66602C18.1806 9.66602 19.438 9.66602 20.2186 10.4473C20.758 10.986 20.9253 11.7513 20.9766 12.9993M13.6666 20.3327H15.6666C18.1806 20.3327 19.438 20.3327 20.2186 19.5513C20.758 19.0127 20.9253 18.2473 20.9766 16.9993M13 9.66602C10.924 9.67268 9.82331 9.73802 9.11465 10.4473C8.33331 11.228 8.33331 12.4853 8.33331 14.9993C8.33331 17.5133 8.33331 18.7707 9.11465 19.5513C9.54998 19.9873 10.1333 20.18 11 20.2647" stroke="#105CE2" stroke-linecap="round"/>
</svg>
