<svg width="63" height="63" viewBox="0 0 63 63" fill="none" xmlns="http://www.w3.org/2000/svg">
<g filter="url(#filter0_d_1954_2141)">
<rect x="3.5" y="3.5" width="54" height="54" rx="27" stroke="#263BD4" stroke-opacity="0.2" shape-rendering="crispEdges"/>
</g>
<g clip-path="url(#clip0_1954_2141)">
<path d="M33.0361 25.4384C32.9835 25.3726 32.9881 25.2765 33.0493 25.216L33.0494 25.2159L34.5187 23.7646L34.5202 23.7631C34.8693 23.4153 35.4411 23.4137 35.7944 23.7657L35.7944 23.7658L35.7986 23.7698L37.2832 25.2151L37.2835 25.2154C37.3488 25.2789 37.351 25.3843 37.2869 25.451C37.2543 25.4841 37.212 25.5009 37.1673 25.5009C37.1243 25.5009 37.0843 25.4854 37.0525 25.4543L37.0514 25.4532L36.1827 24.6079L35.334 23.782V24.9662V29.0009C35.334 29.0931 35.2595 29.1675 35.1673 29.1675C35.0751 29.1675 35.0007 29.0931 35.0007 29.0009V24.9542V23.7576L34.1493 24.5985L33.2852 25.4519C33.2851 25.452 33.285 25.4521 33.2849 25.4522C33.2183 25.5176 33.1137 25.5168 33.048 25.4505L33.0361 25.4384ZM23.3617 27.6168L23.3677 27.6061L23.3732 27.5951C23.3793 27.5831 23.3832 27.5767 23.385 27.5741L23.3926 27.5628L23.3997 27.551C23.8961 26.7217 24.8022 26.1675 25.8333 26.1675H30.5C30.5922 26.1675 30.6667 26.242 30.6667 26.3342C30.6667 26.4264 30.5922 26.5009 30.5 26.5009H25.8333C25.0936 26.5009 24.4273 26.8242 23.9706 27.3349L23.672 27.6689L23.9713 28.0023C24.4399 28.5242 25.1164 28.8342 25.8333 28.8342H32.6667V29.0009C32.6667 30.3797 33.7879 31.5009 35.1667 31.5009C36.421 31.5009 37.4622 30.5729 37.6399 29.3672C37.8647 29.6282 38 29.9659 38 30.3342V37.0009C38 37.8274 37.3265 38.5009 36.5 38.5009H25.8333C24.2715 38.5009 23 37.2294 23 35.6675V29.0009C23 28.4978 23.1314 28.026 23.3617 27.6168ZM36.3333 33.6675C36.3333 32.8394 35.6615 32.1675 34.8333 32.1675C34.0052 32.1675 33.3333 32.8394 33.3333 33.6675C33.3333 34.4957 34.0052 35.1675 34.8333 35.1675C35.6615 35.1675 36.3333 34.4957 36.3333 33.6675Z" stroke="#105CE2"/>
</g>
<defs>
<filter id="filter0_d_1954_2141" x="0" y="0" width="63" height="63" filterUnits="userSpaceOnUse" color-interpolation-filters="sRGB">
<feFlood flood-opacity="0" result="BackgroundImageFix"/>
<feColorMatrix in="SourceAlpha" type="matrix" values="0 0 0 0 0 0 0 0 0 0 0 0 0 0 0 0 0 0 127 0" result="hardAlpha"/>
<feOffset dx="1" dy="1"/>
<feGaussianBlur stdDeviation="2"/>
<feComposite in2="hardAlpha" operator="out"/>
<feColorMatrix type="matrix" values="0 0 0 0 0.634145 0 0 0 0 0.621121 0 0 0 0 0.621121 0 0 0 0.03 0"/>
<feBlend mode="normal" in2="BackgroundImageFix" result="effect1_dropShadow_1954_2141"/>
<feBlend mode="normal" in="SourceGraphic" in2="effect1_dropShadow_1954_2141" result="shape"/>
</filter>
<clipPath id="clip0_1954_2141">
<rect width="16" height="16" fill="white" transform="translate(22.5 23)"/>
</clipPath>
</defs>
</svg>
