<svg width="71" height="70" viewBox="0 0 71 70" fill="none" xmlns="http://www.w3.org/2000/svg">
<g filter="url(#filter0_d_552_10827)">
<rect x="2.5" y="2" width="66" height="65" rx="32.5" fill="white" shape-rendering="crispEdges"/>
<g clip-path="url(#clip0_552_10827)">
<path d="M29.5824 32.7322V33.6664C29.5824 35.3209 30.9279 36.6664 32.5824 36.6664H34.2457C35.048 36.6664 35.8045 36.3517 36.3707 35.7835C36.937 35.2153 37.2487 34.4576 37.2457 33.6546C37.2457 33.6546 37.2457 33.6546 37.2457 33.6546L37.2424 32.7402C38.4368 31.7325 39.1639 30.3166 39.301 28.7794C39.7653 28.1471 40.3198 27.7188 41.0614 27.5352C41.286 27.4799 41.4864 27.4797 41.654 27.5352C42.1912 27.7139 42.4999 28.1703 42.4999 28.6698V31.7656V31.9543L42.6245 32.0959C43.0212 32.5468 43.3504 33.0521 43.6 33.5913L43.1884 34.0036L44.0872 34.1954C44.5762 34.2998 44.9982 34.6844 44.9982 35.3348V37.0014C44.9982 37.6521 44.5768 38.0364 44.0873 38.1408L43.8263 38.1964L43.7272 38.4442C43.2184 39.7175 42.285 40.7951 41.081 41.492L40.8315 41.6365V41.9248V42.0014C40.8315 42.8347 40.3364 43.5887 39.5925 43.8621L29.5824 32.7322ZM29.5824 32.7322C29.2538 32.453 28.9659 32.142 28.7149 31.8095C28.5511 31.9645 28.3969 32.1267 28.2544 32.2964L28.0718 32.5137L27.7917 32.4684C27.1736 32.3684 26.6657 31.8472 26.6657 31.1673C26.6657 30.6544 26.9559 30.2093 27.3791 29.9871L27.6115 30.4298L27.378 29.9876C27.4306 29.9599 27.499 29.8723 27.499 29.7281C27.499 29.6042 27.4333 29.4956 27.3321 29.4322C27.2333 29.3703 27.1259 29.3654 27.032 29.4176L27.0318 29.4177C26.4153 29.7601 25.999 30.4175 25.999 31.1681C25.999 31.9638 26.4707 32.6511 27.1553 32.9732L27.6066 33.1856L27.3953 33.6374C27.0883 34.2939 26.8937 35.0065 26.8455 35.7585L26.8455 35.7587C26.692 38.13 27.884 40.3322 29.9153 41.5024L30.1657 41.6466V41.9356V42.0014C30.1657 42.8339 30.6609 43.5886 31.4046 43.8621L29.5824 32.7322ZM34.169 42.3348H34.5224H36.4749H36.8281L36.9461 42.6678C37.2973 43.6587 38.4085 44.2968 39.5924 43.8621L34.169 42.3348ZM34.169 42.3348L34.051 42.6679M34.169 42.3348L34.051 42.6679M34.051 42.6679C33.6999 43.6594 32.5897 44.2969 31.4048 43.8621L34.051 42.6679ZM32.6458 25.0886L32.6461 25.0885C33.6438 24.8573 34.6578 25.0846 35.4369 25.7044C36.2187 26.3264 36.6657 27.2524 36.6657 28.2498C36.6657 29.1949 36.2564 30.061 35.5637 30.6664H31.2706C30.4176 29.9266 30.0025 28.7878 30.2284 27.6098C30.4639 26.3827 31.4408 25.3671 32.6458 25.0886ZM32.2499 33.3331H34.5785L34.5799 33.6649C34.5805 33.85 34.4311 33.9998 34.2465 33.9998H32.5832C32.3993 33.9998 32.2499 33.8503 32.2499 33.6664V33.3331ZM38.3332 34.9164C38.3332 35.8826 39.117 36.6664 40.0832 36.6664C41.0493 36.6664 41.8332 35.8826 41.8332 34.9164C41.8332 33.9503 41.0493 33.1664 40.0832 33.1664C39.117 33.1664 38.3332 33.9503 38.3332 34.9164Z" stroke="#105CE2"/>
</g>
</g>
<defs>
<filter id="filter0_d_552_10827" x="0.178571" y="0.258929" width="70.6429" height="69.6429" filterUnits="userSpaceOnUse" color-interpolation-filters="sRGB">
<feFlood flood-opacity="0" result="BackgroundImageFix"/>
<feColorMatrix in="SourceAlpha" type="matrix" values="0 0 0 0 0 0 0 0 0 0 0 0 0 0 0 0 0 0 127 0" result="hardAlpha"/>
<feMorphology radius="1.16071" operator="dilate" in="SourceAlpha" result="effect1_dropShadow_552_10827"/>
<feOffset dy="0.580357"/>
<feGaussianBlur stdDeviation="0.580357"/>
<feComposite in2="hardAlpha" operator="out"/>
<feColorMatrix type="matrix" values="0 0 0 0 0.0392157 0 0 0 0 0.0392157 0 0 0 0 0.0392157 0 0 0 0.16 0"/>
<feBlend mode="normal" in2="BackgroundImageFix" result="effect1_dropShadow_552_10827"/>
<feBlend mode="normal" in="SourceGraphic" in2="effect1_dropShadow_552_10827" result="shape"/>
</filter>
<clipPath id="clip0_552_10827">
<rect width="20" height="20" fill="white" transform="translate(25.5 24.5)"/>
</clipPath>
</defs>
</svg>
