<svg width="63" height="63" viewBox="0 0 63 63" fill="none" xmlns="http://www.w3.org/2000/svg">
<g filter="url(#filter0_d_1954_2149)">
<rect x="3.5" y="3.5" width="54" height="54" rx="27" stroke="#263BD4" stroke-opacity="0.2" shape-rendering="crispEdges"/>
</g>
<g clip-path="url(#clip0_1954_2149)">
<path d="M35.7492 38.5566L35.735 38.5346C35.6355 38.3806 35.4285 38.3353 35.2735 38.4341C34.9362 38.6512 34.5821 38.8464 34.221 39.0137M35.7492 38.5566L34.0108 38.56M35.7492 38.5566C35.8305 38.7086 35.7827 38.8989 35.6354 38.9936L35.6349 38.994C35.2717 39.2282 34.8911 39.4378 34.5023 39.618M35.7492 38.5566L34.5023 39.618M34.221 39.0137L34.0108 38.56M34.221 39.0137C34.2212 39.0136 34.2215 39.0135 34.2217 39.0134L34.0108 38.56M34.221 39.0137C34.0544 39.0916 33.9822 39.2891 34.0594 39.4562M34.0108 38.56C33.5933 38.7542 33.4125 39.2492 33.6058 39.6667M34.0594 39.4562C34.0593 39.456 34.0592 39.4558 34.0591 39.4556L33.6058 39.6667M34.0594 39.4562C34.1163 39.5777 34.2353 39.6492 34.3625 39.6492C34.4086 39.6492 34.4559 39.6395 34.5023 39.618M34.0594 39.4562C34.0594 39.4563 34.0595 39.4565 34.0595 39.4566L33.6058 39.6667M33.6058 39.6667L34.5023 39.618M33.8039 31.3845L33.8038 31.3844L31.8333 30.1603V26.8333C31.8333 26.0972 31.2361 25.5 30.5 25.5C29.7639 25.5 29.1667 26.0972 29.1667 26.8333V30.8983C29.1667 31.3588 29.4036 31.7873 29.7953 32.0306L32.3958 33.6487L32.396 33.6488C33.0193 34.0364 33.8407 33.8479 34.2306 33.2242L34.2307 33.2241C34.6211 32.5991 34.431 31.7741 33.8039 31.3845ZM37.6967 27.3333H38.5642L38.1293 26.5827C36.6334 24.0007 33.9766 22.3538 31 22.1873V22.1667H30.5C25.6289 22.1667 21.6667 26.1289 21.6667 31C21.6667 35.8711 25.6289 39.8333 30.5 39.8333C30.7125 39.8333 30.9222 39.8254 31.1288 39.8114L31.1288 39.8115L31.1388 39.8106C31.3114 39.7954 31.4726 39.9266 31.4863 40.1195L31.4863 40.1204C31.4996 40.3031 31.362 40.4624 31.178 40.4754L31.1763 40.4755C30.9535 40.4921 30.7284 40.5 30.5 40.5C25.262 40.5 21 36.238 21 31C21 25.7775 25.2367 21.5253 30.4534 21.5001C30.4599 21.501 30.4666 21.5018 30.4736 21.5025L30.4978 21.5049L30.5222 21.505C33.739 21.5121 36.6715 23.114 38.4162 25.754L39.3333 27.1418V25.4783V23.5C39.3333 23.3161 39.4828 23.1667 39.6667 23.1667C39.8505 23.1667 40 23.3161 40 23.5V26.8333C40 27.478 39.478 28 38.8333 28H35.5C35.3161 28 35.1667 27.8505 35.1667 27.6667C35.1667 27.4828 35.3161 27.3333 35.5 27.3333H37.6967ZM39.2529 32.2011L39.2529 32.2009C39.3068 31.8059 39.3342 31.4016 39.3342 31C39.3342 30.8153 39.4828 30.6667 39.6675 30.6667C39.8515 30.6667 40 30.8147 40 31C40 31.4316 39.9707 31.8666 39.9137 32.2911C39.8912 32.457 39.7486 32.5792 39.5842 32.5792C39.5695 32.5792 39.554 32.5782 39.5367 32.576C39.3553 32.5509 39.2279 32.3834 39.2529 32.2011ZM38.8377 35.5542L38.7629 35.6902C38.5762 36.0179 38.3673 36.3384 38.142 36.6446C38.0774 36.7317 37.9774 36.7792 37.8725 36.7792C37.804 36.7792 37.7354 36.7587 37.6744 36.7143C37.5263 36.6034 37.4963 36.3946 37.6047 36.2479C37.8434 35.9255 38.0624 35.5847 38.2538 35.2339C38.343 35.0714 38.5453 35.0139 38.7036 35.1016L38.705 35.1023C38.8676 35.1917 38.9256 35.3941 38.8377 35.5542ZM30.5 24.8333C31.5431 24.8333 32.5246 25.0935 33.3857 25.5513C32.8415 26.0898 32.5 26.8345 32.5 27.6667C32.5 29.3236 33.843 30.6667 35.5 30.6667H36.6555C36.6627 30.7781 36.6667 30.8891 36.6667 31C36.6667 34.4055 33.9055 37.1667 30.5 37.1667C27.0945 37.1667 24.3333 34.4055 24.3333 31C24.3333 27.5945 27.0945 24.8333 30.5 24.8333Z" stroke="#105CE2"/>
</g>
<defs>
<filter id="filter0_d_1954_2149" x="0" y="0" width="63" height="63" filterUnits="userSpaceOnUse" color-interpolation-filters="sRGB">
<feFlood flood-opacity="0" result="BackgroundImageFix"/>
<feColorMatrix in="SourceAlpha" type="matrix" values="0 0 0 0 0 0 0 0 0 0 0 0 0 0 0 0 0 0 127 0" result="hardAlpha"/>
<feOffset dx="1" dy="1"/>
<feGaussianBlur stdDeviation="2"/>
<feComposite in2="hardAlpha" operator="out"/>
<feColorMatrix type="matrix" values="0 0 0 0 0.634145 0 0 0 0 0.621121 0 0 0 0 0.621121 0 0 0 0.03 0"/>
<feBlend mode="normal" in2="BackgroundImageFix" result="effect1_dropShadow_1954_2149"/>
<feBlend mode="normal" in="SourceGraphic" in2="effect1_dropShadow_1954_2149" result="shape"/>
</filter>
<clipPath id="clip0_1954_2149">
<rect width="20" height="20" fill="white" transform="translate(20.5 21)"/>
</clipPath>
</defs>
</svg>
