<svg width="30" height="30" viewBox="0 0 30 30" fill="none" xmlns="http://www.w3.org/2000/svg">
<rect width="30" height="30" rx="15" fill="#2A94F4" fill-opacity="0.05"/>
<g clip-path="url(#clip0_2884_3918)">
<path d="M19.1187 12.9839H16.347L16.3557 12.9818L18.173 12.5445L18.5612 12.4511L18.4685 12.0628L18.0308 10.2288L17.9371 9.83644L17.5456 9.93335L15.7116 10.3873L15.3224 10.4836L15.4196 10.8726L15.8741 12.6899L15.9476 12.9839H12.8461C11.1407 12.9839 9.75384 14.3707 9.75384 16.0762V16.2876C9.66649 16.1648 9.60263 16.0264 9.56592 15.8795C9.56586 15.8793 9.5658 15.879 9.56574 15.8788L8.53982 11.69L8.53977 11.6898C8.38089 11.0426 8.78549 10.3825 9.44118 10.2218C9.44124 10.2218 9.44129 10.2218 9.44134 10.2218L16.7607 8.4385L16.7626 8.43803C16.8568 8.41459 16.9316 8.40177 17.0015 8.39894C17.2812 8.38822 17.5557 8.47421 17.7796 8.64263C18.0033 8.8109 18.1621 9.05108 18.2294 9.32273C18.2295 9.32297 18.2295 9.32321 18.2296 9.32345L19.1187 12.9839ZM21.1417 17.0146H21.5417V16.6146V16.0762C21.5417 15.4401 21.0207 14.9191 20.3846 14.9191H12.8461C12.2101 14.9191 11.6891 15.4401 11.6891 16.0762V16.6146V17.0146H12.0891H21.1417ZM12.0891 17.83H11.6891V18.23L11.6891 20.3839L11.6891 20.3861C11.6908 20.6919 11.813 20.9846 12.0292 21.2008C12.2454 21.417 12.5381 21.5392 12.8439 21.5409H12.8461H20.3846C21.0207 21.5409 21.5417 21.0199 21.5417 20.3839V18.23V17.83H21.1417H12.0891ZM11.6308 16.0762C11.6308 15.4054 12.1754 14.8608 12.8461 14.8608H20.3846C21.0554 14.8608 21.6 15.4054 21.6 16.0762V20.3839C21.6 21.0546 21.0554 21.5992 20.3846 21.5992H12.8461C12.1754 21.5992 11.6308 21.0546 11.6308 20.3839V16.0762Z" stroke="#105CE2" stroke-width="0.8"/>
</g>
<defs>
<clipPath id="clip0_2884_3918">
<rect width="14" height="14" fill="white" transform="translate(8 8)"/>
</clipPath>
</defs>
</svg>
