<svg width="30" height="30" viewBox="0 0 30 30" fill="none" xmlns="http://www.w3.org/2000/svg">
<rect width="30" height="30" rx="15" fill="#2A94F4" fill-opacity="0.05"/>
<path d="M21.2672 14.1785C21.7741 14.1785 21.9858 13.5271 21.574 13.2269L15.3084 8.66926C15.2189 8.6037 15.1109 8.56836 15 8.56836C14.8891 8.56836 14.781 8.6037 14.6915 8.66926L8.426 13.2269C8.0142 13.5255 8.22584 14.1785 8.73443 14.1785H9.74998V20.3144H8.56873C8.49654 20.3144 8.43748 20.3735 8.43748 20.4457V21.2988C8.43748 21.371 8.49654 21.43 8.56873 21.43H21.4312C21.5034 21.43 21.5625 21.371 21.5625 21.2988V20.4457C21.5625 20.3735 21.5034 20.3144 21.4312 20.3144H20.25V14.1785H21.2672ZM15 9.8259L19.4477 13.0612H10.5522L15 9.8259ZM10.9312 14.1785H12.8508V20.3144H10.9312V14.1785ZM14.032 14.1785H15.9515V20.3144H14.032V14.1785ZM19.0687 20.3144H17.1328V14.1785H19.0687V20.3144Z" fill="#105CE2"/>
</svg>
