<svg width="16" height="15" viewBox="0 0 16 15" fill="none" xmlns="http://www.w3.org/2000/svg">
<path d="M10.9167 14.5H12.9583C13.4998 14.5 14.0191 14.2849 14.402 13.902C14.7849 13.5191 15 12.9998 15 12.4583V10.4167M15 4.58333V2.54167C15 2.00018 14.7849 1.48088 14.402 1.09799C14.0191 0.715104 13.4998 0.5 12.9583 0.5H10.9167M5.08333 14.5H3.04167C2.50018 14.5 1.98088 14.2849 1.59799 13.902C1.2151 13.5191 1 12.9998 1 12.4583V10.4167M1 4.58333V2.54167C1 2.00018 1.2151 1.48088 1.59799 1.09799C1.98088 0.715104 2.50018 0.5 3.04167 0.5H5.08333" stroke="white" stroke-linecap="round" stroke-linejoin="round"/>
</svg>
