<svg width="55" height="55" viewBox="0 0 55 55" fill="none" xmlns="http://www.w3.org/2000/svg">
<rect width="55" height="55" rx="27.5" fill="#105CE2" fill-opacity="0.06"/>
<rect x="2" y="2.5" width="50" height="50" rx="25" fill="#105CE2" fill-opacity="0.1"/>
<path fill-rule="evenodd" clip-rule="evenodd" d="M36.6 27.5C36.6 30.0461 35.5886 32.4879 33.7882 34.2882C31.9879 36.0886 29.5461 37.1 27 37.1C24.4539 37.1 22.0121 36.0886 20.2118 34.2882C18.4115 32.4879 17.4 30.0461 17.4 27.5C17.4 24.9539 18.4115 22.5121 20.2118 20.7118C22.0121 18.9114 24.4539 17.9 27 17.9C29.5461 17.9 31.9879 18.9114 33.7882 20.7118C35.5886 22.5121 36.6 24.9539 36.6 27.5ZM28.2 32.3C28.2 32.6183 28.0736 32.9235 27.8486 33.1485C27.6235 33.3736 27.3183 33.5 27 33.5C26.6818 33.5 26.3765 33.3736 26.1515 33.1485C25.9265 32.9235 25.8 32.6183 25.8 32.3C25.8 31.9817 25.9265 31.6765 26.1515 31.4515C26.3765 31.2264 26.6818 31.1 27 31.1C27.3183 31.1 27.6235 31.2264 27.8486 31.4515C28.0736 31.6765 28.2 31.9817 28.2 32.3ZM27 21.5C26.6818 21.5 26.3765 21.6264 26.1515 21.8515C25.9265 22.0765 25.8 22.3817 25.8 22.7V27.5C25.8 27.8183 25.9265 28.1235 26.1515 28.3485C26.3765 28.5736 26.6818 28.7 27 28.7C27.3183 28.7 27.6235 28.5736 27.8486 28.3485C28.0736 28.1235 28.2 27.8183 28.2 27.5V22.7C28.2 22.3817 28.0736 22.0765 27.8486 21.8515C27.6235 21.6264 27.3183 21.5 27 21.5Z" fill="#105CE2"/>
</svg>
