<svg width="16" height="16" viewBox="0 0 16 16" fill="none" xmlns="http://www.w3.org/2000/svg">
<g clip-path="url(#clip0_552_10809)">
<path d="M10.5361 2.43751C10.4835 2.37171 10.4881 2.27557 10.5493 2.21513L10.5494 2.21504L12.0187 0.763714L12.0202 0.762188C12.3693 0.414379 12.9411 0.412791 13.2944 0.764851L13.2944 0.764875L13.2986 0.768919L14.7832 2.21425L14.7835 2.21448C14.8488 2.27798 14.851 2.38341 14.7869 2.45009C14.7543 2.48326 14.712 2.49999 14.6673 2.49999C14.6243 2.49999 14.5843 2.48455 14.5525 2.45343L14.5514 2.45232L13.6827 1.60698L12.834 0.781075V1.96532V5.99999C12.834 6.09217 12.7595 6.16665 12.6673 6.16665C12.5751 6.16665 12.5007 6.09217 12.5007 5.99999V1.95332V0.756727L11.6493 1.59758L10.7852 2.45106C10.7851 2.45115 10.785 2.45125 10.7849 2.45134C10.7183 2.51667 10.6137 2.5159 10.548 2.44957L10.5361 2.43751ZM0.861707 4.61593L0.867726 4.60523L0.873213 4.59426C0.87925 4.58219 0.883194 4.57586 0.884959 4.57325L0.892633 4.56189L0.899672 4.55013C1.3961 3.72086 2.30224 3.16665 3.33333 3.16665H8C8.0922 3.16665 8.16667 3.24114 8.16667 3.33332C8.16667 3.4255 8.0922 3.49999 8 3.49999H3.33333C2.59358 3.49999 1.92731 3.82327 1.4706 4.33404L1.17198 4.66802L1.4713 5.00137C1.93994 5.52328 2.61645 5.83332 3.33333 5.83332H10.1667V5.99999C10.1667 7.37879 11.2879 8.49999 12.6667 8.49999C13.921 8.49999 14.9622 7.57203 15.1399 6.36635C15.3647 6.62728 15.5 6.96499 15.5 7.33332V14C15.5 14.8265 14.8265 15.5 14 15.5H3.33333C1.77148 15.5 0.5 14.2285 0.5 12.6667V5.99999C0.5 5.49687 0.631384 5.02508 0.861707 4.61593ZM13.8333 10.6667C13.8333 9.83851 13.1615 9.16665 12.3333 9.16665C11.5052 9.16665 10.8333 9.83851 10.8333 10.6667C10.8333 11.4948 11.5052 12.1667 12.3333 12.1667C13.1615 12.1667 13.8333 11.4948 13.8333 10.6667Z" stroke="white"/>
</g>
<defs>
<clipPath id="clip0_552_10809">
<rect width="16" height="16" fill="white"/>
</clipPath>
</defs>
</svg>
