<svg width="41" height="40" viewBox="0 0 41 40" fill="none" xmlns="http://www.w3.org/2000/svg">
<rect x="1.23828" y="0.25" width="39.5" height="39.5" rx="19.75" fill="#105CE2" fill-opacity="0.1"/>
<rect x="1.23828" y="0.25" width="39.5" height="39.5" rx="19.75" stroke="#EBEBEB" stroke-width="0.5"/>
<path d="M24.1524 20.9272C24.2055 21.0316 24.2751 21.1281 24.3595 21.2125C24.5705 21.4235 24.8567 21.542 25.155 21.542C25.4534 21.542 25.7395 21.4235 25.9505 21.2125C26.1615 21.0015 26.28 20.7154 26.28 20.417V18.3337C26.28 18.0353 26.1615 17.7491 25.9505 17.5382C25.7395 17.3272 25.4534 17.2087 25.155 17.2087H23.0717C22.7733 17.2087 22.4872 17.3272 22.2762 17.5382C22.0652 17.7491 21.9467 18.0353 21.9467 18.3337C21.9467 18.7712 22.1967 19.1506 22.5617 19.3366L21.8217 20.0766L20.7061 18.9609L20.706 18.9608C20.3387 18.5939 19.8408 18.3877 19.3217 18.3877C18.8026 18.3877 18.3047 18.5939 17.9374 18.9608L17.9373 18.9609L16.0318 20.8665C15.9247 20.9681 15.8386 21.0898 15.7785 21.2247C15.717 21.3627 15.6839 21.5117 15.6813 21.6627C15.6786 21.8138 15.7064 21.9638 15.763 22.1039C15.8196 22.244 15.9038 22.3713 16.0106 22.4781C16.1174 22.5849 16.2447 22.6691 16.3848 22.7257C16.5249 22.7823 16.6749 22.8101 16.8259 22.8074C16.977 22.8047 17.126 22.7717 17.264 22.7102C17.3989 22.6501 17.5206 22.564 17.6222 22.4569L19.3217 20.7574L20.4373 21.873L20.4374 21.8732C20.8047 22.2401 21.3026 22.4463 21.8217 22.4463C22.3408 22.4463 22.8387 22.2401 23.206 21.8732L23.206 21.8731L24.1524 20.9272ZM19.5282 20.5509C19.528 20.5511 19.5279 20.5512 19.5277 20.5514L19.5282 20.5509ZM27.7476 26.759L27.7472 26.7594C27.2456 27.2613 26.5727 27.5404 25.4936 27.6855C24.4001 27.8326 22.9667 27.8337 20.9884 27.8337C19.0101 27.8337 17.5769 27.8326 16.4833 27.6855C15.4044 27.5404 14.7311 27.2614 14.2286 26.7593C13.727 26.2577 13.4481 25.5848 13.3031 24.5056C13.1561 23.4121 13.155 21.9786 13.155 20.0003C13.155 18.022 13.1561 16.5888 13.3031 15.4953C13.4481 14.4162 13.7269 13.7429 14.2287 13.2404C14.7307 12.7389 15.4039 12.4601 16.483 12.315C17.5766 12.1681 19.0101 12.167 20.9884 12.167C22.9667 12.167 24.4003 12.1681 25.4939 12.315C26.5733 12.4601 27.2461 12.739 27.7472 13.2404L27.7473 13.2405C28.2494 13.7426 28.5284 14.4158 28.6736 15.495C28.8206 16.5886 28.8217 18.022 28.8217 20.0003C28.8217 21.9786 28.8206 23.4123 28.6736 24.5059C28.5284 25.5851 28.2494 26.2579 27.7476 26.759Z" stroke="#105CE2"/>
</svg>
