<svg width="41" height="40" viewBox="0 0 41 40" fill="none" xmlns="http://www.w3.org/2000/svg">
<rect x="1.23828" y="0.25" width="39.5" height="39.5" rx="19.75" fill="#105CE2" fill-opacity="0.1"/>
<rect x="1.23828" y="0.25" width="39.5" height="39.5" rx="19.75" stroke="#EBEBEB" stroke-width="0.5"/>
<g clip-path="url(#clip0_561_11114)">
<path d="M23.5244 14.4375C23.4718 14.3717 23.4763 14.2756 23.5376 14.2151L23.5376 14.2151L25.007 12.7637L25.0085 12.7622C25.3576 12.4144 25.9294 12.4128 26.2827 12.7649L26.2827 12.7649L26.2868 12.7689L27.7715 14.2143L27.7717 14.2145C27.8371 14.278 27.8393 14.3834 27.7751 14.4501C27.7425 14.4833 27.7003 14.5 27.6556 14.5C27.6125 14.5 27.5726 14.4846 27.5408 14.4534L27.5397 14.4523L26.671 13.607L25.8223 12.7811V13.9653V18C25.8223 18.0922 25.7478 18.1667 25.6556 18.1667C25.5634 18.1667 25.4889 18.0922 25.4889 18V13.9533V12.7567L24.6376 13.5976L23.7735 14.4511C23.7734 14.4512 23.7733 14.4513 23.7732 14.4514C23.7065 14.5167 23.602 14.5159 23.5363 14.4496L23.5244 14.4375ZM13.85 16.6159L13.856 16.6052L13.8615 16.5943C13.8675 16.5822 13.8715 16.5759 13.8732 16.5733L13.8809 16.5619L13.888 16.5501C14.3844 15.7209 15.2905 15.1667 16.3216 15.1667H20.9883C21.0805 15.1667 21.1549 15.2412 21.1549 15.3333C21.1549 15.4255 21.0805 15.5 20.9883 15.5H16.3216C15.5819 15.5 14.9156 15.8233 14.4589 16.3341L14.1603 16.668L14.4596 17.0014C14.9282 17.5233 15.6047 17.8333 16.3216 17.8333H23.1549V18C23.1549 19.3788 24.2761 20.5 25.6549 20.5C26.9093 20.5 27.9505 19.572 28.1282 18.3664C28.353 18.6273 28.4883 18.965 28.4883 19.3333V26C28.4883 26.8265 27.8148 27.5 26.9883 27.5H16.3216C14.7598 27.5 13.4883 26.2285 13.4883 24.6667V18C13.4883 17.4969 13.6197 17.0251 13.85 16.6159ZM26.8216 22.6667C26.8216 21.8385 26.1498 21.1667 25.3216 21.1667C24.4935 21.1667 23.8216 21.8385 23.8216 22.6667C23.8216 23.4948 24.4935 24.1667 25.3216 24.1667C26.1498 24.1667 26.8216 23.4948 26.8216 22.6667Z" stroke="#105CE2"/>
</g>
<defs>
<clipPath id="clip0_561_11114">
<rect width="16" height="16" fill="white" transform="translate(12.9883 12)"/>
</clipPath>
</defs>
</svg>
