<svg width="14" height="16" viewBox="0 0 14 16" fill="none" xmlns="http://www.w3.org/2000/svg">
<path d="M11.3417 15.5C10.7894 15.5 10.3208 15.3069 9.93583 14.9208C9.55139 14.5342 9.35917 14.0647 9.35917 13.5125C9.35917 13.4292 9.39583 13.2189 9.46917 12.8817L3.47167 9.32083C3.29167 9.52861 3.07139 9.69167 2.81083 9.81C2.55028 9.92833 2.27056 9.9875 1.97167 9.9875C1.42389 9.9875 0.958333 9.7925 0.575 9.4025C0.191667 9.0125 0 8.545 0 8C0 7.455 0.191667 6.9875 0.575 6.5975C0.958333 6.2075 1.42389 6.0125 1.97167 6.0125C2.27 6.0125 2.54972 6.07167 2.81083 6.19C3.07194 6.30833 3.29222 6.47167 3.47167 6.68L9.47 3.13417C9.43111 3.02639 9.40306 2.91944 9.38583 2.81333C9.36806 2.70667 9.35917 2.59778 9.35917 2.48667C9.35917 1.935 9.55278 1.46583 9.94 1.07917C10.3272 0.693056 10.7972 0.5 11.35 0.5C11.9028 0.5 12.3717 0.693611 12.7567 1.08083C13.1417 1.46806 13.3339 1.93806 13.3333 2.49083C13.3328 3.04361 13.1397 3.5125 12.7542 3.8975C12.3686 4.2825 11.8992 4.47472 11.3458 4.47417C11.0447 4.47417 10.7669 4.4125 10.5125 4.28917C10.2581 4.16583 10.0414 4 9.8625 3.79167L3.86333 7.3525C3.90222 7.46028 3.93028 7.5675 3.9475 7.67417C3.96528 7.78028 3.97417 7.88889 3.97417 8C3.97417 8.11111 3.96528 8.21972 3.9475 8.32583C3.92972 8.43194 3.90194 8.53917 3.86417 8.6475L9.8625 12.2083C10.0419 12 10.2586 11.8342 10.5125 11.7108C10.7669 11.5875 11.0447 11.5258 11.3458 11.5258C11.8981 11.5258 12.3675 11.7192 12.7542 12.1058C13.1403 12.4936 13.3333 12.9639 13.3333 13.5167C13.3333 14.0694 13.1397 14.5383 12.7525 14.9233C12.3653 15.3083 11.8944 15.5006 11.3417 15.5ZM11.3458 14.6667C11.6731 14.6667 11.9472 14.5561 12.1683 14.335C12.3894 14.1139 12.5 13.84 12.5 13.5133C12.5 13.1867 12.3894 12.9125 12.1683 12.6908C11.9472 12.4692 11.6733 12.3586 11.3467 12.3592C11.02 12.3597 10.7458 12.4703 10.5242 12.6908C10.3025 12.9114 10.1919 13.1853 10.1925 13.5125C10.1931 13.8397 10.3036 14.1139 10.5242 14.335C10.7447 14.5561 11.0181 14.6667 11.3458 14.6667ZM1.97167 9.15333C2.30278 9.15333 2.58056 9.04278 2.805 8.82167C3.02889 8.60056 3.14083 8.32667 3.14083 8C3.14083 7.67333 3.02889 7.39944 2.805 7.17833C2.58111 6.95722 2.30333 6.84667 1.97167 6.84667C1.64889 6.84667 1.37861 6.95722 1.16083 7.17833C0.943056 7.39944 0.833889 7.67333 0.833333 8C0.832778 8.32667 0.941945 8.60083 1.16083 8.8225C1.37972 9.04417 1.65 9.15444 1.97167 9.15333ZM11.3467 3.64083C11.6733 3.64083 11.9472 3.53028 12.1683 3.30917C12.3894 3.08806 12.5 2.81389 12.5 2.48667C12.5 2.15944 12.3894 1.88556 12.1683 1.665C11.9472 1.44444 11.6733 1.33389 11.3467 1.33333C11.02 1.33278 10.7458 1.44333 10.5242 1.665C10.3025 1.88667 10.1919 2.16083 10.1925 2.4875C10.1931 2.81417 10.3036 3.08806 10.5242 3.30917C10.7447 3.53028 11.0189 3.64083 11.3467 3.64083Z" fill="white"/>
</svg>
