<svg width="21" height="20" viewBox="0 0 21 20" fill="none" xmlns="http://www.w3.org/2000/svg">
<path d="M10.5167 14.9993C11.9056 14.9993 13.0789 14.5105 14.0367 13.5327C14.9945 12.5549 15.4822 11.3716 15.5 9.98268V5.51352C15.5 5.36352 15.452 5.24046 15.3559 5.14435C15.2597 5.04824 15.137 4.9999 14.9875 4.99935H10.5159C9.12697 5.01602 7.94363 5.50379 6.96585 6.46268C5.98808 7.42157 5.49946 8.5949 5.50002 9.98268C5.50058 11.3705 5.98835 12.5538 6.96335 13.5327C7.9378 14.5105 9.12196 14.9993 10.5159 14.9993M9.69002 13.0077L12.8884 10.1443C12.9928 10.051 13.0225 9.94129 12.9775 9.81518C12.9331 9.68907 12.8381 9.61213 12.6925 9.58435L10.1892 9.35685L11.7084 7.27852C11.7395 7.23018 11.7531 7.1774 11.7492 7.12018C11.7453 7.06296 11.7264 7.01213 11.6925 6.96768C11.637 6.90879 11.5745 6.88213 11.505 6.88768C11.4356 6.89324 11.3722 6.91935 11.315 6.96602L8.14835 9.81852C8.04391 9.91129 8.01141 10.0235 8.05085 10.1552C8.09085 10.2863 8.18335 10.3657 8.32835 10.3935L10.8317 10.621L9.32335 12.6993C9.2928 12.7477 9.28002 12.8005 9.28502 12.8577C9.29002 12.9149 9.31252 12.966 9.35252 13.011C9.39252 13.056 9.44419 13.0782 9.50752 13.0777C9.57085 13.0771 9.63169 13.0538 9.69002 13.0077ZM10.5159 15.8327C9.78085 15.8327 9.08835 15.7057 8.43835 15.4518C7.78835 15.198 7.2053 14.8491 6.68919 14.4052L5.38252 15.711C5.34141 15.7516 5.29474 15.7821 5.24252 15.8027C5.19085 15.8227 5.13724 15.8327 5.08169 15.8327C4.96391 15.8327 4.8653 15.7924 4.78585 15.7118C4.70641 15.6318 4.66669 15.5324 4.66669 15.4135C4.66669 15.358 4.67669 15.3046 4.69669 15.2535C4.71724 15.203 4.7478 15.1574 4.78835 15.1168L6.09419 13.8102C5.64974 13.2941 5.30085 12.711 5.04752 12.061C4.79419 11.411 4.66724 10.7185 4.66669 9.98352C4.66669 8.35963 5.23502 6.98407 6.37169 5.85685C7.50835 4.72963 8.89002 4.16602 10.5167 4.16602H14.9884C15.3584 4.16602 15.675 4.29796 15.9384 4.56185C16.2017 4.82574 16.3334 5.1424 16.3334 5.51185V9.98352C16.3334 11.6096 15.7697 12.991 14.6425 14.1277C13.5153 15.2643 12.14 15.8327 10.5167 15.8327" fill="white"/>
</svg>
