<svg width="160" height="43" viewBox="0 0 160 43" fill="none" xmlns="http://www.w3.org/2000/svg">
<path d="M80.9097 10.6455L75.8056 30.2263H70.0324L66.9091 17.3417L63.6747 30.2263H57.9015L52.9375 10.6455H58.0416L60.8582 24.8974L64.3438 10.6455H69.5881L72.9362 24.8974L75.7818 10.6455H80.915H80.9097Z" fill="#00153A"/>
<path d="M87.9656 10.4785C87.9656 11.2031 87.7011 11.8141 87.1696 12.306C86.6406 12.7979 85.9663 13.0438 85.1464 13.0438C84.3266 13.0438 83.6258 12.7979 83.0968 12.306C82.5679 11.8141 82.3008 11.2031 82.3008 10.4785M87.516 14.6623V30.226H82.7478V14.6623H87.516Z" fill="#00153A"/>
<path d="M97.28 15.2336C98.1157 14.7417 99.0466 14.4931 100.07 14.4931V19.5417H98.7583C97.5682 19.5417 96.6744 19.7982 96.082 20.3086C95.4869 20.819 95.1907 21.7182 95.1907 23.0008V30.226H90.4225V14.6623H95.1907V17.2567C95.7487 16.4025 96.4469 15.7281 97.2826 15.2362L97.28 15.2336Z" fill="#00153A"/>
<path d="M116.387 23.5879H105.595C105.669 24.5559 105.981 25.2937 106.528 25.8041C107.076 26.3146 107.75 26.5711 108.551 26.5711C109.741 26.5711 110.569 26.0686 111.035 25.0636H116.11C115.851 26.0871 115.38 27.0074 114.7 27.8246C114.02 28.6445 113.172 29.2845 112.148 29.7499C111.125 30.2154 109.982 30.4481 108.718 30.4481C107.192 30.4481 105.835 30.1228 104.645 29.4722C103.455 28.8217 102.524 27.8908 101.855 26.6822C101.186 25.4736 100.85 24.0613 100.85 22.4428C100.85 20.8243 101.181 19.4121 101.839 18.2035C102.5 16.9949 103.423 16.0666 104.614 15.4134C105.804 14.7628 107.171 14.4375 108.713 14.4375C110.255 14.4375 111.558 14.7549 112.73 15.387C113.901 16.019 114.817 16.9208 115.478 18.0924C116.139 19.264 116.467 20.6313 116.467 22.1916C116.467 22.6385 116.44 23.104 116.382 23.5853L116.387 23.5879ZM111.59 20.938C111.59 20.1208 111.312 19.4703 110.754 18.9863C110.196 18.5023 109.498 18.2617 108.662 18.2617C107.827 18.2617 107.189 18.4944 106.639 18.9598C106.092 19.4253 105.751 20.0865 105.621 20.9407H111.59V20.938Z" fill="#00153A"/>
<path d="M142.897 16.2521C144.04 17.4237 144.613 19.0501 144.613 21.1341V30.2263H139.872V21.7741C139.872 20.7691 139.607 19.9943 139.076 19.4442C138.547 18.8968 137.817 18.6217 136.886 18.6217C135.955 18.6217 135.228 18.8968 134.696 19.4442C134.167 19.9916 133.9 20.7691 133.9 21.7741V30.2263H129.158V21.7741C129.158 20.7691 128.894 19.9943 128.362 19.4442C127.833 18.8968 127.103 18.6217 126.173 18.6217C125.242 18.6217 124.512 18.8968 123.983 19.4442C123.454 19.9916 123.187 20.7691 123.187 21.7741V30.2263H118.418V14.6627H123.187V16.6144C123.671 15.9639 124.303 15.4482 125.083 15.0673C125.863 14.6865 126.746 14.4961 127.733 14.4961C128.904 14.4961 129.949 14.7473 130.869 15.2498C131.79 15.7523 132.509 16.469 133.03 17.3973C133.57 16.543 134.302 15.8449 135.233 15.3053C136.161 14.7658 137.177 14.4961 138.274 14.4961C140.208 14.4961 141.747 15.0806 142.889 16.2521H142.897Z" fill="#00153A"/>
<path d="M152.616 10.4785C152.616 11.2031 152.352 11.8141 151.82 12.306C151.291 12.7979 150.617 13.0438 149.797 13.0438C148.977 13.0438 148.276 12.7979 147.747 12.306C147.218 11.8141 146.951 11.2031 146.951 10.4785M152.167 14.6623V30.226H147.398V14.6623H152.167Z" fill="#00153A"/>
<path d="M27.565 21.0088L34.7663 8.54199H46.2705C47.6113 8.54199 48.447 9.99389 47.7753 11.1549L36.4589 30.7066C35.7263 31.9734 33.8963 31.9708 33.1637 30.7066L27.5624 21.0114L27.565 21.0088Z" fill="#2A94F4"/>
<path d="M8.8622 8.5417H20.3663L27.5676 21.0085L21.969 30.7037C21.2364 31.9705 19.409 31.9731 18.6738 30.7037L7.3574 11.152C6.68567 9.99096 7.52137 8.53906 8.8622 8.53906V8.5417Z" fill="#105CE2"/>
</svg>
