<svg width="18" height="64" viewBox="0 0 18 64" fill="none" xmlns="http://www.w3.org/2000/svg">
<g clip-path="url(#clip0_2322_3260)">
<path d="M4.93555 31.6549L12.4152 33.6628V35.934L7.49341 37.1627L12.4152 38.4352V40.7063L4.93555 42.6592V40.6512L10.3796 39.5432L4.93555 38.1719V36.1088L10.3796 34.7917L4.93555 33.6722V31.6528V31.6549Z" fill="white"/>
<path d="M4.87207 28.8789C5.14887 28.8789 5.38223 28.9829 5.57013 29.192C5.75803 29.4001 5.85198 29.6654 5.85198 29.988C5.85198 30.3105 5.75803 30.5862 5.57013 30.7943C5.38223 31.0023 5.14887 31.1074 4.87207 31.1074M6.47023 29.0558H12.4153V30.9316H6.47023V29.0558Z" fill="white"/>
<path d="M6.68814 25.2143C6.50024 24.8856 6.40527 24.5194 6.40527 24.1167H8.33378V24.6328C8.33378 25.1009 8.43177 25.4526 8.62674 25.6857C8.82171 25.9197 9.16518 26.0363 9.65514 26.0363H12.415V27.9121H6.46993V26.0363H7.46095C7.13465 25.8167 6.87704 25.5421 6.68914 25.2133L6.68814 25.2143Z" fill="white"/>
<path d="M9.87913 17.6982V21.9441C10.2489 21.9149 10.5307 21.7922 10.7257 21.5768C10.9207 21.3614 11.0187 21.0961 11.0187 20.7809C11.0187 20.3127 10.8267 19.9871 10.4428 19.804V17.8074C10.8338 17.9094 11.1853 18.0946 11.4975 18.362C11.8107 18.6294 12.0551 18.9633 12.2329 19.366C12.4107 19.7686 12.4996 20.218 12.4996 20.7154C12.4996 21.3157 12.3754 21.8494 12.1269 22.3176C11.8783 22.7858 11.5228 23.152 11.0611 23.4152C10.5994 23.6784 10.06 23.8105 9.44171 23.8105C8.82346 23.8105 8.284 23.6805 7.82233 23.4214C7.36067 23.1613 7.00608 22.7982 6.75656 22.3301C6.50805 21.8619 6.38379 21.324 6.38379 20.7174C6.38379 20.1109 6.50501 19.598 6.74646 19.1371C6.9879 18.6762 7.33238 18.3162 7.77991 18.0561C8.22743 17.796 8.74971 17.667 9.34574 17.667C9.51647 17.667 9.69426 17.6774 9.87812 17.7003L9.87913 17.6982ZM8.8669 19.5855C8.55474 19.5855 8.30623 19.6947 8.12136 19.9143C7.93649 20.1338 7.84456 20.4084 7.84456 20.7372C7.84456 21.066 7.93346 21.3167 8.11126 21.5331C8.28905 21.7485 8.54161 21.8827 8.86791 21.9337V19.5855H8.8669Z" fill="white"/>
<path d="M7.07801 7.2685C7.52554 6.81905 8.14682 6.59328 8.94287 6.59328H12.416V8.45872H9.18734C8.80346 8.45872 8.50746 8.56276 8.29734 8.77188C8.08822 8.97996 7.98316 9.26711 7.98316 9.63333C7.98316 9.99955 8.08822 10.2857 8.29734 10.4948C8.50645 10.7029 8.80346 10.8079 9.18734 10.8079H12.416V12.6734H9.18734C8.80346 12.6734 8.50746 12.7774 8.29734 12.9865C8.08822 13.1946 7.98316 13.4818 7.98316 13.848C7.98316 14.2142 8.08822 14.5014 8.29734 14.7094C8.50645 14.9175 8.80346 15.0226 9.18734 15.0226H12.416V16.8984H6.47087V15.0226H7.21641C6.9679 14.8322 6.7709 14.5836 6.62543 14.2766C6.47996 13.9697 6.40723 13.6222 6.40723 13.2342C6.40723 12.7733 6.5032 12.3623 6.69514 12.0002C6.88708 11.6382 7.16085 11.3552 7.51543 11.1502C7.18913 10.938 6.92244 10.6498 6.71635 10.2836C6.51027 9.9184 6.40723 9.51889 6.40723 9.08712C6.40723 8.32659 6.63049 7.72108 7.07801 7.27163V7.2685Z" fill="white"/>
<path d="M4.87207 3.44529C5.14887 3.44529 5.38223 3.54933 5.57013 3.75845C5.75803 3.96653 5.85198 4.23183 5.85198 4.55436C5.85198 4.87688 5.75803 5.15259 5.57013 5.36067C5.38223 5.56875 5.14887 5.67383 4.87207 5.67383M6.47023 3.62216L12.4153 3.62216V5.498L6.47023 5.498V3.62216Z" fill="white"/>
<path d="M8.89497 52.6406L4.13281 49.8076L4.13281 45.2818C4.13281 44.7543 4.68742 44.4256 5.13091 44.6898L12.5994 49.1417C13.0833 49.4299 13.0823 50.1498 12.5994 50.438L8.89598 52.6416L8.89497 52.6406Z" fill="white"/>
<path d="M4.13284 59.9984V55.4726L8.895 52.6396L12.5984 54.8421C13.0823 55.1303 13.0834 55.8492 12.5984 56.1385L5.12993 60.5903C4.68644 60.8546 4.13184 60.5258 4.13184 59.9984H4.13284Z" fill="white"/>
</g>
<defs>
<clipPath id="clip0_2322_3260">
<rect width="62.9442" height="16.3655" fill="white" transform="matrix(0 -1 1 0 0.870117 63.4844)"/>
</clipPath>
</defs>
</svg>
