<svg width="16" height="16" viewBox="0 0 16 16" fill="none" xmlns="http://www.w3.org/2000/svg">
<path opacity="0.3" fill-rule="evenodd" clip-rule="evenodd" d="M7.05731 1.39968C7.29331 1.16399 7.60906 1.02531 7.94228 1.011C8.27549 0.996679 8.60198 1.10777 8.85731 1.32234L8.94265 1.40034L10.2093 2.66634H12C12.3362 2.6664 12.6601 2.79352 12.9066 3.02223C13.1531 3.25094 13.3041 3.56435 13.3293 3.89968L13.3333 3.99968V5.79034L14.6 7.05701C14.8358 7.29304 14.9746 7.60892 14.989 7.9423C15.0033 8.27567 14.8921 8.6023 14.6773 8.85768L14.5993 8.94234L13.3326 10.209V11.9997C13.3328 12.3361 13.2057 12.6601 12.977 12.9067C12.7483 13.1534 12.4348 13.3044 12.0993 13.3297L12 13.333H10.21L8.94331 14.5997C8.70729 14.8355 8.3914 14.9743 8.05803 14.9887C7.72465 15.003 7.39803 14.8918 7.14265 14.677L7.05798 14.5997L5.79131 13.333H3.99998C3.6636 13.3331 3.3396 13.2061 3.09295 12.9773C2.84629 12.7486 2.69521 12.4351 2.66998 12.0997L2.66665 11.9997V10.209L1.39998 8.94234C1.16411 8.70632 1.02531 8.39043 1.01099 8.05705C0.996677 7.72368 1.10788 7.39706 1.32265 7.14168L1.39998 7.05701L2.66665 5.79034V3.99968C2.66671 3.66341 2.79383 3.33958 3.02254 3.09307C3.25125 2.84655 3.56466 2.69556 3.89998 2.67034L3.99998 2.66634H5.79065L7.05731 1.39968Z" fill="#00A85A"/>
<path fill-rule="evenodd" clip-rule="evenodd" d="M10.0529 5.9889L7.22354 8.81823L6.04487 7.63957C5.91978 7.51456 5.75015 7.44437 5.5733 7.44443C5.39646 7.44449 5.22688 7.51481 5.10187 7.6399C4.97687 7.76499 4.90668 7.93462 4.90674 8.11147C4.9068 8.28832 4.97711 8.45789 5.10221 8.5829L6.70487 10.1856C6.77297 10.2537 6.85383 10.3077 6.94283 10.3446C7.03182 10.3815 7.12721 10.4005 7.22354 10.4005C7.31987 10.4005 7.41526 10.3815 7.50425 10.3446C7.59325 10.3077 7.67411 10.2537 7.74221 10.1856L10.9955 6.93157C11.117 6.80583 11.1842 6.63743 11.1827 6.46263C11.1811 6.28783 11.111 6.12063 10.9874 5.99702C10.8638 5.87341 10.6966 5.8033 10.5218 5.80178C10.347 5.80026 10.1786 5.86746 10.0529 5.9889Z" fill="#00A85A"/>
</svg>
