<svg width="60" height="60" viewBox="0 0 60 60" fill="none" xmlns="http://www.w3.org/2000/svg">
<rect width="60" height="60" rx="30" fill="url(#paint0_linear_4628_14782)"/>
<path d="M31.5625 23.4392V37.031C31.5625 37.117 31.6328 37.1873 31.7188 37.1873H32.8906C32.9766 37.1873 33.0469 37.117 33.0469 37.031V25.2107L36.6211 28.0291C36.7227 28.1092 36.875 28.0369 36.875 27.906V26.49C36.875 26.3943 36.832 26.3045 36.7559 26.2439L32.5742 22.9471C32.1641 22.6248 31.5625 22.9158 31.5625 23.4392ZM26.9531 22.9685V34.7888L23.3789 31.9705C23.2773 31.8904 23.125 31.9627 23.125 32.0935V33.5096C23.125 33.6053 23.168 33.6951 23.2441 33.7556L27.4258 37.0525C27.8359 37.3748 28.4375 37.0838 28.4375 36.5623V22.9685C28.4375 22.8826 28.3672 22.8123 28.2812 22.8123H27.1094C27.0234 22.8123 26.9531 22.8826 26.9531 22.9685Z" fill="white"/>
<defs>
<linearGradient id="paint0_linear_4628_14782" x1="6" y1="65" x2="60" y2="42" gradientUnits="userSpaceOnUse">
<stop stop-color="#105CE2"/>
<stop offset="1" stop-color="#2A94F4"/>
</linearGradient>
</defs>
</svg>
