<svg width="72" height="70" viewBox="0 0 72 70" fill="none" xmlns="http://www.w3.org/2000/svg">
<g filter="url(#filter0_d_2591_5612)">
<rect x="3" y="2" width="66" height="65" rx="32.5" fill="white" shape-rendering="crispEdges"/>
<path d="M43.5 28.25V36.375C43.5 36.7065 43.3683 37.0245 43.1339 37.2589C42.8995 37.4933 42.5815 37.625 42.25 37.625H34.75V38.875C34.7501 38.9987 34.7135 39.1196 34.6448 39.2225C34.5762 39.3254 34.4785 39.4055 34.3642 39.4529C34.25 39.5002 34.1242 39.5126 34.0029 39.4885C33.8816 39.4643 33.7702 39.4047 33.6828 39.3172L31.8078 37.4422C31.7497 37.3841 31.7036 37.3152 31.6722 37.2393C31.6407 37.1635 31.6245 37.0821 31.6245 37C31.6245 36.9179 31.6407 36.8365 31.6722 36.7607C31.7036 36.6848 31.7497 36.6159 31.8078 36.5578L33.6828 34.6828C33.7702 34.5953 33.8816 34.5357 34.0029 34.5115C34.1242 34.4874 34.25 34.4998 34.3642 34.5471C34.4785 34.5945 34.5762 34.6746 34.6448 34.7775C34.7135 34.8804 34.7501 35.0013 34.75 35.125V36.375H42.25V28.25H33.5V28.875C33.5 29.0408 33.4342 29.1997 33.3169 29.3169C33.1997 29.4342 33.0408 29.5 32.875 29.5C32.7092 29.5 32.5503 29.4342 32.4331 29.3169C32.3158 29.1997 32.25 29.0408 32.25 28.875V28.25C32.25 27.9185 32.3817 27.6005 32.6161 27.3661C32.8505 27.1317 33.1685 27 33.5 27H42.25C42.5815 27 42.8995 27.1317 43.1339 27.3661C43.3683 27.6005 43.5 27.9185 43.5 28.25ZM39.125 39.5C38.9592 39.5 38.8003 39.5658 38.6831 39.6831C38.5658 39.8003 38.5 39.9592 38.5 40.125V40.75H29.75V32.625H37.25V33.875C37.2499 33.9987 37.2865 34.1196 37.3552 34.2225C37.4238 34.3254 37.5215 34.4055 37.6358 34.4529C37.75 34.5002 37.8758 34.5126 37.9971 34.4885C38.1184 34.4643 38.2298 34.4047 38.3172 34.3172L40.1922 32.4422C40.2503 32.3841 40.2964 32.3152 40.3279 32.2393C40.3593 32.1635 40.3755 32.0821 40.3755 32C40.3755 31.9179 40.3593 31.8365 40.3279 31.7607C40.2964 31.6848 40.2503 31.6159 40.1922 31.5578L38.3172 29.6828C38.2298 29.5953 38.1184 29.5357 37.9971 29.5115C37.8758 29.4874 37.75 29.4998 37.6358 29.5471C37.5215 29.5945 37.4238 29.6746 37.3552 29.7775C37.2865 29.8804 37.2499 30.0013 37.25 30.125V31.375H29.75C29.4185 31.375 29.1005 31.5067 28.8661 31.7411C28.6317 31.9755 28.5 32.2935 28.5 32.625V40.75C28.5 41.0815 28.6317 41.3995 28.8661 41.6339C29.1005 41.8683 29.4185 42 29.75 42H38.5C38.8315 42 39.1495 41.8683 39.3839 41.6339C39.6183 41.3995 39.75 41.0815 39.75 40.75V40.125C39.75 39.9592 39.6842 39.8003 39.5669 39.6831C39.4497 39.5658 39.2908 39.5 39.125 39.5Z" fill="#105CE2"/>
</g>
<defs>
<filter id="filter0_d_2591_5612" x="0.678571" y="0.258929" width="70.6429" height="69.6429" filterUnits="userSpaceOnUse" color-interpolation-filters="sRGB">
<feFlood flood-opacity="0" result="BackgroundImageFix"/>
<feColorMatrix in="SourceAlpha" type="matrix" values="0 0 0 0 0 0 0 0 0 0 0 0 0 0 0 0 0 0 127 0" result="hardAlpha"/>
<feMorphology radius="1.16071" operator="dilate" in="SourceAlpha" result="effect1_dropShadow_2591_5612"/>
<feOffset dy="0.580357"/>
<feGaussianBlur stdDeviation="0.580357"/>
<feComposite in2="hardAlpha" operator="out"/>
<feColorMatrix type="matrix" values="0 0 0 0 0.0392157 0 0 0 0 0.0392157 0 0 0 0 0.0392157 0 0 0 0.16 0"/>
<feBlend mode="normal" in2="BackgroundImageFix" result="effect1_dropShadow_2591_5612"/>
<feBlend mode="normal" in="SourceGraphic" in2="effect1_dropShadow_2591_5612" result="shape"/>
</filter>
</defs>
</svg>
