<svg width="28" height="29" viewBox="0 0 28 29" fill="none" xmlns="http://www.w3.org/2000/svg">
<g clip-path="url(#clip0_1091_16120)">
<path d="M10.7586 2.22803H1.88037V11.1063H10.7586V2.22803ZM9.27891 9.62657H3.36008V3.70773H9.27891V9.62657Z" fill="#8D9095"/>
<path d="M4.83979 5.1875H7.7992V8.14692H4.83979V5.1875ZM1.88037 25.9034H10.7586V17.0252H1.88037V25.9034ZM3.36008 18.5049H9.27891V24.4237H3.36008V18.5049Z" fill="#8D9095"/>
<path d="M4.83984 19.9845H7.79926V22.9439H4.83984V19.9845ZM16.6775 2.22803V11.1063H25.5557V2.22803H16.6775ZM24.076 9.62657H18.1572V3.70773H24.076V9.62657Z" fill="#8D9095"/>
<path d="M19.6369 5.18744H22.5963V8.14686H19.6369V5.18744ZM4.83979 12.586H1.88037V15.5454H6.31949V14.0657H4.83979V12.586ZM12.2383 15.5454H15.1977V18.5048H12.2383V15.5454ZM6.31949 12.586H9.27891V14.0657H6.31949V12.586ZM15.1977 19.9845H12.2383V21.4642H13.718V22.9439H15.1977V21.4642V19.9845ZM10.7586 12.586V14.0657H9.27891V15.5454H12.2383V12.586H10.7586ZM13.718 8.14686H15.1977V11.1063H13.718V8.14686ZM15.1977 14.0657V15.5454H18.1572V12.586H13.718V14.0657H15.1977ZM12.2383 11.1063H13.718V12.586H12.2383V11.1063ZM15.1977 22.9439H18.1572V25.9033H15.1977V22.9439ZM12.2383 22.9439H13.718V25.9033H12.2383V22.9439ZM15.1977 18.5048H16.6774V19.9845H15.1977V18.5048ZM15.1977 6.66715V3.70773H13.718V2.22803H12.2383V8.14686H13.718V6.66715H15.1977ZM19.6369 22.9439H21.1166V25.9033H19.6369V22.9439ZM19.6369 19.9845H22.5963V21.4642H19.6369V19.9845ZM18.1572 21.4642H19.6369V22.9439H18.1572V21.4642ZM16.6774 19.9845H18.1572V21.4642H16.6774V19.9845ZM22.5963 17.0251V18.5048H24.076V19.9845H25.5557V17.0251H24.076H22.5963ZM24.076 21.4642H22.5963V25.9033H25.5557V22.9439H24.076V21.4642ZM16.6774 17.0251V18.5048H21.1166V15.5454H18.1572V17.0251H16.6774ZM19.6369 12.586V14.0657H22.5963V15.5454H25.5557V12.586H22.5963H19.6369Z" fill="#8D9095"/>
</g>
<path fill-rule="evenodd" clip-rule="evenodd" d="M27.3742 4.45976V2.089C27.3742 0.935277 26.4389 0 25.2852 0H23.6753L23.8486 0.2089H25.2852C26.3236 0.2089 27.1653 1.05065 27.1653 2.089V4.20789L27.3742 4.45976Z" fill="#8D9095"/>
<path fill-rule="evenodd" clip-rule="evenodd" d="M27.3742 23.6755V26.0463C27.3742 27.2 26.4389 28.1353 25.2852 28.1353H23.6753L23.8486 27.9264H25.2852C26.3236 27.9264 27.1653 27.0846 27.1653 26.0463V23.9274L27.3742 23.6755Z" fill="#8D9095"/>
<path fill-rule="evenodd" clip-rule="evenodd" d="M-0.000244856 23.6755V26.0463C-0.000244856 27.2 0.935031 28.1353 2.08875 28.1353H3.7832L3.60598 27.9264H2.08875C1.0504 27.9264 0.208656 27.0846 0.208656 26.0463V23.9218L-0.000244856 23.6755Z" fill="#8D9095"/>
<path fill-rule="evenodd" clip-rule="evenodd" d="M-0.000208378 4.45977V2.089C-0.000208378 0.935277 0.935069 0 2.08879 0H3.69873L3.52547 0.2089H2.08879C1.05044 0.2089 0.208692 1.05065 0.208692 2.089V4.2079L-0.000208378 4.45977Z" fill="#8D9095"/>
<defs>
<clipPath id="clip0_1091_16120">
<rect width="23.6753" height="23.6753" fill="white" transform="translate(1.88037 2.22803)"/>
</clipPath>
</defs>
</svg>
