<svg width="16" height="16" viewBox="0 0 16 16" fill="none" xmlns="http://www.w3.org/2000/svg">
<path d="M14.25 0.5H1.75C1.41848 0.5 1.10054 0.631696 0.866117 0.866117C0.631696 1.10054 0.5 1.41848 0.5 1.75V14.25C0.5 14.5815 0.631696 14.8995 0.866117 15.1339C1.10054 15.3683 1.41848 15.5 1.75 15.5H14.25C14.5815 15.5 14.8995 15.3683 15.1339 15.1339C15.3683 14.8995 15.5 14.5815 15.5 14.25V1.75C15.5 1.41848 15.3683 1.10054 15.1339 0.866117C14.8995 0.631696 14.5815 0.5 14.25 0.5Z" stroke="#00091E" stroke-linecap="round" stroke-linejoin="round"/>
<path d="M6.75004 10.9167L8.83337 12.5833L12.1667 8.41667M3.83337 4.25H12.1667M3.83337 7.58333H7.16671" stroke="#00091E" stroke-linecap="round" stroke-linejoin="round"/>
</svg>
