<svg width="40" height="41" viewBox="0 0 40 41" fill="none" xmlns="http://www.w3.org/2000/svg">
<rect y="0.5" width="40" height="40" rx="20" fill="white"/>
<g clip-path="url(#clip0_13054_12036)">
<path fill-rule="evenodd" clip-rule="evenodd" d="M26.7554 25.4088L26.7611 25.4005V25.6919C26.6874 25.7918 26.6477 25.8251 26.5797 25.8251C26.5004 25.8251 26.4437 25.7835 26.4437 25.6503C26.4437 25.4504 26.5911 25.4005 26.6704 25.4005C26.6817 25.4005 26.7271 25.4088 26.7554 25.4088ZM18.4484 25.4088C18.4541 25.4171 18.4597 25.4171 18.4654 25.4005V25.6836C18.4031 25.7918 18.3351 25.8251 18.2784 25.8251C18.2047 25.8251 18.1481 25.7918 18.1481 25.6586C18.1481 25.4587 18.2841 25.4005 18.3691 25.4005C18.3804 25.4005 18.4201 25.4005 18.4484 25.4088ZM17.7231 25.4837C17.7231 25.7585 17.5814 25.7918 17.4568 25.7918C17.4454 25.7918 17.3888 25.7918 17.3604 25.7835V25.1923C17.3944 25.2006 17.4511 25.1923 17.4681 25.1923C17.6098 25.1923 17.7231 25.2339 17.7231 25.4837ZM16.4028 25.0924V25.7252C16.3631 25.7918 16.2951 25.8168 16.2611 25.8168C16.0685 25.8168 16.0175 25.6169 16.0175 25.4088C16.0175 25.2172 16.0855 24.9841 16.2555 24.9841C16.3008 24.9841 16.3631 25.0008 16.4028 25.0924ZM15.4848 24.9924C15.5302 25.0008 15.6208 25.1423 15.6208 25.2173V25.2589H15.2015V25.2339C15.2355 25.059 15.3149 24.9841 15.4168 24.9841C15.4282 24.9841 15.4622 24.9841 15.4848 24.9924ZM21.9106 25.3921C21.9106 25.5587 21.8766 25.8168 21.7009 25.8168C21.5196 25.8168 21.5026 25.5503 21.5026 25.4005C21.5026 25.2506 21.5309 24.9758 21.7066 24.9758C21.8823 24.9758 21.9106 25.2339 21.9106 25.3921ZM25.3784 24.8259V25.975H25.2425V24.9924H25.1348V24.8259H25.3784ZM14.2836 24.8259V25.975H14.1419V24.9924H14.0343V24.8259H14.2836ZM23.6502 25.4754H23.3499L23.5086 24.8176L23.6502 25.4754ZM26.7838 24.8592C26.8574 24.9008 26.9084 25.109 26.9084 25.2006V25.7419C26.9141 25.7918 26.9254 25.8501 26.9707 25.8917V25.9917H26.9027C26.8574 25.975 26.7894 25.9167 26.7781 25.8501C26.7384 25.95 26.5911 26 26.5288 26C26.3871 26 26.3021 25.8251 26.3021 25.6503C26.3021 25.3422 26.5288 25.2339 26.6648 25.2339C26.6761 25.2339 26.7271 25.2506 26.7611 25.2589C26.7668 25.2506 26.7668 25.2339 26.7668 25.2173C26.7668 25.0341 26.6704 24.9841 26.5911 24.9841C26.5344 24.9841 26.4494 25.0091 26.4041 25.084C26.3814 25.0341 26.3418 24.9425 26.3418 24.9175C26.3418 24.9008 26.3928 24.8592 26.4154 24.8509C26.4381 24.8342 26.4721 24.8176 26.5118 24.8092C26.5288 24.8009 26.5741 24.8009 26.5854 24.8009C26.6478 24.8009 26.7271 24.8259 26.7838 24.8592ZM26.1888 24.9175C26.1718 24.9591 26.1491 25.0091 26.1264 25.059C26.0471 24.9924 26.0074 24.9758 25.9395 24.9758C25.7411 24.9758 25.6958 25.2256 25.6958 25.4088C25.6958 25.6503 25.7751 25.8251 25.9451 25.8251C26.0018 25.8251 26.0868 25.7752 26.1378 25.7169L26.1944 25.8834C26.1491 25.9417 25.9904 26 25.9168 26C25.7695 26 25.6051 25.8668 25.5541 25.5587C25.5541 25.542 25.5485 25.5087 25.5485 25.492V25.3338C25.5711 24.9425 25.7638 24.8009 25.9451 24.8009C26.0188 24.8009 26.1208 24.8509 26.1888 24.9175ZM25.0725 24.8176L25.0215 25.0174C24.9932 25.0008 24.9365 24.9758 24.9252 24.9758C24.8345 24.9758 24.7438 25.1257 24.7438 25.2422V25.975H24.6022V24.8259H24.7438C24.7438 24.8759 24.7438 24.9341 24.7495 24.9841C24.7948 24.8425 24.8968 24.8009 24.9648 24.8009C24.9818 24.8009 25.0385 24.8092 25.0725 24.8176ZM22.6869 24.8342C22.6699 24.9008 22.6529 24.9591 22.6359 25.0174C22.6076 25.0008 22.5509 24.9758 22.5396 24.9758C22.4489 24.9758 22.3583 25.1257 22.3583 25.2422V25.975H22.2166V24.8259H22.3583C22.3583 24.8759 22.3583 24.9341 22.3639 24.9841C22.4093 24.8425 22.5113 24.8009 22.5793 24.8009C22.6132 24.8009 22.6869 24.8342 22.6869 24.8342ZM22.0579 25.3921C22.0579 25.6836 21.9729 26 21.7066 26C21.446 26 21.3496 25.6836 21.3496 25.3921C21.3496 25.084 21.4686 24.8009 21.7066 24.8009C21.9786 24.8009 22.0579 25.109 22.0579 25.3921ZM19.2587 24.8092C19.355 24.8092 19.4457 25.0174 19.4457 25.1423V25.975H19.3097V25.2173C19.304 25.0424 19.2361 24.9758 19.1511 24.9758C19.1341 24.9758 19.1227 24.9674 19.1171 24.9758C19.0831 24.9841 18.9641 25.059 18.9641 25.1257V25.975H18.8281V24.8259H18.9244C18.9357 24.8675 18.9527 24.9175 18.9641 24.9591C19.0207 24.8425 19.1114 24.8009 19.1907 24.8009C19.2021 24.8009 19.2361 24.8092 19.2587 24.8092ZM18.5787 25.0257C18.5844 25.0674 18.6071 25.134 18.6071 25.159V25.7002C18.6184 25.7502 18.6127 25.8418 18.6694 25.8917V25.9917H18.6071C18.5674 25.9833 18.4937 25.9334 18.4824 25.8501C18.4484 25.95 18.2841 26 18.2274 26C18.0914 26 18.0008 25.8251 18.0008 25.6503C18.0008 25.3422 18.2274 25.2339 18.3634 25.2339C18.3748 25.2339 18.4314 25.2506 18.4654 25.2589C18.4711 25.2506 18.4711 25.2506 18.4711 25.2256C18.4711 25.059 18.3918 24.9841 18.2954 24.9841C18.2274 24.9841 18.1708 25.0008 18.1084 25.084C18.0801 25.059 18.0518 24.9591 18.0404 24.9175C18.0971 24.8509 18.2104 24.8009 18.2898 24.8009C18.3691 24.8009 18.5391 24.8342 18.5787 25.0257ZM15.7625 25.2922C15.7625 25.3089 15.7625 25.3755 15.7569 25.4171H15.1902V25.4837C15.2015 25.7169 15.3205 25.8251 15.4395 25.8251C15.5019 25.8251 15.5585 25.8001 15.6322 25.7252C15.6549 25.7668 15.6719 25.8168 15.6945 25.8668C15.6549 25.9417 15.4792 26 15.4112 26C15.1619 26 15.0429 25.7002 15.0429 25.4088C15.0429 25.1007 15.1732 24.8009 15.4112 24.8009C15.6209 24.8009 15.7625 24.9758 15.7625 25.2922ZM13.7453 24.8342C13.7623 24.8425 13.8076 24.9092 13.8246 24.9425C13.8303 24.9425 13.8756 25.109 13.8756 25.1423V25.975H13.7396V25.2173C13.7169 25.0257 13.6716 24.9758 13.5809 24.9758C13.5186 24.9758 13.4563 25.0091 13.3939 25.1257V25.975H13.258V24.8259H13.3543C13.3656 24.8675 13.3826 24.9175 13.3939 24.9591C13.4506 24.8425 13.5413 24.8009 13.6206 24.8009C13.6319 24.8009 13.7056 24.8092 13.7453 24.8342ZM17.6664 24.7843C17.6664 25.0008 17.5418 25.0257 17.4454 25.0257H17.3605V24.5761H17.4511C17.5361 24.5761 17.6664 24.5761 17.6664 24.7843ZM14.6916 24.8259H14.9069V24.9841H14.6916V25.6336C14.7199 25.7835 14.7596 25.8251 14.8276 25.8251C14.8446 25.8251 14.9069 25.8001 14.9409 25.7835C14.9466 25.8418 14.9579 25.9084 14.9636 25.9667C14.9012 25.9834 14.7879 26 14.7709 26C14.6519 26 14.5499 25.8335 14.5499 25.6752V24.9841H14.4592V24.8259H14.5499V24.5844C14.5952 24.5594 14.6462 24.5261 14.6916 24.5095L14.6916 24.8259ZM12.442 24.4012V25.4671C12.4646 25.7169 12.5553 25.8085 12.6686 25.8085C12.765 25.8085 12.8556 25.7419 12.901 25.5503V24.4012H13.0483V25.5753C13.0143 25.9251 12.816 26 12.6686 26C12.5496 26 12.391 25.95 12.323 25.7252C12.3117 25.6752 12.3003 25.592 12.3003 25.5753V24.4012H12.442ZM25.4011 24.5095C25.4011 24.5927 25.3671 24.6427 25.3161 24.6427C25.2595 24.6427 25.2311 24.5677 25.2311 24.5178C25.2311 24.4345 25.2595 24.3929 25.3161 24.3929C25.3671 24.3929 25.4011 24.4345 25.4011 24.5095ZM14.3063 24.5095C14.3063 24.5927 14.2553 24.6427 14.2156 24.6427C14.1589 24.6427 14.1306 24.5677 14.1306 24.5178C14.1306 24.4345 14.1759 24.3929 14.2156 24.3929C14.2666 24.3929 14.3063 24.4345 14.3063 24.5095ZM17.8194 24.7676C17.8194 24.8842 17.7798 25.0008 17.6665 25.084L17.6608 25.1007C17.8251 25.1506 17.8874 25.3338 17.8874 25.517C17.8874 25.5337 17.8761 25.6086 17.8704 25.6503C17.8534 25.8335 17.6551 25.975 17.5588 25.975H17.2075V24.3846H17.4738C17.6268 24.3846 17.8194 24.4512 17.8194 24.7676ZM23.5312 24.3762L23.9392 25.975H23.7749C23.7522 25.8668 23.7239 25.7502 23.6955 25.6419H23.3102C23.2762 25.7502 23.2479 25.8668 23.2252 25.975H23.0609C23.2026 25.4421 23.3499 24.9092 23.4916 24.3762H23.5312ZM24.5002 24.3846C24.4945 24.4012 24.4605 24.5344 24.4549 24.5344C24.4379 24.5344 24.3982 24.5178 24.3812 24.5178C24.2792 24.5178 24.2339 24.651 24.2339 24.7676C24.2339 24.7843 24.2395 24.8009 24.2395 24.8259H24.3982V24.9924H24.2395V25.975H24.1035V24.9924H23.9902V24.8259H24.1035C24.0979 24.5511 24.1942 24.3512 24.3699 24.3512C24.3812 24.3512 24.4549 24.3679 24.5002 24.3846ZM21.31 24.3846L21.276 24.5344C21.2533 24.5261 21.2136 24.5178 21.1966 24.5178C21.1343 24.5178 21.0493 24.6094 21.0493 24.7093V24.8259H21.2136V24.9924H21.0493V25.975H20.9133V24.9924H20.8V24.8259H20.9133C20.9133 24.5428 21.0097 24.3512 21.1796 24.3512C21.1966 24.3512 21.2703 24.3679 21.31 24.3846ZM19.7857 24.3512V25.3422L20.0804 24.8259H20.2447L20.001 25.2589L20.3013 25.975H20.1484L19.9047 25.4005C19.8707 25.4587 19.8254 25.5254 19.7857 25.5837V25.975H19.644V24.3512L19.7857 24.3512ZM16.5445 24.3512V25.975H16.4085C16.4085 25.95 16.4085 25.9251 16.4028 25.9001C16.3348 25.975 16.2668 25.9917 16.1988 25.9917C15.9495 25.9917 15.8645 25.6836 15.8645 25.4254C15.8645 25.1673 15.9835 24.8009 16.2272 24.8009C16.2668 24.8009 16.3632 24.8259 16.4085 24.8759V24.3513L16.5445 24.3512ZM17.2528 20.4209C17.5871 20.5291 17.7344 20.8039 17.7344 21.187C17.7344 21.2036 17.7288 21.3618 17.7118 21.4451C17.6948 21.5284 17.6636 21.6019 17.6098 21.7033C17.4424 22.0183 17.1225 22.2695 16.9241 22.2695H16.3575C16.4482 21.6616 16.5275 21.0371 16.6182 20.4376C16.6182 20.4209 16.6238 20.4126 16.6352 20.4042L17.0658 20.3876C17.0771 20.3876 17.1905 20.4042 17.2528 20.4209ZM21.0096 21.1204H19.984L20.732 19.4383L21.0096 21.1204ZM17.8308 18.9304C17.8308 18.947 17.8081 19.1052 17.8024 19.1885C17.7911 19.3634 17.6834 19.6215 17.5248 19.7631C17.4681 19.813 17.2358 20.0129 17.2018 20.0129H16.6975C16.7145 19.8796 16.7315 19.7381 16.7485 19.6049C16.7598 19.5216 16.7768 19.43 16.7825 19.3467C16.7938 19.2635 16.8108 19.1718 16.8165 19.0886C16.8278 19.0053 16.8448 18.9137 16.8505 18.8304C16.8618 18.7472 16.8665 18.7014 16.8788 18.5723C16.8911 18.4238 16.8835 18.4183 16.9411 18.4224L17.3661 18.4058C17.5475 18.4058 17.8308 18.5473 17.8308 18.9304ZM21.1966 17.7479L22.0466 22.8857H21.2816L21.1456 21.8781H19.6667L19.2134 22.8857H18.5787L20.9473 17.7479H21.1966ZM17.8138 17.7479C18.3238 17.8312 18.5617 18.1809 18.5617 18.7638C18.5617 19.3884 18.2671 19.8547 17.7514 20.1045C17.7571 20.1128 17.7684 20.1128 17.7741 20.1128C18.1538 20.1961 18.4258 20.5208 18.4258 21.0288C18.4258 21.8365 18.0858 22.5859 17.3491 22.8274C17.3151 22.8357 17.0885 22.9023 17.0091 22.9023H15.5642L16.2952 17.7479L17.8138 17.7479ZM13.2069 17.7479C13.1503 18.1893 13.088 18.6056 13.0313 19.022C12.986 19.3301 12.9406 19.6548 12.901 19.9712C12.8443 20.4376 12.7536 20.8872 12.7536 21.3535C12.7536 21.8615 12.867 22.3195 13.3146 22.3195C13.7453 22.3195 14.1702 21.9031 14.3062 21.0537C14.4819 19.9546 14.6292 18.8471 14.7879 17.7479H15.4339V17.7729C15.2525 18.9803 15.0825 20.1877 14.8955 21.3868C14.7964 21.7657 14.7525 21.8261 14.6746 21.978C14.3346 22.6692 13.8813 22.894 13.4903 22.9606C13.4449 22.969 13.3656 22.9856 13.3486 22.9856H13.003C12.935 22.9773 12.8613 22.9606 12.799 22.944C12.7366 22.9273 12.6686 22.9023 12.6063 22.8774C12.17 22.7191 12 22.103 12 21.645V21.4451C12.0057 21.3868 12.0057 21.3202 12.0113 21.2536C12.1757 20.0878 12.34 18.9137 12.5043 17.7479L13.2069 17.7479ZM24.9535 22.8524C24.8628 22.869 24.6871 22.9023 24.6701 22.9023H23.2592L24.2112 16.3323C24.7098 17.7646 25.2084 19.2135 25.7014 20.6624C25.7864 20.9788 25.8658 21.3202 25.8658 21.645C25.8658 22.3694 25.5201 22.7191 24.9535 22.8524ZM26.9821 21.57C26.6931 20.7456 26.4041 19.913 26.1207 19.0886C25.9621 18.6306 25.8034 18.156 25.6448 17.7063C25.5938 17.5481 25.5371 17.4065 25.4918 17.2566C25.4408 17.0901 25.3274 16.5822 25.3274 16.3407V16.1658C25.3331 16.0825 25.3388 15.9826 25.3558 15.9077C25.5258 15.1166 26.1547 15.0416 26.5287 15L27.9397 15L26.9821 21.57Z" fill="url(#paint0_linear_13054_12036)"/>
</g>
<defs>
<linearGradient id="paint0_linear_13054_12036" x1="808.984" y1="15" x2="808.984" y2="1115" gradientUnits="userSpaceOnUse">
<stop stop-color="#ED1500"/>
<stop offset="1" stop-color="#D70900"/>
</linearGradient>
<clipPath id="clip0_13054_12036">
<rect width="16" height="11" fill="white" transform="translate(12 15)"/>
</clipPath>
</defs>
</svg>
