<svg width="98" height="30" viewBox="0 0 98 30" fill="none" xmlns="http://www.w3.org/2000/svg">
<rect width="98" height="30" rx="2" fill="#2A94F4"/>
<path d="M31.844 19.12C31.148 19.12 30.548 18.988 30.044 18.724C29.54 18.452 29.148 18.072 28.868 17.584C28.596 17.088 28.46 16.504 28.46 15.832V10.12H29.636V15.832C29.636 16.448 29.816 16.964 30.176 17.38C30.544 17.796 31.1 18.004 31.844 18.004C32.596 18.004 33.152 17.796 33.512 17.38C33.88 16.964 34.064 16.448 34.064 15.832V10.12H35.24V15.832C35.24 16.504 35.1 17.088 34.82 17.584C34.548 18.072 34.16 18.452 33.656 18.724C33.152 18.988 32.548 19.12 31.844 19.12ZM37.1553 21.352V12.64H38.2953V13.648H38.3673C38.4633 13.496 38.5913 13.332 38.7513 13.156C38.9193 12.98 39.1393 12.832 39.4113 12.712C39.6833 12.584 40.0193 12.52 40.4193 12.52C40.8993 12.52 41.3193 12.616 41.6793 12.808C42.0393 12.992 42.3393 13.244 42.5793 13.564C42.8193 13.876 42.9993 14.228 43.1193 14.62C43.2393 15.012 43.2993 15.412 43.2993 15.82C43.2993 16.228 43.2393 16.628 43.1193 17.02C42.9993 17.412 42.8193 17.768 42.5793 18.088C42.3393 18.4 42.0393 18.652 41.6793 18.844C41.3193 19.028 40.8993 19.12 40.4193 19.12C40.0193 19.12 39.6833 19.056 39.4113 18.928C39.1393 18.8 38.9193 18.648 38.7513 18.472C38.5913 18.296 38.4633 18.136 38.3673 17.992H38.2953V21.352H37.1553ZM38.3193 15.82C38.3193 16.204 38.3873 16.576 38.5233 16.936C38.6673 17.288 38.8793 17.58 39.1593 17.812C39.4473 18.036 39.8033 18.148 40.2273 18.148C40.6593 18.148 41.0153 18.036 41.2953 17.812C41.5833 17.58 41.7953 17.288 41.9313 16.936C42.0753 16.576 42.1473 16.204 42.1473 15.82C42.1473 15.428 42.0753 15.056 41.9313 14.704C41.7953 14.352 41.5833 14.064 41.2953 13.84C41.0153 13.608 40.6593 13.492 40.2273 13.492C39.8033 13.492 39.4473 13.608 39.1593 13.84C38.8793 14.064 38.6673 14.352 38.5233 14.704C38.3873 15.056 38.3193 15.428 38.3193 15.82ZM44.9834 19L44.9954 9.88H46.1234V19H44.9834ZM50.934 19.12C50.254 19.12 49.682 18.964 49.218 18.652C48.754 18.332 48.402 17.92 48.162 17.416C47.922 16.912 47.802 16.38 47.802 15.82C47.802 15.252 47.922 14.72 48.162 14.224C48.402 13.72 48.754 13.312 49.218 13C49.682 12.68 50.254 12.52 50.934 12.52C51.614 12.52 52.186 12.68 52.65 13C53.114 13.312 53.466 13.72 53.706 14.224C53.946 14.72 54.066 15.252 54.066 15.82C54.066 16.38 53.946 16.912 53.706 17.416C53.466 17.92 53.114 18.332 52.65 18.652C52.186 18.964 51.614 19.12 50.934 19.12ZM50.934 18.124C51.366 18.124 51.726 18.016 52.014 17.8C52.31 17.576 52.53 17.288 52.674 16.936C52.826 16.584 52.902 16.212 52.902 15.82C52.902 15.42 52.826 15.048 52.674 14.704C52.53 14.352 52.31 14.068 52.014 13.852C51.726 13.628 51.366 13.516 50.934 13.516C50.51 13.516 50.15 13.628 49.854 13.852C49.558 14.068 49.334 14.352 49.182 14.704C49.038 15.048 48.966 15.42 48.966 15.82C48.966 16.212 49.038 16.584 49.182 16.936C49.334 17.288 49.558 17.576 49.854 17.8C50.15 18.016 50.51 18.124 50.934 18.124ZM58.3227 12.52C58.7227 12.52 59.0587 12.584 59.3307 12.712C59.6027 12.84 59.8227 12.992 59.9907 13.168C60.1587 13.336 60.2867 13.496 60.3747 13.648H60.4467V12.64H61.5867V19H60.4467V17.992H60.3747C60.2867 18.144 60.1587 18.308 59.9907 18.484C59.8227 18.66 59.6027 18.812 59.3307 18.94C59.0587 19.06 58.7227 19.12 58.3227 19.12C57.8427 19.12 57.4227 19.028 57.0627 18.844C56.7027 18.652 56.4027 18.4 56.1627 18.088C55.9227 17.768 55.7427 17.412 55.6227 17.02C55.5027 16.628 55.4427 16.228 55.4427 15.82C55.4427 15.412 55.5027 15.012 55.6227 14.62C55.7427 14.228 55.9227 13.876 56.1627 13.564C56.4027 13.244 56.7027 12.992 57.0627 12.808C57.4227 12.616 57.8427 12.52 58.3227 12.52ZM58.5147 13.492C58.0907 13.492 57.7347 13.608 57.4467 13.84C57.1587 14.064 56.9427 14.352 56.7987 14.704C56.6627 15.056 56.5947 15.428 56.5947 15.82C56.5947 16.204 56.6627 16.576 56.7987 16.936C56.9427 17.288 57.1587 17.58 57.4467 17.812C57.7347 18.036 58.0907 18.148 58.5147 18.148C58.9387 18.148 59.2907 18.036 59.5707 17.812C59.8587 17.58 60.0707 17.288 60.2067 16.936C60.3507 16.576 60.4227 16.204 60.4227 15.82C60.4227 15.428 60.3507 15.056 60.2067 14.704C60.0707 14.352 59.8587 14.064 59.5707 13.84C59.2907 13.608 58.9387 13.492 58.5147 13.492ZM66.0219 19.12C65.5419 19.12 65.1219 19.028 64.7619 18.844C64.4019 18.652 64.1019 18.4 63.8619 18.088C63.6219 17.768 63.4419 17.412 63.3219 17.02C63.2019 16.628 63.1419 16.228 63.1419 15.82C63.1419 15.412 63.2019 15.012 63.3219 14.62C63.4419 14.228 63.6219 13.876 63.8619 13.564C64.1019 13.244 64.4019 12.992 64.7619 12.808C65.1219 12.616 65.5419 12.52 66.0219 12.52C66.4219 12.52 66.7579 12.584 67.0299 12.712C67.3019 12.84 67.5219 12.992 67.6899 13.168C67.8579 13.336 67.9859 13.496 68.0739 13.648H68.1459V9.88H69.2859V19H68.1459V17.992H68.0739C67.9859 18.144 67.8579 18.308 67.6899 18.484C67.5219 18.66 67.3019 18.812 67.0299 18.94C66.7579 19.06 66.4219 19.12 66.0219 19.12ZM66.2139 18.148C66.6379 18.148 66.9899 18.036 67.2699 17.812C67.5579 17.58 67.7699 17.288 67.9059 16.936C68.0499 16.576 68.1219 16.204 68.1219 15.82C68.1219 15.428 68.0499 15.056 67.9059 14.704C67.7699 14.352 67.5579 14.064 67.2699 13.84C66.9899 13.608 66.6379 13.492 66.2139 13.492C65.7899 13.492 65.4339 13.608 65.1459 13.84C64.8579 14.064 64.6419 14.352 64.4979 14.704C64.3619 15.056 64.2939 15.428 64.2939 15.82C64.2939 16.204 64.3619 16.576 64.4979 16.936C64.6419 17.288 64.8579 17.58 65.1459 17.812C65.4339 18.036 65.7899 18.148 66.2139 18.148Z" fill="white"/>
</svg>
