<svg width="378" height="461" viewBox="0 0 378 461" fill="none" xmlns="http://www.w3.org/2000/svg">
<g clip-path="url(#clip0_1149_17437)">
<g opacity="0.3" clip-path="url(#clip1_1149_17437)" filter="url(#filter0_f_1149_17437)">
<g filter="url(#filter1_bii_1149_17437)">
<rect width="12.0369" height="247.934" rx="6.01844" transform="matrix(0.209277 -0.977857 1 4.21697e-08 -16.0117 439.432)" fill="#171717"/>
<rect width="12.0369" height="247.934" rx="6.01844" transform="matrix(0.209277 -0.977857 1 4.21697e-08 -16.0117 439.432)" fill="url(#paint0_radial_1149_17437)"/>
</g>
<g clip-path="url(#clip2_1149_17437)">
<path d="M178.282 438.508L178.316 438.349C178.329 438.289 177.847 438.249 177.006 438.249C176.586 438.249 176.128 438.26 175.806 438.294C175.567 438.265 175.22 438.249 174.695 438.249C174.345 438.249 173.993 438.257 173.706 438.286L173.713 438.255L172.978 438.255L172.923 438.508L173.659 438.508L173.689 438.368C173.698 438.323 174.018 438.302 174.509 438.302C174.999 438.302 175.239 438.326 175.23 438.368L175.2 438.508L175.935 438.508L175.965 438.368C175.975 438.323 176.33 438.302 176.785 438.302C177.275 438.302 177.515 438.326 177.506 438.368L177.476 438.508L178.282 438.508ZM189.228 438.255L188.037 438.255L188.054 438.178L187.318 438.178L187.302 438.255L186.636 438.255L186.626 438.305L187.291 438.305L187.266 438.421C187.254 438.479 187.562 438.513 188.402 438.513C188.718 438.513 189.069 438.505 189.317 438.495L189.117 438.447C188.904 438.458 188.659 438.46 188.484 438.46C188.133 438.46 187.997 438.444 188.002 438.418L188.027 438.305L189.217 438.305L189.228 438.255ZM195.463 438.249C195.043 438.249 194.76 438.265 194.58 438.286L194.587 438.255L193.851 438.255L193.797 438.508L194.532 438.508L194.563 438.365C194.572 438.323 194.822 438.299 195.277 438.299C195.417 438.299 195.592 438.302 195.732 438.305L195.953 438.252C195.813 438.249 195.603 438.249 195.463 438.249M186.037 438.276C185.69 438.257 185.202 438.249 184.676 438.249C183.836 438.249 183.269 438.281 183.258 438.331C183.249 438.373 183.664 438.397 184.398 438.405L184.747 438.408C185.132 438.413 185.34 438.421 185.337 438.434C185.333 438.452 185.05 438.466 184.56 438.466C184.069 438.466 183.687 438.452 183.445 438.439L183.086 438.481C183.466 438.502 183.989 438.513 184.515 438.513C185.495 438.513 186.063 438.479 186.073 438.431C186.083 438.386 185.633 438.363 184.934 438.355L184.584 438.352C184.269 438.349 184.026 438.344 184.029 438.328C184.033 438.31 184.28 438.299 184.666 438.299C185.086 438.299 185.503 438.313 185.712 438.32L186.037 438.276ZM205.585 438.249C205.165 438.249 204.881 438.265 204.701 438.286L204.708 438.255L203.973 438.255L203.918 438.508L204.654 438.508L204.684 438.365C204.693 438.323 204.944 438.299 205.399 438.299C205.539 438.299 205.714 438.302 205.853 438.305L206.075 438.252C205.935 438.249 205.725 438.249 205.585 438.249ZM196.171 438.381C196.154 438.458 196.843 438.513 197.928 438.513C198.419 438.513 198.771 438.505 199.125 438.484L198.785 438.439C198.501 438.455 198.219 438.463 197.904 438.463C197.309 438.463 196.895 438.431 196.906 438.381C196.916 438.334 197.343 438.302 197.939 438.299C198.254 438.299 198.533 438.307 198.81 438.323L199.169 438.278C198.824 438.257 198.475 438.249 197.985 438.249C196.899 438.249 196.187 438.305 196.171 438.381ZM202.965 438.381L202.992 438.255L202.257 438.255L202.25 438.286C202.01 438.262 201.662 438.249 201.207 438.249C200.261 438.249 199.514 438.305 199.498 438.381C199.481 438.458 200.205 438.513 201.151 438.513C201.641 438.513 201.994 438.5 202.209 438.476L202.202 438.508L202.938 438.508L202.965 438.381ZM200.268 438.381C200.278 438.336 200.671 438.299 201.301 438.299C201.897 438.299 202.31 438.334 202.3 438.381C202.29 438.426 201.862 438.463 201.266 438.463C200.636 438.46 200.259 438.426 200.268 438.381ZM191.506 438.249C190.525 438.249 189.813 438.302 189.796 438.381C189.779 438.46 190.468 438.513 191.484 438.513C191.975 438.513 192.467 438.502 192.858 438.479L192.516 438.439C192.232 438.455 191.88 438.466 191.53 438.466C191.074 438.466 190.622 438.45 190.527 438.405L193.013 438.405L193.018 438.384C193.071 438.302 192.452 438.249 191.506 438.249ZM191.495 438.297C191.951 438.297 192.261 438.318 192.323 438.357L190.572 438.357C190.649 438.323 190.97 438.297 191.495 438.297ZM209.724 438.381L209.773 438.154L209.037 438.154L209.009 438.286C208.769 438.262 208.421 438.249 207.966 438.249C207.021 438.249 206.273 438.305 206.257 438.381C206.241 438.458 206.964 438.513 207.91 438.513C208.4 438.513 208.753 438.5 208.968 438.476L208.962 438.508L209.697 438.508L209.724 438.381ZM207.027 438.381C207.037 438.336 207.43 438.299 208.061 438.299C208.656 438.299 209.069 438.334 209.059 438.381C209.049 438.426 208.621 438.463 208.026 438.463C207.396 438.46 207.018 438.426 207.027 438.381ZM182.441 438.381L182.469 438.255L181.733 438.255L181.726 438.286C181.486 438.262 181.139 438.249 180.683 438.249C179.738 438.249 178.991 438.305 178.974 438.381C178.958 438.458 179.681 438.513 180.627 438.513C181.117 438.513 181.47 438.5 181.686 438.476L181.679 438.508L182.414 438.508L182.441 438.381ZM179.71 438.381C179.719 438.336 180.112 438.299 180.743 438.299C181.338 438.299 181.751 438.334 181.741 438.381C181.731 438.426 181.303 438.463 180.708 438.463C180.078 438.46 179.7 438.426 179.71 438.381Z" fill="white"/>
<path d="M186.207 436.332L197.239 436.332L196.92 437.825L185.888 437.825L186.207 436.332Z" fill="#FF5F00"/>
<path d="M186.748 437.078C186.813 436.775 188.762 436.506 191.706 436.332C189.597 436.205 186.916 436.129 183.975 436.129C177.005 436.129 171.275 436.554 171.163 437.078C171.051 437.603 176.598 438.028 183.568 438.028C186.51 438.028 189.223 437.952 191.386 437.825C188.516 437.654 186.683 437.382 186.748 437.078Z" fill="#EB001B"/>
<path d="M211.964 437.078C211.852 437.603 206.122 438.028 199.153 438.028C196.211 438.028 193.53 437.952 191.421 437.825C194.4 437.651 196.314 437.382 196.379 437.078C196.444 436.775 194.61 436.506 191.741 436.332C193.904 436.205 196.617 436.129 199.559 436.129C206.529 436.129 212.076 436.556 211.964 437.078Z" fill="#F79E1B"/>
</g>
<path d="M6.14911 445.672L7.59715 438.906L12.3378 438.906L12.1069 439.985L8.63789 439.985L8.22696 441.905L11.2752 441.905L11.0482 442.965L7.99997 442.965L7.42075 445.672L6.14911 445.672ZM14.8595 445.763C14.3483 445.763 13.9041 445.669 13.5269 445.48C13.151 445.285 12.8833 444.992 12.7236 444.602C12.564 444.212 12.5475 443.721 12.674 443.13L13.5781 438.906L14.8497 438.906L13.9457 443.13C13.857 443.544 13.901 443.892 14.0779 444.172C14.261 444.453 14.605 444.593 15.1099 444.593C15.6211 444.593 16.0282 444.453 16.3313 444.172C16.6345 443.892 16.8304 443.544 16.9191 443.13L17.8231 438.906L19.0854 438.906L18.1814 443.13C18.0548 443.721 17.8283 444.212 17.5017 444.602C17.1751 444.992 16.7821 445.285 16.3227 445.48C15.8708 445.669 15.3831 445.763 14.8595 445.763ZM18.9876 445.672L20.4356 438.906L21.7072 438.906L20.4901 444.593L23.931 444.593L23.7001 445.672L18.9876 445.672ZM24.9411 445.672L26.3891 438.906L27.6608 438.906L26.4436 444.593L29.8846 444.593L29.6537 445.672L24.9411 445.672ZM33.0496 445.672L34.4976 438.906L35.6571 438.906L37.8539 443.496L38.8362 438.906L40.0985 438.906L38.6505 445.672L37.491 445.672L35.2766 441.164L34.3119 445.672L33.0496 445.672ZM39.6525 445.672L43.4849 438.906L45.1399 438.906L46.0855 445.672L44.7578 445.672L44.5675 444.245L41.7811 444.245L40.9802 445.672L39.6525 445.672ZM42.3766 443.167L44.4337 443.167L44.045 440.177L42.3766 443.167ZM47.0842 445.672L48.5323 438.906L50.2247 438.906L51.1698 442.572L53.7217 438.906L55.3861 438.906L53.938 445.672L52.6851 445.672L53.732 440.78L51.4458 444.035L50.2677 444.035L49.388 440.762L48.3372 445.672L47.0842 445.672ZM55.2841 445.672L56.7321 438.906L61.3699 438.906L61.139 439.985L57.7728 439.985L57.405 441.704L60.3503 441.704L60.1253 442.755L57.1799 442.755L56.7866 444.593L60.1995 444.593L59.9686 445.672L55.2841 445.672Z" fill="black"/>
<path d="M200.421 429.461L204.77 428.909L211.528 428.909C212.316 428.909 212.793 428.973 212.388 429.025L205.554 429.89C205.112 429.946 204.037 429.946 203.618 429.89L200.419 429.461L200.421 429.461Z" fill="#105CE2"/>
<path d="M189.551 428.909L196.31 428.909L200.422 429.461L197.041 429.89C196.599 429.946 195.525 429.946 195.105 429.89L188.642 429.025C188.258 428.973 188.763 428.909 189.551 428.909L189.551 428.909Z" fill="white"/>
<path d="M197.129 430.069L196.345 430.283L195.51 430.283L195.089 430.142L194.591 430.283L193.756 430.283L193.084 430.069L193.822 430.069L194.196 430.225L194.733 430.069L195.492 430.069L195.943 430.225L196.388 430.069L197.13 430.069L197.129 430.069Z" fill="white"/>
<path d="M198.149 430.067C198.148 430.075 198.108 430.082 198.03 430.087C197.952 430.093 197.854 430.095 197.736 430.095C197.617 430.095 197.516 430.093 197.441 430.087C197.366 430.082 197.328 430.075 197.33 430.067M198.075 430.113L198.038 430.282L197.349 430.282L197.385 430.113L198.075 430.113Z" fill="white"/>
<path d="M199.485 430.119C199.607 430.114 199.742 430.111 199.89 430.111L199.879 430.166L199.689 430.166C199.517 430.166 199.387 430.169 199.3 430.175C199.213 430.18 199.168 430.19 199.165 430.204L199.148 430.283L198.458 430.283L198.495 430.113L199.184 430.113L199.178 430.141C199.261 430.132 199.363 430.125 199.485 430.119L199.485 430.119Z" fill="white"/>
<path d="M202.229 430.21L200.669 430.21C200.677 430.221 200.721 430.229 200.799 430.234C200.876 430.24 200.973 430.243 201.089 430.243C201.261 430.243 201.382 430.237 201.452 430.226L202.186 430.226C202.146 430.237 202.076 430.247 201.976 430.256C201.875 430.265 201.751 430.272 201.602 430.277C201.453 430.282 201.287 430.285 201.104 430.285C200.884 430.285 200.688 430.281 200.518 430.274C200.347 430.267 200.215 430.257 200.121 430.244C200.027 430.231 199.981 430.215 199.985 430.198C199.989 430.18 200.04 430.165 200.138 430.151C200.237 430.138 200.372 430.128 200.546 430.121C200.719 430.114 200.918 430.11 201.141 430.11C201.364 430.11 201.552 430.114 201.72 430.121C201.888 430.128 202.018 430.137 202.111 430.15C202.204 430.163 202.248 430.178 202.244 430.195C202.243 430.2 202.238 430.205 202.229 430.21L202.229 430.21ZM201.542 430.181C201.544 430.172 201.505 430.165 201.426 430.16C201.346 430.155 201.246 430.152 201.125 430.152C201.004 430.152 200.911 430.155 200.831 430.16C200.75 430.165 200.699 430.172 200.679 430.181L201.542 430.181L201.542 430.181Z" fill="white"/>
<path d="M206.08 430.13C206.242 430.143 206.321 430.161 206.317 430.184L206.295 430.283L205.61 430.283L205.629 430.191C205.632 430.18 205.595 430.171 205.52 430.165C205.444 430.159 205.34 430.156 205.205 430.156C205.07 430.156 204.965 430.159 204.886 430.165C204.809 430.171 204.768 430.18 204.766 430.191L204.746 430.283L204.06 430.283L204.08 430.191C204.082 430.18 204.046 430.171 203.97 430.165C203.895 430.159 203.79 430.156 203.656 430.156C203.521 430.156 203.415 430.159 203.337 430.165C203.259 430.171 203.219 430.18 203.217 430.191L203.197 430.283L202.507 430.283L202.544 430.113L203.233 430.113L203.229 430.134C203.3 430.127 203.393 430.122 203.506 430.118C203.62 430.113 203.748 430.111 203.891 430.111C204.06 430.111 204.211 430.114 204.343 430.12C204.475 430.125 204.577 430.133 204.65 430.143C204.73 430.134 204.838 430.126 204.974 430.12C205.109 430.114 205.257 430.111 205.415 430.111C205.695 430.111 205.916 430.118 206.079 430.13L206.08 430.13Z" fill="white"/>
<path d="M207.499 430.067C207.497 430.075 207.458 430.082 207.38 430.087C207.302 430.093 207.204 430.095 207.085 430.095C206.967 430.095 206.866 430.093 206.791 430.087C206.715 430.082 206.678 430.075 206.68 430.067M207.424 430.113L207.388 430.282L206.698 430.282L206.735 430.113L207.424 430.113Z" fill="white"/>
</g>
<g opacity="0.7" clip-path="url(#clip3_1149_17437)" filter="url(#filter2_f_1149_17437)">
<g filter="url(#filter3_bii_1149_17437)">
<rect width="8.12776" height="247.934" rx="4.06388" transform="matrix(0.209277 -0.977857 1 4.21697e-08 114.191 447.414)" fill="#171717"/>
<rect width="8.12776" height="247.934" rx="4.06388" transform="matrix(0.209277 -0.977857 1 4.21697e-08 114.191 447.414)" fill="url(#paint1_radial_1149_17437)"/>
</g>
<g clip-path="url(#clip4_1149_17437)">
<path d="M308.421 446.79L308.444 446.684C308.452 446.643 307.968 446.616 307.127 446.616C306.707 446.616 306.25 446.623 305.93 446.646C305.689 446.627 305.341 446.616 304.816 446.616C304.465 446.616 304.114 446.621 303.83 446.641L303.834 446.619L303.099 446.619L303.062 446.79L303.798 446.79L303.818 446.696C303.824 446.666 304.143 446.651 304.633 446.651C305.123 446.651 305.365 446.668 305.359 446.696L305.339 446.79L306.074 446.79L306.094 446.696C306.101 446.666 306.454 446.651 306.909 446.651C307.4 446.651 307.641 446.668 307.635 446.696L307.615 446.79L308.421 446.79ZM319.349 446.619L318.159 446.619L318.17 446.568L317.434 446.568L317.423 446.619L316.758 446.619L316.75 446.653L317.416 446.653L317.399 446.732C317.391 446.771 317.701 446.794 318.541 446.794C318.857 446.794 319.208 446.789 319.455 446.782L319.251 446.749C319.04 446.757 318.794 446.758 318.619 446.758C318.269 446.758 318.131 446.748 318.135 446.73L318.151 446.653L319.342 446.653L319.349 446.619ZM325.584 446.616C325.164 446.616 324.881 446.627 324.703 446.641L324.708 446.619L323.972 446.619L323.936 446.79L324.671 446.79L324.692 446.694C324.698 446.666 324.946 446.65 325.402 446.65C325.542 446.65 325.717 446.651 325.856 446.653L326.074 446.618C325.934 446.616 325.724 446.616 325.584 446.616M316.159 446.634C315.812 446.621 315.322 446.616 314.797 446.616C313.957 446.616 313.392 446.637 313.385 446.671C313.378 446.7 313.795 446.716 314.53 446.721L314.879 446.723C315.264 446.726 315.473 446.732 315.471 446.741C315.468 446.753 315.186 446.762 314.696 446.762C314.205 446.762 313.822 446.753 313.579 446.744L313.223 446.773C313.605 446.787 314.129 446.794 314.654 446.794C315.635 446.794 316.2 446.771 316.207 446.739C316.213 446.708 315.761 446.692 315.062 446.687L314.712 446.685C314.397 446.684 314.153 446.68 314.155 446.669C314.158 446.657 314.405 446.65 314.79 446.65C315.21 446.65 315.629 446.659 315.838 446.664L316.159 446.634ZM335.706 446.616C335.285 446.616 335.003 446.627 334.825 446.641L334.829 446.619L334.094 446.619L334.057 446.79L334.793 446.79L334.813 446.694C334.819 446.666 335.068 446.65 335.523 446.65C335.663 446.65 335.838 446.652 335.978 446.653L336.196 446.618C336.056 446.616 335.846 446.616 335.706 446.616ZM326.301 446.705C326.289 446.757 326.982 446.794 328.068 446.794C328.558 446.794 328.909 446.789 329.263 446.774L328.919 446.744C328.636 446.755 328.355 446.76 328.04 446.76C327.444 446.76 327.029 446.739 327.036 446.705C327.043 446.673 327.468 446.651 328.063 446.65C328.379 446.65 328.658 446.655 328.936 446.666L329.292 446.635C328.945 446.621 328.596 446.616 328.106 446.616C327.02 446.616 326.312 446.653 326.301 446.705ZM333.095 446.705L333.113 446.619L332.378 446.619L332.373 446.641C332.131 446.625 331.783 446.616 331.328 446.616C330.382 446.616 329.639 446.653 329.628 446.705C329.617 446.757 330.344 446.794 331.29 446.794C331.78 446.794 332.132 446.785 332.346 446.769L332.341 446.79L333.077 446.79L333.095 446.705ZM330.398 446.705C330.405 446.675 330.795 446.65 331.426 446.65C332.021 446.65 332.436 446.673 332.43 446.705C332.423 446.735 331.997 446.76 331.402 446.76C330.772 446.758 330.392 446.735 330.398 446.705ZM321.627 446.616C320.646 446.616 319.938 446.651 319.926 446.705C319.915 446.758 320.608 446.794 321.623 446.794C322.114 446.794 322.606 446.787 322.994 446.771L322.65 446.744C322.367 446.755 322.016 446.762 321.665 446.762C321.21 446.762 320.757 446.751 320.658 446.721L323.145 446.721L323.148 446.707C323.195 446.651 322.572 446.616 321.627 446.616ZM321.62 446.648C322.075 446.648 322.387 446.662 322.451 446.689L320.7 446.689C320.775 446.666 321.094 446.648 321.62 446.648ZM339.854 446.705L339.887 446.552L339.151 446.552L339.132 446.641C338.891 446.625 338.542 446.616 338.087 446.616C337.141 446.616 336.398 446.653 336.387 446.705C336.376 446.757 337.103 446.794 338.049 446.794C338.539 446.794 338.891 446.785 339.105 446.769L339.1 446.79L339.836 446.79L339.854 446.705ZM337.157 446.705C337.164 446.675 337.554 446.65 338.185 446.65C338.78 446.65 339.196 446.673 339.189 446.705C339.182 446.735 338.757 446.76 338.161 446.76C337.531 446.758 337.151 446.735 337.157 446.705ZM312.571 446.705L312.59 446.619L311.854 446.619L311.85 446.641C311.608 446.625 311.26 446.616 310.804 446.616C309.859 446.616 309.115 446.653 309.104 446.705C309.093 446.757 309.821 446.794 310.766 446.794C311.257 446.794 311.609 446.785 311.822 446.769L311.818 446.79L312.553 446.79L312.571 446.705ZM309.84 446.705C309.846 446.675 310.237 446.65 310.867 446.65C311.463 446.65 311.878 446.673 311.871 446.705C311.865 446.735 311.439 446.76 310.843 446.76C310.214 446.758 309.833 446.735 309.84 446.705Z" fill="white"/>
<path d="M316.195 445.321L327.227 445.321L327.012 446.329L315.98 446.329L316.195 445.321Z" fill="#FF5F00"/>
<path d="M316.788 445.825C316.832 445.62 318.762 445.438 321.694 445.321C319.576 445.235 316.89 445.184 313.948 445.184C306.978 445.184 301.278 445.47 301.203 445.825C301.127 446.179 306.704 446.466 313.674 446.466C316.615 446.466 319.323 446.414 321.478 446.329C318.596 446.213 316.744 446.03 316.788 445.825Z" fill="#EB001B"/>
<path d="M342.004 445.825C341.928 446.179 336.228 446.466 329.258 446.466C326.316 446.466 323.631 446.414 321.513 446.329C324.48 446.211 326.375 446.03 326.419 445.825C326.463 445.62 324.61 445.438 321.728 445.321C323.883 445.235 326.591 445.184 329.533 445.184C336.502 445.184 342.079 445.472 342.004 445.825Z" fill="#F79E1B"/>
</g>
<path d="M329.932 440.681L334.242 440.309L341.001 440.309C341.789 440.309 342.271 440.352 341.868 440.387L335.095 440.971C334.656 441.009 333.581 441.009 333.159 440.971L329.93 440.681L329.932 440.681Z" fill="#105CE2"/>
<path d="M319.023 440.309L325.782 440.309L329.933 440.681L326.582 440.971C326.144 441.009 325.07 441.009 324.646 440.971L318.123 440.387C317.735 440.352 318.236 440.309 319.023 440.309L319.023 440.309Z" fill="white"/>
<path d="M326.683 441.092L325.914 441.236L325.079 441.236L324.648 441.141L324.16 441.236L323.325 441.236L322.638 441.092L323.376 441.092L323.761 441.197L324.287 441.092L325.046 441.092L325.507 441.197L325.941 441.092L326.684 441.092L326.683 441.092Z" fill="white"/>
<path d="M327.703 441.091C327.702 441.096 327.663 441.101 327.585 441.104C327.508 441.108 327.41 441.11 327.291 441.11C327.173 441.11 327.072 441.108 326.996 441.104C326.92 441.101 326.883 441.096 326.884 441.091M327.631 441.122L327.607 441.236L326.917 441.236L326.942 441.122L327.631 441.122Z" fill="white"/>
<path d="M329.042 441.126C329.164 441.122 329.299 441.12 329.447 441.12L329.439 441.157L329.249 441.157C329.077 441.157 328.948 441.159 328.861 441.163C328.774 441.167 328.73 441.173 328.728 441.183L328.717 441.236L328.027 441.236L328.051 441.121L328.741 441.121L328.737 441.14C328.819 441.134 328.921 441.129 329.043 441.126L329.042 441.126Z" fill="white"/>
<path d="M331.793 441.187L330.232 441.187C330.241 441.195 330.285 441.2 330.364 441.204C330.442 441.207 330.539 441.209 330.655 441.209C330.827 441.209 330.948 441.206 331.017 441.198L331.751 441.198C331.711 441.206 331.642 441.213 331.542 441.219C331.443 441.225 331.319 441.229 331.17 441.233C331.022 441.236 330.856 441.238 330.673 441.238C330.452 441.238 330.257 441.235 330.086 441.231C329.915 441.226 329.781 441.219 329.687 441.21C329.592 441.201 329.545 441.191 329.548 441.179C329.55 441.167 329.601 441.157 329.698 441.148C329.795 441.139 329.93 441.132 330.103 441.127C330.276 441.123 330.475 441.12 330.698 441.12C330.921 441.12 331.109 441.122 331.277 441.127C331.445 441.132 331.576 441.138 331.67 441.147C331.764 441.156 331.809 441.166 331.807 441.177C331.806 441.18 331.801 441.184 331.792 441.187L331.793 441.187ZM331.103 441.168C331.105 441.162 331.066 441.157 330.986 441.154C330.906 441.15 330.805 441.148 330.684 441.148C330.563 441.148 330.471 441.15 330.391 441.153C330.311 441.157 330.26 441.162 330.24 441.168L331.103 441.168L331.103 441.168Z" fill="white"/>
<path d="M335.638 441.133C335.801 441.142 335.882 441.154 335.878 441.169L335.864 441.236L335.178 441.236L335.192 441.174C335.193 441.166 335.156 441.161 335.08 441.157C335.004 441.152 334.899 441.15 334.765 441.15C334.63 441.15 334.524 441.152 334.447 441.157C334.369 441.161 334.33 441.166 334.328 441.174L334.315 441.236L333.629 441.236L333.642 441.174C333.644 441.166 333.607 441.161 333.531 441.157C333.455 441.152 333.35 441.15 333.215 441.15C333.081 441.15 332.975 441.152 332.897 441.157C332.82 441.161 332.78 441.166 332.779 441.174L332.765 441.236L332.076 441.236L332.1 441.121L332.79 441.121L332.787 441.136C332.858 441.131 332.95 441.127 333.063 441.124C333.177 441.122 333.305 441.12 333.448 441.12C333.617 441.12 333.768 441.122 333.9 441.126C334.032 441.129 334.135 441.135 334.209 441.141C334.288 441.135 334.395 441.13 334.531 441.126C334.666 441.122 334.813 441.12 334.972 441.12C335.252 441.12 335.473 441.124 335.637 441.133L335.638 441.133Z" fill="white"/>
<path d="M337.053 441.091C337.051 441.096 337.012 441.101 336.935 441.104C336.857 441.108 336.759 441.11 336.641 441.11C336.522 441.11 336.421 441.108 336.346 441.104C336.27 441.101 336.232 441.096 336.233 441.091M336.981 441.122L336.957 441.236L336.267 441.236L336.291 441.122L336.981 441.122Z" fill="white"/>
</g>
</g>
<g clip-path="url(#clip5_1149_17437)">
<g filter="url(#filter4_bii_1149_17437)">
<rect width="152.06" height="241.239" transform="matrix(0.285354 -0.958422 0.824126 0.566406 0.987305 145.737)" fill="#105CE2" fill-opacity="0.8"/>
<rect width="152.06" height="241.239" transform="matrix(0.285354 -0.958422 0.824126 0.566406 0.987305 145.737)" fill="url(#paint2_radial_1149_17437)"/>
</g>
<g clip-path="url(#clip6_1149_17437)">
<path d="M160.03 241.278L160.613 239.318C160.837 238.567 160.59 237.807 159.916 237.343C159.579 237.112 159.175 236.992 158.796 237.242C158.706 236.748 158.484 236.359 158.062 236.07C157.781 235.877 157.471 235.782 157.14 235.986L157.256 235.595L156.667 235.189L155.733 238.324L156.323 238.73L156.838 236.999C157.004 236.444 157.334 236.356 157.727 236.626C158.12 236.896 158.23 237.326 158.074 237.848L157.559 239.579L158.148 239.984L158.664 238.253C158.829 237.698 159.188 237.63 159.553 237.881C159.946 238.151 160.055 238.58 159.899 239.103L159.384 240.834L160.03 241.278ZM169.697 244.145L168.743 243.489L169.025 242.542L168.435 242.136L168.153 243.083L167.619 242.717L167.435 243.337L167.968 243.704L167.54 245.141C167.326 245.86 167.453 246.458 168.127 246.921C168.38 247.095 168.689 247.19 168.925 247.194L168.931 246.491C168.724 246.505 168.518 246.403 168.377 246.306C168.097 246.113 168.043 245.84 168.14 245.514L168.558 244.109L169.513 244.765L169.697 244.145ZM174.716 247.515C174.379 247.284 174.096 247.325 173.878 247.49L173.994 247.098L173.405 246.693L172.471 249.828L173.061 250.233L173.586 248.47C173.741 247.947 174.025 247.788 174.391 248.039C174.503 248.117 174.634 248.246 174.736 248.356L175.099 247.818C174.997 247.708 174.828 247.593 174.716 247.515M167.064 242.65C166.851 242.228 166.487 241.86 166.066 241.571C165.392 241.107 164.826 241.191 164.641 241.811C164.486 242.334 164.735 242.859 165.296 243.363L165.567 243.588C165.856 243.866 165.996 244.08 165.947 244.243C165.879 244.471 165.606 244.48 165.212 244.21C164.819 243.94 164.559 243.564 164.411 243.266L163.975 243.595C164.206 244.069 164.588 244.489 165.009 244.779C165.796 245.319 166.371 245.204 166.547 244.616C166.712 244.06 166.434 243.515 165.902 243.031L165.631 242.806C165.388 242.599 165.21 242.399 165.269 242.203C165.337 241.974 165.572 241.979 165.881 242.191C166.218 242.423 166.507 242.818 166.646 243.032L167.064 242.65ZM182.832 253.094C182.495 252.862 182.212 252.903 181.994 253.068L182.11 252.676L181.521 252.271L180.587 255.406L181.177 255.812L181.702 254.048C181.858 253.526 182.142 253.367 182.507 253.618C182.619 253.695 182.75 253.824 182.852 253.934L183.215 253.397C183.113 253.287 182.944 253.171 182.832 253.094ZM174.819 249.554C174.537 250.501 174.895 251.573 175.765 252.171C176.159 252.441 176.469 252.536 176.827 252.468L176.712 251.72C176.429 251.761 176.175 251.705 175.922 251.531C175.445 251.203 175.224 250.58 175.409 249.959C175.584 249.371 176.038 249.211 176.525 249.506C176.778 249.68 176.973 249.932 177.139 250.283L177.586 249.921C177.383 249.466 177.131 249.175 176.738 248.905C175.867 248.307 175.101 248.607 174.819 249.554ZM180.268 253.298L180.734 251.731L180.145 251.325L180.028 251.717C179.919 251.288 179.687 250.932 179.321 250.681C178.563 250.16 177.769 250.44 177.487 251.387C177.205 252.335 177.591 253.426 178.349 253.947C178.742 254.217 179.072 254.247 179.328 254.069L179.211 254.461L179.801 254.866L180.268 253.298ZM178.105 251.812C178.27 251.257 178.715 251.012 179.221 251.359C179.698 251.687 179.909 252.344 179.734 252.932C179.569 253.487 179.095 253.712 178.618 253.384C178.122 253.004 177.94 252.367 178.105 251.812ZM171.542 245.334C170.756 244.794 170 245.061 169.708 246.041C169.416 247.021 169.783 248.06 170.598 248.62C170.991 248.89 171.423 249.03 171.82 248.948L171.685 248.265C171.402 248.307 171.082 248.244 170.801 248.051C170.436 247.8 170.129 247.353 170.21 246.74L172.204 248.111L172.282 247.849C172.612 246.856 172.301 245.856 171.542 245.334ZM171.367 245.922C171.732 246.173 171.907 246.608 171.817 247.137L170.413 246.172C170.596 245.786 170.946 245.633 171.367 245.922ZM185.688 257.023L186.524 254.215L185.934 253.809L185.448 255.442C185.339 255.013 185.107 254.657 184.741 254.406C183.983 253.885 183.189 254.165 182.907 255.112C182.625 256.06 183.011 257.151 183.769 257.672C184.162 257.942 184.492 257.972 184.748 257.794L184.631 258.186L185.221 258.591L185.688 257.023ZM183.525 255.537C183.691 254.982 184.135 254.737 184.641 255.084C185.118 255.413 185.329 256.069 185.154 256.657C184.989 257.212 184.516 257.437 184.038 257.109C183.542 256.729 183.36 256.092 183.525 255.537ZM163.81 241.988L164.277 240.42L163.687 240.015L163.571 240.406C163.462 239.977 163.229 239.621 162.864 239.37C162.106 238.849 161.312 239.13 161.03 240.077C160.748 241.024 161.134 242.115 161.892 242.636C162.285 242.906 162.615 242.936 162.871 242.758L162.754 243.15L163.344 243.555L163.81 241.988ZM161.62 240.482C161.785 239.927 162.23 239.682 162.736 240.029C163.213 240.357 163.424 241.014 163.249 241.602C163.083 242.157 162.61 242.382 162.133 242.054C161.637 241.674 161.455 241.037 161.62 240.482Z" fill="white"/>
<path d="M174.033 218.444L182.88 224.524L177.376 243.01L168.529 236.93L174.033 218.444Z" fill="#FF5F00"/>
<path d="M171.843 228.073C172.962 224.317 175.47 222.028 178.443 221.475C177.196 218.73 175.316 216.296 172.957 214.675C167.368 210.834 161.281 212.985 159.346 219.484C157.411 225.984 160.367 234.349 165.956 238.19C168.315 239.812 170.759 240.351 172.939 239.96C171.24 236.235 170.725 231.829 171.843 228.073Z" fill="#EB001B"/>
<path d="M192.064 241.97C190.129 248.47 184.042 250.621 178.453 246.78C176.094 245.158 174.214 242.725 172.967 239.98C175.968 239.446 178.448 237.137 179.567 233.381C180.685 229.626 180.16 225.252 178.471 221.494C180.651 221.104 183.095 221.643 185.454 223.264C191.043 227.105 193.989 235.504 192.064 241.97Z" fill="#F79E1B"/>
</g>
<g filter="url(#filter5_i_1149_17437)">
<rect width="32.0249" height="22.9083" rx="4.09077" transform="matrix(0.824126 0.566406 -0.285354 0.958422 48.1689 61.5078)" fill="url(#paint3_linear_1149_17437)"/>
</g>
<path d="M45.8764 69.0868L54.8512 75.2549C56.0236 73.616 58.8665 70.5322 60.8579 71.3087C61.46 72.0589 62.7617 74.1648 63.1521 76.5863M43.7809 76.1249L52.7557 82.2931C51.7179 85.7786 53.6336 90.1636 54.7212 91.9203C57.2201 92.6151 60.1679 89.72 61.3293 88.1856L70.2038 94.2849M71.8004 88.9225L62.9259 82.8232C62.7853 81.6724 62.8247 79.2681 64.1067 78.8573" stroke="url(#paint4_linear_1149_17437)" stroke-width="0.350638"/>
<path d="M80.2783 94.7425C80.3993 95.6353 80.3552 97.6022 79.211 98.3272M82.781 94.9107C82.9457 96.3059 82.8095 99.4914 80.9466 101.072M85.0595 94.8574C85.2576 96.7253 85.0179 101.077 82.4747 103.539M87.3991 95.1835C87.696 97.4341 87.4679 102.747 84.1806 105.993" stroke="white" stroke-width="1.28567" stroke-linecap="round" stroke-linejoin="round"/>
<path d="M26.7142 135.621L28.6886 128.99L32.5955 131.675L32.2806 132.732L29.4218 130.768L28.8615 132.649L31.3736 134.376L31.0641 135.416L28.5519 133.689L27.7622 136.342L26.7142 135.621ZM33.8821 140.656C33.4608 140.366 33.1057 140.011 32.8166 139.589C32.5293 139.161 32.3424 138.687 32.2559 138.167C32.1694 137.647 32.2124 137.097 32.385 136.518L33.6177 132.377L34.6657 133.098L33.433 137.238C33.312 137.644 33.3082 138.052 33.4216 138.461C33.5401 138.873 33.8075 139.223 34.2236 139.509C34.6448 139.798 34.9966 139.874 35.2787 139.737C35.5609 139.6 35.7625 139.328 35.8834 138.922L37.1161 134.782L38.1564 135.497L36.9237 139.637C36.7512 140.217 36.5078 140.629 36.1936 140.873C35.8794 141.118 35.5218 141.218 35.1207 141.172C34.7265 141.124 34.3136 140.952 33.8821 140.656ZM37.2947 142.893L39.2691 136.262L40.3171 136.982L38.6575 142.556L41.4933 144.505L41.1784 145.562L37.2947 142.893ZM42.2012 146.265L44.1756 139.634L45.2236 140.354L43.564 145.928L46.3997 147.877L46.0849 148.935L42.2012 146.265ZM48.8836 150.858L50.858 144.226L51.8135 144.883L53.0941 151.183L54.4335 146.684L55.4738 147.399L53.4994 154.03L52.5439 153.374L51.2393 147.155L49.9239 151.573L48.8836 150.858ZM54.3252 154.598L58.2646 149.317L59.6285 150.254L59.6268 158.242L58.5326 157.49L58.5404 155.811L56.2441 154.233L55.4194 155.35L54.3252 154.598ZM56.8594 153.382L58.5547 154.547L58.5796 151.034L56.8594 153.382ZM60.4499 158.807L62.4243 152.176L63.8191 153.134L64.1747 157.708L66.7011 155.115L68.0727 156.058L66.0983 162.689L65.0657 161.98L66.4932 157.185L64.2333 159.475L63.2624 158.808L62.9153 154.705L61.4825 159.517L60.4499 158.807ZM67.2076 163.452L69.182 156.82L73.0041 159.447L72.6893 160.504L69.9152 158.598L69.4135 160.283L71.8409 161.951L71.5341 162.982L69.1067 161.313L68.5704 163.115L71.383 165.048L71.0682 166.105L67.2076 163.452Z" fill="white"/>
<path d="M209.581 140.393L215.007 135.894L220.427 139.619C221.059 140.053 221.215 141.119 220.71 141.538L212.189 148.586C211.637 149.043 210.775 148.449 210.637 147.519L209.579 140.393L209.581 140.393Z" fill="#105CE2"/>
<path d="M202.804 127.507L208.223 131.232L209.582 140.394L205.363 143.893C204.811 144.35 203.95 143.759 203.811 142.826L201.669 128.45C201.542 127.596 202.172 127.071 202.804 127.505L202.804 127.507Z" fill="white"/>
<path d="M204.804 146.18L203.426 148.413L202.757 147.953L202.912 145.967L202.019 147.447L201.35 146.986L201.561 143.95L202.152 144.357L201.907 146.503L202.883 144.859L203.491 145.277L203.307 147.466L204.21 145.771L204.805 146.18L204.804 146.18Z" fill="white"/>
<path d="M205.63 146.719C205.6 146.817 205.545 146.878 205.464 146.902C205.383 146.926 205.295 146.906 205.2 146.84C205.105 146.775 205.033 146.686 204.992 146.577C204.95 146.469 204.944 146.365 204.973 146.268M205.409 147.247L204.785 149.346L204.232 148.966L204.856 146.867L205.409 147.247Z" fill="white"/>
<path d="M206.518 148.103C206.635 148.104 206.753 148.144 206.872 148.226L206.669 148.907L206.517 148.802C206.379 148.707 206.265 148.671 206.176 148.692C206.086 148.714 206.016 148.811 205.964 148.984L205.674 149.959L205.121 149.579L205.746 147.48L206.299 147.86L206.195 148.21C206.294 148.139 206.402 148.104 206.519 148.104L206.518 148.103Z" fill="white"/>
<path d="M208.399 150.753L207.148 149.892C207.117 150.029 207.124 150.153 207.167 150.266C207.21 150.378 207.278 150.466 207.371 150.53C207.509 150.625 207.625 150.623 207.719 150.525L208.308 150.929C208.237 151.047 208.145 151.133 208.033 151.189C207.922 151.246 207.798 151.264 207.66 151.246C207.523 151.227 207.381 151.167 207.234 151.066C207.057 150.945 206.913 150.793 206.801 150.61C206.689 150.428 206.619 150.228 206.59 150.012C206.561 149.795 206.578 149.578 206.643 149.36C206.708 149.142 206.803 148.977 206.928 148.867C207.054 148.757 207.198 148.705 207.362 148.712C207.526 148.719 207.698 148.784 207.877 148.907C208.055 149.03 208.194 149.176 208.304 149.355C208.415 149.534 208.485 149.728 208.514 149.939C208.544 150.15 208.527 150.36 208.464 150.571C208.446 150.631 208.425 150.691 208.399 150.752L208.399 150.753ZM207.949 150.013C207.982 149.903 207.976 149.793 207.931 149.683C207.885 149.573 207.814 149.485 207.717 149.419C207.62 149.352 207.537 149.333 207.455 149.352C207.372 149.371 207.306 149.433 207.257 149.537L207.949 150.013L207.949 150.013Z" fill="white"/>
<path d="M211.767 151.876C211.853 152.125 211.854 152.39 211.77 152.671L211.405 153.897L210.855 153.52L211.195 152.38C211.235 152.244 211.235 152.119 211.196 152.002C211.156 151.886 211.083 151.791 210.975 151.717C210.867 151.642 210.772 151.622 210.688 151.653C210.605 151.685 210.542 151.768 210.502 151.904L210.163 153.044L209.613 152.666L209.952 151.526C209.993 151.39 209.993 151.265 209.953 151.148C209.914 151.032 209.84 150.937 209.733 150.863C209.625 150.789 209.529 150.768 209.446 150.799C209.362 150.831 209.3 150.914 209.26 151.05L208.92 152.19L208.367 151.81L208.992 149.711L209.545 150.091L209.467 150.354C209.549 150.305 209.643 150.286 209.749 150.297C209.855 150.307 209.965 150.352 210.079 150.431C210.215 150.524 210.326 150.641 210.413 150.782C210.499 150.924 210.554 151.078 210.577 151.244C210.674 151.172 210.787 151.136 210.916 151.138C211.046 151.139 211.174 151.183 211.302 151.271C211.526 151.425 211.681 151.626 211.766 151.876L211.767 151.876Z" fill="white"/>
<path d="M213.127 151.871C213.098 151.969 213.042 152.03 212.961 152.054C212.88 152.079 212.792 152.058 212.697 151.993C212.602 151.927 212.53 151.838 212.489 151.73C212.447 151.621 212.441 151.518 212.47 151.42M212.907 152.4L212.282 154.499L211.729 154.119L212.354 152.02L212.907 152.4Z" fill="white"/>
</g>
<g filter="url(#filter6_f_1149_17437)">
<rect x="156.555" y="246.664" width="110.449" height="48.7387" transform="rotate(-40 156.555 246.664)" fill="black" fill-opacity="0.51"/>
</g>
<g clip-path="url(#clip7_1149_17437)">
<g filter="url(#filter7_bii_1149_17437)">
<rect width="152.06" height="241.239" transform="matrix(-0.475931 -0.879483 0.760406 -0.649448 176.912 427.623)" fill="#105CE2" fill-opacity="0.8"/>
<rect width="152.06" height="241.239" transform="matrix(-0.475931 -0.879483 0.760406 -0.649448 176.912 427.623)" fill="url(#paint5_radial_1149_17437)"/>
</g>
<g clip-path="url(#clip8_1149_17437)">
<path d="M314.844 294.485L313.871 292.687C313.498 291.998 312.892 291.858 312.27 292.389C311.959 292.655 311.687 293.062 311.664 293.651C311.305 293.476 310.948 293.518 310.56 293.85C310.3 294.071 310.09 294.382 310.061 294.889L309.866 294.529L309.322 294.994L310.879 297.871L311.423 297.407L310.564 295.818C310.288 295.309 310.392 294.87 310.754 294.56C311.117 294.25 311.445 294.365 311.704 294.844L312.564 296.433L313.108 295.968L312.248 294.379C311.973 293.87 312.102 293.409 312.439 293.121C312.801 292.811 313.129 292.926 313.388 293.406L314.248 294.994L314.844 294.485ZM321.346 284.725L320.465 285.478L319.994 284.609L319.45 285.073L319.92 285.943L319.428 286.363L319.736 286.932L320.228 286.512L320.942 287.831C321.299 288.49 321.743 288.68 322.365 288.149C322.598 287.95 322.808 287.639 322.925 287.364L322.478 286.957C322.387 287.21 322.222 287.395 322.092 287.506C321.833 287.727 321.632 287.636 321.47 287.336L320.773 286.047L321.654 285.295L321.346 284.725ZM325.925 280.726C325.615 280.991 325.505 281.348 325.505 281.699L325.31 281.339L324.766 281.804L326.323 284.681L326.867 284.216L325.991 282.598C325.732 282.119 325.767 281.694 326.104 281.406C326.208 281.318 326.354 281.237 326.473 281.178L326.305 280.446C326.185 280.505 326.029 280.638 325.926 280.726M319.117 286.979C318.745 286.991 318.333 287.211 317.945 287.543C317.323 288.074 317.103 288.787 317.411 289.357C317.67 289.836 318.127 289.84 318.72 289.466L318.996 289.274C319.313 289.091 319.517 289.048 319.598 289.198C319.712 289.408 319.586 289.735 319.223 290.044C318.86 290.354 318.494 290.448 318.231 290.453L318.232 291.154C318.646 291.15 319.1 290.938 319.489 290.606C320.214 289.986 320.418 289.243 320.126 288.703C319.85 288.194 319.368 288.212 318.801 288.564L318.525 288.756C318.276 288.925 318.062 289.02 317.965 288.84C317.851 288.63 317.968 288.356 318.253 288.112C318.564 287.846 318.956 287.731 319.16 287.688L319.117 286.979ZM333.414 274.33C333.103 274.596 332.993 274.953 332.993 275.303L332.799 274.944L332.255 275.408L333.812 278.285L334.356 277.821L333.48 276.202C333.221 275.723 333.256 275.298 333.593 275.01C333.696 274.922 333.842 274.841 333.962 274.783L333.793 274.05C333.673 274.109 333.518 274.242 333.414 274.33ZM327.281 281.76C327.751 282.629 328.61 282.816 329.413 282.13C329.776 281.82 329.986 281.509 330.116 281.048L329.581 280.76C329.471 281.116 329.312 281.383 329.079 281.582C328.638 281.959 328.133 281.865 327.825 281.295C327.533 280.756 327.649 280.13 328.074 279.724C328.307 279.525 328.563 279.438 328.867 279.441L328.851 278.71C328.462 278.691 328.154 278.823 327.791 279.133C326.988 279.819 326.81 280.891 327.281 281.76ZM332.308 277.466L331.529 276.028L330.985 276.493L331.18 276.852C330.852 276.738 330.512 276.809 330.175 277.097C329.476 277.694 329.272 278.788 329.742 279.657C330.213 280.527 331.097 280.691 331.797 280.094C332.16 279.784 332.338 279.413 332.347 279.01L332.542 279.37L333.086 278.905L332.308 277.466ZM330.312 279.171C330.037 278.661 330.095 277.998 330.561 277.6C331.002 277.224 331.523 277.348 331.815 277.887C332.091 278.396 332.007 279.082 331.567 279.458C331.084 279.826 330.588 279.68 330.312 279.171ZM322.998 283.227C322.272 283.847 322.078 284.889 322.565 285.788C323.051 286.687 323.894 286.844 324.645 286.202C325.008 285.892 325.306 285.462 325.445 284.949L324.943 284.721C324.833 285.078 324.638 285.419 324.379 285.64C324.042 285.928 323.608 286.036 323.255 285.593L325.094 284.021L324.965 283.782C324.488 282.83 323.697 282.629 322.998 283.227ZM323.289 283.766C323.626 283.479 323.989 283.519 324.284 283.925L322.989 285.031C322.83 284.597 322.901 284.098 323.289 283.766ZM337.309 273.195L335.914 270.618L335.37 271.083L336.181 272.581C335.853 272.466 335.513 272.538 335.176 272.825C334.477 273.423 334.273 274.517 334.743 275.386C335.214 276.255 336.098 276.42 336.798 275.822C337.161 275.513 337.339 275.141 337.348 274.739L337.543 275.099L338.087 274.634L337.309 273.195ZM335.313 274.899C335.038 274.39 335.096 273.727 335.562 273.328C336.003 272.952 336.524 273.076 336.816 273.616C337.092 274.125 337.008 274.81 336.568 275.187C336.085 275.555 335.589 275.409 335.313 274.899ZM317.123 290.435L316.344 288.997L315.8 289.462L315.995 289.821C315.668 289.707 315.327 289.778 314.99 290.066C314.291 290.663 314.087 291.757 314.558 292.626C315.028 293.496 315.913 293.66 316.612 293.063C316.975 292.753 317.153 292.382 317.163 291.979L317.357 292.339L317.901 291.874L317.123 290.435ZM315.102 292.162C314.826 291.652 314.884 290.989 315.35 290.591C315.791 290.215 316.313 290.339 316.605 290.878C316.88 291.388 316.796 292.073 316.356 292.449C315.873 292.817 315.377 292.671 315.102 292.162Z" fill="white"/>
<path d="M306.983 265.046L315.146 258.075L324.325 275.038L316.163 282.009L306.983 265.046Z" fill="#FF5F00"/>
<path d="M312.091 273.084C310.226 269.638 309.971 265.386 311.051 261.571C308.692 261.482 306.227 262.317 304.05 264.176C298.893 268.58 297.333 276.969 300.56 282.933C303.788 288.897 310.571 290.159 315.727 285.755C317.904 283.896 319.429 281.323 320.231 278.534C317.026 278.423 313.956 276.531 312.091 273.084Z" fill="#EB001B"/>
<path d="M330.748 257.15C333.975 263.114 332.414 271.502 327.258 275.907C325.081 277.766 322.616 278.601 320.256 278.512C321.363 274.675 321.082 270.445 319.217 266.998C317.352 263.552 314.298 261.69 311.077 261.549C311.879 258.76 313.404 256.187 315.581 254.328C320.737 249.924 327.536 251.216 330.748 257.15Z" fill="#F79E1B"/>
</g>
<g filter="url(#filter8_i_1149_17437)">
<rect width="32.0249" height="22.9083" rx="4.09077" transform="matrix(0.760406 -0.649448 0.475931 0.879483 145.754 324.298)" fill="url(#paint6_linear_1149_17437)"/>
</g>
<path d="M149.499 331.294L157.78 324.222C157.297 321.912 156.694 316.815 158.153 314.91C158.924 314.626 160.9 314.287 162.639 315.201M152.994 337.753L161.275 330.68C163.006 333.879 166.738 334.109 168.388 333.824C170.039 331.275 169.608 326.162 169.186 323.924L177.374 316.93M174.712 312.01L166.523 319.003C165.719 318.516 164.198 317.107 164.554 315.364" stroke="url(#paint7_linear_1149_17437)" stroke-width="0.350638"/>
<path d="M182.53 305.325C183.16 305.689 184.398 306.856 184.31 308.614M183.846 302.473C184.818 303.07 186.792 305.036 186.905 308.126M184.911 299.759C186.203 300.585 188.873 303.334 189.222 307.725M186.249 297.188C187.833 298.115 191.125 301.396 191.617 307.108" stroke="white" stroke-width="1.28567" stroke-linecap="round" stroke-linejoin="round"/>
<path d="M182.851 391.588L179.558 385.503L183.163 382.424L183.688 383.395L181.05 385.648L181.984 387.375L184.302 385.395L184.819 386.349L182.501 388.328L183.818 390.763L182.851 391.588ZM189.534 386.001C189.145 386.333 188.746 386.55 188.336 386.651C187.924 386.747 187.53 386.698 187.156 386.505C186.781 386.312 186.45 385.95 186.162 385.418L184.106 381.619L185.073 380.793L187.129 384.592C187.33 384.965 187.59 385.201 187.906 385.299C188.228 385.393 188.58 385.276 188.964 384.948C189.353 384.616 189.571 384.245 189.62 383.835C189.668 383.425 189.591 383.034 189.39 382.661L187.334 378.862L188.294 378.042L190.35 381.841C190.637 382.373 190.784 382.893 190.789 383.402C190.794 383.911 190.685 384.389 190.462 384.835C190.241 385.272 189.932 385.661 189.534 386.001ZM192.613 383.251L189.32 377.165L190.287 376.339L193.055 381.454L195.672 379.22L196.197 380.19L192.613 383.251ZM197.141 379.384L193.847 373.299L194.814 372.473L197.582 377.588L200.199 375.353L200.724 376.323L197.141 379.384ZM203.306 374.118L200.013 368.033L200.895 367.28L205.546 369.343L203.312 365.215L204.272 364.395L207.565 370.481L206.684 371.234L202.072 369.244L204.266 373.298L203.306 374.118ZM208.327 369.83L206.847 362.196L208.106 361.121L213.219 365.652L212.209 366.514L211.138 365.553L209.019 367.363L209.337 368.967L208.327 369.83ZM208.772 366.156L210.336 364.82L208.098 362.799L208.772 366.156ZM213.978 365.003L210.685 358.918L211.972 357.819L215.072 359.993L214.631 355.548L215.897 354.467L219.19 360.552L218.237 361.366L215.856 356.966L216.232 360.926L215.336 361.691L212.541 359.774L214.931 364.19L213.978 365.003ZM220.213 359.678L216.92 353.593L220.447 350.581L220.972 351.551L218.412 353.737L219.249 355.283L221.489 353.37L222.001 354.316L219.761 356.229L220.655 357.882L223.251 355.665L223.776 356.636L220.213 359.678Z" fill="white"/>
<path d="M274.164 178.926L273.903 169.985L278.904 165.714C279.486 165.216 280.245 165.636 280.269 166.469L280.669 180.5C280.695 181.409 279.899 182.087 279.237 181.723L274.164 178.928L274.164 178.926Z" fill="#105CE2"/>
<path d="M262.643 179.602L267.643 175.331L274.165 178.925L274.37 185.878C274.396 186.787 273.602 187.466 272.937 187.101L262.699 181.473C262.091 181.138 262.059 180.098 262.642 179.6L262.643 179.602Z" fill="white"/>
<path d="M275.564 187.833L276.329 190.722L275.712 191.25L274.515 189.941L275.031 191.831L274.414 192.358L272.571 190.389L273.117 189.922L274.373 191.429L273.792 189.346L274.353 188.867L275.665 190.325L275.016 188.301L275.565 187.832L275.564 187.833Z" fill="white"/>
<path d="M276.308 187.167C276.357 187.257 276.369 187.356 276.345 187.466C276.322 187.575 276.266 187.667 276.178 187.742C276.091 187.817 275.999 187.851 275.91 187.838C275.82 187.825 275.751 187.774 275.702 187.685M276.54 187.726L277.583 189.652L277.072 190.087L276.03 188.161L276.54 187.726Z" fill="white"/>
<path d="M277.623 186.904C277.68 186.767 277.763 186.651 277.872 186.558L278.21 187.183L278.07 187.302C277.942 187.411 277.864 187.525 277.835 187.642C277.805 187.759 277.834 187.898 277.92 188.057L278.404 188.951L277.893 189.386L276.851 187.46L277.361 187.025L277.535 187.346C277.538 187.189 277.567 187.042 277.624 186.905L277.623 186.904Z" fill="white"/>
<path d="M280.227 186.192L279.073 187.178C279.145 187.291 279.228 187.354 279.321 187.367C279.414 187.38 279.503 187.35 279.589 187.277C279.716 187.169 279.771 187.031 279.753 186.864L280.296 186.4C280.337 186.55 280.349 186.707 280.331 186.871C280.313 187.034 280.265 187.191 280.186 187.342C280.108 187.493 280.001 187.626 279.866 187.742C279.703 187.881 279.536 187.965 279.365 187.993C279.194 188.021 279.032 187.991 278.88 187.903C278.727 187.815 278.597 187.67 278.488 187.47C278.38 187.27 278.321 187.065 278.31 186.855C278.3 186.645 278.337 186.446 278.42 186.256C278.504 186.067 278.628 185.902 278.793 185.761C278.958 185.62 279.119 185.54 279.287 185.511C279.454 185.483 279.613 185.511 279.762 185.595C279.911 185.68 280.038 185.819 280.142 186.012C280.172 186.067 280.201 186.127 280.227 186.192L280.227 186.192ZM279.537 186.302C279.482 186.201 279.409 186.146 279.316 186.137C279.224 186.128 279.134 186.162 279.044 186.239C278.955 186.315 278.902 186.402 278.874 186.51C278.847 186.618 278.855 186.731 278.898 186.848L279.537 186.303L279.537 186.302Z" fill="white"/>
<path d="M282.573 182.862C282.773 182.903 282.944 183.052 283.083 183.31L283.692 184.435L283.185 184.868L282.619 183.822C282.551 183.698 282.471 183.626 282.378 183.606C282.284 183.587 282.188 183.62 282.088 183.705C281.989 183.79 281.929 183.89 281.909 184.007C281.889 184.123 281.912 184.243 281.98 184.368L282.546 185.414L282.038 185.847L281.472 184.801C281.405 184.677 281.325 184.605 281.231 184.585C281.138 184.566 281.041 184.599 280.942 184.684C280.842 184.769 280.783 184.87 280.763 184.986C280.743 185.102 280.766 185.222 280.834 185.347L281.4 186.393L280.889 186.828L279.847 184.902L280.357 184.467L280.488 184.708C280.496 184.584 280.529 184.462 280.587 184.344C280.645 184.225 280.727 184.121 280.833 184.031C280.958 183.924 281.086 183.859 281.219 183.837C281.351 183.815 281.476 183.838 281.594 183.906C281.594 183.751 281.626 183.597 281.689 183.445C281.752 183.294 281.843 183.168 281.96 183.067C282.167 182.891 282.371 182.822 282.572 182.863L282.573 182.862Z" fill="white"/>
<path d="M283.225 181.26C283.274 181.349 283.286 181.449 283.262 181.559C283.239 181.668 283.183 181.76 283.095 181.835C283.008 181.91 282.916 181.943 282.827 181.931C282.737 181.918 282.668 181.867 282.619 181.777M283.457 181.819L284.5 183.745L283.989 184.18L282.947 182.254L283.457 181.819Z" fill="white"/>
</g>
<defs>
<filter id="filter0_f_1149_17437" x="-266.012" y="177.661" width="750.453" height="511.771" filterUnits="userSpaceOnUse" color-interpolation-filters="sRGB">
<feFlood flood-opacity="0" result="BackgroundImageFix"/>
<feBlend mode="normal" in="SourceGraphic" in2="BackgroundImageFix" result="shape"/>
<feGaussianBlur stdDeviation="125" result="effect1_foregroundBlur_1149_17437"/>
</filter>
<filter id="filter1_bii_1149_17437" x="-44.1036" y="398.441" width="306.637" height="70.2101" filterUnits="userSpaceOnUse" color-interpolation-filters="sRGB">
<feFlood flood-opacity="0" result="BackgroundImageFix"/>
<feGaussianBlur in="BackgroundImageFix" stdDeviation="14.6099"/>
<feComposite in2="SourceAlpha" operator="in" result="effect1_backgroundBlur_1149_17437"/>
<feBlend mode="normal" in="SourceGraphic" in2="effect1_backgroundBlur_1149_17437" result="shape"/>
<feColorMatrix in="SourceAlpha" type="matrix" values="0 0 0 0 0 0 0 0 0 0 0 0 0 0 0 0 0 0 127 0" result="hardAlpha"/>
<feOffset dx="-0.233759" dy="-0.233759"/>
<feGaussianBlur stdDeviation="0.175319"/>
<feComposite in2="hardAlpha" operator="arithmetic" k2="-1" k3="1"/>
<feColorMatrix type="matrix" values="0 0 0 0 0 0 0 0 0 0 0 0 0 0 0 0 0 0 0.36 0"/>
<feBlend mode="normal" in2="shape" result="effect2_innerShadow_1149_17437"/>
<feColorMatrix in="SourceAlpha" type="matrix" values="0 0 0 0 0 0 0 0 0 0 0 0 0 0 0 0 0 0 127 0" result="hardAlpha"/>
<feOffset dx="0.584396" dy="0.467517"/>
<feGaussianBlur stdDeviation="0.233759"/>
<feComposite in2="hardAlpha" operator="arithmetic" k2="-1" k3="1"/>
<feColorMatrix type="matrix" values="0 0 0 0 1 0 0 0 0 1 0 0 0 0 1 0 0 0 0.25 0"/>
<feBlend mode="normal" in2="effect2_innerShadow_1149_17437" result="effect3_innerShadow_1149_17437"/>
</filter>
<filter id="filter2_f_1149_17437" x="-90.8086" y="234.466" width="659.636" height="417.948" filterUnits="userSpaceOnUse" color-interpolation-filters="sRGB">
<feFlood flood-opacity="0" result="BackgroundImageFix"/>
<feBlend mode="normal" in="SourceGraphic" in2="BackgroundImageFix" result="shape"/>
<feGaussianBlur stdDeviation="102.5" result="effect1_foregroundBlur_1149_17437"/>
</filter>
<filter id="filter3_bii_1149_17437" x="85.7333" y="410.246" width="306.552" height="66.3879" filterUnits="userSpaceOnUse" color-interpolation-filters="sRGB">
<feFlood flood-opacity="0" result="BackgroundImageFix"/>
<feGaussianBlur in="BackgroundImageFix" stdDeviation="14.6099"/>
<feComposite in2="SourceAlpha" operator="in" result="effect1_backgroundBlur_1149_17437"/>
<feBlend mode="normal" in="SourceGraphic" in2="effect1_backgroundBlur_1149_17437" result="shape"/>
<feColorMatrix in="SourceAlpha" type="matrix" values="0 0 0 0 0 0 0 0 0 0 0 0 0 0 0 0 0 0 127 0" result="hardAlpha"/>
<feOffset dx="-0.233759" dy="-0.233759"/>
<feGaussianBlur stdDeviation="0.175319"/>
<feComposite in2="hardAlpha" operator="arithmetic" k2="-1" k3="1"/>
<feColorMatrix type="matrix" values="0 0 0 0 0 0 0 0 0 0 0 0 0 0 0 0 0 0 0.36 0"/>
<feBlend mode="normal" in2="shape" result="effect2_innerShadow_1149_17437"/>
<feColorMatrix in="SourceAlpha" type="matrix" values="0 0 0 0 0 0 0 0 0 0 0 0 0 0 0 0 0 0 127 0" result="hardAlpha"/>
<feOffset dx="0.584396" dy="0.467517"/>
<feGaussianBlur stdDeviation="0.233759"/>
<feComposite in2="hardAlpha" operator="arithmetic" k2="-1" k3="1"/>
<feColorMatrix type="matrix" values="0 0 0 0 1 0 0 0 0 1 0 0 0 0 1 0 0 0 0.25 0"/>
<feBlend mode="normal" in2="effect2_innerShadow_1149_17437" result="effect3_innerShadow_1149_17437"/>
</filter>
<filter id="filter4_bii_1149_17437" x="-28.2325" y="-29.2198" width="300.642" height="340.816" filterUnits="userSpaceOnUse" color-interpolation-filters="sRGB">
<feFlood flood-opacity="0" result="BackgroundImageFix"/>
<feGaussianBlur in="BackgroundImageFix" stdDeviation="14.6099"/>
<feComposite in2="SourceAlpha" operator="in" result="effect1_backgroundBlur_1149_17437"/>
<feBlend mode="normal" in="SourceGraphic" in2="effect1_backgroundBlur_1149_17437" result="shape"/>
<feColorMatrix in="SourceAlpha" type="matrix" values="0 0 0 0 0 0 0 0 0 0 0 0 0 0 0 0 0 0 127 0" result="hardAlpha"/>
<feOffset dx="-0.233759" dy="-0.233759"/>
<feGaussianBlur stdDeviation="0.175319"/>
<feComposite in2="hardAlpha" operator="arithmetic" k2="-1" k3="1"/>
<feColorMatrix type="matrix" values="0 0 0 0 0 0 0 0 0 0 0 0 0 0 0 0 0 0 0.36 0"/>
<feBlend mode="normal" in2="shape" result="effect2_innerShadow_1149_17437"/>
<feColorMatrix in="SourceAlpha" type="matrix" values="0 0 0 0 0 0 0 0 0 0 0 0 0 0 0 0 0 0 127 0" result="hardAlpha"/>
<feOffset dx="0.584396" dy="0.467517"/>
<feGaussianBlur stdDeviation="0.233759"/>
<feComposite in2="hardAlpha" operator="arithmetic" k2="-1" k3="1"/>
<feColorMatrix type="matrix" values="0 0 0 0 1 0 0 0 0 1 0 0 0 0 1 0 0 0 0.25 0"/>
<feBlend mode="normal" in2="effect2_innerShadow_1149_17437" result="effect3_innerShadow_1149_17437"/>
</filter>
<filter id="filter5_i_1149_17437" x="42.6016" y="63.1904" width="30.9902" height="36.7295" filterUnits="userSpaceOnUse" color-interpolation-filters="sRGB">
<feFlood flood-opacity="0" result="BackgroundImageFix"/>
<feBlend mode="normal" in="SourceGraphic" in2="BackgroundImageFix" result="shape"/>
<feColorMatrix in="SourceAlpha" type="matrix" values="0 0 0 0 0 0 0 0 0 0 0 0 0 0 0 0 0 0 127 0" result="hardAlpha"/>
<feOffset dx="-0.350638" dy="-0.350638"/>
<feComposite in2="hardAlpha" operator="arithmetic" k2="-1" k3="1"/>
<feColorMatrix type="matrix" values="0 0 0 0 0 0 0 0 0 0 0 0 0 0 0 0 0 0 0.25 0"/>
<feBlend mode="normal" in2="shape" result="effect1_innerShadow_1149_17437"/>
</filter>
<filter id="filter6_f_1149_17437" x="127.335" y="146.449" width="174.377" height="166.771" filterUnits="userSpaceOnUse" color-interpolation-filters="sRGB">
<feFlood flood-opacity="0" result="BackgroundImageFix"/>
<feBlend mode="normal" in="SourceGraphic" in2="BackgroundImageFix" result="shape"/>
<feGaussianBlur stdDeviation="14.6099" result="effect1_foregroundBlur_1149_17437"/>
</filter>
<filter id="filter7_bii_1149_17437" x="75.3222" y="107.997" width="314.249" height="348.846" filterUnits="userSpaceOnUse" color-interpolation-filters="sRGB">
<feFlood flood-opacity="0" result="BackgroundImageFix"/>
<feGaussianBlur in="BackgroundImageFix" stdDeviation="14.6099"/>
<feComposite in2="SourceAlpha" operator="in" result="effect1_backgroundBlur_1149_17437"/>
<feBlend mode="normal" in="SourceGraphic" in2="effect1_backgroundBlur_1149_17437" result="shape"/>
<feColorMatrix in="SourceAlpha" type="matrix" values="0 0 0 0 0 0 0 0 0 0 0 0 0 0 0 0 0 0 127 0" result="hardAlpha"/>
<feOffset dx="-0.233759" dy="-0.233759"/>
<feGaussianBlur stdDeviation="0.175319"/>
<feComposite in2="hardAlpha" operator="arithmetic" k2="-1" k3="1"/>
<feColorMatrix type="matrix" values="0 0 0 0 0 0 0 0 0 0 0 0 0 0 0 0 0 0 0.36 0"/>
<feBlend mode="normal" in2="shape" result="effect2_innerShadow_1149_17437"/>
<feColorMatrix in="SourceAlpha" type="matrix" values="0 0 0 0 0 0 0 0 0 0 0 0 0 0 0 0 0 0 127 0" result="hardAlpha"/>
<feOffset dx="0.584396" dy="0.467517"/>
<feGaussianBlur stdDeviation="0.233759"/>
<feComposite in2="hardAlpha" operator="arithmetic" k2="-1" k3="1"/>
<feColorMatrix type="matrix" values="0 0 0 0 1 0 0 0 0 1 0 0 0 0 1 0 0 0 0.25 0"/>
<feBlend mode="normal" in2="effect2_innerShadow_1149_17437" result="effect3_innerShadow_1149_17437"/>
</filter>
<filter id="filter8_i_1149_17437" x="147.142" y="305.281" width="32.4795" height="37.3818" filterUnits="userSpaceOnUse" color-interpolation-filters="sRGB">
<feFlood flood-opacity="0" result="BackgroundImageFix"/>
<feBlend mode="normal" in="SourceGraphic" in2="BackgroundImageFix" result="shape"/>
<feColorMatrix in="SourceAlpha" type="matrix" values="0 0 0 0 0 0 0 0 0 0 0 0 0 0 0 0 0 0 127 0" result="hardAlpha"/>
<feOffset dx="-0.350638" dy="-0.350638"/>
<feComposite in2="hardAlpha" operator="arithmetic" k2="-1" k3="1"/>
<feColorMatrix type="matrix" values="0 0 0 0 0 0 0 0 0 0 0 0 0 0 0 0 0 0 0.25 0"/>
<feBlend mode="normal" in2="shape" result="effect1_innerShadow_1149_17437"/>
</filter>
<radialGradient id="paint0_radial_1149_17437" cx="0" cy="0" r="1" gradientUnits="userSpaceOnUse" gradientTransform="translate(-0.374706 -3.48356) rotate(88.5434) scale(251.499 13.532)">
<stop stop-color="#131313" stop-opacity="0.4"/>
<stop offset="1" stop-color="white" stop-opacity="0"/>
</radialGradient>
<radialGradient id="paint1_radial_1149_17437" cx="0" cy="0" r="1" gradientUnits="userSpaceOnUse" gradientTransform="translate(-0.253016 -3.48356) rotate(89.0163) scale(251.455 9.13897)">
<stop stop-color="#131313" stop-opacity="0.4"/>
<stop offset="1" stop-color="white" stop-opacity="0"/>
</radialGradient>
<radialGradient id="paint2_radial_1149_17437" cx="0" cy="0" r="1" gradientUnits="userSpaceOnUse" gradientTransform="translate(2.22071 -46.5764) rotate(65.2888) scale(299.716 188.92)">
<stop stop-color="white" stop-opacity="0.2"/>
<stop offset="1" stop-color="white" stop-opacity="0"/>
</radialGradient>
<linearGradient id="paint3_linear_1149_17437" x1="0" y1="0" x2="28.6939" y2="22.9083" gradientUnits="userSpaceOnUse">
<stop stop-color="#ABABAB"/>
<stop offset="0.3125" stop-color="white"/>
<stop offset="0.630208" stop-color="#BDBDBD"/>
<stop offset="1" stop-color="#5E5E5E"/>
</linearGradient>
<linearGradient id="paint4_linear_1149_17437" x1="48.7656" y1="63.4027" x2="70.0478" y2="97.1611" gradientUnits="userSpaceOnUse">
<stop stop-color="#7D7D7D"/>
<stop offset="0.494792" stop-color="white"/>
<stop offset="1" stop-color="#1C1C1C"/>
</linearGradient>
<radialGradient id="paint5_radial_1149_17437" cx="0" cy="0" r="1" gradientUnits="userSpaceOnUse" gradientTransform="translate(2.22071 -46.5764) rotate(65.2888) scale(299.716 188.92)">
<stop stop-color="white" stop-opacity="0.2"/>
<stop offset="1" stop-color="white" stop-opacity="0"/>
</radialGradient>
<linearGradient id="paint6_linear_1149_17437" x1="0" y1="0" x2="28.6939" y2="22.9083" gradientUnits="userSpaceOnUse">
<stop stop-color="#ABABAB"/>
<stop offset="0.3125" stop-color="white"/>
<stop offset="0.630208" stop-color="#BDBDBD"/>
<stop offset="1" stop-color="#5E5E5E"/>
</linearGradient>
<linearGradient id="paint7_linear_1149_17437" x1="147.255" y1="324.669" x2="178.752" y2="326.29" gradientUnits="userSpaceOnUse">
<stop stop-color="#7D7D7D"/>
<stop offset="0.494792" stop-color="white"/>
<stop offset="1" stop-color="#1C1C1C"/>
</linearGradient>
<clipPath id="clip0_1149_17437">
<path d="M0 82.8672H377.988V271.861C377.988 376.239 293.372 460.855 188.994 460.855C84.6154 460.855 0 376.239 0 271.861V82.8672Z" fill="white"/>
</clipPath>
<clipPath id="clip1_1149_17437">
<rect width="247.934" height="12.0369" fill="white" transform="matrix(1 4.21697e-08 -0.209277 0.977857 -13.4932 427.661)"/>
</clipPath>
<clipPath id="clip2_1149_17437">
<rect width="40.8419" height="2.44528" fill="white" transform="matrix(1 4.21697e-08 -0.209277 0.977857 171.366 436.129)"/>
</clipPath>
<clipPath id="clip3_1149_17437">
<rect width="247.934" height="8.12776" fill="white" transform="matrix(1 4.21697e-08 -0.209277 0.977857 115.893 439.466)"/>
</clipPath>
<clipPath id="clip4_1149_17437">
<rect width="40.8419" height="1.65115" fill="white" transform="matrix(1 4.21697e-08 -0.209277 0.977857 301.34 445.184)"/>
</clipPath>
<clipPath id="clip5_1149_17437">
<rect width="241.239" height="152.06" fill="white" transform="matrix(0.824126 0.566406 -0.285354 0.958422 44.3779 0)"/>
</clipPath>
<clipPath id="clip6_1149_17437">
<rect width="39.7389" height="30.8908" fill="white" transform="matrix(0.824126 0.566406 -0.285354 0.958422 162.847 207.727)"/>
</clipPath>
<clipPath id="clip7_1149_17437">
<rect width="241.239" height="152.06" fill="white" transform="matrix(0.760406 -0.649448 0.475931 0.879483 104.542 293.889)"/>
</clipPath>
<clipPath id="clip8_1149_17437">
<rect width="39.7389" height="30.8908" fill="white" transform="matrix(0.760406 -0.649448 0.475931 0.879483 294.722 272.144)"/>
</clipPath>
</defs>
</svg>
