<svg width="20" height="20" viewBox="0 0 20 20" fill="none" xmlns="http://www.w3.org/2000/svg">
<path d="M9.32502 1.875C9.10836 1.875 8.89169 1.925 8.68336 2L2.55002 4.54167C2.14233 4.70862 1.81762 5.03065 1.64729 5.43694C1.47695 5.84324 1.47494 6.30055 1.64169 6.70833L5.77502 16.6667C5.89712 16.9687 6.10505 17.2284 6.37312 17.4135C6.6412 17.5986 6.95765 17.7011 7.28336 17.7083C7.50002 17.7083 7.72502 17.6833 7.94169 17.5833L14.0834 15.0417C14.3798 14.9159 14.6339 14.7077 14.8156 14.4418C14.9973 14.1759 15.0989 13.8635 15.1084 13.5417C15.1167 13.3333 15.075 13.0917 15 12.875L10.8334 2.91667C10.716 2.61142 10.5092 2.3487 10.2401 2.16285C9.97098 1.97701 9.65206 1.87668 9.32502 1.875ZM12.225 1.875L15.1 8.83333V3.54167C15.1 3.09964 14.9244 2.67572 14.6119 2.36316C14.2993 2.05059 13.8754 1.875 13.4334 1.875M16.775 3.15833V10.6833L18.8 5.8C18.883 5.59814 18.9254 5.38187 18.9247 5.16361C18.9239 4.94534 18.8801 4.72937 18.7957 4.52808C18.7113 4.32678 18.588 4.14413 18.4329 3.99059C18.2778 3.83705 18.0938 3.71564 17.8917 3.63333M9.32502 3.51667L13.475 13.5333L7.31669 16.0833L3.16669 6.075" fill="#00091E"/>
</svg>
