<svg width="20" height="20" viewBox="0 0 20 20" fill="none" xmlns="http://www.w3.org/2000/svg">
<path d="M10 18.75C11.7306 18.75 13.4223 18.2368 14.8612 17.2754C16.3002 16.3139 17.4217 14.9473 18.0839 13.3485C18.7462 11.7496 18.9195 9.99029 18.5819 8.29296C18.2442 6.59563 17.4109 5.03653 16.1872 3.81282C14.9635 2.58911 13.4044 1.75575 11.707 1.41813C10.0097 1.08051 8.25037 1.25379 6.65152 1.91605C5.05266 2.57832 3.6861 3.69983 2.72464 5.13876C1.76317 6.57769 1.25 8.26941 1.25 10C1.25 12.3206 2.17187 14.5462 3.81281 16.1872C5.45376 17.8281 7.67935 18.75 10 18.75ZM10 2.5C11.4834 2.5 12.9334 2.93987 14.1668 3.76398C15.4001 4.58809 16.3614 5.75943 16.9291 7.12987C17.4967 8.50032 17.6453 10.0083 17.3559 11.4632C17.0665 12.918 16.3522 14.2544 15.3033 15.3033C14.2544 16.3522 12.918 17.0665 11.4632 17.3559C10.0083 17.6453 8.50032 17.4968 7.12987 16.9291C5.75943 16.3614 4.58809 15.4001 3.76398 14.1668C2.93986 12.9334 2.5 11.4834 2.5 10C2.5 8.01088 3.29017 6.10322 4.6967 4.6967C6.10322 3.29018 8.01087 2.5 10 2.5Z" fill="#105CE2"/>
<path d="M10.625 15H9.375V8.125H10.625V15ZM10 6.25C10.1854 6.25 10.3667 6.19502 10.5208 6.092C10.675 5.98899 10.7952 5.84257 10.8661 5.67126C10.9371 5.49996 10.9557 5.31146 10.9195 5.1296C10.8833 4.94775 10.794 4.7807 10.6629 4.64959C10.5318 4.51848 10.3648 4.42919 10.1829 4.39301C10.001 4.35684 9.81254 4.37541 9.64123 4.44636C9.46993 4.51732 9.32351 4.63748 9.2205 4.79165C9.11748 4.94582 9.0625 5.12708 9.0625 5.3125C9.0625 5.56114 9.16127 5.7996 9.33709 5.97541C9.5129 6.15123 9.75136 6.25 10 6.25Z" fill="#105CE2"/>
</svg>
