<svg width="71" height="70" viewBox="0 0 71 70" fill="none" xmlns="http://www.w3.org/2000/svg">
<path d="M35.5 4.375C29.443 4.375 23.5219 6.17113 18.4857 9.53624C13.4494 12.9014 9.52414 17.6843 7.2062 23.2803C4.88827 28.8763 4.28179 35.034 5.46346 40.9746C6.64514 46.9153 9.56188 52.3722 13.8449 56.6551C18.1279 60.9381 23.5847 63.8549 29.5254 65.0365C35.466 66.2182 41.6237 65.6117 47.2197 63.2938C52.8157 60.9759 57.5987 57.0506 60.9638 52.0143C64.3289 46.9781 66.125 41.0571 66.125 35C66.125 26.8777 62.8985 19.0882 57.1552 13.3449C51.4119 7.60155 43.6223 4.375 35.5 4.375ZM35.5 61.25C30.3083 61.25 25.2331 59.7105 20.9163 56.8261C16.5995 53.9417 13.235 49.842 11.2482 45.0454C9.26138 40.2489 8.74154 34.9709 9.7544 29.8789C10.7673 24.7869 13.2673 20.1096 16.9385 16.4384C20.6096 12.7673 25.2869 10.2672 30.3789 9.25439C35.4709 8.24152 40.7489 8.76136 45.5455 10.7482C50.342 12.735 54.4417 16.0995 57.3261 20.4163C60.2105 24.7331 61.75 29.8082 61.75 35C61.75 41.9619 58.9844 48.6387 54.0616 53.5616C49.1387 58.4844 42.4619 61.25 35.5 61.25Z" fill="#EC8002"/>
<path d="M33.3125 17.5H37.6875V41.5625H33.3125V17.5ZM35.5 48.125C34.851 48.125 34.2166 48.3174 33.677 48.678C33.1374 49.0385 32.7169 49.551 32.4685 50.1506C32.2202 50.7501 32.1552 51.4099 32.2818 52.0464C32.4084 52.6829 32.7209 53.2676 33.1798 53.7264C33.6387 54.1853 34.2234 54.4978 34.8599 54.6245C35.4964 54.7511 36.1561 54.6861 36.7557 54.4377C37.3552 54.1894 37.8677 53.7688 38.2283 53.2292C38.5888 52.6896 38.7813 52.0552 38.7813 51.4062C38.7813 50.536 38.4355 49.7014 37.8202 49.0861C37.2048 48.4707 36.3702 48.125 35.5 48.125Z" fill="#EC8002"/>
</svg>
