<svg width="100" height="26" viewBox="0 0 100 26" fill="none" xmlns="http://www.w3.org/2000/svg">
<path d="M50.5686 6.4604L47.3785 18.3434H43.7702L41.8182 10.5241L39.7967 18.3434H36.1884L33.0859 6.4604H36.276L38.0364 15.1094L40.2149 6.4604H43.4926L45.5851 15.1094L47.3636 6.4604H50.5719H50.5686Z" fill="#105CE2"/>
<path d="M54.979 6.35905C54.979 6.79881 54.8137 7.16955 54.4814 7.46807C54.1509 7.76659 53.7294 7.91585 53.217 7.91585C52.7046 7.91585 52.2666 7.76659 51.936 7.46807C51.6054 7.16955 51.4385 6.79881 51.4385 6.35905M54.698 8.89807V18.3431H51.7178V8.89807H54.698Z" fill="#105CE2"/>
<path d="M60.7996 9.24473C61.3219 8.94622 61.9038 8.79535 62.5434 8.79535V11.8592H61.7236C60.9798 11.8592 60.4211 12.0149 60.0509 12.3246C59.679 12.6344 59.4938 13.18 59.4938 13.9584V18.3431H56.5137V8.89807H59.4938V10.4725C59.8426 9.95412 60.279 9.54485 60.8013 9.24634L60.7996 9.24473Z" fill="#105CE2"/>
<path d="M72.742 14.3147H65.9965C66.0428 14.9021 66.2379 15.3499 66.58 15.6597C66.9222 15.9694 67.3436 16.1251 67.8445 16.1251C68.5883 16.1251 69.1056 15.8202 69.3965 15.2103H72.5684C72.4064 15.8314 72.1122 16.3899 71.6874 16.8858C71.2627 17.3834 70.7321 17.7718 70.0924 18.0542C69.4527 18.3367 68.7387 18.4779 67.9486 18.4779C66.9949 18.4779 66.1469 18.2805 65.4031 17.8857C64.6593 17.4909 64.0775 16.926 63.6593 16.1925C63.2412 15.4591 63.0312 14.602 63.0312 13.6198C63.0312 12.6376 63.2379 11.7805 63.6494 11.0471C64.0627 10.3136 64.6395 9.75029 65.3833 9.35387C66.1271 8.95906 66.9817 8.76165 67.9453 8.76165C68.9089 8.76165 69.7238 8.95424 70.456 9.33782C71.1883 9.7214 71.7602 10.2687 72.1734 10.9797C72.5866 11.6907 72.7916 12.5204 72.7916 13.4673C72.7916 13.7386 72.775 14.021 72.7387 14.3131L72.742 14.3147ZM69.7436 12.7066C69.7436 12.2107 69.5701 11.8158 69.2213 11.5221C68.8726 11.2284 68.4362 11.0824 67.9139 11.0824C67.3916 11.0824 66.9932 11.2236 66.6494 11.5061C66.3073 11.7886 66.0941 12.1898 66.0131 12.7082H69.7436V12.7066Z" fill="#105CE2"/>
<path d="M89.3109 9.86287C90.0249 10.5739 90.3836 11.5609 90.3836 12.8256V18.3434H87.42V13.214C87.42 12.6041 87.2547 12.1339 86.9225 11.8C86.5919 11.4678 86.1357 11.3009 85.5539 11.3009C84.972 11.3009 84.5175 11.4678 84.1853 11.8C83.8547 12.1322 83.6877 12.6041 83.6877 13.214V18.3434H80.7241V13.214C80.7241 12.6041 80.5588 12.1339 80.2266 11.8C79.896 11.4678 79.4398 11.3009 78.858 11.3009C78.2762 11.3009 77.82 11.4678 77.4894 11.8C77.1588 12.1322 76.9919 12.6041 76.9919 13.214V18.3434H74.0117V8.8983H76.9919V10.0827C77.2944 9.68793 77.6894 9.37497 78.177 9.14386C78.6646 8.91274 79.2167 8.79719 79.8332 8.79719C80.5654 8.79719 81.2183 8.94966 81.7935 9.2546C82.3687 9.55953 82.8183 9.99447 83.1439 10.5578C83.4811 10.0394 83.939 9.61571 84.5208 9.2883C85.101 8.96089 85.7357 8.79719 86.4216 8.79719C87.6299 8.79719 88.5919 9.15188 89.3059 9.86287H89.3109Z" fill="#105CE2"/>
<path d="M95.3852 6.35905C95.3852 6.79881 95.2199 7.16955 94.8877 7.46807C94.5571 7.76659 94.1356 7.91585 93.6232 7.91585C93.1108 7.91585 92.6728 7.76659 92.3422 7.46807C92.0117 7.16955 91.8447 6.79881 91.8447 6.35905M95.1042 8.89807V18.3431H92.1241V8.89807H95.1042Z" fill="#105CE2"/>
<path d="M17.2282 12.7496L21.729 5.18389H28.9191C29.7571 5.18389 30.2795 6.065 29.8596 6.76957L22.7869 18.6349C22.329 19.4036 21.1852 19.402 20.7274 18.6349L17.2266 12.7512L17.2282 12.7496Z" fill="#2A94F4"/>
<path d="M5.53884 5.18366H12.7289L17.2297 12.7493L13.7306 18.633C13.2727 19.4018 12.1306 19.4034 11.6711 18.633L4.59835 6.76774C4.17851 6.06317 4.70083 5.18206 5.53884 5.18206V5.18366Z" fill="#105CE2"/>
</svg>
