<svg width="16" height="12" viewBox="0 0 16 12" fill="none" xmlns="http://www.w3.org/2000/svg">
<path d="M4 3.33301H6.66667" stroke="#105CE2" stroke-linecap="round" stroke-linejoin="round"/>
<path d="M14.6667 5C14.6667 4.94867 14.6667 4.64467 14.6653 4.62333C14.6413 4.28933 14.3553 4.02333 13.9953 4.00133C13.9727 4 13.9453 4 13.8893 4H12.1547C10.964 4 10 4.89533 10 6C10 7.10467 10.9647 8 12.1533 8H13.8887C13.9447 8 13.972 8 13.9953 7.99867C14.3553 7.97667 14.642 7.71067 14.6653 7.37667C14.6667 7.35533 14.6667 7.05133 14.6667 7" stroke="#105CE2" stroke-linecap="round"/>
<path d="M12 6.66634C12.3682 6.66634 12.6666 6.36786 12.6666 5.99967C12.6666 5.63148 12.3682 5.33301 12 5.33301C11.6318 5.33301 11.3333 5.63148 11.3333 5.99967C11.3333 6.36786 11.6318 6.66634 12 6.66634Z" fill="#105CE2"/>
<path d="M8.66665 0.666504C11.1806 0.666504 12.438 0.666504 13.2186 1.44784C13.758 1.9865 13.9253 2.75184 13.9766 3.99984M6.66665 11.3332H8.66665C11.1806 11.3332 12.438 11.3332 13.2186 10.5518C13.758 10.0132 13.9253 9.24784 13.9766 7.99984M5.99998 0.666504C3.92398 0.673171 2.82331 0.738504 2.11465 1.44784C1.33331 2.2285 1.33331 3.48584 1.33331 5.99984C1.33331 8.51384 1.33331 9.77117 2.11465 10.5518C2.54998 10.9878 3.13331 11.1805 3.99998 11.2652" stroke="#105CE2" stroke-linecap="round"/>
</svg>
