<svg width="72" height="70" viewBox="0 0 72 70" fill="none" xmlns="http://www.w3.org/2000/svg">
<g filter="url(#filter0_d_1580_20678)">
<rect x="3" y="2" width="66" height="65" rx="32.5" fill="white" shape-rendering="crispEdges"/>
<path d="M36.0002 34.5C35.5057 34.5 35.0224 34.6466 34.6112 34.9213C34.2001 35.196 33.8797 35.5865 33.6905 36.0433C33.5012 36.5001 33.4517 37.0028 33.5482 37.4877C33.6447 37.9727 33.8828 38.4182 34.2324 38.7678C34.582 39.1174 35.0275 39.3555 35.5124 39.452C35.9974 39.5484 36.5001 39.4989 36.9569 39.3097C37.4137 39.1205 37.8041 38.8001 38.0788 38.3889C38.3535 37.9778 38.5002 37.4945 38.5002 37C38.5002 36.337 38.2368 35.7011 37.7679 35.2323C37.2991 34.7634 36.6632 34.5 36.0002 34.5ZM36.0002 37.8334C35.8353 37.8334 35.6742 37.7845 35.5372 37.6929C35.4001 37.6013 35.2933 37.4712 35.2303 37.3189C35.1672 37.1667 35.1507 36.9991 35.1828 36.8374C35.215 36.6758 35.2944 36.5273 35.4109 36.4108C35.5275 36.2942 35.6759 36.2149 35.8376 36.1827C35.9992 36.1505 36.1668 36.167 36.3191 36.2301C36.4713 36.2932 36.6015 36.4 36.6931 36.537C36.7846 36.6741 36.8335 36.8352 36.8335 37C36.8335 37.221 36.7457 37.433 36.5894 37.5893C36.4331 37.7456 36.2212 37.8334 36.0002 37.8334ZM35.4085 32.5917C35.4877 32.6676 35.5812 32.727 35.6835 32.7667C35.7832 32.8108 35.8911 32.8335 36.0002 32.8335C36.1092 32.8335 36.2171 32.8108 36.3168 32.7667C36.4191 32.727 36.5126 32.6676 36.5918 32.5917L38.5002 30.7167C38.6615 30.5553 38.7521 30.3365 38.7521 30.1084C38.7521 29.8802 38.6615 29.6614 38.5002 29.5C38.3388 29.3387 38.12 29.248 37.8918 29.248C37.6637 29.248 37.4448 29.3387 37.2835 29.5L36.8335 29.9917V27C36.8335 26.779 36.7457 26.567 36.5894 26.4108C36.4331 26.2545 36.2212 26.1667 36.0002 26.1667C35.7791 26.1667 35.5672 26.2545 35.4109 26.4108C35.2546 26.567 35.1668 26.779 35.1668 27V29.9917L34.7168 29.5C34.5555 29.3387 34.3367 29.248 34.1085 29.248C33.8803 29.248 33.6615 29.3387 33.5002 29.5C33.3388 29.6614 33.2482 29.8802 33.2482 30.1084C33.2482 30.3365 33.3388 30.5553 33.5002 30.7167L35.4085 32.5917ZM41.8335 37C41.8335 36.8352 41.7846 36.6741 41.6931 36.537C41.6015 36.4 41.4713 36.2932 41.3191 36.2301C41.1668 36.167 40.9992 36.1505 40.8376 36.1827C40.6759 36.2149 40.5275 36.2942 40.4109 36.4108C40.2944 36.5273 40.215 36.6758 40.1828 36.8374C40.1507 36.9991 40.1672 37.1667 40.2303 37.3189C40.2933 37.4712 40.4001 37.6013 40.5372 37.6929C40.6742 37.7845 40.8353 37.8334 41.0002 37.8334C41.2212 37.8334 41.4331 37.7456 41.5894 37.5893C41.7457 37.433 41.8335 37.221 41.8335 37ZM42.6668 31.1667H40.1668C39.9458 31.1667 39.7339 31.2545 39.5776 31.4108C39.4213 31.567 39.3335 31.779 39.3335 32C39.3335 32.221 39.4213 32.433 39.5776 32.5893C39.7339 32.7456 39.9458 32.8334 40.1668 32.8334H42.6668C42.8878 32.8334 43.0998 32.9212 43.2561 33.0774C43.4124 33.2337 43.5002 33.4457 43.5002 33.6667V40.3334C43.5002 40.5544 43.4124 40.7663 43.2561 40.9226C43.0998 41.0789 42.8878 41.1667 42.6668 41.1667H29.3335C29.1125 41.1667 28.9005 41.0789 28.7442 40.9226C28.588 40.7663 28.5002 40.5544 28.5002 40.3334V33.6667C28.5002 33.4457 28.588 33.2337 28.7442 33.0774C28.9005 32.9212 29.1125 32.8334 29.3335 32.8334H31.8335C32.0545 32.8334 32.2665 32.7456 32.4228 32.5893C32.579 32.433 32.6668 32.221 32.6668 32C32.6668 31.779 32.579 31.567 32.4228 31.4108C32.2665 31.2545 32.0545 31.1667 31.8335 31.1667H29.3335C28.6705 31.1667 28.0346 31.4301 27.5657 31.8989C27.0969 32.3678 26.8335 33.0036 26.8335 33.6667V40.3334C26.8335 40.9964 27.0969 41.6323 27.5657 42.1011C28.0346 42.57 28.6705 42.8334 29.3335 42.8334H42.6668C43.3299 42.8334 43.9658 42.57 44.4346 42.1011C44.9034 41.6323 45.1668 40.9964 45.1668 40.3334V33.6667C45.1668 33.0036 44.9034 32.3678 44.4346 31.8989C43.9658 31.4301 43.3299 31.1667 42.6668 31.1667ZM30.1668 37C30.1668 37.1648 30.2157 37.326 30.3073 37.463C30.3988 37.6 30.529 37.7068 30.6813 37.7699C30.8335 37.833 31.0011 37.8495 31.1627 37.8173C31.3244 37.7852 31.4729 37.7058 31.5894 37.5893C31.706 37.4727 31.7853 37.3242 31.8175 37.1626C31.8496 37.0009 31.8331 36.8334 31.7701 36.6811C31.707 36.5288 31.6002 36.3987 31.4631 36.3071C31.3261 36.2156 31.165 36.1667 31.0002 36.1667C30.7791 36.1667 30.5672 36.2545 30.4109 36.4108C30.2546 36.567 30.1668 36.779 30.1668 37Z" fill="#105CE2"/>
</g>
<defs>
<filter id="filter0_d_1580_20678" x="0.678571" y="0.258929" width="70.6429" height="69.6429" filterUnits="userSpaceOnUse" color-interpolation-filters="sRGB">
<feFlood flood-opacity="0" result="BackgroundImageFix"/>
<feColorMatrix in="SourceAlpha" type="matrix" values="0 0 0 0 0 0 0 0 0 0 0 0 0 0 0 0 0 0 127 0" result="hardAlpha"/>
<feMorphology radius="1.16071" operator="dilate" in="SourceAlpha" result="effect1_dropShadow_1580_20678"/>
<feOffset dy="0.580357"/>
<feGaussianBlur stdDeviation="0.580357"/>
<feComposite in2="hardAlpha" operator="out"/>
<feColorMatrix type="matrix" values="0 0 0 0 0.0392157 0 0 0 0 0.0392157 0 0 0 0 0.0392157 0 0 0 0.16 0"/>
<feBlend mode="normal" in2="BackgroundImageFix" result="effect1_dropShadow_1580_20678"/>
<feBlend mode="normal" in="SourceGraphic" in2="effect1_dropShadow_1580_20678" result="shape"/>
</filter>
</defs>
</svg>
